<?xml version="1.0" encoding="utf-8" standalone="no"?>
<!DOCTYPE svg PUBLIC "-//W3C//DTD SVG 1.1//EN"
  "http://www.w3.org/Graphics/SVG/1.1/DTD/svg11.dtd">
<svg xmlns:xlink="http://www.w3.org/1999/xlink" width="720pt" height="288pt" viewBox="0 0 720 288" xmlns="http://www.w3.org/2000/svg" version="1.1">
 <metadata>
  <rdf:RDF xmlns:dc="http://purl.org/dc/elements/1.1/" xmlns:cc="http://creativecommons.org/ns#" xmlns:rdf="http://www.w3.org/1999/02/22-rdf-syntax-ns#">
   <cc:Work>
    <dc:type rdf:resource="http://purl.org/dc/dcmitype/StillImage"/>
    <dc:date>2024-11-24T01:21:59.037284</dc:date>
    <dc:format>image/svg+xml</dc:format>
    <dc:creator>
     <cc:Agent>
      <dc:title>Matplotlib v3.7.2, https://matplotlib.org/</dc:title>
     </cc:Agent>
    </dc:creator>
   </cc:Work>
  </rdf:RDF>
 </metadata>
 <defs>
  <style type="text/css">*{stroke-linejoin: round; stroke-linecap: butt}</style>
 </defs>
 <g id="figure_1">
  <g id="patch_1">
   <path d="M 0 288 
L 720 288 
L 720 0 
L 0 0 
z
" style="fill: #ffffff"/>
  </g>
  <g id="axes_1">
   <g id="patch_2">
    <path d="M 49.84524 243.02976 
L 347.78 243.02976 
L 347.78 23.58924 
L 49.84524 23.58924 
z
" style="fill: #ffffff"/>
   </g>
   <g id="matplotlib.axis_1">
    <g id="xtick_1">
     <g id="line2d_1">
      <path d="M 63.387729 243.02976 
L 63.387729 23.58924 
" clip-path="url(#p6205fc8953)" style="fill: none; stroke-dasharray: 3.7,1.6; stroke-dashoffset: 0; stroke: #b0b0b0"/>
     </g>
     <g id="line2d_2">
      <defs>
       <path id="m7773ad4146" d="M 0 0 
L 0 3.5 
" style="stroke: #000000; stroke-width: 0.8"/>
      </defs>
      <g>
       <use xlink:href="#m7773ad4146" x="63.387729" y="243.02976" style="stroke: #000000; stroke-width: 0.8"/>
      </g>
     </g>
     <g id="text_1">
      <!-- 0.0 -->
      <g transform="translate(50.665229 262.18726) scale(0.16 -0.16)">
       <defs>
        <path id="DejaVuSans-30" d="M 2034 4250 
Q 1547 4250 1301 3770 
Q 1056 3291 1056 2328 
Q 1056 1369 1301 889 
Q 1547 409 2034 409 
Q 2525 409 2770 889 
Q 3016 1369 3016 2328 
Q 3016 3291 2770 3770 
Q 2525 4250 2034 4250 
z
M 2034 4750 
Q 2819 4750 3233 4129 
Q 3647 3509 3647 2328 
Q 3647 1150 3233 529 
Q 2819 -91 2034 -91 
Q 1250 -91 836 529 
Q 422 1150 422 2328 
Q 422 3509 836 4129 
Q 1250 4750 2034 4750 
z
" transform="scale(0.015625)"/>
        <path id="DejaVuSans-2e" d="M 684 794 
L 1344 794 
L 1344 0 
L 684 0 
L 684 794 
z
" transform="scale(0.015625)"/>
       </defs>
       <use xlink:href="#DejaVuSans-30"/>
       <use xlink:href="#DejaVuSans-2e" x="63.623047"/>
       <use xlink:href="#DejaVuSans-30" x="95.410156"/>
      </g>
     </g>
    </g>
    <g id="xtick_2">
     <g id="line2d_3">
      <path d="M 117.557685 243.02976 
L 117.557685 23.58924 
" clip-path="url(#p6205fc8953)" style="fill: none; stroke-dasharray: 3.7,1.6; stroke-dashoffset: 0; stroke: #b0b0b0"/>
     </g>
     <g id="line2d_4">
      <g>
       <use xlink:href="#m7773ad4146" x="117.557685" y="243.02976" style="stroke: #000000; stroke-width: 0.8"/>
      </g>
     </g>
     <g id="text_2">
      <!-- 0.2 -->
      <g transform="translate(104.835185 262.18726) scale(0.16 -0.16)">
       <defs>
        <path id="DejaVuSans-32" d="M 1228 531 
L 3431 531 
L 3431 0 
L 469 0 
L 469 531 
Q 828 903 1448 1529 
Q 2069 2156 2228 2338 
Q 2531 2678 2651 2914 
Q 2772 3150 2772 3378 
Q 2772 3750 2511 3984 
Q 2250 4219 1831 4219 
Q 1534 4219 1204 4116 
Q 875 4013 500 3803 
L 500 4441 
Q 881 4594 1212 4672 
Q 1544 4750 1819 4750 
Q 2544 4750 2975 4387 
Q 3406 4025 3406 3419 
Q 3406 3131 3298 2873 
Q 3191 2616 2906 2266 
Q 2828 2175 2409 1742 
Q 1991 1309 1228 531 
z
" transform="scale(0.015625)"/>
       </defs>
       <use xlink:href="#DejaVuSans-30"/>
       <use xlink:href="#DejaVuSans-2e" x="63.623047"/>
       <use xlink:href="#DejaVuSans-32" x="95.410156"/>
      </g>
     </g>
    </g>
    <g id="xtick_3">
     <g id="line2d_5">
      <path d="M 171.727642 243.02976 
L 171.727642 23.58924 
" clip-path="url(#p6205fc8953)" style="fill: none; stroke-dasharray: 3.7,1.6; stroke-dashoffset: 0; stroke: #b0b0b0"/>
     </g>
     <g id="line2d_6">
      <g>
       <use xlink:href="#m7773ad4146" x="171.727642" y="243.02976" style="stroke: #000000; stroke-width: 0.8"/>
      </g>
     </g>
     <g id="text_3">
      <!-- 0.4 -->
      <g transform="translate(159.005142 262.18726) scale(0.16 -0.16)">
       <defs>
        <path id="DejaVuSans-34" d="M 2419 4116 
L 825 1625 
L 2419 1625 
L 2419 4116 
z
M 2253 4666 
L 3047 4666 
L 3047 1625 
L 3713 1625 
L 3713 1100 
L 3047 1100 
L 3047 0 
L 2419 0 
L 2419 1100 
L 313 1100 
L 313 1709 
L 2253 4666 
z
" transform="scale(0.015625)"/>
       </defs>
       <use xlink:href="#DejaVuSans-30"/>
       <use xlink:href="#DejaVuSans-2e" x="63.623047"/>
       <use xlink:href="#DejaVuSans-34" x="95.410156"/>
      </g>
     </g>
    </g>
    <g id="xtick_4">
     <g id="line2d_7">
      <path d="M 225.897598 243.02976 
L 225.897598 23.58924 
" clip-path="url(#p6205fc8953)" style="fill: none; stroke-dasharray: 3.7,1.6; stroke-dashoffset: 0; stroke: #b0b0b0"/>
     </g>
     <g id="line2d_8">
      <g>
       <use xlink:href="#m7773ad4146" x="225.897598" y="243.02976" style="stroke: #000000; stroke-width: 0.8"/>
      </g>
     </g>
     <g id="text_4">
      <!-- 0.6 -->
      <g transform="translate(213.175098 262.18726) scale(0.16 -0.16)">
       <defs>
        <path id="DejaVuSans-36" d="M 2113 2584 
Q 1688 2584 1439 2293 
Q 1191 2003 1191 1497 
Q 1191 994 1439 701 
Q 1688 409 2113 409 
Q 2538 409 2786 701 
Q 3034 994 3034 1497 
Q 3034 2003 2786 2293 
Q 2538 2584 2113 2584 
z
M 3366 4563 
L 3366 3988 
Q 3128 4100 2886 4159 
Q 2644 4219 2406 4219 
Q 1781 4219 1451 3797 
Q 1122 3375 1075 2522 
Q 1259 2794 1537 2939 
Q 1816 3084 2150 3084 
Q 2853 3084 3261 2657 
Q 3669 2231 3669 1497 
Q 3669 778 3244 343 
Q 2819 -91 2113 -91 
Q 1303 -91 875 529 
Q 447 1150 447 2328 
Q 447 3434 972 4092 
Q 1497 4750 2381 4750 
Q 2619 4750 2861 4703 
Q 3103 4656 3366 4563 
z
" transform="scale(0.015625)"/>
       </defs>
       <use xlink:href="#DejaVuSans-30"/>
       <use xlink:href="#DejaVuSans-2e" x="63.623047"/>
       <use xlink:href="#DejaVuSans-36" x="95.410156"/>
      </g>
     </g>
    </g>
    <g id="xtick_5">
     <g id="line2d_9">
      <path d="M 280.067555 243.02976 
L 280.067555 23.58924 
" clip-path="url(#p6205fc8953)" style="fill: none; stroke-dasharray: 3.7,1.6; stroke-dashoffset: 0; stroke: #b0b0b0"/>
     </g>
     <g id="line2d_10">
      <g>
       <use xlink:href="#m7773ad4146" x="280.067555" y="243.02976" style="stroke: #000000; stroke-width: 0.8"/>
      </g>
     </g>
     <g id="text_5">
      <!-- 0.8 -->
      <g transform="translate(267.345055 262.18726) scale(0.16 -0.16)">
       <defs>
        <path id="DejaVuSans-38" d="M 2034 2216 
Q 1584 2216 1326 1975 
Q 1069 1734 1069 1313 
Q 1069 891 1326 650 
Q 1584 409 2034 409 
Q 2484 409 2743 651 
Q 3003 894 3003 1313 
Q 3003 1734 2745 1975 
Q 2488 2216 2034 2216 
z
M 1403 2484 
Q 997 2584 770 2862 
Q 544 3141 544 3541 
Q 544 4100 942 4425 
Q 1341 4750 2034 4750 
Q 2731 4750 3128 4425 
Q 3525 4100 3525 3541 
Q 3525 3141 3298 2862 
Q 3072 2584 2669 2484 
Q 3125 2378 3379 2068 
Q 3634 1759 3634 1313 
Q 3634 634 3220 271 
Q 2806 -91 2034 -91 
Q 1263 -91 848 271 
Q 434 634 434 1313 
Q 434 1759 690 2068 
Q 947 2378 1403 2484 
z
M 1172 3481 
Q 1172 3119 1398 2916 
Q 1625 2713 2034 2713 
Q 2441 2713 2670 2916 
Q 2900 3119 2900 3481 
Q 2900 3844 2670 4047 
Q 2441 4250 2034 4250 
Q 1625 4250 1398 4047 
Q 1172 3844 1172 3481 
z
" transform="scale(0.015625)"/>
       </defs>
       <use xlink:href="#DejaVuSans-30"/>
       <use xlink:href="#DejaVuSans-2e" x="63.623047"/>
       <use xlink:href="#DejaVuSans-38" x="95.410156"/>
      </g>
     </g>
    </g>
    <g id="xtick_6">
     <g id="line2d_11">
      <path d="M 334.237511 243.02976 
L 334.237511 23.58924 
" clip-path="url(#p6205fc8953)" style="fill: none; stroke-dasharray: 3.7,1.6; stroke-dashoffset: 0; stroke: #b0b0b0"/>
     </g>
     <g id="line2d_12">
      <g>
       <use xlink:href="#m7773ad4146" x="334.237511" y="243.02976" style="stroke: #000000; stroke-width: 0.8"/>
      </g>
     </g>
     <g id="text_6">
      <!-- 1.0 -->
      <g transform="translate(321.515011 262.18726) scale(0.16 -0.16)">
       <defs>
        <path id="DejaVuSans-31" d="M 794 531 
L 1825 531 
L 1825 4091 
L 703 3866 
L 703 4441 
L 1819 4666 
L 2450 4666 
L 2450 531 
L 3481 531 
L 3481 0 
L 794 0 
L 794 531 
z
" transform="scale(0.015625)"/>
       </defs>
       <use xlink:href="#DejaVuSans-31"/>
       <use xlink:href="#DejaVuSans-2e" x="63.623047"/>
       <use xlink:href="#DejaVuSans-30" x="95.410156"/>
      </g>
     </g>
    </g>
    <g id="text_7">
     <!-- Proportion of Queries -->
     <g transform="translate(113.85137 281.67226) scale(0.16 -0.16)">
      <defs>
       <path id="DejaVuSans-50" d="M 1259 4147 
L 1259 2394 
L 2053 2394 
Q 2494 2394 2734 2622 
Q 2975 2850 2975 3272 
Q 2975 3691 2734 3919 
Q 2494 4147 2053 4147 
L 1259 4147 
z
M 628 4666 
L 2053 4666 
Q 2838 4666 3239 4311 
Q 3641 3956 3641 3272 
Q 3641 2581 3239 2228 
Q 2838 1875 2053 1875 
L 1259 1875 
L 1259 0 
L 628 0 
L 628 4666 
z
" transform="scale(0.015625)"/>
       <path id="DejaVuSans-72" d="M 2631 2963 
Q 2534 3019 2420 3045 
Q 2306 3072 2169 3072 
Q 1681 3072 1420 2755 
Q 1159 2438 1159 1844 
L 1159 0 
L 581 0 
L 581 3500 
L 1159 3500 
L 1159 2956 
Q 1341 3275 1631 3429 
Q 1922 3584 2338 3584 
Q 2397 3584 2469 3576 
Q 2541 3569 2628 3553 
L 2631 2963 
z
" transform="scale(0.015625)"/>
       <path id="DejaVuSans-6f" d="M 1959 3097 
Q 1497 3097 1228 2736 
Q 959 2375 959 1747 
Q 959 1119 1226 758 
Q 1494 397 1959 397 
Q 2419 397 2687 759 
Q 2956 1122 2956 1747 
Q 2956 2369 2687 2733 
Q 2419 3097 1959 3097 
z
M 1959 3584 
Q 2709 3584 3137 3096 
Q 3566 2609 3566 1747 
Q 3566 888 3137 398 
Q 2709 -91 1959 -91 
Q 1206 -91 779 398 
Q 353 888 353 1747 
Q 353 2609 779 3096 
Q 1206 3584 1959 3584 
z
" transform="scale(0.015625)"/>
       <path id="DejaVuSans-70" d="M 1159 525 
L 1159 -1331 
L 581 -1331 
L 581 3500 
L 1159 3500 
L 1159 2969 
Q 1341 3281 1617 3432 
Q 1894 3584 2278 3584 
Q 2916 3584 3314 3078 
Q 3713 2572 3713 1747 
Q 3713 922 3314 415 
Q 2916 -91 2278 -91 
Q 1894 -91 1617 61 
Q 1341 213 1159 525 
z
M 3116 1747 
Q 3116 2381 2855 2742 
Q 2594 3103 2138 3103 
Q 1681 3103 1420 2742 
Q 1159 2381 1159 1747 
Q 1159 1113 1420 752 
Q 1681 391 2138 391 
Q 2594 391 2855 752 
Q 3116 1113 3116 1747 
z
" transform="scale(0.015625)"/>
       <path id="DejaVuSans-74" d="M 1172 4494 
L 1172 3500 
L 2356 3500 
L 2356 3053 
L 1172 3053 
L 1172 1153 
Q 1172 725 1289 603 
Q 1406 481 1766 481 
L 2356 481 
L 2356 0 
L 1766 0 
Q 1100 0 847 248 
Q 594 497 594 1153 
L 594 3053 
L 172 3053 
L 172 3500 
L 594 3500 
L 594 4494 
L 1172 4494 
z
" transform="scale(0.015625)"/>
       <path id="DejaVuSans-69" d="M 603 3500 
L 1178 3500 
L 1178 0 
L 603 0 
L 603 3500 
z
M 603 4863 
L 1178 4863 
L 1178 4134 
L 603 4134 
L 603 4863 
z
" transform="scale(0.015625)"/>
       <path id="DejaVuSans-6e" d="M 3513 2113 
L 3513 0 
L 2938 0 
L 2938 2094 
Q 2938 2591 2744 2837 
Q 2550 3084 2163 3084 
Q 1697 3084 1428 2787 
Q 1159 2491 1159 1978 
L 1159 0 
L 581 0 
L 581 3500 
L 1159 3500 
L 1159 2956 
Q 1366 3272 1645 3428 
Q 1925 3584 2291 3584 
Q 2894 3584 3203 3211 
Q 3513 2838 3513 2113 
z
" transform="scale(0.015625)"/>
       <path id="DejaVuSans-20" transform="scale(0.015625)"/>
       <path id="DejaVuSans-66" d="M 2375 4863 
L 2375 4384 
L 1825 4384 
Q 1516 4384 1395 4259 
Q 1275 4134 1275 3809 
L 1275 3500 
L 2222 3500 
L 2222 3053 
L 1275 3053 
L 1275 0 
L 697 0 
L 697 3053 
L 147 3053 
L 147 3500 
L 697 3500 
L 697 3744 
Q 697 4328 969 4595 
Q 1241 4863 1831 4863 
L 2375 4863 
z
" transform="scale(0.015625)"/>
       <path id="DejaVuSans-51" d="M 2522 4238 
Q 1834 4238 1429 3725 
Q 1025 3213 1025 2328 
Q 1025 1447 1429 934 
Q 1834 422 2522 422 
Q 3209 422 3611 934 
Q 4013 1447 4013 2328 
Q 4013 3213 3611 3725 
Q 3209 4238 2522 4238 
z
M 3406 84 
L 4238 -825 
L 3475 -825 
L 2784 -78 
Q 2681 -84 2626 -87 
Q 2572 -91 2522 -91 
Q 1538 -91 948 567 
Q 359 1225 359 2328 
Q 359 3434 948 4092 
Q 1538 4750 2522 4750 
Q 3503 4750 4090 4092 
Q 4678 3434 4678 2328 
Q 4678 1516 4351 937 
Q 4025 359 3406 84 
z
" transform="scale(0.015625)"/>
       <path id="DejaVuSans-75" d="M 544 1381 
L 544 3500 
L 1119 3500 
L 1119 1403 
Q 1119 906 1312 657 
Q 1506 409 1894 409 
Q 2359 409 2629 706 
Q 2900 1003 2900 1516 
L 2900 3500 
L 3475 3500 
L 3475 0 
L 2900 0 
L 2900 538 
Q 2691 219 2414 64 
Q 2138 -91 1772 -91 
Q 1169 -91 856 284 
Q 544 659 544 1381 
z
M 1991 3584 
L 1991 3584 
z
" transform="scale(0.015625)"/>
       <path id="DejaVuSans-65" d="M 3597 1894 
L 3597 1613 
L 953 1613 
Q 991 1019 1311 708 
Q 1631 397 2203 397 
Q 2534 397 2845 478 
Q 3156 559 3463 722 
L 3463 178 
Q 3153 47 2828 -22 
Q 2503 -91 2169 -91 
Q 1331 -91 842 396 
Q 353 884 353 1716 
Q 353 2575 817 3079 
Q 1281 3584 2069 3584 
Q 2775 3584 3186 3129 
Q 3597 2675 3597 1894 
z
M 3022 2063 
Q 3016 2534 2758 2815 
Q 2500 3097 2075 3097 
Q 1594 3097 1305 2825 
Q 1016 2553 972 2059 
L 3022 2063 
z
" transform="scale(0.015625)"/>
       <path id="DejaVuSans-73" d="M 2834 3397 
L 2834 2853 
Q 2591 2978 2328 3040 
Q 2066 3103 1784 3103 
Q 1356 3103 1142 2972 
Q 928 2841 928 2578 
Q 928 2378 1081 2264 
Q 1234 2150 1697 2047 
L 1894 2003 
Q 2506 1872 2764 1633 
Q 3022 1394 3022 966 
Q 3022 478 2636 193 
Q 2250 -91 1575 -91 
Q 1294 -91 989 -36 
Q 684 19 347 128 
L 347 722 
Q 666 556 975 473 
Q 1284 391 1588 391 
Q 1994 391 2212 530 
Q 2431 669 2431 922 
Q 2431 1156 2273 1281 
Q 2116 1406 1581 1522 
L 1381 1569 
Q 847 1681 609 1914 
Q 372 2147 372 2553 
Q 372 3047 722 3315 
Q 1072 3584 1716 3584 
Q 2034 3584 2315 3537 
Q 2597 3491 2834 3397 
z
" transform="scale(0.015625)"/>
      </defs>
      <use xlink:href="#DejaVuSans-50"/>
      <use xlink:href="#DejaVuSans-72" x="58.552734"/>
      <use xlink:href="#DejaVuSans-6f" x="97.416016"/>
      <use xlink:href="#DejaVuSans-70" x="158.597656"/>
      <use xlink:href="#DejaVuSans-6f" x="222.074219"/>
      <use xlink:href="#DejaVuSans-72" x="283.255859"/>
      <use xlink:href="#DejaVuSans-74" x="324.369141"/>
      <use xlink:href="#DejaVuSans-69" x="363.578125"/>
      <use xlink:href="#DejaVuSans-6f" x="391.361328"/>
      <use xlink:href="#DejaVuSans-6e" x="452.542969"/>
      <use xlink:href="#DejaVuSans-20" x="515.921875"/>
      <use xlink:href="#DejaVuSans-6f" x="547.708984"/>
      <use xlink:href="#DejaVuSans-66" x="608.890625"/>
      <use xlink:href="#DejaVuSans-20" x="644.095703"/>
      <use xlink:href="#DejaVuSans-51" x="675.882812"/>
      <use xlink:href="#DejaVuSans-75" x="754.59375"/>
      <use xlink:href="#DejaVuSans-65" x="817.972656"/>
      <use xlink:href="#DejaVuSans-72" x="879.496094"/>
      <use xlink:href="#DejaVuSans-69" x="920.609375"/>
      <use xlink:href="#DejaVuSans-65" x="948.392578"/>
      <use xlink:href="#DejaVuSans-73" x="1009.916016"/>
     </g>
    </g>
   </g>
   <g id="matplotlib.axis_2">
    <g id="ytick_1">
     <g id="line2d_13">
      <path d="M 49.84524 233.343794 
L 347.78 233.343794 
" clip-path="url(#p6205fc8953)" style="fill: none; stroke-dasharray: 3.7,1.6; stroke-dashoffset: 0; stroke: #b0b0b0"/>
     </g>
     <g id="line2d_14">
      <defs>
       <path id="m31902c7027" d="M 0 0 
L -3.5 0 
" style="stroke: #000000; stroke-width: 0.8"/>
      </defs>
      <g>
       <use xlink:href="#m31902c7027" x="49.84524" y="233.343794" style="stroke: #000000; stroke-width: 0.8"/>
      </g>
     </g>
     <g id="text_8">
      <!-- 0 -->
      <g transform="translate(32.66524 239.422544) scale(0.16 -0.16)">
       <use xlink:href="#DejaVuSans-30"/>
      </g>
     </g>
    </g>
    <g id="ytick_2">
     <g id="line2d_15">
      <path d="M 49.84524 179.109407 
L 347.78 179.109407 
" clip-path="url(#p6205fc8953)" style="fill: none; stroke-dasharray: 3.7,1.6; stroke-dashoffset: 0; stroke: #b0b0b0"/>
     </g>
     <g id="line2d_16">
      <g>
       <use xlink:href="#m31902c7027" x="49.84524" y="179.109407" style="stroke: #000000; stroke-width: 0.8"/>
      </g>
     </g>
     <g id="text_9">
      <!-- 10 -->
      <g transform="translate(22.48524 185.188157) scale(0.16 -0.16)">
       <use xlink:href="#DejaVuSans-31"/>
       <use xlink:href="#DejaVuSans-30" x="63.623047"/>
      </g>
     </g>
    </g>
    <g id="ytick_3">
     <g id="line2d_17">
      <path d="M 49.84524 124.87502 
L 347.78 124.87502 
" clip-path="url(#p6205fc8953)" style="fill: none; stroke-dasharray: 3.7,1.6; stroke-dashoffset: 0; stroke: #b0b0b0"/>
     </g>
     <g id="line2d_18">
      <g>
       <use xlink:href="#m31902c7027" x="49.84524" y="124.87502" style="stroke: #000000; stroke-width: 0.8"/>
      </g>
     </g>
     <g id="text_10">
      <!-- 20 -->
      <g transform="translate(22.48524 130.95377) scale(0.16 -0.16)">
       <use xlink:href="#DejaVuSans-32"/>
       <use xlink:href="#DejaVuSans-30" x="63.623047"/>
      </g>
     </g>
    </g>
    <g id="ytick_4">
     <g id="line2d_19">
      <path d="M 49.84524 70.640633 
L 347.78 70.640633 
" clip-path="url(#p6205fc8953)" style="fill: none; stroke-dasharray: 3.7,1.6; stroke-dashoffset: 0; stroke: #b0b0b0"/>
     </g>
     <g id="line2d_20">
      <g>
       <use xlink:href="#m31902c7027" x="49.84524" y="70.640633" style="stroke: #000000; stroke-width: 0.8"/>
      </g>
     </g>
     <g id="text_11">
      <!-- 30 -->
      <g transform="translate(22.48524 76.719383) scale(0.16 -0.16)">
       <defs>
        <path id="DejaVuSans-33" d="M 2597 2516 
Q 3050 2419 3304 2112 
Q 3559 1806 3559 1356 
Q 3559 666 3084 287 
Q 2609 -91 1734 -91 
Q 1441 -91 1130 -33 
Q 819 25 488 141 
L 488 750 
Q 750 597 1062 519 
Q 1375 441 1716 441 
Q 2309 441 2620 675 
Q 2931 909 2931 1356 
Q 2931 1769 2642 2001 
Q 2353 2234 1838 2234 
L 1294 2234 
L 1294 2753 
L 1863 2753 
Q 2328 2753 2575 2939 
Q 2822 3125 2822 3475 
Q 2822 3834 2567 4026 
Q 2313 4219 1838 4219 
Q 1578 4219 1281 4162 
Q 984 4106 628 3988 
L 628 4550 
Q 988 4650 1302 4700 
Q 1616 4750 1894 4750 
Q 2613 4750 3031 4423 
Q 3450 4097 3450 3541 
Q 3450 3153 3228 2886 
Q 3006 2619 2597 2516 
z
" transform="scale(0.015625)"/>
       </defs>
       <use xlink:href="#DejaVuSans-33"/>
       <use xlink:href="#DejaVuSans-30" x="63.623047"/>
      </g>
     </g>
    </g>
    <g id="text_12">
     <!-- Max Latency (s) -->
     <g transform="translate(15.15774 196.967) rotate(-90) scale(0.16 -0.16)">
      <defs>
       <path id="DejaVuSans-4d" d="M 628 4666 
L 1569 4666 
L 2759 1491 
L 3956 4666 
L 4897 4666 
L 4897 0 
L 4281 0 
L 4281 4097 
L 3078 897 
L 2444 897 
L 1241 4097 
L 1241 0 
L 628 0 
L 628 4666 
z
" transform="scale(0.015625)"/>
       <path id="DejaVuSans-61" d="M 2194 1759 
Q 1497 1759 1228 1600 
Q 959 1441 959 1056 
Q 959 750 1161 570 
Q 1363 391 1709 391 
Q 2188 391 2477 730 
Q 2766 1069 2766 1631 
L 2766 1759 
L 2194 1759 
z
M 3341 1997 
L 3341 0 
L 2766 0 
L 2766 531 
Q 2569 213 2275 61 
Q 1981 -91 1556 -91 
Q 1019 -91 701 211 
Q 384 513 384 1019 
Q 384 1609 779 1909 
Q 1175 2209 1959 2209 
L 2766 2209 
L 2766 2266 
Q 2766 2663 2505 2880 
Q 2244 3097 1772 3097 
Q 1472 3097 1187 3025 
Q 903 2953 641 2809 
L 641 3341 
Q 956 3463 1253 3523 
Q 1550 3584 1831 3584 
Q 2591 3584 2966 3190 
Q 3341 2797 3341 1997 
z
" transform="scale(0.015625)"/>
       <path id="DejaVuSans-78" d="M 3513 3500 
L 2247 1797 
L 3578 0 
L 2900 0 
L 1881 1375 
L 863 0 
L 184 0 
L 1544 1831 
L 300 3500 
L 978 3500 
L 1906 2253 
L 2834 3500 
L 3513 3500 
z
" transform="scale(0.015625)"/>
       <path id="DejaVuSans-4c" d="M 628 4666 
L 1259 4666 
L 1259 531 
L 3531 531 
L 3531 0 
L 628 0 
L 628 4666 
z
" transform="scale(0.015625)"/>
       <path id="DejaVuSans-63" d="M 3122 3366 
L 3122 2828 
Q 2878 2963 2633 3030 
Q 2388 3097 2138 3097 
Q 1578 3097 1268 2742 
Q 959 2388 959 1747 
Q 959 1106 1268 751 
Q 1578 397 2138 397 
Q 2388 397 2633 464 
Q 2878 531 3122 666 
L 3122 134 
Q 2881 22 2623 -34 
Q 2366 -91 2075 -91 
Q 1284 -91 818 406 
Q 353 903 353 1747 
Q 353 2603 823 3093 
Q 1294 3584 2113 3584 
Q 2378 3584 2631 3529 
Q 2884 3475 3122 3366 
z
" transform="scale(0.015625)"/>
       <path id="DejaVuSans-79" d="M 2059 -325 
Q 1816 -950 1584 -1140 
Q 1353 -1331 966 -1331 
L 506 -1331 
L 506 -850 
L 844 -850 
Q 1081 -850 1212 -737 
Q 1344 -625 1503 -206 
L 1606 56 
L 191 3500 
L 800 3500 
L 1894 763 
L 2988 3500 
L 3597 3500 
L 2059 -325 
z
" transform="scale(0.015625)"/>
       <path id="DejaVuSans-28" d="M 1984 4856 
Q 1566 4138 1362 3434 
Q 1159 2731 1159 2009 
Q 1159 1288 1364 580 
Q 1569 -128 1984 -844 
L 1484 -844 
Q 1016 -109 783 600 
Q 550 1309 550 2009 
Q 550 2706 781 3412 
Q 1013 4119 1484 4856 
L 1984 4856 
z
" transform="scale(0.015625)"/>
       <path id="DejaVuSans-29" d="M 513 4856 
L 1013 4856 
Q 1481 4119 1714 3412 
Q 1947 2706 1947 2009 
Q 1947 1309 1714 600 
Q 1481 -109 1013 -844 
L 513 -844 
Q 928 -128 1133 580 
Q 1338 1288 1338 2009 
Q 1338 2731 1133 3434 
Q 928 4138 513 4856 
z
" transform="scale(0.015625)"/>
      </defs>
      <use xlink:href="#DejaVuSans-4d"/>
      <use xlink:href="#DejaVuSans-61" x="86.279297"/>
      <use xlink:href="#DejaVuSans-78" x="147.558594"/>
      <use xlink:href="#DejaVuSans-20" x="206.738281"/>
      <use xlink:href="#DejaVuSans-4c" x="238.525391"/>
      <use xlink:href="#DejaVuSans-61" x="294.238281"/>
      <use xlink:href="#DejaVuSans-74" x="355.517578"/>
      <use xlink:href="#DejaVuSans-65" x="394.726562"/>
      <use xlink:href="#DejaVuSans-6e" x="456.25"/>
      <use xlink:href="#DejaVuSans-63" x="519.628906"/>
      <use xlink:href="#DejaVuSans-79" x="574.609375"/>
      <use xlink:href="#DejaVuSans-20" x="633.789062"/>
      <use xlink:href="#DejaVuSans-28" x="665.576172"/>
      <use xlink:href="#DejaVuSans-73" x="704.589844"/>
      <use xlink:href="#DejaVuSans-29" x="756.689453"/>
     </g>
    </g>
   </g>
   <g id="line2d_21">
    <path d="M 63.387729 233.055191 
L 82.773705 232.712523 
L 83.32759 232.22681 
L 83.881475 232.132349 
L 84.43536 231.529567 
L 88.312556 231.232058 
L 89.420326 231.120505 
L 89.974211 230.172053 
L 90.528096 230.130797 
L 91.081981 229.926403 
L 92.743636 229.848357 
L 93.851406 229.449103 
L 95.513061 229.358255 
L 96.066946 228.611588 
L 97.174716 228.308098 
L 98.836371 228.113462 
L 99.390256 227.641493 
L 101.051911 227.611026 
L 101.605796 227.403833 
L 102.159681 227.402298 
L 103.267452 227.277775 
L 108.252417 226.859607 
L 109.360187 226.694203 
L 111.575727 226.569178 
L 112.683497 226.301236 
L 117.668462 225.944211 
L 120.991773 225.37046 
L 123.207313 225.284245 
L 123.761198 225.082746 
L 126.530623 224.685795 
L 128.192278 224.118833 
L 129.300048 224.077041 
L 129.853933 223.802302 
L 130.961703 223.503551 
L 132.623358 223.387359 
L 134.285013 223.08172 
L 137.054439 222.920336 
L 138.162209 222.805081 
L 140.377749 222.679828 
L 141.485519 222.539556 
L 145.916599 222.243718 
L 149.239909 222.14449 
L 155.332645 221.378505 
L 156.9943 221.198589 
L 157.548185 221.103652 
L 158.10207 220.894942 
L 160.871495 220.822685 
L 161.42538 220.676718 
L 167.518116 220.447426 
L 180.811356 219.643912 
L 181.365241 218.975148 
L 183.580782 218.395924 
L 185.796322 218.121367 
L 186.904092 217.581817 
L 188.011862 217.435026 
L 188.565747 217.288381 
L 190.781287 217.177347 
L 191.335172 216.789544 
L 192.442942 216.557285 
L 193.550712 216.39736 
L 194.104597 216.36361 
L 194.658482 215.99903 
L 195.212367 215.435231 
L 195.766252 215.403276 
L 196.874022 214.888782 
L 197.427907 214.164178 
L 197.981792 213.862536 
L 198.535677 213.708895 
L 199.643448 213.67713 
L 200.751218 213.510865 
L 201.305103 213.134285 
L 202.412873 212.953779 
L 202.966758 212.542478 
L 203.520643 209.246247 
L 205.182298 208.570903 
L 205.736183 208.514852 
L 206.843953 208.146688 
L 207.397838 207.490881 
L 207.951723 207.2274 
L 208.505608 206.777068 
L 209.059493 206.731469 
L 209.613378 206.394689 
L 210.167263 206.354632 
L 210.721148 206.150238 
L 211.275033 205.433112 
L 212.936688 205.220314 
L 214.598343 205.036964 
L 215.152229 204.673799 
L 215.706114 204.138191 
L 216.813884 203.96066 
L 219.583309 203.372527 
L 220.137194 203.081506 
L 221.244964 203.035719 
L 221.798849 202.907141 
L 222.352734 202.486222 
L 224.014389 202.33762 
L 225.676044 201.873213 
L 228.445469 201.243295 
L 229.553239 200.767132 
L 230.107124 200.500578 
L 231.214895 200.287279 
L 232.322665 199.993177 
L 232.87655 199.946992 
L 233.430435 199.724163 
L 234.538205 199.649536 
L 235.645975 199.562109 
L 236.19986 199.230305 
L 236.753745 199.173907 
L 237.861515 198.683086 
L 241.73871 197.843234 
L 242.292595 197.837983 
L 242.84648 197.544939 
L 243.400365 197.480422 
L 243.95425 196.880579 
L 245.06202 196.734742 
L 245.615905 196.657859 
L 246.723675 196.077849 
L 247.831446 195.567595 
L 248.939216 195.548479 
L 250.600871 195.167332 
L 251.154756 194.872495 
L 251.708641 194.77995 
L 252.262526 194.390249 
L 253.924181 194.090832 
L 254.478066 194.080315 
L 255.031951 193.910802 
L 255.585836 193.863087 
L 256.139721 193.318822 
L 256.693606 193.102482 
L 260.570801 192.624751 
L 261.124686 192.618391 
L 261.678571 192.30498 
L 262.232456 192.172508 
L 262.786341 192.165489 
L 263.340227 191.763021 
L 263.894112 191.572827 
L 264.447997 191.561959 
L 265.555767 190.685277 
L 267.217422 190.086236 
L 269.432962 189.964235 
L 271.094617 189.584486 
L 272.756272 189.527876 
L 273.864042 189.207492 
L 274.971812 189.115076 
L 276.079582 188.804888 
L 276.633467 188.762732 
L 277.187352 188.179501 
L 277.741237 188.154151 
L 278.849007 187.432921 
L 279.402893 187.406514 
L 279.956778 187.179033 
L 280.510663 186.700796 
L 281.618433 186.595212 
L 283.280088 186.331198 
L 286.603398 185.214425 
L 288.265053 184.627263 
L 289.926708 184.529711 
L 292.142248 184.265005 
L 292.696133 183.359393 
L 293.250018 182.890223 
L 293.803903 180.898839 
L 294.357788 180.605056 
L 294.911673 180.565535 
L 295.465559 180.360529 
L 296.019444 179.629449 
L 297.127214 177.707248 
L 297.681099 177.377702 
L 298.234984 176.797655 
L 298.788869 176.618352 
L 299.342754 174.673832 
L 299.896639 174.250737 
L 300.450524 173.680583 
L 302.112179 170.286775 
L 302.666064 164.390167 
L 303.773834 164.025756 
L 304.881604 160.235314 
L 306.543259 159.288218 
L 307.097144 157.012587 
L 307.651029 156.227555 
L 308.204914 155.906346 
L 308.758799 155.09229 
L 309.312684 153.878936 
L 309.866569 151.439261 
L 310.420454 151.251567 
L 310.974339 149.900594 
L 311.528224 149.238343 
L 312.08211 148.949431 
L 312.635995 148.496558 
L 313.18988 146.709557 
L 313.743765 143.35759 
L 314.29765 140.919468 
L 314.851535 137.799687 
L 315.40542 131.547052 
L 315.959305 128.341119 
L 316.51319 127.503467 
L 317.067075 125.262422 
L 317.62096 125.090368 
L 318.174845 124.24583 
L 318.72873 123.090616 
L 319.282615 118.899425 
L 320.390385 114.708524 
L 320.94427 114.285221 
L 321.498155 111.905749 
L 322.05204 110.107946 
L 322.605925 109.529455 
L 323.15981 106.963864 
L 323.713695 106.14711 
L 324.26758 101.96116 
L 324.821465 101.939867 
L 326.48312 100.113789 
L 327.037005 97.716652 
L 327.59089 97.378229 
L 328.144776 95.749462 
L 328.698661 94.611217 
L 329.252546 92.964141 
L 329.806431 84.566863 
L 330.360316 83.542788 
L 330.914201 82.832728 
L 331.468086 81.113391 
L 332.021971 75.931608 
L 332.575856 65.308796 
L 333.129741 65.23021 
L 333.683626 53.016806 
L 334.237511 37.477341 
L 334.237511 37.477341 
" clip-path="url(#p6205fc8953)" style="fill: none; stroke: #1f77b4; stroke-width: 3; stroke-linecap: square"/>
   </g>
   <g id="line2d_22">
    <path d="M 63.387729 232.441692 
L 64.495499 232.425911 
L 65.603269 232.240401 
L 80.00428 231.847745 
L 82.773705 231.705666 
L 83.32759 231.402252 
L 84.43536 228.176347 
L 84.989245 228.107736 
L 85.54313 227.805369 
L 86.097016 227.24414 
L 87.204786 227.079154 
L 87.758671 227.01187 
L 88.866441 226.253722 
L 89.420326 226.250414 
L 90.528096 226.098384 
L 91.635866 225.866943 
L 92.189751 225.692178 
L 95.513061 225.470887 
L 96.066946 225.153751 
L 101.051911 224.468406 
L 101.605796 224.319745 
L 102.159681 223.86436 
L 103.267452 223.754405 
L 105.482992 223.441474 
L 106.036877 222.859312 
L 108.806302 222.45514 
L 111.575727 222.145407 
L 120.991773 221.30069 
L 122.653428 221.191548 
L 123.207313 220.980821 
L 124.315083 220.858278 
L 126.530623 220.786342 
L 127.084508 220.409576 
L 127.638393 220.207954 
L 130.407818 219.941165 
L 131.515588 219.890462 
L 133.731128 219.509681 
L 134.285013 219.482792 
L 134.838899 219.14868 
L 137.608324 218.911199 
L 139.823864 218.423827 
L 140.377749 218.177836 
L 140.931634 218.087482 
L 141.485519 217.522392 
L 142.039404 215.824855 
L 142.593289 215.682751 
L 143.147174 214.994215 
L 143.701059 213.273388 
L 144.254944 212.134797 
L 144.808829 212.10826 
L 145.362714 209.73345 
L 146.470484 208.151455 
L 147.024369 208.053779 
L 147.578254 207.625353 
L 148.132139 206.554638 
L 148.686024 206.472141 
L 149.239909 206.066881 
L 149.793794 206.028868 
L 150.901565 205.46485 
L 151.45545 205.444778 
L 153.117105 204.505174 
L 154.224875 204.142227 
L 154.77876 203.888837 
L 158.10207 203.133879 
L 158.655955 202.664242 
L 163.64092 201.653301 
L 164.194805 201.338103 
L 165.302575 201.235497 
L 166.964231 201.135212 
L 167.518116 201.126335 
L 169.179771 200.800179 
L 169.733656 200.728325 
L 170.841426 200.30521 
L 171.395311 200.154839 
L 171.949196 199.863741 
L 173.610851 199.520405 
L 175.826391 199.417447 
L 182.473011 198.78024 
L 183.580782 198.637554 
L 185.242437 198.553828 
L 185.796322 198.356172 
L 187.457977 198.211615 
L 188.011862 197.697122 
L 189.673517 197.583542 
L 190.227402 197.447464 
L 191.335172 197.320067 
L 194.658482 197.007329 
L 195.766252 196.544332 
L 206.843953 195.70128 
L 207.951723 195.403575 
L 209.059493 195.359955 
L 210.167263 195.234337 
L 213.490573 194.547698 
L 214.044458 194.366829 
L 215.152229 194.274796 
L 215.706114 194.046603 
L 216.813884 193.990363 
L 217.367769 193.817788 
L 219.029424 193.7505 
L 219.583309 193.538988 
L 223.460504 193.063057 
L 228.445469 192.478402 
L 228.999354 192.171727 
L 231.214895 191.816357 
L 241.184825 190.796751 
L 244.508135 190.650794 
L 246.16979 190.473328 
L 249.493101 190.154279 
L 250.046986 189.983087 
L 250.600871 189.965457 
L 251.154756 189.796283 
L 255.031951 189.371609 
L 255.585836 189.04885 
L 256.693606 188.887802 
L 257.801376 188.723489 
L 258.355261 188.516867 
L 259.463031 188.353495 
L 261.124686 187.98662 
L 261.678571 187.662312 
L 266.109652 186.416726 
L 266.663537 186.068927 
L 267.771307 185.999994 
L 268.325192 185.922524 
L 268.879077 185.401985 
L 269.986847 185.106049 
L 270.540732 184.88839 
L 271.648502 184.627312 
L 272.756272 184.409879 
L 274.417927 184.32368 
L 274.971812 183.941204 
L 275.525697 183.69494 
L 276.079582 183.223264 
L 276.633467 182.912231 
L 277.187352 182.909241 
L 277.741237 182.782573 
L 278.849007 182.249713 
L 279.402893 182.224153 
L 279.956778 182.011576 
L 281.064548 181.951039 
L 281.618433 181.524068 
L 282.172318 181.429072 
L 282.726203 180.962569 
L 283.833973 180.881672 
L 284.387858 180.482384 
L 284.941743 179.605224 
L 285.495628 179.536979 
L 286.049513 179.296406 
L 286.603398 178.149194 
L 288.818938 177.591765 
L 291.034478 176.991011 
L 293.250018 176.717642 
L 293.803903 176.716239 
L 294.357788 176.581228 
L 294.911673 176.123718 
L 295.465559 175.971151 
L 296.019444 175.963618 
L 296.573329 175.462931 
L 297.127214 175.44697 
L 297.681099 175.297033 
L 298.234984 174.633937 
L 299.342754 174.468419 
L 299.896639 174.160535 
L 301.004409 174.05101 
L 301.558294 173.680085 
L 302.666064 173.484862 
L 303.219949 172.132186 
L 303.773834 171.930818 
L 304.327719 170.998509 
L 304.881604 170.754823 
L 305.435489 170.679707 
L 305.989374 170.327851 
L 306.543259 169.093123 
L 307.097144 166.765362 
L 307.651029 166.372716 
L 308.204914 166.361766 
L 308.758799 163.246494 
L 309.312684 155.625939 
L 309.866569 151.565801 
L 310.420454 149.013226 
L 310.974339 141.64254 
L 313.18988 141.384276 
L 313.743765 141.351389 
L 314.29765 141.137716 
L 314.851535 139.330897 
L 315.959305 139.249936 
L 316.51319 138.689868 
L 317.067075 134.719461 
L 317.62096 134.385838 
L 318.174845 133.847622 
L 318.72873 133.134766 
L 319.282615 130.447484 
L 319.8365 130.167933 
L 320.94427 125.035266 
L 322.05204 124.371106 
L 322.605925 123.915945 
L 323.15981 123.06883 
L 323.713695 122.917647 
L 324.26758 121.925461 
L 324.821465 121.867811 
L 325.37535 117.557462 
L 325.929235 115.867405 
L 326.48312 115.763838 
L 327.59089 112.759518 
L 328.144776 112.756269 
L 328.698661 108.065111 
L 329.252546 104.95934 
L 329.806431 104.855291 
L 331.468086 101.781453 
L 332.021971 98.035409 
L 332.575856 92.591265 
L 333.129741 88.458962 
L 333.683626 81.092781 
L 334.237511 33.563809 
L 334.237511 33.563809 
" clip-path="url(#p6205fc8953)" style="fill: none; stroke: #ff7f0e; stroke-width: 3; stroke-linecap: square"/>
   </g>
   <g id="patch_3">
    <path d="M 49.84524 243.02976 
L 49.84524 23.58924 
" style="fill: none; stroke: #000000; stroke-width: 0.8; stroke-linejoin: miter; stroke-linecap: square"/>
   </g>
   <g id="patch_4">
    <path d="M 347.78 243.02976 
L 347.78 23.58924 
" style="fill: none; stroke: #000000; stroke-width: 0.8; stroke-linejoin: miter; stroke-linecap: square"/>
   </g>
   <g id="patch_5">
    <path d="M 49.84524 243.02976 
L 347.78 243.02976 
" style="fill: none; stroke: #000000; stroke-width: 0.8; stroke-linejoin: miter; stroke-linecap: square"/>
   </g>
   <g id="patch_6">
    <path d="M 49.84524 23.58924 
L 347.78 23.58924 
" style="fill: none; stroke: #000000; stroke-width: 0.8; stroke-linejoin: miter; stroke-linecap: square"/>
   </g>
   <g id="text_13">
    <!-- Query Latency CDF -->
    <g transform="translate(105.97012 17.58924) scale(0.192 -0.192)">
     <defs>
      <path id="DejaVuSans-43" d="M 4122 4306 
L 4122 3641 
Q 3803 3938 3442 4084 
Q 3081 4231 2675 4231 
Q 1875 4231 1450 3742 
Q 1025 3253 1025 2328 
Q 1025 1406 1450 917 
Q 1875 428 2675 428 
Q 3081 428 3442 575 
Q 3803 722 4122 1019 
L 4122 359 
Q 3791 134 3420 21 
Q 3050 -91 2638 -91 
Q 1578 -91 968 557 
Q 359 1206 359 2328 
Q 359 3453 968 4101 
Q 1578 4750 2638 4750 
Q 3056 4750 3426 4639 
Q 3797 4528 4122 4306 
z
" transform="scale(0.015625)"/>
      <path id="DejaVuSans-44" d="M 1259 4147 
L 1259 519 
L 2022 519 
Q 2988 519 3436 956 
Q 3884 1394 3884 2338 
Q 3884 3275 3436 3711 
Q 2988 4147 2022 4147 
L 1259 4147 
z
M 628 4666 
L 1925 4666 
Q 3281 4666 3915 4102 
Q 4550 3538 4550 2338 
Q 4550 1131 3912 565 
Q 3275 0 1925 0 
L 628 0 
L 628 4666 
z
" transform="scale(0.015625)"/>
      <path id="DejaVuSans-46" d="M 628 4666 
L 3309 4666 
L 3309 4134 
L 1259 4134 
L 1259 2759 
L 3109 2759 
L 3109 2228 
L 1259 2228 
L 1259 0 
L 628 0 
L 628 4666 
z
" transform="scale(0.015625)"/>
     </defs>
     <use xlink:href="#DejaVuSans-51"/>
     <use xlink:href="#DejaVuSans-75" x="78.710938"/>
     <use xlink:href="#DejaVuSans-65" x="142.089844"/>
     <use xlink:href="#DejaVuSans-72" x="203.613281"/>
     <use xlink:href="#DejaVuSans-79" x="244.726562"/>
     <use xlink:href="#DejaVuSans-20" x="303.90625"/>
     <use xlink:href="#DejaVuSans-4c" x="335.693359"/>
     <use xlink:href="#DejaVuSans-61" x="391.40625"/>
     <use xlink:href="#DejaVuSans-74" x="452.685547"/>
     <use xlink:href="#DejaVuSans-65" x="491.894531"/>
     <use xlink:href="#DejaVuSans-6e" x="553.417969"/>
     <use xlink:href="#DejaVuSans-63" x="616.796875"/>
     <use xlink:href="#DejaVuSans-79" x="671.777344"/>
     <use xlink:href="#DejaVuSans-20" x="730.957031"/>
     <use xlink:href="#DejaVuSans-43" x="762.744141"/>
     <use xlink:href="#DejaVuSans-44" x="832.568359"/>
     <use xlink:href="#DejaVuSans-46" x="909.570312"/>
    </g>
   </g>
   <g id="legend_1">
    <g id="patch_7">
     <path d="M 61.04524 83.35924 
L 203.59774 83.35924 
Q 206.79774 83.35924 206.79774 80.15924 
L 206.79774 34.78924 
Q 206.79774 31.58924 203.59774 31.58924 
L 61.04524 31.58924 
Q 57.84524 31.58924 57.84524 34.78924 
L 57.84524 80.15924 
Q 57.84524 83.35924 61.04524 83.35924 
z
" style="fill: #ffffff; opacity: 0.8; stroke: #cccccc; stroke-linejoin: miter"/>
    </g>
    <g id="line2d_23">
     <path d="M 64.24524 44.54674 
L 80.24524 44.54674 
L 96.24524 44.54674 
" style="fill: none; stroke: #1f77b4; stroke-width: 3; stroke-linecap: square"/>
    </g>
    <g id="text_14">
     <!-- PostgreSQL -->
     <g transform="translate(109.04524 50.14674) scale(0.16 -0.16)">
      <defs>
       <path id="DejaVuSans-67" d="M 2906 1791 
Q 2906 2416 2648 2759 
Q 2391 3103 1925 3103 
Q 1463 3103 1205 2759 
Q 947 2416 947 1791 
Q 947 1169 1205 825 
Q 1463 481 1925 481 
Q 2391 481 2648 825 
Q 2906 1169 2906 1791 
z
M 3481 434 
Q 3481 -459 3084 -895 
Q 2688 -1331 1869 -1331 
Q 1566 -1331 1297 -1286 
Q 1028 -1241 775 -1147 
L 775 -588 
Q 1028 -725 1275 -790 
Q 1522 -856 1778 -856 
Q 2344 -856 2625 -561 
Q 2906 -266 2906 331 
L 2906 616 
Q 2728 306 2450 153 
Q 2172 0 1784 0 
Q 1141 0 747 490 
Q 353 981 353 1791 
Q 353 2603 747 3093 
Q 1141 3584 1784 3584 
Q 2172 3584 2450 3431 
Q 2728 3278 2906 2969 
L 2906 3500 
L 3481 3500 
L 3481 434 
z
" transform="scale(0.015625)"/>
       <path id="DejaVuSans-53" d="M 3425 4513 
L 3425 3897 
Q 3066 4069 2747 4153 
Q 2428 4238 2131 4238 
Q 1616 4238 1336 4038 
Q 1056 3838 1056 3469 
Q 1056 3159 1242 3001 
Q 1428 2844 1947 2747 
L 2328 2669 
Q 3034 2534 3370 2195 
Q 3706 1856 3706 1288 
Q 3706 609 3251 259 
Q 2797 -91 1919 -91 
Q 1588 -91 1214 -16 
Q 841 59 441 206 
L 441 856 
Q 825 641 1194 531 
Q 1563 422 1919 422 
Q 2459 422 2753 634 
Q 3047 847 3047 1241 
Q 3047 1584 2836 1778 
Q 2625 1972 2144 2069 
L 1759 2144 
Q 1053 2284 737 2584 
Q 422 2884 422 3419 
Q 422 4038 858 4394 
Q 1294 4750 2059 4750 
Q 2388 4750 2728 4690 
Q 3069 4631 3425 4513 
z
" transform="scale(0.015625)"/>
      </defs>
      <use xlink:href="#DejaVuSans-50"/>
      <use xlink:href="#DejaVuSans-6f" x="56.677734"/>
      <use xlink:href="#DejaVuSans-73" x="117.859375"/>
      <use xlink:href="#DejaVuSans-74" x="169.958984"/>
      <use xlink:href="#DejaVuSans-67" x="209.167969"/>
      <use xlink:href="#DejaVuSans-72" x="272.644531"/>
      <use xlink:href="#DejaVuSans-65" x="311.507812"/>
      <use xlink:href="#DejaVuSans-53" x="373.03125"/>
      <use xlink:href="#DejaVuSans-51" x="436.507812"/>
      <use xlink:href="#DejaVuSans-4c" x="515.21875"/>
     </g>
    </g>
    <g id="line2d_24">
     <path d="M 64.24524 68.03174 
L 80.24524 68.03174 
L 96.24524 68.03174 
" style="fill: none; stroke: #ff7f0e; stroke-width: 3; stroke-linecap: square"/>
    </g>
    <g id="text_15">
     <!-- Bao -->
     <g transform="translate(109.04524 73.63174) scale(0.16 -0.16)">
      <defs>
       <path id="DejaVuSans-42" d="M 1259 2228 
L 1259 519 
L 2272 519 
Q 2781 519 3026 730 
Q 3272 941 3272 1375 
Q 3272 1813 3026 2020 
Q 2781 2228 2272 2228 
L 1259 2228 
z
M 1259 4147 
L 1259 2741 
L 2194 2741 
Q 2656 2741 2882 2914 
Q 3109 3088 3109 3444 
Q 3109 3797 2882 3972 
Q 2656 4147 2194 4147 
L 1259 4147 
z
M 628 4666 
L 2241 4666 
Q 2963 4666 3353 4366 
Q 3744 4066 3744 3513 
Q 3744 3084 3544 2831 
Q 3344 2578 2956 2516 
Q 3422 2416 3680 2098 
Q 3938 1781 3938 1306 
Q 3938 681 3513 340 
Q 3088 0 2303 0 
L 628 0 
L 628 4666 
z
" transform="scale(0.015625)"/>
      </defs>
      <use xlink:href="#DejaVuSans-42"/>
      <use xlink:href="#DejaVuSans-61" x="68.603516"/>
      <use xlink:href="#DejaVuSans-6f" x="129.882812"/>
     </g>
    </g>
   </g>
  </g>
  <g id="axes_2">
   <g id="patch_8">
    <path d="M 419.065 243.02976 
L 716.99976 243.02976 
L 716.99976 23.58924 
L 419.065 23.58924 
z
" style="fill: #ffffff"/>
   </g>
   <g id="matplotlib.axis_3">
    <g id="xtick_7">
     <g id="line2d_25">
      <path d="M 432.607489 243.02976 
L 432.607489 23.58924 
" clip-path="url(#p7be613e0a4)" style="fill: none; stroke-dasharray: 3.7,1.6; stroke-dashoffset: 0; stroke: #b0b0b0"/>
     </g>
     <g id="line2d_26">
      <g>
       <use xlink:href="#m7773ad4146" x="432.607489" y="243.02976" style="stroke: #000000; stroke-width: 0.8"/>
      </g>
     </g>
     <g id="text_16">
      <!-- 0.0 -->
      <g transform="translate(419.884989 262.18726) scale(0.16 -0.16)">
       <use xlink:href="#DejaVuSans-30"/>
       <use xlink:href="#DejaVuSans-2e" x="63.623047"/>
       <use xlink:href="#DejaVuSans-30" x="95.410156"/>
      </g>
     </g>
    </g>
    <g id="xtick_8">
     <g id="line2d_27">
      <path d="M 486.777445 243.02976 
L 486.777445 23.58924 
" clip-path="url(#p7be613e0a4)" style="fill: none; stroke-dasharray: 3.7,1.6; stroke-dashoffset: 0; stroke: #b0b0b0"/>
     </g>
     <g id="line2d_28">
      <g>
       <use xlink:href="#m7773ad4146" x="486.777445" y="243.02976" style="stroke: #000000; stroke-width: 0.8"/>
      </g>
     </g>
     <g id="text_17">
      <!-- 0.2 -->
      <g transform="translate(474.054945 262.18726) scale(0.16 -0.16)">
       <use xlink:href="#DejaVuSans-30"/>
       <use xlink:href="#DejaVuSans-2e" x="63.623047"/>
       <use xlink:href="#DejaVuSans-32" x="95.410156"/>
      </g>
     </g>
    </g>
    <g id="xtick_9">
     <g id="line2d_29">
      <path d="M 540.947402 243.02976 
L 540.947402 23.58924 
" clip-path="url(#p7be613e0a4)" style="fill: none; stroke-dasharray: 3.7,1.6; stroke-dashoffset: 0; stroke: #b0b0b0"/>
     </g>
     <g id="line2d_30">
      <g>
       <use xlink:href="#m7773ad4146" x="540.947402" y="243.02976" style="stroke: #000000; stroke-width: 0.8"/>
      </g>
     </g>
     <g id="text_18">
      <!-- 0.4 -->
      <g transform="translate(528.224902 262.18726) scale(0.16 -0.16)">
       <use xlink:href="#DejaVuSans-30"/>
       <use xlink:href="#DejaVuSans-2e" x="63.623047"/>
       <use xlink:href="#DejaVuSans-34" x="95.410156"/>
      </g>
     </g>
    </g>
    <g id="xtick_10">
     <g id="line2d_31">
      <path d="M 595.117358 243.02976 
L 595.117358 23.58924 
" clip-path="url(#p7be613e0a4)" style="fill: none; stroke-dasharray: 3.7,1.6; stroke-dashoffset: 0; stroke: #b0b0b0"/>
     </g>
     <g id="line2d_32">
      <g>
       <use xlink:href="#m7773ad4146" x="595.117358" y="243.02976" style="stroke: #000000; stroke-width: 0.8"/>
      </g>
     </g>
     <g id="text_19">
      <!-- 0.6 -->
      <g transform="translate(582.394858 262.18726) scale(0.16 -0.16)">
       <use xlink:href="#DejaVuSans-30"/>
       <use xlink:href="#DejaVuSans-2e" x="63.623047"/>
       <use xlink:href="#DejaVuSans-36" x="95.410156"/>
      </g>
     </g>
    </g>
    <g id="xtick_11">
     <g id="line2d_33">
      <path d="M 649.287315 243.02976 
L 649.287315 23.58924 
" clip-path="url(#p7be613e0a4)" style="fill: none; stroke-dasharray: 3.7,1.6; stroke-dashoffset: 0; stroke: #b0b0b0"/>
     </g>
     <g id="line2d_34">
      <g>
       <use xlink:href="#m7773ad4146" x="649.287315" y="243.02976" style="stroke: #000000; stroke-width: 0.8"/>
      </g>
     </g>
     <g id="text_20">
      <!-- 0.8 -->
      <g transform="translate(636.564815 262.18726) scale(0.16 -0.16)">
       <use xlink:href="#DejaVuSans-30"/>
       <use xlink:href="#DejaVuSans-2e" x="63.623047"/>
       <use xlink:href="#DejaVuSans-38" x="95.410156"/>
      </g>
     </g>
    </g>
    <g id="xtick_12">
     <g id="line2d_35">
      <path d="M 703.457271 243.02976 
L 703.457271 23.58924 
" clip-path="url(#p7be613e0a4)" style="fill: none; stroke-dasharray: 3.7,1.6; stroke-dashoffset: 0; stroke: #b0b0b0"/>
     </g>
     <g id="line2d_36">
      <g>
       <use xlink:href="#m7773ad4146" x="703.457271" y="243.02976" style="stroke: #000000; stroke-width: 0.8"/>
      </g>
     </g>
     <g id="text_21">
      <!-- 1.0 -->
      <g transform="translate(690.734771 262.18726) scale(0.16 -0.16)">
       <use xlink:href="#DejaVuSans-31"/>
       <use xlink:href="#DejaVuSans-2e" x="63.623047"/>
       <use xlink:href="#DejaVuSans-30" x="95.410156"/>
      </g>
     </g>
    </g>
    <g id="text_22">
     <!-- Proportion of Queries -->
     <g transform="translate(483.07113 281.67226) scale(0.16 -0.16)">
      <use xlink:href="#DejaVuSans-50"/>
      <use xlink:href="#DejaVuSans-72" x="58.552734"/>
      <use xlink:href="#DejaVuSans-6f" x="97.416016"/>
      <use xlink:href="#DejaVuSans-70" x="158.597656"/>
      <use xlink:href="#DejaVuSans-6f" x="222.074219"/>
      <use xlink:href="#DejaVuSans-72" x="283.255859"/>
      <use xlink:href="#DejaVuSans-74" x="324.369141"/>
      <use xlink:href="#DejaVuSans-69" x="363.578125"/>
      <use xlink:href="#DejaVuSans-6f" x="391.361328"/>
      <use xlink:href="#DejaVuSans-6e" x="452.542969"/>
      <use xlink:href="#DejaVuSans-20" x="515.921875"/>
      <use xlink:href="#DejaVuSans-6f" x="547.708984"/>
      <use xlink:href="#DejaVuSans-66" x="608.890625"/>
      <use xlink:href="#DejaVuSans-20" x="644.095703"/>
      <use xlink:href="#DejaVuSans-51" x="675.882812"/>
      <use xlink:href="#DejaVuSans-75" x="754.59375"/>
      <use xlink:href="#DejaVuSans-65" x="817.972656"/>
      <use xlink:href="#DejaVuSans-72" x="879.496094"/>
      <use xlink:href="#DejaVuSans-69" x="920.609375"/>
      <use xlink:href="#DejaVuSans-65" x="948.392578"/>
      <use xlink:href="#DejaVuSans-73" x="1009.916016"/>
     </g>
    </g>
   </g>
   <g id="matplotlib.axis_4">
    <g id="ytick_5">
     <g id="line2d_37">
      <path d="M 419.065 213.812048 
L 716.99976 213.812048 
" clip-path="url(#p7be613e0a4)" style="fill: none; stroke-dasharray: 3.7,1.6; stroke-dashoffset: 0; stroke: #b0b0b0"/>
     </g>
     <g id="line2d_38">
      <g>
       <use xlink:href="#m31902c7027" x="419.065" y="213.812048" style="stroke: #000000; stroke-width: 0.8"/>
      </g>
     </g>
     <g id="text_23">
      <!-- $\mathdefault{10^{-1}}$ -->
      <g transform="translate(374.465 219.890798) scale(0.16 -0.16)">
       <defs>
        <path id="DejaVuSans-2212" d="M 678 2272 
L 4684 2272 
L 4684 1741 
L 678 1741 
L 678 2272 
z
" transform="scale(0.015625)"/>
       </defs>
       <use xlink:href="#DejaVuSans-31" transform="translate(0 0.684375)"/>
       <use xlink:href="#DejaVuSans-30" transform="translate(63.623047 0.684375)"/>
       <use xlink:href="#DejaVuSans-2212" transform="translate(128.203125 38.965625) scale(0.7)"/>
       <use xlink:href="#DejaVuSans-31" transform="translate(186.855469 38.965625) scale(0.7)"/>
      </g>
     </g>
    </g>
    <g id="ytick_6">
     <g id="line2d_39">
      <path d="M 419.065 143.574805 
L 716.99976 143.574805 
" clip-path="url(#p7be613e0a4)" style="fill: none; stroke-dasharray: 3.7,1.6; stroke-dashoffset: 0; stroke: #b0b0b0"/>
     </g>
     <g id="line2d_40">
      <g>
       <use xlink:href="#m31902c7027" x="419.065" y="143.574805" style="stroke: #000000; stroke-width: 0.8"/>
      </g>
     </g>
     <g id="text_24">
      <!-- $\mathdefault{10^{0}}$ -->
      <g transform="translate(383.905 149.653555) scale(0.16 -0.16)">
       <use xlink:href="#DejaVuSans-31" transform="translate(0 0.765625)"/>
       <use xlink:href="#DejaVuSans-30" transform="translate(63.623047 0.765625)"/>
       <use xlink:href="#DejaVuSans-30" transform="translate(128.203125 39.046875) scale(0.7)"/>
      </g>
     </g>
    </g>
    <g id="ytick_7">
     <g id="line2d_41">
      <path d="M 419.065 73.337561 
L 716.99976 73.337561 
" clip-path="url(#p7be613e0a4)" style="fill: none; stroke-dasharray: 3.7,1.6; stroke-dashoffset: 0; stroke: #b0b0b0"/>
     </g>
     <g id="line2d_42">
      <g>
       <use xlink:href="#m31902c7027" x="419.065" y="73.337561" style="stroke: #000000; stroke-width: 0.8"/>
      </g>
     </g>
     <g id="text_25">
      <!-- $\mathdefault{10^{1}}$ -->
      <g transform="translate(383.905 79.416311) scale(0.16 -0.16)">
       <use xlink:href="#DejaVuSans-31" transform="translate(0 0.684375)"/>
       <use xlink:href="#DejaVuSans-30" transform="translate(63.623047 0.684375)"/>
       <use xlink:href="#DejaVuSans-31" transform="translate(128.203125 38.965625) scale(0.7)"/>
      </g>
     </g>
    </g>
    <g id="ytick_8">
     <g id="line2d_43">
      <defs>
       <path id="m17b08de12e" d="M 0 0 
L -2 0 
" style="stroke: #000000; stroke-width: 0.6"/>
      </defs>
      <g>
       <use xlink:href="#m17b08de12e" x="419.065" y="241.762257" style="stroke: #000000; stroke-width: 0.6"/>
      </g>
     </g>
    </g>
    <g id="ytick_9">
     <g id="line2d_44">
      <g>
       <use xlink:href="#m17b08de12e" x="419.065" y="234.955565" style="stroke: #000000; stroke-width: 0.6"/>
      </g>
     </g>
    </g>
    <g id="ytick_10">
     <g id="line2d_45">
      <g>
       <use xlink:href="#m17b08de12e" x="419.065" y="229.394092" style="stroke: #000000; stroke-width: 0.6"/>
      </g>
     </g>
    </g>
    <g id="ytick_11">
     <g id="line2d_46">
      <g>
       <use xlink:href="#m17b08de12e" x="419.065" y="224.691934" style="stroke: #000000; stroke-width: 0.6"/>
      </g>
     </g>
    </g>
    <g id="ytick_12">
     <g id="line2d_47">
      <g>
       <use xlink:href="#m17b08de12e" x="419.065" y="220.61874" style="stroke: #000000; stroke-width: 0.6"/>
      </g>
     </g>
    </g>
    <g id="ytick_13">
     <g id="line2d_48">
      <g>
       <use xlink:href="#m17b08de12e" x="419.065" y="217.025928" style="stroke: #000000; stroke-width: 0.6"/>
      </g>
     </g>
    </g>
    <g id="ytick_14">
     <g id="line2d_49">
      <g>
       <use xlink:href="#m17b08de12e" x="419.065" y="192.668531" style="stroke: #000000; stroke-width: 0.6"/>
      </g>
     </g>
    </g>
    <g id="ytick_15">
     <g id="line2d_50">
      <g>
       <use xlink:href="#m17b08de12e" x="419.065" y="180.300366" style="stroke: #000000; stroke-width: 0.6"/>
      </g>
     </g>
    </g>
    <g id="ytick_16">
     <g id="line2d_51">
      <g>
       <use xlink:href="#m17b08de12e" x="419.065" y="171.525014" style="stroke: #000000; stroke-width: 0.6"/>
      </g>
     </g>
    </g>
    <g id="ytick_17">
     <g id="line2d_52">
      <g>
       <use xlink:href="#m17b08de12e" x="419.065" y="164.718322" style="stroke: #000000; stroke-width: 0.6"/>
      </g>
     </g>
    </g>
    <g id="ytick_18">
     <g id="line2d_53">
      <g>
       <use xlink:href="#m17b08de12e" x="419.065" y="159.156849" style="stroke: #000000; stroke-width: 0.6"/>
      </g>
     </g>
    </g>
    <g id="ytick_19">
     <g id="line2d_54">
      <g>
       <use xlink:href="#m17b08de12e" x="419.065" y="154.454691" style="stroke: #000000; stroke-width: 0.6"/>
      </g>
     </g>
    </g>
    <g id="ytick_20">
     <g id="line2d_55">
      <g>
       <use xlink:href="#m17b08de12e" x="419.065" y="150.381497" style="stroke: #000000; stroke-width: 0.6"/>
      </g>
     </g>
    </g>
    <g id="ytick_21">
     <g id="line2d_56">
      <g>
       <use xlink:href="#m17b08de12e" x="419.065" y="146.788685" style="stroke: #000000; stroke-width: 0.6"/>
      </g>
     </g>
    </g>
    <g id="ytick_22">
     <g id="line2d_57">
      <g>
       <use xlink:href="#m17b08de12e" x="419.065" y="122.431287" style="stroke: #000000; stroke-width: 0.6"/>
      </g>
     </g>
    </g>
    <g id="ytick_23">
     <g id="line2d_58">
      <g>
       <use xlink:href="#m17b08de12e" x="419.065" y="110.063123" style="stroke: #000000; stroke-width: 0.6"/>
      </g>
     </g>
    </g>
    <g id="ytick_24">
     <g id="line2d_59">
      <g>
       <use xlink:href="#m17b08de12e" x="419.065" y="101.28777" style="stroke: #000000; stroke-width: 0.6"/>
      </g>
     </g>
    </g>
    <g id="ytick_25">
     <g id="line2d_60">
      <g>
       <use xlink:href="#m17b08de12e" x="419.065" y="94.481078" style="stroke: #000000; stroke-width: 0.6"/>
      </g>
     </g>
    </g>
    <g id="ytick_26">
     <g id="line2d_61">
      <g>
       <use xlink:href="#m17b08de12e" x="419.065" y="88.919606" style="stroke: #000000; stroke-width: 0.6"/>
      </g>
     </g>
    </g>
    <g id="ytick_27">
     <g id="line2d_62">
      <g>
       <use xlink:href="#m17b08de12e" x="419.065" y="84.217448" style="stroke: #000000; stroke-width: 0.6"/>
      </g>
     </g>
    </g>
    <g id="ytick_28">
     <g id="line2d_63">
      <g>
       <use xlink:href="#m17b08de12e" x="419.065" y="80.144253" style="stroke: #000000; stroke-width: 0.6"/>
      </g>
     </g>
    </g>
    <g id="ytick_29">
     <g id="line2d_64">
      <g>
       <use xlink:href="#m17b08de12e" x="419.065" y="76.551441" style="stroke: #000000; stroke-width: 0.6"/>
      </g>
     </g>
    </g>
    <g id="ytick_30">
     <g id="line2d_65">
      <g>
       <use xlink:href="#m17b08de12e" x="419.065" y="52.194044" style="stroke: #000000; stroke-width: 0.6"/>
      </g>
     </g>
    </g>
    <g id="ytick_31">
     <g id="line2d_66">
      <g>
       <use xlink:href="#m17b08de12e" x="419.065" y="39.82588" style="stroke: #000000; stroke-width: 0.6"/>
      </g>
     </g>
    </g>
    <g id="ytick_32">
     <g id="line2d_67">
      <g>
       <use xlink:href="#m17b08de12e" x="419.065" y="31.050527" style="stroke: #000000; stroke-width: 0.6"/>
      </g>
     </g>
    </g>
    <g id="ytick_33">
     <g id="line2d_68">
      <g>
       <use xlink:href="#m17b08de12e" x="419.065" y="24.243835" style="stroke: #000000; stroke-width: 0.6"/>
      </g>
     </g>
    </g>
    <g id="text_26">
     <!-- Max Latency (s) -->
     <g transform="translate(367.1375 196.967) rotate(-90) scale(0.16 -0.16)">
      <use xlink:href="#DejaVuSans-4d"/>
      <use xlink:href="#DejaVuSans-61" x="86.279297"/>
      <use xlink:href="#DejaVuSans-78" x="147.558594"/>
      <use xlink:href="#DejaVuSans-20" x="206.738281"/>
      <use xlink:href="#DejaVuSans-4c" x="238.525391"/>
      <use xlink:href="#DejaVuSans-61" x="294.238281"/>
      <use xlink:href="#DejaVuSans-74" x="355.517578"/>
      <use xlink:href="#DejaVuSans-65" x="394.726562"/>
      <use xlink:href="#DejaVuSans-6e" x="456.25"/>
      <use xlink:href="#DejaVuSans-63" x="519.628906"/>
      <use xlink:href="#DejaVuSans-79" x="574.609375"/>
      <use xlink:href="#DejaVuSans-20" x="633.789062"/>
      <use xlink:href="#DejaVuSans-28" x="665.576172"/>
      <use xlink:href="#DejaVuSans-73" x="704.589844"/>
      <use xlink:href="#DejaVuSans-29" x="756.689453"/>
     </g>
    </g>
   </g>
   <g id="line2d_69">
    <path d="M 432.607489 233.055191 
L 433.161374 231.988378 
L 433.715259 231.187113 
L 434.269144 227.413555 
L 434.823029 225.852341 
L 435.930799 225.645722 
L 436.484684 223.22309 
L 437.592454 222.519095 
L 438.146339 222.381919 
L 438.700224 221.559667 
L 439.25411 221.468485 
L 440.36188 220.770142 
L 440.915765 220.682107 
L 441.46965 220.415812 
L 442.023535 218.783061 
L 442.57742 218.177762 
L 443.131305 217.364716 
L 443.68519 216.866698 
L 444.239075 215.722273 
L 444.79296 215.219224 
L 445.90073 215.14126 
L 446.454615 214.51963 
L 447.0085 214.499391 
L 447.562385 214.302169 
L 448.11627 213.920851 
L 449.22404 213.692748 
L 449.777925 212.595443 
L 450.33181 210.187524 
L 450.885695 210.172868 
L 451.43958 209.940994 
L 451.993465 209.180504 
L 452.54735 191.773539 
L 453.101235 189.297202 
L 453.65512 176.978446 
L 454.209005 176.492411 
L 455.316776 174.853419 
L 455.870661 174.193868 
L 456.424546 174.139841 
L 457.532316 172.346449 
L 458.086201 171.162806 
L 458.640086 170.776192 
L 459.193971 159.93847 
L 459.747856 159.544256 
L 460.301741 157.66299 
L 460.855626 157.657335 
L 461.963396 156.974189 
L 462.517281 154.906818 
L 463.071166 153.675044 
L 464.178936 153.435816 
L 464.732821 152.971682 
L 465.286706 147.733629 
L 465.840591 146.582096 
L 466.394476 145.837513 
L 467.502246 144.78944 
L 468.056131 144.680722 
L 468.610016 142.045358 
L 470.271671 141.882814 
L 470.825556 140.79981 
L 471.379441 140.791929 
L 471.933327 140.217824 
L 472.487212 140.159235 
L 475.256637 139.114502 
L 475.810522 139.068737 
L 477.472177 138.125742 
L 478.026062 137.499329 
L 479.687717 137.139088 
L 480.241602 137.077818 
L 480.795487 136.789187 
L 481.349372 136.020875 
L 481.903257 135.60599 
L 485.780452 134.665079 
L 486.334337 134.315299 
L 486.888222 134.097518 
L 487.442107 133.644258 
L 488.549878 133.083487 
L 490.211533 131.819532 
L 492.427073 131.491467 
L 492.980958 130.738217 
L 494.642613 130.189475 
L 495.196498 130.073548 
L 496.304268 128.620192 
L 496.858153 128.1506 
L 497.412038 127.371788 
L 498.519808 127.233911 
L 499.073693 126.34269 
L 500.181463 125.402246 
L 501.289233 125.288654 
L 501.843118 125.044174 
L 502.397003 124.626045 
L 503.504773 124.121868 
L 504.058659 124.084344 
L 505.720314 123.686026 
L 506.274199 123.645893 
L 506.828084 123.396623 
L 509.597509 122.950057 
L 510.151394 122.646544 
L 511.259164 122.413555 
L 511.813049 122.060734 
L 512.366934 121.883929 
L 516.798014 121.681231 
L 517.905784 121.502313 
L 518.459669 121.455951 
L 519.567439 121.060079 
L 520.67521 120.791735 
L 521.229095 120.406432 
L 522.336865 120.244049 
L 523.444635 119.624225 
L 525.660175 119.165346 
L 526.767945 118.745115 
L 527.32183 118.229374 
L 530.091255 118.052834 
L 530.64514 117.699289 
L 531.75291 117.645701 
L 532.306795 117.47999 
L 534.522335 117.309422 
L 536.737876 117.152067 
L 538.399531 117.016802 
L 539.507301 116.947536 
L 540.061186 116.70134 
L 542.276726 116.329227 
L 543.384496 116.175805 
L 543.938381 116.1613 
L 545.046151 115.937601 
L 546.153921 115.836035 
L 547.261691 115.742777 
L 548.369461 115.339803 
L 550.031116 115.308382 
L 550.585001 113.854539 
L 552.246657 112.701075 
L 553.354427 112.491691 
L 555.016082 112.093828 
L 556.123852 111.031364 
L 556.677737 110.978414 
L 557.785507 110.468709 
L 559.447162 110.381867 
L 560.001047 110.258482 
L 560.554932 109.535394 
L 561.108817 109.236876 
L 563.324357 108.760474 
L 563.878242 108.112465 
L 564.432127 107.136705 
L 564.986012 107.082325 
L 566.093782 106.219857 
L 566.647667 105.045099 
L 567.201552 104.569095 
L 567.755437 104.329468 
L 568.863208 104.280159 
L 569.417093 104.069849 
L 569.970978 104.023362 
L 570.524863 103.449599 
L 571.632633 103.178359 
L 572.186518 102.569173 
L 572.740403 98.082275 
L 574.402058 97.239157 
L 574.955943 97.170218 
L 576.063713 96.721231 
L 576.617598 95.937466 
L 577.171483 95.628159 
L 577.725368 95.106661 
L 578.279253 95.054349 
L 578.833138 94.670747 
L 579.387023 94.625439 
L 579.940908 94.3953 
L 580.494793 93.601307 
L 582.156448 93.369622 
L 583.818103 93.171399 
L 584.371989 92.78254 
L 584.925874 92.217934 
L 586.033644 92.033073 
L 588.803069 91.428542 
L 589.356954 91.13378 
L 590.464724 91.087663 
L 591.018609 90.958529 
L 591.572494 90.539574 
L 593.234149 90.393029 
L 594.895804 89.939536 
L 597.665229 89.335003 
L 598.772999 88.88585 
L 599.326884 88.637274 
L 600.434655 88.43981 
L 601.542425 88.16962 
L 602.09631 88.127407 
L 602.650195 87.924558 
L 603.757965 87.856923 
L 604.865735 87.777877 
L 605.41962 87.479732 
L 605.973505 87.429343 
L 607.081275 86.994302 
L 612.620125 85.953828 
L 613.17401 85.447851 
L 614.28178 85.326093 
L 614.835665 85.262099 
L 616.497321 84.601117 
L 617.051206 84.368776 
L 618.712861 84.245359 
L 619.820631 84.04727 
L 620.374516 83.812595 
L 620.928401 83.739305 
L 621.482286 83.432602 
L 623.143941 83.199032 
L 623.697826 83.19086 
L 624.805596 83.022562 
L 625.359481 82.604923 
L 626.467251 82.381663 
L 627.575021 82.306976 
L 629.790561 82.080495 
L 630.344446 82.075731 
L 630.898331 81.841882 
L 632.559987 81.441687 
L 633.113872 81.302479 
L 633.667757 81.294543 
L 634.775527 80.661127 
L 636.437182 80.235753 
L 639.206607 80.042207 
L 640.314377 79.883974 
L 641.976032 79.844537 
L 643.637687 79.597756 
L 644.745457 79.43896 
L 645.853227 79.316459 
L 646.407112 78.919984 
L 646.960997 78.902867 
L 648.068767 78.419871 
L 648.622653 78.402331 
L 649.176538 78.25165 
L 649.730423 77.937277 
L 651.392078 77.815745 
L 653.607618 77.470504 
L 655.269273 77.136652 
L 657.484813 76.610503 
L 660.808123 76.461503 
L 661.362008 76.384516 
L 661.915893 75.826786 
L 662.469778 75.541804 
L 663.023663 74.360989 
L 663.577548 74.190593 
L 664.685319 74.049487 
L 665.239204 73.631466 
L 666.346974 72.558952 
L 666.900859 72.378806 
L 667.454744 72.064285 
L 668.008629 71.967713 
L 668.562514 70.939586 
L 669.670284 70.4275 
L 671.331939 68.739923 
L 671.885824 66.013055 
L 672.993594 65.852271 
L 674.101364 64.228281 
L 675.763019 63.835654 
L 676.316904 62.91243 
L 676.870789 62.600316 
L 677.424674 62.473525 
L 677.978559 62.154531 
L 678.532444 61.685176 
L 679.086329 60.762763 
L 679.640214 60.69294 
L 680.194099 60.195034 
L 680.747984 59.953896 
L 681.855755 59.686042 
L 682.40964 59.050265 
L 682.963525 57.892307 
L 684.071295 56.064174 
L 684.62518 54.130545 
L 685.179065 53.184696 
L 685.73295 52.942321 
L 686.286835 52.303185 
L 686.84072 52.254665 
L 687.94849 51.696316 
L 688.502375 50.55824 
L 689.610145 49.461177 
L 690.16403 49.352531 
L 691.2718 48.300631 
L 691.825685 48.157776 
L 692.37957 47.532161 
L 692.933455 47.33566 
L 693.48734 46.347971 
L 694.041225 46.343028 
L 695.70288 45.922047 
L 696.256765 45.37809 
L 696.81065 45.302071 
L 698.472306 44.327513 
L 699.026191 42.555327 
L 700.687846 41.855356 
L 701.241731 40.834321 
L 701.795616 38.842295 
L 702.349501 38.828032 
L 703.457271 34.167282 
L 703.457271 34.167282 
" clip-path="url(#p7be613e0a4)" style="fill: none; stroke: #1f77b4; stroke-width: 3; stroke-linecap: square"/>
   </g>
   <g id="line2d_70">
    <path d="M 432.607489 198.290965 
L 433.715259 197.761939 
L 434.269144 193.915355 
L 434.823029 192.146978 
L 435.376914 191.847395 
L 435.930799 191.829418 
L 436.484684 191.004308 
L 437.038569 190.95449 
L 437.592454 190.567066 
L 438.146339 190.439506 
L 438.700224 189.917717 
L 439.25411 189.874452 
L 439.807995 188.663153 
L 440.36188 188.185899 
L 442.023535 187.462847 
L 442.57742 186.978693 
L 443.131305 186.797336 
L 444.239075 186.064662 
L 444.79296 185.32101 
L 445.346845 185.31058 
L 448.670155 183.61656 
L 449.22404 182.860517 
L 450.33181 182.172341 
L 450.885695 182.142944 
L 451.43958 181.999408 
L 451.993465 180.093031 
L 452.54735 174.909599 
L 453.101235 156.538479 
L 453.65512 145.049693 
L 454.209005 144.647348 
L 454.76289 142.934831 
L 455.316776 139.990566 
L 455.870661 139.337132 
L 456.424546 139.176449 
L 456.978431 138.850579 
L 457.532316 137.315623 
L 458.086201 135.40088 
L 458.640086 135.386653 
L 459.193971 134.897306 
L 460.301741 134.474031 
L 461.409511 133.075851 
L 463.071166 132.512144 
L 464.178936 132.484456 
L 464.732821 132.206177 
L 465.286706 131.001535 
L 466.394476 130.407059 
L 466.948361 129.974348 
L 467.502246 129.900805 
L 468.610016 129.131514 
L 469.163901 129.00642 
L 469.717786 128.637012 
L 470.271671 128.550171 
L 470.825556 128.043475 
L 471.379441 126.541732 
L 471.933327 126.210905 
L 472.487212 126.189949 
L 473.041097 125.915625 
L 473.594982 125.892993 
L 474.148867 125.619656 
L 474.702752 125.21042 
L 475.256637 123.46783 
L 476.918292 122.945866 
L 477.472177 122.496239 
L 478.579947 122.096658 
L 479.687717 121.561325 
L 481.903257 121.274271 
L 483.564912 120.764217 
L 485.780452 120.447722 
L 486.334337 120.08632 
L 487.442107 119.948534 
L 488.549878 119.709076 
L 489.657648 119.474727 
L 490.765418 119.112664 
L 491.873188 118.964951 
L 492.427073 118.440535 
L 492.980958 118.226447 
L 494.088728 118.126013 
L 495.750383 117.964422 
L 496.304268 117.062671 
L 496.858153 116.590842 
L 497.412038 116.429698 
L 497.965923 116.141076 
L 500.735348 115.86234 
L 502.950888 115.010962 
L 503.504773 114.951731 
L 504.058659 114.225178 
L 506.274199 113.906206 
L 507.381969 113.462964 
L 507.935854 113.155589 
L 508.489739 113.066027 
L 509.043624 112.706018 
L 509.597509 112.207194 
L 510.151394 112.026002 
L 510.705279 110.916577 
L 511.259164 107.807677 
L 511.813049 107.561247 
L 512.366934 106.394623 
L 512.920819 103.660284 
L 513.474704 101.97712 
L 514.028589 101.938977 
L 514.582474 98.705317 
L 515.690244 96.727001 
L 516.244129 96.608961 
L 516.798014 96.096542 
L 517.351899 94.852332 
L 517.905784 94.758541 
L 518.459669 94.301939 
L 519.013554 94.259459 
L 520.121325 93.636013 
L 520.67521 93.61406 
L 522.336865 92.603655 
L 523.444635 92.222149 
L 523.99852 91.958603 
L 527.32183 91.186617 
L 527.875715 90.716061 
L 532.86068 89.727123 
L 533.414565 89.425228 
L 534.522335 89.327593 
L 536.183991 89.232469 
L 536.737876 89.224063 
L 538.399531 88.91681 
L 538.953416 88.849535 
L 540.061186 88.45636 
L 540.615071 88.317842 
L 541.168956 88.051463 
L 542.830611 87.740243 
L 545.046151 87.647531 
L 554.462197 86.880758 
L 555.016082 86.707945 
L 556.677737 86.582173 
L 557.231622 86.138703 
L 558.893277 86.041664 
L 560.001047 85.912271 
L 561.662702 85.73347 
L 563.878242 85.554069 
L 564.986012 85.167849 
L 576.063713 84.476915 
L 577.171483 84.236618 
L 578.279253 84.201569 
L 580.494793 83.917171 
L 581.602563 83.84573 
L 583.264218 83.414268 
L 584.371989 83.342327 
L 584.925874 83.164681 
L 588.249184 82.935698 
L 589.356954 82.708998 
L 590.464724 82.664442 
L 591.572494 82.447384 
L 594.341919 82.260153 
L 597.111344 81.996463 
L 597.665229 81.971057 
L 598.219114 81.742997 
L 600.98854 81.435128 
L 604.865735 81.131394 
L 605.41962 81.127996 
L 605.973505 80.974069 
L 617.605091 80.37236 
L 622.590056 79.843175 
L 624.251711 79.735942 
L 624.805596 79.51286 
L 625.913366 79.402156 
L 627.021136 79.28962 
L 627.575021 79.148693 
L 629.236676 78.972322 
L 630.344446 78.78999 
L 631.452216 78.471833 
L 633.667757 78.067656 
L 635.329412 77.752064 
L 635.883297 77.526821 
L 637.544952 77.432502 
L 638.098837 77.09949 
L 639.206607 76.911776 
L 640.868262 76.610534 
L 642.529917 76.449792 
L 643.637687 76.421005 
L 645.853227 75.555113 
L 646.960997 75.47679 
L 648.068767 75.156997 
L 648.622653 75.141741 
L 649.176538 75.015157 
L 650.284308 74.979205 
L 650.838193 74.726827 
L 651.392078 74.670959 
L 651.945963 74.39808 
L 653.053733 74.351006 
L 653.607618 74.119723 
L 654.161503 73.617712 
L 655.269273 73.442919 
L 655.823158 72.802223 
L 659.146468 72.337208 
L 659.700353 72.171482 
L 661.915893 72.06059 
L 663.577548 71.947757 
L 664.131433 71.702881 
L 666.900859 71.265334 
L 667.454744 70.918852 
L 670.224169 70.617476 
L 670.778054 70.427245 
L 671.885824 70.327598 
L 672.439709 69.645958 
L 672.993594 69.545775 
L 673.547479 69.08618 
L 675.209134 68.7598 
L 675.763019 68.167894 
L 676.316904 67.082315 
L 676.870789 66.902948 
L 677.424674 66.897961 
L 677.978559 65.511267 
L 678.532444 62.363268 
L 679.086329 60.809926 
L 679.640214 59.872359 
L 680.194099 57.316408 
L 683.51741 57.148943 
L 684.071295 56.556992 
L 685.179065 56.530735 
L 685.73295 56.349708 
L 686.286835 55.096293 
L 687.394605 54.827826 
L 687.94849 54.610057 
L 688.502375 53.802823 
L 689.05626 53.720063 
L 690.16403 52.239142 
L 691.825685 51.925518 
L 692.37957 51.690289 
L 692.933455 51.648498 
L 693.48734 51.375645 
L 694.041225 51.359866 
L 694.59511 50.202638 
L 695.148995 49.760615 
L 695.70288 49.733735 
L 696.81065 48.964118 
L 697.364536 48.963296 
L 697.918421 47.799128 
L 698.472306 47.052137 
L 699.026191 47.027425 
L 700.687846 46.306277 
L 701.241731 45.449866 
L 701.795616 44.246597 
L 702.349501 43.363945 
L 702.903386 41.851227 
L 703.457271 33.563809 
L 703.457271 33.563809 
" clip-path="url(#p7be613e0a4)" style="fill: none; stroke: #ff7f0e; stroke-width: 3; stroke-linecap: square"/>
   </g>
   <g id="patch_9">
    <path d="M 419.065 243.02976 
L 419.065 23.58924 
" style="fill: none; stroke: #000000; stroke-width: 0.8; stroke-linejoin: miter; stroke-linecap: square"/>
   </g>
   <g id="patch_10">
    <path d="M 716.99976 243.02976 
L 716.99976 23.58924 
" style="fill: none; stroke: #000000; stroke-width: 0.8; stroke-linejoin: miter; stroke-linecap: square"/>
   </g>
   <g id="patch_11">
    <path d="M 419.065 243.02976 
L 716.99976 243.02976 
" style="fill: none; stroke: #000000; stroke-width: 0.8; stroke-linejoin: miter; stroke-linecap: square"/>
   </g>
   <g id="patch_12">
    <path d="M 419.065 23.58924 
L 716.99976 23.58924 
" style="fill: none; stroke: #000000; stroke-width: 0.8; stroke-linejoin: miter; stroke-linecap: square"/>
   </g>
   <g id="text_27">
    <!-- Query Latency CDF (log scale) -->
    <g transform="translate(422.22488 17.58924) scale(0.192 -0.192)">
     <defs>
      <path id="DejaVuSans-6c" d="M 603 4863 
L 1178 4863 
L 1178 0 
L 603 0 
L 603 4863 
z
" transform="scale(0.015625)"/>
     </defs>
     <use xlink:href="#DejaVuSans-51"/>
     <use xlink:href="#DejaVuSans-75" x="78.710938"/>
     <use xlink:href="#DejaVuSans-65" x="142.089844"/>
     <use xlink:href="#DejaVuSans-72" x="203.613281"/>
     <use xlink:href="#DejaVuSans-79" x="244.726562"/>
     <use xlink:href="#DejaVuSans-20" x="303.90625"/>
     <use xlink:href="#DejaVuSans-4c" x="335.693359"/>
     <use xlink:href="#DejaVuSans-61" x="391.40625"/>
     <use xlink:href="#DejaVuSans-74" x="452.685547"/>
     <use xlink:href="#DejaVuSans-65" x="491.894531"/>
     <use xlink:href="#DejaVuSans-6e" x="553.417969"/>
     <use xlink:href="#DejaVuSans-63" x="616.796875"/>
     <use xlink:href="#DejaVuSans-79" x="671.777344"/>
     <use xlink:href="#DejaVuSans-20" x="730.957031"/>
     <use xlink:href="#DejaVuSans-43" x="762.744141"/>
     <use xlink:href="#DejaVuSans-44" x="832.568359"/>
     <use xlink:href="#DejaVuSans-46" x="909.570312"/>
     <use xlink:href="#DejaVuSans-20" x="967.089844"/>
     <use xlink:href="#DejaVuSans-28" x="998.876953"/>
     <use xlink:href="#DejaVuSans-6c" x="1037.890625"/>
     <use xlink:href="#DejaVuSans-6f" x="1065.673828"/>
     <use xlink:href="#DejaVuSans-67" x="1126.855469"/>
     <use xlink:href="#DejaVuSans-20" x="1190.332031"/>
     <use xlink:href="#DejaVuSans-73" x="1222.119141"/>
     <use xlink:href="#DejaVuSans-63" x="1274.21875"/>
     <use xlink:href="#DejaVuSans-61" x="1329.199219"/>
     <use xlink:href="#DejaVuSans-6c" x="1390.478516"/>
     <use xlink:href="#DejaVuSans-65" x="1418.261719"/>
     <use xlink:href="#DejaVuSans-29" x="1479.785156"/>
    </g>
   </g>
   <g id="legend_2">
    <g id="patch_13">
     <path d="M 430.265 83.35924 
L 572.8175 83.35924 
Q 576.0175 83.35924 576.0175 80.15924 
L 576.0175 34.78924 
Q 576.0175 31.58924 572.8175 31.58924 
L 430.265 31.58924 
Q 427.065 31.58924 427.065 34.78924 
L 427.065 80.15924 
Q 427.065 83.35924 430.265 83.35924 
z
" style="fill: #ffffff; opacity: 0.8; stroke: #cccccc; stroke-linejoin: miter"/>
    </g>
    <g id="line2d_71">
     <path d="M 433.465 44.54674 
L 449.465 44.54674 
L 465.465 44.54674 
" style="fill: none; stroke: #1f77b4; stroke-width: 3; stroke-linecap: square"/>
    </g>
    <g id="text_28">
     <!-- PostgreSQL -->
     <g transform="translate(478.265 50.14674) scale(0.16 -0.16)">
      <use xlink:href="#DejaVuSans-50"/>
      <use xlink:href="#DejaVuSans-6f" x="56.677734"/>
      <use xlink:href="#DejaVuSans-73" x="117.859375"/>
      <use xlink:href="#DejaVuSans-74" x="169.958984"/>
      <use xlink:href="#DejaVuSans-67" x="209.167969"/>
      <use xlink:href="#DejaVuSans-72" x="272.644531"/>
      <use xlink:href="#DejaVuSans-65" x="311.507812"/>
      <use xlink:href="#DejaVuSans-53" x="373.03125"/>
      <use xlink:href="#DejaVuSans-51" x="436.507812"/>
      <use xlink:href="#DejaVuSans-4c" x="515.21875"/>
     </g>
    </g>
    <g id="line2d_72">
     <path d="M 433.465 68.03174 
L 449.465 68.03174 
L 465.465 68.03174 
" style="fill: none; stroke: #ff7f0e; stroke-width: 3; stroke-linecap: square"/>
    </g>
    <g id="text_29">
     <!-- Bao -->
     <g transform="translate(478.265 73.63174) scale(0.16 -0.16)">
      <use xlink:href="#DejaVuSans-42"/>
      <use xlink:href="#DejaVuSans-61" x="68.603516"/>
      <use xlink:href="#DejaVuSans-6f" x="129.882812"/>
     </g>
    </g>
   </g>
  </g>
 </g>
 <defs>
  <clipPath id="p6205fc8953">
   <rect x="49.84524" y="23.58924" width="297.93476" height="219.44052"/>
  </clipPath>
  <clipPath id="p7be613e0a4">
   <rect x="419.065" y="23.58924" width="297.93476" height="219.44052"/>
  </clipPath>
 </defs>
</svg>
