<?xml version="1.0" encoding="utf-8" standalone="no"?>
<!DOCTYPE svg PUBLIC "-//W3C//DTD SVG 1.1//EN"
  "http://www.w3.org/Graphics/SVG/1.1/DTD/svg11.dtd">
<svg xmlns:xlink="http://www.w3.org/1999/xlink" width="460.8pt" height="345.6pt" viewBox="0 0 460.8 345.6" xmlns="http://www.w3.org/2000/svg" version="1.1">
 <metadata>
  <rdf:RDF xmlns:dc="http://purl.org/dc/elements/1.1/" xmlns:cc="http://creativecommons.org/ns#" xmlns:rdf="http://www.w3.org/1999/02/22-rdf-syntax-ns#">
   <cc:Work>
    <dc:type rdf:resource="http://purl.org/dc/dcmitype/StillImage"/>
    <dc:date>2024-11-24T01:23:44.595265</dc:date>
    <dc:format>image/svg+xml</dc:format>
    <dc:creator>
     <cc:Agent>
      <dc:title>Matplotlib v3.7.2, https://matplotlib.org/</dc:title>
     </cc:Agent>
    </dc:creator>
   </cc:Work>
  </rdf:RDF>
 </metadata>
 <defs>
  <style type="text/css">*{stroke-linejoin: round; stroke-linecap: butt}</style>
 </defs>
 <g id="figure_1">
  <g id="patch_1">
   <path d="M 0 345.6 
L 460.8 345.6 
L 460.8 0 
L 0 0 
z
" style="fill: #ffffff"/>
  </g>
  <g id="axes_1">
   <g id="patch_2">
    <path d="M 60.02524 300.62976 
L 451.051882 300.62976 
L 451.051882 23.58924 
L 60.02524 23.58924 
z
" style="fill: #ffffff"/>
   </g>
   <g id="PathCollection_1"/>
   <g id="matplotlib.axis_1">
    <g id="xtick_1">
     <g id="line2d_1">
      <path d="M 77.799178 300.62976 
L 77.799178 23.58924 
" clip-path="url(#p879aa9995e)" style="fill: none; stroke-dasharray: 3.7,1.6; stroke-dashoffset: 0; stroke: #b0b0b0"/>
     </g>
     <g id="line2d_2">
      <defs>
       <path id="m670b3a8dc6" d="M 0 0 
L 0 3.5 
" style="stroke: #000000; stroke-width: 0.8"/>
      </defs>
      <g>
       <use xlink:href="#m670b3a8dc6" x="77.799178" y="300.62976" style="stroke: #000000; stroke-width: 0.8"/>
      </g>
     </g>
     <g id="text_1">
      <!-- 0 -->
      <g transform="translate(72.709178 319.78726) scale(0.16 -0.16)">
       <defs>
        <path id="DejaVuSans-30" d="M 2034 4250 
Q 1547 4250 1301 3770 
Q 1056 3291 1056 2328 
Q 1056 1369 1301 889 
Q 1547 409 2034 409 
Q 2525 409 2770 889 
Q 3016 1369 3016 2328 
Q 3016 3291 2770 3770 
Q 2525 4250 2034 4250 
z
M 2034 4750 
Q 2819 4750 3233 4129 
Q 3647 3509 3647 2328 
Q 3647 1150 3233 529 
Q 2819 -91 2034 -91 
Q 1250 -91 836 529 
Q 422 1150 422 2328 
Q 422 3509 836 4129 
Q 1250 4750 2034 4750 
z
" transform="scale(0.015625)"/>
       </defs>
       <use xlink:href="#DejaVuSans-30"/>
      </g>
     </g>
    </g>
    <g id="xtick_2">
     <g id="line2d_3">
      <path d="M 139.43551 300.62976 
L 139.43551 23.58924 
" clip-path="url(#p879aa9995e)" style="fill: none; stroke-dasharray: 3.7,1.6; stroke-dashoffset: 0; stroke: #b0b0b0"/>
     </g>
     <g id="line2d_4">
      <g>
       <use xlink:href="#m670b3a8dc6" x="139.43551" y="300.62976" style="stroke: #000000; stroke-width: 0.8"/>
      </g>
     </g>
     <g id="text_2">
      <!-- 10 -->
      <g transform="translate(129.25551 319.78726) scale(0.16 -0.16)">
       <defs>
        <path id="DejaVuSans-31" d="M 794 531 
L 1825 531 
L 1825 4091 
L 703 3866 
L 703 4441 
L 1819 4666 
L 2450 4666 
L 2450 531 
L 3481 531 
L 3481 0 
L 794 0 
L 794 531 
z
" transform="scale(0.015625)"/>
       </defs>
       <use xlink:href="#DejaVuSans-31"/>
       <use xlink:href="#DejaVuSans-30" x="63.623047"/>
      </g>
     </g>
    </g>
    <g id="xtick_3">
     <g id="line2d_5">
      <path d="M 201.071841 300.62976 
L 201.071841 23.58924 
" clip-path="url(#p879aa9995e)" style="fill: none; stroke-dasharray: 3.7,1.6; stroke-dashoffset: 0; stroke: #b0b0b0"/>
     </g>
     <g id="line2d_6">
      <g>
       <use xlink:href="#m670b3a8dc6" x="201.071841" y="300.62976" style="stroke: #000000; stroke-width: 0.8"/>
      </g>
     </g>
     <g id="text_3">
      <!-- 20 -->
      <g transform="translate(190.891841 319.78726) scale(0.16 -0.16)">
       <defs>
        <path id="DejaVuSans-32" d="M 1228 531 
L 3431 531 
L 3431 0 
L 469 0 
L 469 531 
Q 828 903 1448 1529 
Q 2069 2156 2228 2338 
Q 2531 2678 2651 2914 
Q 2772 3150 2772 3378 
Q 2772 3750 2511 3984 
Q 2250 4219 1831 4219 
Q 1534 4219 1204 4116 
Q 875 4013 500 3803 
L 500 4441 
Q 881 4594 1212 4672 
Q 1544 4750 1819 4750 
Q 2544 4750 2975 4387 
Q 3406 4025 3406 3419 
Q 3406 3131 3298 2873 
Q 3191 2616 2906 2266 
Q 2828 2175 2409 1742 
Q 1991 1309 1228 531 
z
" transform="scale(0.015625)"/>
       </defs>
       <use xlink:href="#DejaVuSans-32"/>
       <use xlink:href="#DejaVuSans-30" x="63.623047"/>
      </g>
     </g>
    </g>
    <g id="xtick_4">
     <g id="line2d_7">
      <path d="M 262.708172 300.62976 
L 262.708172 23.58924 
" clip-path="url(#p879aa9995e)" style="fill: none; stroke-dasharray: 3.7,1.6; stroke-dashoffset: 0; stroke: #b0b0b0"/>
     </g>
     <g id="line2d_8">
      <g>
       <use xlink:href="#m670b3a8dc6" x="262.708172" y="300.62976" style="stroke: #000000; stroke-width: 0.8"/>
      </g>
     </g>
     <g id="text_4">
      <!-- 30 -->
      <g transform="translate(252.528172 319.78726) scale(0.16 -0.16)">
       <defs>
        <path id="DejaVuSans-33" d="M 2597 2516 
Q 3050 2419 3304 2112 
Q 3559 1806 3559 1356 
Q 3559 666 3084 287 
Q 2609 -91 1734 -91 
Q 1441 -91 1130 -33 
Q 819 25 488 141 
L 488 750 
Q 750 597 1062 519 
Q 1375 441 1716 441 
Q 2309 441 2620 675 
Q 2931 909 2931 1356 
Q 2931 1769 2642 2001 
Q 2353 2234 1838 2234 
L 1294 2234 
L 1294 2753 
L 1863 2753 
Q 2328 2753 2575 2939 
Q 2822 3125 2822 3475 
Q 2822 3834 2567 4026 
Q 2313 4219 1838 4219 
Q 1578 4219 1281 4162 
Q 984 4106 628 3988 
L 628 4550 
Q 988 4650 1302 4700 
Q 1616 4750 1894 4750 
Q 2613 4750 3031 4423 
Q 3450 4097 3450 3541 
Q 3450 3153 3228 2886 
Q 3006 2619 2597 2516 
z
" transform="scale(0.015625)"/>
       </defs>
       <use xlink:href="#DejaVuSans-33"/>
       <use xlink:href="#DejaVuSans-30" x="63.623047"/>
      </g>
     </g>
    </g>
    <g id="xtick_5">
     <g id="line2d_9">
      <path d="M 324.344504 300.62976 
L 324.344504 23.58924 
" clip-path="url(#p879aa9995e)" style="fill: none; stroke-dasharray: 3.7,1.6; stroke-dashoffset: 0; stroke: #b0b0b0"/>
     </g>
     <g id="line2d_10">
      <g>
       <use xlink:href="#m670b3a8dc6" x="324.344504" y="300.62976" style="stroke: #000000; stroke-width: 0.8"/>
      </g>
     </g>
     <g id="text_5">
      <!-- 40 -->
      <g transform="translate(314.164504 319.78726) scale(0.16 -0.16)">
       <defs>
        <path id="DejaVuSans-34" d="M 2419 4116 
L 825 1625 
L 2419 1625 
L 2419 4116 
z
M 2253 4666 
L 3047 4666 
L 3047 1625 
L 3713 1625 
L 3713 1100 
L 3047 1100 
L 3047 0 
L 2419 0 
L 2419 1100 
L 313 1100 
L 313 1709 
L 2253 4666 
z
" transform="scale(0.015625)"/>
       </defs>
       <use xlink:href="#DejaVuSans-34"/>
       <use xlink:href="#DejaVuSans-30" x="63.623047"/>
      </g>
     </g>
    </g>
    <g id="xtick_6">
     <g id="line2d_11">
      <path d="M 385.980835 300.62976 
L 385.980835 23.58924 
" clip-path="url(#p879aa9995e)" style="fill: none; stroke-dasharray: 3.7,1.6; stroke-dashoffset: 0; stroke: #b0b0b0"/>
     </g>
     <g id="line2d_12">
      <g>
       <use xlink:href="#m670b3a8dc6" x="385.980835" y="300.62976" style="stroke: #000000; stroke-width: 0.8"/>
      </g>
     </g>
     <g id="text_6">
      <!-- 50 -->
      <g transform="translate(375.800835 319.78726) scale(0.16 -0.16)">
       <defs>
        <path id="DejaVuSans-35" d="M 691 4666 
L 3169 4666 
L 3169 4134 
L 1269 4134 
L 1269 2991 
Q 1406 3038 1543 3061 
Q 1681 3084 1819 3084 
Q 2600 3084 3056 2656 
Q 3513 2228 3513 1497 
Q 3513 744 3044 326 
Q 2575 -91 1722 -91 
Q 1428 -91 1123 -41 
Q 819 9 494 109 
L 494 744 
Q 775 591 1075 516 
Q 1375 441 1709 441 
Q 2250 441 2565 725 
Q 2881 1009 2881 1497 
Q 2881 1984 2565 2268 
Q 2250 2553 1709 2553 
Q 1456 2553 1204 2497 
Q 953 2441 691 2322 
L 691 4666 
z
" transform="scale(0.015625)"/>
       </defs>
       <use xlink:href="#DejaVuSans-35"/>
       <use xlink:href="#DejaVuSans-30" x="63.623047"/>
      </g>
     </g>
    </g>
    <g id="xtick_7">
     <g id="line2d_13">
      <path d="M 447.617167 300.62976 
L 447.617167 23.58924 
" clip-path="url(#p879aa9995e)" style="fill: none; stroke-dasharray: 3.7,1.6; stroke-dashoffset: 0; stroke: #b0b0b0"/>
     </g>
     <g id="line2d_14">
      <g>
       <use xlink:href="#m670b3a8dc6" x="447.617167" y="300.62976" style="stroke: #000000; stroke-width: 0.8"/>
      </g>
     </g>
     <g id="text_7">
      <!-- 60 -->
      <g transform="translate(437.437167 319.78726) scale(0.16 -0.16)">
       <defs>
        <path id="DejaVuSans-36" d="M 2113 2584 
Q 1688 2584 1439 2293 
Q 1191 2003 1191 1497 
Q 1191 994 1439 701 
Q 1688 409 2113 409 
Q 2538 409 2786 701 
Q 3034 994 3034 1497 
Q 3034 2003 2786 2293 
Q 2538 2584 2113 2584 
z
M 3366 4563 
L 3366 3988 
Q 3128 4100 2886 4159 
Q 2644 4219 2406 4219 
Q 1781 4219 1451 3797 
Q 1122 3375 1075 2522 
Q 1259 2794 1537 2939 
Q 1816 3084 2150 3084 
Q 2853 3084 3261 2657 
Q 3669 2231 3669 1497 
Q 3669 778 3244 343 
Q 2819 -91 2113 -91 
Q 1303 -91 875 529 
Q 447 1150 447 2328 
Q 447 3434 972 4092 
Q 1497 4750 2381 4750 
Q 2619 4750 2861 4703 
Q 3103 4656 3366 4563 
z
" transform="scale(0.015625)"/>
       </defs>
       <use xlink:href="#DejaVuSans-36"/>
       <use xlink:href="#DejaVuSans-30" x="63.623047"/>
      </g>
     </g>
    </g>
    <g id="text_8">
     <!-- Time (m) -->
     <g transform="translate(219.387311 339.27226) scale(0.16 -0.16)">
      <defs>
       <path id="DejaVuSans-54" d="M -19 4666 
L 3928 4666 
L 3928 4134 
L 2272 4134 
L 2272 0 
L 1638 0 
L 1638 4134 
L -19 4134 
L -19 4666 
z
" transform="scale(0.015625)"/>
       <path id="DejaVuSans-69" d="M 603 3500 
L 1178 3500 
L 1178 0 
L 603 0 
L 603 3500 
z
M 603 4863 
L 1178 4863 
L 1178 4134 
L 603 4134 
L 603 4863 
z
" transform="scale(0.015625)"/>
       <path id="DejaVuSans-6d" d="M 3328 2828 
Q 3544 3216 3844 3400 
Q 4144 3584 4550 3584 
Q 5097 3584 5394 3201 
Q 5691 2819 5691 2113 
L 5691 0 
L 5113 0 
L 5113 2094 
Q 5113 2597 4934 2840 
Q 4756 3084 4391 3084 
Q 3944 3084 3684 2787 
Q 3425 2491 3425 1978 
L 3425 0 
L 2847 0 
L 2847 2094 
Q 2847 2600 2669 2842 
Q 2491 3084 2119 3084 
Q 1678 3084 1418 2786 
Q 1159 2488 1159 1978 
L 1159 0 
L 581 0 
L 581 3500 
L 1159 3500 
L 1159 2956 
Q 1356 3278 1631 3431 
Q 1906 3584 2284 3584 
Q 2666 3584 2933 3390 
Q 3200 3197 3328 2828 
z
" transform="scale(0.015625)"/>
       <path id="DejaVuSans-65" d="M 3597 1894 
L 3597 1613 
L 953 1613 
Q 991 1019 1311 708 
Q 1631 397 2203 397 
Q 2534 397 2845 478 
Q 3156 559 3463 722 
L 3463 178 
Q 3153 47 2828 -22 
Q 2503 -91 2169 -91 
Q 1331 -91 842 396 
Q 353 884 353 1716 
Q 353 2575 817 3079 
Q 1281 3584 2069 3584 
Q 2775 3584 3186 3129 
Q 3597 2675 3597 1894 
z
M 3022 2063 
Q 3016 2534 2758 2815 
Q 2500 3097 2075 3097 
Q 1594 3097 1305 2825 
Q 1016 2553 972 2059 
L 3022 2063 
z
" transform="scale(0.015625)"/>
       <path id="DejaVuSans-20" transform="scale(0.015625)"/>
       <path id="DejaVuSans-28" d="M 1984 4856 
Q 1566 4138 1362 3434 
Q 1159 2731 1159 2009 
Q 1159 1288 1364 580 
Q 1569 -128 1984 -844 
L 1484 -844 
Q 1016 -109 783 600 
Q 550 1309 550 2009 
Q 550 2706 781 3412 
Q 1013 4119 1484 4856 
L 1984 4856 
z
" transform="scale(0.015625)"/>
       <path id="DejaVuSans-29" d="M 513 4856 
L 1013 4856 
Q 1481 4119 1714 3412 
Q 1947 2706 1947 2009 
Q 1947 1309 1714 600 
Q 1481 -109 1013 -844 
L 513 -844 
Q 928 -128 1133 580 
Q 1338 1288 1338 2009 
Q 1338 2731 1133 3434 
Q 928 4138 513 4856 
z
" transform="scale(0.015625)"/>
      </defs>
      <use xlink:href="#DejaVuSans-54"/>
      <use xlink:href="#DejaVuSans-69" x="57.958984"/>
      <use xlink:href="#DejaVuSans-6d" x="85.742188"/>
      <use xlink:href="#DejaVuSans-65" x="183.154297"/>
      <use xlink:href="#DejaVuSans-20" x="244.677734"/>
      <use xlink:href="#DejaVuSans-28" x="276.464844"/>
      <use xlink:href="#DejaVuSans-6d" x="315.478516"/>
      <use xlink:href="#DejaVuSans-29" x="412.890625"/>
     </g>
    </g>
   </g>
   <g id="matplotlib.axis_2">
    <g id="ytick_1">
     <g id="line2d_15">
      <path d="M 60.02524 288.037009 
L 451.051882 288.037009 
" clip-path="url(#p879aa9995e)" style="fill: none; stroke-dasharray: 3.7,1.6; stroke-dashoffset: 0; stroke: #b0b0b0"/>
     </g>
     <g id="line2d_16">
      <defs>
       <path id="m3bb628d9bb" d="M 0 0 
L -3.5 0 
" style="stroke: #000000; stroke-width: 0.8"/>
      </defs>
      <g>
       <use xlink:href="#m3bb628d9bb" x="60.02524" y="288.037009" style="stroke: #000000; stroke-width: 0.8"/>
      </g>
     </g>
     <g id="text_9">
      <!-- 0 -->
      <g transform="translate(42.84524 294.115759) scale(0.16 -0.16)">
       <use xlink:href="#DejaVuSans-30"/>
      </g>
     </g>
    </g>
    <g id="ytick_2">
     <g id="line2d_17">
      <path d="M 60.02524 236.532915 
L 451.051882 236.532915 
" clip-path="url(#p879aa9995e)" style="fill: none; stroke-dasharray: 3.7,1.6; stroke-dashoffset: 0; stroke: #b0b0b0"/>
     </g>
     <g id="line2d_18">
      <g>
       <use xlink:href="#m3bb628d9bb" x="60.02524" y="236.532915" style="stroke: #000000; stroke-width: 0.8"/>
      </g>
     </g>
     <g id="text_10">
      <!-- 100 -->
      <g transform="translate(22.48524 242.611665) scale(0.16 -0.16)">
       <use xlink:href="#DejaVuSans-31"/>
       <use xlink:href="#DejaVuSans-30" x="63.623047"/>
       <use xlink:href="#DejaVuSans-30" x="127.246094"/>
      </g>
     </g>
    </g>
    <g id="ytick_3">
     <g id="line2d_19">
      <path d="M 60.02524 185.028822 
L 451.051882 185.028822 
" clip-path="url(#p879aa9995e)" style="fill: none; stroke-dasharray: 3.7,1.6; stroke-dashoffset: 0; stroke: #b0b0b0"/>
     </g>
     <g id="line2d_20">
      <g>
       <use xlink:href="#m3bb628d9bb" x="60.02524" y="185.028822" style="stroke: #000000; stroke-width: 0.8"/>
      </g>
     </g>
     <g id="text_11">
      <!-- 200 -->
      <g transform="translate(22.48524 191.107572) scale(0.16 -0.16)">
       <use xlink:href="#DejaVuSans-32"/>
       <use xlink:href="#DejaVuSans-30" x="63.623047"/>
       <use xlink:href="#DejaVuSans-30" x="127.246094"/>
      </g>
     </g>
    </g>
    <g id="ytick_4">
     <g id="line2d_21">
      <path d="M 60.02524 133.524728 
L 451.051882 133.524728 
" clip-path="url(#p879aa9995e)" style="fill: none; stroke-dasharray: 3.7,1.6; stroke-dashoffset: 0; stroke: #b0b0b0"/>
     </g>
     <g id="line2d_22">
      <g>
       <use xlink:href="#m3bb628d9bb" x="60.02524" y="133.524728" style="stroke: #000000; stroke-width: 0.8"/>
      </g>
     </g>
     <g id="text_12">
      <!-- 300 -->
      <g transform="translate(22.48524 139.603478) scale(0.16 -0.16)">
       <use xlink:href="#DejaVuSans-33"/>
       <use xlink:href="#DejaVuSans-30" x="63.623047"/>
       <use xlink:href="#DejaVuSans-30" x="127.246094"/>
      </g>
     </g>
    </g>
    <g id="ytick_5">
     <g id="line2d_23">
      <path d="M 60.02524 82.020634 
L 451.051882 82.020634 
" clip-path="url(#p879aa9995e)" style="fill: none; stroke-dasharray: 3.7,1.6; stroke-dashoffset: 0; stroke: #b0b0b0"/>
     </g>
     <g id="line2d_24">
      <g>
       <use xlink:href="#m3bb628d9bb" x="60.02524" y="82.020634" style="stroke: #000000; stroke-width: 0.8"/>
      </g>
     </g>
     <g id="text_13">
      <!-- 400 -->
      <g transform="translate(22.48524 88.099384) scale(0.16 -0.16)">
       <use xlink:href="#DejaVuSans-34"/>
       <use xlink:href="#DejaVuSans-30" x="63.623047"/>
       <use xlink:href="#DejaVuSans-30" x="127.246094"/>
      </g>
     </g>
    </g>
    <g id="ytick_6">
     <g id="line2d_25">
      <path d="M 60.02524 30.516541 
L 451.051882 30.516541 
" clip-path="url(#p879aa9995e)" style="fill: none; stroke-dasharray: 3.7,1.6; stroke-dashoffset: 0; stroke: #b0b0b0"/>
     </g>
     <g id="line2d_26">
      <g>
       <use xlink:href="#m3bb628d9bb" x="60.02524" y="30.516541" style="stroke: #000000; stroke-width: 0.8"/>
      </g>
     </g>
     <g id="text_14">
      <!-- 500 -->
      <g transform="translate(22.48524 36.595291) scale(0.16 -0.16)">
       <use xlink:href="#DejaVuSans-35"/>
       <use xlink:href="#DejaVuSans-30" x="63.623047"/>
       <use xlink:href="#DejaVuSans-30" x="127.246094"/>
      </g>
     </g>
    </g>
    <g id="text_15">
     <!-- Queries complete -->
     <g transform="translate(15.15774 232.912) rotate(-90) scale(0.16 -0.16)">
      <defs>
       <path id="DejaVuSans-51" d="M 2522 4238 
Q 1834 4238 1429 3725 
Q 1025 3213 1025 2328 
Q 1025 1447 1429 934 
Q 1834 422 2522 422 
Q 3209 422 3611 934 
Q 4013 1447 4013 2328 
Q 4013 3213 3611 3725 
Q 3209 4238 2522 4238 
z
M 3406 84 
L 4238 -825 
L 3475 -825 
L 2784 -78 
Q 2681 -84 2626 -87 
Q 2572 -91 2522 -91 
Q 1538 -91 948 567 
Q 359 1225 359 2328 
Q 359 3434 948 4092 
Q 1538 4750 2522 4750 
Q 3503 4750 4090 4092 
Q 4678 3434 4678 2328 
Q 4678 1516 4351 937 
Q 4025 359 3406 84 
z
" transform="scale(0.015625)"/>
       <path id="DejaVuSans-75" d="M 544 1381 
L 544 3500 
L 1119 3500 
L 1119 1403 
Q 1119 906 1312 657 
Q 1506 409 1894 409 
Q 2359 409 2629 706 
Q 2900 1003 2900 1516 
L 2900 3500 
L 3475 3500 
L 3475 0 
L 2900 0 
L 2900 538 
Q 2691 219 2414 64 
Q 2138 -91 1772 -91 
Q 1169 -91 856 284 
Q 544 659 544 1381 
z
M 1991 3584 
L 1991 3584 
z
" transform="scale(0.015625)"/>
       <path id="DejaVuSans-72" d="M 2631 2963 
Q 2534 3019 2420 3045 
Q 2306 3072 2169 3072 
Q 1681 3072 1420 2755 
Q 1159 2438 1159 1844 
L 1159 0 
L 581 0 
L 581 3500 
L 1159 3500 
L 1159 2956 
Q 1341 3275 1631 3429 
Q 1922 3584 2338 3584 
Q 2397 3584 2469 3576 
Q 2541 3569 2628 3553 
L 2631 2963 
z
" transform="scale(0.015625)"/>
       <path id="DejaVuSans-73" d="M 2834 3397 
L 2834 2853 
Q 2591 2978 2328 3040 
Q 2066 3103 1784 3103 
Q 1356 3103 1142 2972 
Q 928 2841 928 2578 
Q 928 2378 1081 2264 
Q 1234 2150 1697 2047 
L 1894 2003 
Q 2506 1872 2764 1633 
Q 3022 1394 3022 966 
Q 3022 478 2636 193 
Q 2250 -91 1575 -91 
Q 1294 -91 989 -36 
Q 684 19 347 128 
L 347 722 
Q 666 556 975 473 
Q 1284 391 1588 391 
Q 1994 391 2212 530 
Q 2431 669 2431 922 
Q 2431 1156 2273 1281 
Q 2116 1406 1581 1522 
L 1381 1569 
Q 847 1681 609 1914 
Q 372 2147 372 2553 
Q 372 3047 722 3315 
Q 1072 3584 1716 3584 
Q 2034 3584 2315 3537 
Q 2597 3491 2834 3397 
z
" transform="scale(0.015625)"/>
       <path id="DejaVuSans-63" d="M 3122 3366 
L 3122 2828 
Q 2878 2963 2633 3030 
Q 2388 3097 2138 3097 
Q 1578 3097 1268 2742 
Q 959 2388 959 1747 
Q 959 1106 1268 751 
Q 1578 397 2138 397 
Q 2388 397 2633 464 
Q 2878 531 3122 666 
L 3122 134 
Q 2881 22 2623 -34 
Q 2366 -91 2075 -91 
Q 1284 -91 818 406 
Q 353 903 353 1747 
Q 353 2603 823 3093 
Q 1294 3584 2113 3584 
Q 2378 3584 2631 3529 
Q 2884 3475 3122 3366 
z
" transform="scale(0.015625)"/>
       <path id="DejaVuSans-6f" d="M 1959 3097 
Q 1497 3097 1228 2736 
Q 959 2375 959 1747 
Q 959 1119 1226 758 
Q 1494 397 1959 397 
Q 2419 397 2687 759 
Q 2956 1122 2956 1747 
Q 2956 2369 2687 2733 
Q 2419 3097 1959 3097 
z
M 1959 3584 
Q 2709 3584 3137 3096 
Q 3566 2609 3566 1747 
Q 3566 888 3137 398 
Q 2709 -91 1959 -91 
Q 1206 -91 779 398 
Q 353 888 353 1747 
Q 353 2609 779 3096 
Q 1206 3584 1959 3584 
z
" transform="scale(0.015625)"/>
       <path id="DejaVuSans-70" d="M 1159 525 
L 1159 -1331 
L 581 -1331 
L 581 3500 
L 1159 3500 
L 1159 2969 
Q 1341 3281 1617 3432 
Q 1894 3584 2278 3584 
Q 2916 3584 3314 3078 
Q 3713 2572 3713 1747 
Q 3713 922 3314 415 
Q 2916 -91 2278 -91 
Q 1894 -91 1617 61 
Q 1341 213 1159 525 
z
M 3116 1747 
Q 3116 2381 2855 2742 
Q 2594 3103 2138 3103 
Q 1681 3103 1420 2742 
Q 1159 2381 1159 1747 
Q 1159 1113 1420 752 
Q 1681 391 2138 391 
Q 2594 391 2855 752 
Q 3116 1113 3116 1747 
z
" transform="scale(0.015625)"/>
       <path id="DejaVuSans-6c" d="M 603 4863 
L 1178 4863 
L 1178 0 
L 603 0 
L 603 4863 
z
" transform="scale(0.015625)"/>
       <path id="DejaVuSans-74" d="M 1172 4494 
L 1172 3500 
L 2356 3500 
L 2356 3053 
L 1172 3053 
L 1172 1153 
Q 1172 725 1289 603 
Q 1406 481 1766 481 
L 2356 481 
L 2356 0 
L 1766 0 
Q 1100 0 847 248 
Q 594 497 594 1153 
L 594 3053 
L 172 3053 
L 172 3500 
L 594 3500 
L 594 4494 
L 1172 4494 
z
" transform="scale(0.015625)"/>
      </defs>
      <use xlink:href="#DejaVuSans-51"/>
      <use xlink:href="#DejaVuSans-75" x="78.710938"/>
      <use xlink:href="#DejaVuSans-65" x="142.089844"/>
      <use xlink:href="#DejaVuSans-72" x="203.613281"/>
      <use xlink:href="#DejaVuSans-69" x="244.726562"/>
      <use xlink:href="#DejaVuSans-65" x="272.509766"/>
      <use xlink:href="#DejaVuSans-73" x="334.033203"/>
      <use xlink:href="#DejaVuSans-20" x="386.132812"/>
      <use xlink:href="#DejaVuSans-63" x="417.919922"/>
      <use xlink:href="#DejaVuSans-6f" x="472.900391"/>
      <use xlink:href="#DejaVuSans-6d" x="534.082031"/>
      <use xlink:href="#DejaVuSans-70" x="631.494141"/>
      <use xlink:href="#DejaVuSans-6c" x="694.970703"/>
      <use xlink:href="#DejaVuSans-65" x="722.753906"/>
      <use xlink:href="#DejaVuSans-74" x="784.277344"/>
      <use xlink:href="#DejaVuSans-65" x="823.486328"/>
     </g>
    </g>
   </g>
   <g id="line2d_27">
    <path d="M 77.799178 288.037009 
L 78.805469 287.006927 
L 80.79437 286.491886 
L 82.191337 285.976845 
L 83.139222 284.431723 
L 84.746372 283.916682 
L 85.12921 283.401641 
L 86.680606 282.8866 
L 87.850269 282.371559 
L 87.861848 281.856518 
L 89.363704 280.826436 
L 89.372864 280.311395 
L 89.693861 279.796354 
L 89.830163 279.281313 
L 93.928733 277.73619 
L 94.560739 276.706108 
L 95.352158 276.191068 
L 95.362279 275.676027 
L 95.649593 275.160986 
L 97.154775 274.645945 
L 98.284888 274.130904 
L 99.751668 273.615863 
L 100.969269 271.555699 
L 101.043631 271.040658 
L 101.501029 270.010576 
L 102.456697 269.495535 
L 102.596865 268.980494 
L 103.716179 268.465453 
L 103.858079 266.920331 
L 103.893006 266.40529 
L 104.559721 265.890249 
L 106.369793 264.860167 
L 107.028602 264.345126 
L 107.237892 263.830085 
L 107.748351 263.315044 
L 107.758622 262.800003 
L 108.398504 262.284962 
L 109.227377 261.769921 
L 109.576954 261.25488 
L 110.38883 260.739839 
L 111.459903 260.224798 
L 112.035219 258.679676 
L 112.141723 257.134553 
L 112.729032 256.619512 
L 113.765786 256.104471 
L 113.773517 255.58943 
L 114.602543 255.074389 
L 114.610754 254.559348 
L 115.205363 254.044307 
L 118.056258 253.529266 
L 118.282273 253.014225 
L 118.319127 252.499184 
L 118.531884 251.469103 
L 118.607384 250.954062 
L 119.600774 250.439021 
L 119.608433 249.92398 
L 119.727342 249.408939 
L 120.288146 248.893898 
L 120.386872 248.378857 
L 120.639099 247.863816 
L 120.765964 247.348775 
L 121.297517 246.833734 
L 122.116883 246.318693 
L 122.314067 245.803652 
L 124.837633 245.288611 
L 125.096881 244.77357 
L 125.108464 244.258529 
L 125.872171 243.743489 
L 126.009753 243.228448 
L 126.668732 242.713407 
L 127.819842 242.198366 
L 128.289564 241.168284 
L 129.213428 240.653243 
L 129.583097 239.623161 
L 130.897698 238.593079 
L 133.197911 238.078038 
L 134.658609 237.562997 
L 135.336703 237.047956 
L 136.227196 236.532915 
L 136.626608 235.502834 
L 138.342652 233.957711 
L 138.46295 233.44267 
L 140.019269 232.412588 
L 140.48851 231.897547 
L 141.097536 230.352424 
L 141.168399 229.837383 
L 141.404207 229.322342 
L 141.412487 228.807301 
L 141.54765 228.29226 
L 142.179364 227.777219 
L 143.899232 226.747138 
L 143.907235 226.232097 
L 144.127969 225.717056 
L 144.997591 225.202015 
L 145.556002 224.686974 
L 145.796153 224.171933 
L 148.679609 223.656892 
L 149.292444 222.111769 
L 149.883134 221.596728 
L 152.088282 221.081687 
L 152.496844 220.051605 
L 153.390647 219.536564 
L 154.945595 219.021524 
L 155.20144 218.506483 
L 155.521005 217.476401 
L 155.732821 216.96136 
L 155.739754 216.446319 
L 156.356811 215.931278 
L 157.303593 215.416237 
L 159.308362 214.901196 
L 159.434889 214.386155 
L 160.038122 213.871114 
L 160.237751 213.356073 
L 160.359998 212.325991 
L 160.762374 210.780869 
L 161.592314 210.265828 
L 161.70091 209.750787 
L 162.274993 209.235746 
L 163.099575 208.720705 
L 163.342494 208.205664 
L 163.441571 207.690623 
L 164.157252 207.175582 
L 164.276342 206.660541 
L 165.322464 205.630459 
L 165.472523 205.115418 
L 168.131517 204.600377 
L 168.343081 204.085336 
L 169.217514 203.570295 
L 169.850114 203.055254 
L 170.12947 202.540214 
L 173.312287 202.025173 
L 175.657513 201.510132 
L 177.467261 200.995091 
L 177.806493 200.48005 
L 179.509955 199.449968 
L 179.785279 198.934927 
L 182.354254 198.419886 
L 182.375421 197.904845 
L 183.486717 197.389804 
L 183.75889 196.874763 
L 184.236174 196.359722 
L 186.324531 195.844681 
L 187.637526 195.32964 
L 187.923438 194.814599 
L 187.963446 194.299559 
L 188.656885 193.784518 
L 190.00617 193.269477 
L 190.842186 192.754436 
L 191.273946 191.724354 
L 193.261122 190.179231 
L 193.630133 189.66419 
L 194.921231 188.634108 
L 197.409806 188.119067 
L 197.621951 187.604026 
L 199.202488 187.088985 
L 199.519142 186.573945 
L 199.531107 186.058904 
L 200.294917 185.543863 
L 200.712583 184.513781 
L 202.763058 183.99874 
L 204.165786 183.483699 
L 204.832928 182.968658 
L 205.226943 182.453617 
L 205.550039 181.423535 
L 206.27316 180.908494 
L 206.399122 180.393453 
L 206.85558 179.878412 
L 207.231398 178.33329 
L 207.461451 177.818249 
L 207.623967 176.788167 
L 208.5275 176.273126 
L 208.9124 175.758085 
L 209.510539 175.243044 
L 209.752212 174.728003 
L 210.138433 174.212962 
L 210.313979 173.697921 
L 211.143011 173.18288 
L 211.299496 172.667839 
L 211.662793 172.152798 
L 212.402856 171.637757 
L 212.701524 170.607675 
L 213.472927 170.092635 
L 216.079163 169.577594 
L 216.279426 168.547512 
L 216.972474 168.032471 
L 217.435146 166.487348 
L 217.442105 165.972307 
L 218.233311 165.457266 
L 218.368252 164.942225 
L 218.375236 164.427184 
L 218.818514 163.397102 
L 221.073653 162.882061 
L 222.218669 161.85198 
L 222.702054 160.821898 
L 222.740889 160.306857 
L 223.271563 159.791816 
L 224.929905 158.761734 
L 224.939724 158.246693 
L 226.013921 157.216611 
L 226.209507 156.70157 
L 227.503911 155.671488 
L 228.204707 155.156447 
L 228.457056 154.641406 
L 229.301489 154.126365 
L 229.476543 153.611325 
L 230.700888 152.581243 
L 231.576033 151.551161 
L 232.105537 150.521079 
L 232.264025 150.006038 
L 232.994484 149.490997 
L 233.327398 148.460915 
L 234.022287 147.945874 
L 234.15953 147.430833 
L 236.659497 146.915792 
L 237.285642 146.400751 
L 238.211837 145.88571 
L 238.466891 145.37067 
L 240.514108 144.855629 
L 241.187446 143.310506 
L 241.955045 142.795465 
L 242.468173 141.250342 
L 244.534646 140.735301 
L 244.912069 139.705219 
L 245.929498 139.190178 
L 246.569004 138.675137 
L 246.67725 138.160096 
L 247.601862 137.645055 
L 247.694955 137.130015 
L 248.248995 136.614974 
L 248.621152 136.099933 
L 248.629339 135.584892 
L 249.202775 135.069851 
L 249.408359 134.55481 
L 250.610174 133.524728 
L 250.791467 132.494646 
L 251.167139 131.979605 
L 251.364036 131.464564 
L 251.897637 130.949523 
L 254.306924 130.434482 
L 255.05044 129.919441 
L 256.201222 128.88936 
L 257.480936 127.859278 
L 258.11916 127.344237 
L 258.972415 125.799114 
L 258.982261 125.284073 
L 259.645053 124.769032 
L 262.376439 123.223909 
L 262.931629 122.193827 
L 265.360578 120.648705 
L 265.555204 120.133664 
L 266.376879 119.618623 
L 270.086875 119.103582 
L 270.109844 118.588541 
L 270.871036 117.043418 
L 271.686281 116.528377 
L 271.696609 116.013336 
L 272.75045 115.498295 
L 273.40346 114.983254 
L 273.511479 114.468213 
L 274.515063 113.953172 
L 274.525117 113.438131 
L 275.136769 112.923091 
L 275.36863 112.40805 
L 276.078743 111.893009 
L 276.994834 111.377968 
L 278.625043 109.832845 
L 278.752162 109.317804 
L 279.222462 108.802763 
L 282.63811 108.287722 
L 282.8668 107.772681 
L 282.877044 107.25764 
L 283.876744 106.742599 
L 284.057484 106.227558 
L 284.13919 105.197476 
L 284.868615 103.652354 
L 285.587056 103.137313 
L 285.869556 102.107231 
L 286.028881 101.59219 
L 286.828579 101.077149 
L 286.836676 100.562108 
L 287.056239 100.047067 
L 287.843847 99.532026 
L 287.858435 98.501944 
L 289.249872 97.986903 
L 289.448935 97.471862 
L 289.463715 96.441781 
L 291.857531 95.92674 
L 293.450613 95.411699 
L 293.754945 94.896658 
L 294.289533 94.381617 
L 295.888085 93.866576 
L 298.782487 91.806412 
L 298.792147 91.291371 
L 298.929228 90.77633 
L 299.4732 89.746248 
L 302.100991 89.231207 
L 302.245896 88.716166 
L 303.24487 88.201126 
L 305.579162 87.686085 
L 307.220146 87.171044 
L 307.595251 86.656003 
L 309.041076 86.140962 
L 309.911206 85.625921 
L 310.159702 85.11088 
L 310.796588 84.595839 
L 311.234433 83.565757 
L 312.123214 83.050716 
L 312.13329 82.535675 
L 313.207758 82.020634 
L 313.421373 81.505593 
L 314.186949 80.990552 
L 314.422874 80.475511 
L 314.926958 79.960471 
L 315.320878 78.930389 
L 318.138925 78.415348 
L 318.979977 77.900307 
L 319.220341 77.385266 
L 321.148522 76.870225 
L 323.583707 75.325102 
L 326.565322 74.810061 
L 326.905158 74.29502 
L 327.825505 73.779979 
L 328.355531 72.749897 
L 328.523272 72.234856 
L 329.271119 71.719816 
L 332.108562 71.204775 
L 332.619785 70.689734 
L 333.427812 70.174693 
L 334.212149 68.62957 
L 335.406543 68.114529 
L 338.590873 67.599488 
L 340.967265 66.054365 
L 341.118834 65.539324 
L 341.718518 65.024283 
L 343.289542 63.994202 
L 343.699471 62.96412 
L 344.611115 62.449079 
L 344.742719 61.934038 
L 345.504955 61.418997 
L 345.714401 60.903956 
L 348.222829 60.388915 
L 348.468203 59.873874 
L 348.504136 59.358833 
L 349.274852 58.843792 
L 349.605558 57.81371 
L 350.262087 57.298669 
L 350.758612 55.238506 
L 350.88303 54.208424 
L 351.555467 53.693383 
L 351.650861 53.178342 
L 352.430712 52.663301 
L 352.866392 51.633219 
L 355.441791 51.118178 
L 355.588953 50.603137 
L 357.293422 50.088096 
L 357.615063 49.573055 
L 358.999846 49.058014 
L 359.77983 48.542973 
L 359.92318 48.027932 
L 361.846571 46.997851 
L 362.129714 46.48281 
L 362.139548 45.967769 
L 362.376577 45.452728 
L 362.383159 44.937687 
L 362.574358 44.422646 
L 364.076488 43.392564 
L 366.565464 42.877523 
L 366.905102 41.847441 
L 367.725514 41.3324 
L 367.979739 40.817359 
L 368.021334 40.302318 
L 370.189098 39.787277 
L 370.441008 39.272237 
L 370.452678 38.757196 
L 371.336168 38.242155 
L 373.583293 37.727114 
L 374.206716 37.212073 
L 375.957367 36.697032 
L 376.424803 36.181991 
L 376.424803 36.181991 
" clip-path="url(#p879aa9995e)" style="fill: none; stroke: #1f77b4; stroke-width: 3; stroke-linecap: square"/>
   </g>
   <g id="line2d_28">
    <path d="M 77.799178 288.037009 
L 78.133748 287.521968 
L 81.512102 285.976845 
L 81.791429 285.461804 
L 82.536391 284.946763 
L 82.719814 284.431723 
L 86.029582 282.371559 
L 86.056521 281.856518 
L 87.762455 280.826436 
L 87.787224 280.311395 
L 89.808547 279.281313 
L 92.383613 277.73619 
L 92.884286 276.706108 
L 93.538991 276.191068 
L 93.56245 275.676027 
L 93.718949 275.160986 
L 94.561013 274.645945 
L 95.693427 274.130904 
L 96.499465 273.615863 
L 96.951999 272.585781 
L 97.757397 272.07074 
L 98.347382 271.555699 
L 98.625862 271.040658 
L 101.877953 268.980494 
L 103.064904 268.465453 
L 103.110943 267.435372 
L 103.898712 266.920331 
L 104.181325 266.40529 
L 104.85665 265.890249 
L 108.141382 264.345126 
L 108.378181 263.830085 
L 109.291877 263.315044 
L 109.316249 262.800003 
L 110.116017 262.284962 
L 111.231228 261.769921 
L 111.493816 261.25488 
L 113.369662 260.224798 
L 113.626493 259.709758 
L 115.26816 258.679676 
L 115.295452 258.164635 
L 115.878737 257.649594 
L 116.04968 257.134553 
L 116.607607 256.619512 
L 117.48733 256.104471 
L 117.509071 255.58943 
L 118.554537 255.074389 
L 118.583556 254.559348 
L 119.321837 254.044307 
L 121.98791 253.529266 
L 122.761345 253.014225 
L 123.618592 250.954062 
L 124.457609 250.439021 
L 124.479318 249.92398 
L 124.708391 249.408939 
L 125.323794 248.893898 
L 125.472929 248.378857 
L 128.914299 246.318693 
L 129.183185 245.803652 
L 130.925046 245.288611 
L 131.61785 244.77357 
L 131.64701 244.258529 
L 132.297266 243.743489 
L 132.644842 243.228448 
L 133.179585 242.713407 
L 134.713267 241.683325 
L 134.96634 241.168284 
L 136.087358 240.653243 
L 136.317545 240.138202 
L 137.041437 239.623161 
L 138.903155 238.593079 
L 141.187197 238.078038 
L 142.659289 237.562997 
L 144.677991 236.017874 
L 144.836185 235.502834 
L 147.036659 233.957711 
L 147.687178 233.44267 
L 150.690266 231.897547 
L 151.365265 230.352424 
L 151.491397 229.837383 
L 152.332905 229.322342 
L 152.359295 228.807301 
L 154.645771 227.262179 
L 155.33404 226.747138 
L 155.358044 226.232097 
L 158.411612 224.171933 
L 160.154084 223.656892 
L 160.818456 223.141851 
L 161.221125 222.111769 
L 161.991176 221.596728 
L 164.249451 221.081687 
L 164.391081 220.566646 
L 165.721117 219.536564 
L 167.812746 219.021524 
L 168.517858 218.506483 
L 168.860552 217.476401 
L 169.563679 216.96136 
L 169.584793 216.446319 
L 170.223365 215.931278 
L 171.344984 215.416237 
L 173.799153 214.901196 
L 173.937597 214.386155 
L 175.586034 213.356073 
L 175.608146 212.841032 
L 175.755234 212.325991 
L 176.550119 211.81095 
L 176.881961 211.295909 
L 179.493571 209.750787 
L 182.292521 207.690623 
L 183.404573 207.175582 
L 185.859909 205.630459 
L 186.094099 205.115418 
L 188.65704 204.600377 
L 188.88516 204.085336 
L 191.250094 202.540214 
L 193.042995 202.025173 
L 197.00903 200.995091 
L 197.233044 200.48005 
L 198.396296 199.965009 
L 200.013217 198.934927 
L 201.795506 198.419886 
L 201.826571 197.904845 
L 202.273788 197.389804 
L 202.421567 196.874763 
L 202.993795 196.359722 
L 205.057894 195.844681 
L 206.318991 195.32964 
L 207.079625 194.814599 
L 207.295659 194.299559 
L 207.813054 193.784518 
L 209.923477 193.269477 
L 210.679427 192.754436 
L 210.842188 192.239395 
L 213.108947 190.694272 
L 213.734752 190.179231 
L 214.136989 189.66419 
L 215.65896 188.634108 
L 218.136958 188.119067 
L 218.858628 187.604026 
L 220.931348 187.088985 
L 221.8866 186.573945 
L 221.912751 186.058904 
L 223.321686 185.028822 
L 223.543838 184.513781 
L 225.975634 183.99874 
L 227.84374 183.483699 
L 228.501725 182.968658 
L 228.978911 182.453617 
L 229.347716 181.423535 
L 231.062562 180.393453 
L 231.7428 179.878412 
L 232.227079 178.33329 
L 233.113693 177.818249 
L 233.366716 176.788167 
L 237.341313 174.212962 
L 237.508956 173.697921 
L 238.70257 173.18288 
L 239.379926 172.667839 
L 240.343352 172.152798 
L 241.53523 171.122716 
L 241.653898 170.607675 
L 242.737731 170.092635 
L 245.171486 169.577594 
L 245.434672 168.547512 
L 246.880821 167.51743 
L 247.098459 167.002389 
L 247.817104 166.487348 
L 247.836831 165.972307 
L 248.909437 165.457266 
L 249.644329 164.942225 
L 249.669554 164.427184 
L 249.923084 163.912143 
L 250.725642 163.397102 
L 252.472161 162.882061 
L 254.666078 160.821898 
L 254.845641 160.306857 
L 256.713044 158.761734 
L 256.735537 158.246693 
L 257.876574 157.216611 
L 258.086216 156.70157 
L 259.013097 156.186529 
L 259.65954 155.671488 
L 260.793357 155.156447 
L 262.213458 154.126365 
L 262.674967 153.611325 
L 263.676241 153.096284 
L 265.934411 151.551161 
L 266.702918 151.03612 
L 266.907946 150.521079 
L 267.573405 150.006038 
L 268.629431 149.490997 
L 268.899951 148.975956 
L 269.541321 148.460915 
L 270.49663 147.945874 
L 271.06693 147.430833 
L 273.351047 146.915792 
L 276.359317 145.37067 
L 278.233749 144.855629 
L 278.799705 144.340588 
L 279.572197 143.825547 
L 279.821022 143.310506 
L 280.917373 142.795465 
L 281.615678 142.280424 
L 282.042245 141.250342 
L 283.779199 140.735301 
L 285.184119 139.705219 
L 286.595405 138.675137 
L 286.80166 138.160096 
L 287.729301 137.645055 
L 287.849245 137.130015 
L 289.530654 136.099933 
L 289.555569 135.584892 
L 290.305125 135.069851 
L 290.541732 134.55481 
L 292.104026 133.524728 
L 292.766747 133.009687 
L 293.037797 132.494646 
L 294.006105 131.979605 
L 294.24264 131.464564 
L 295.118333 130.949523 
L 297.61031 130.434482 
L 299.682007 129.404401 
L 302.807356 127.344237 
L 304.301066 126.314155 
L 304.553583 125.799114 
L 304.574708 125.284073 
L 305.217325 124.769032 
L 306.818538 123.73895 
L 308.178987 122.708868 
L 308.432897 122.193827 
L 310.002276 121.163746 
L 311.734936 119.618623 
L 313.928095 119.103582 
L 313.964885 118.588541 
L 314.18415 118.0735 
L 316.439905 116.528377 
L 316.465429 116.013336 
L 317.848603 114.983254 
L 318.437605 114.468213 
L 319.40998 113.953172 
L 319.437103 113.438131 
L 320.121333 112.923091 
L 320.281786 112.40805 
L 320.862907 111.893009 
L 321.692886 111.377968 
L 322.257207 110.862927 
L 323.659447 109.832845 
L 325.10803 108.802763 
L 327.335161 108.287722 
L 327.553172 107.772681 
L 327.575189 107.25764 
L 328.62294 106.742599 
L 328.835063 106.227558 
L 328.955149 105.197476 
L 329.611874 104.682436 
L 329.841808 104.167395 
L 330.700941 103.652354 
L 331.295776 103.137313 
L 331.852841 101.59219 
L 332.923588 101.077149 
L 332.951938 100.562108 
L 333.735812 100.047067 
L 334.803215 99.532026 
L 334.848116 98.501944 
L 335.554834 97.986903 
L 335.809668 97.471862 
L 335.852911 96.441781 
L 338.597238 95.92674 
L 342.381464 95.411699 
L 344.48041 94.381617 
L 347.364261 93.866576 
L 349.96056 92.836494 
L 350.836785 92.321453 
L 352.053786 91.806412 
L 352.080366 91.291371 
L 352.349836 90.77633 
L 353.171153 90.261289 
L 353.763661 89.746248 
L 355.712676 89.231207 
L 355.849925 88.716166 
L 356.936649 88.201126 
L 358.988166 87.686085 
L 360.075032 87.171044 
L 360.77207 86.656003 
L 361.841043 86.140962 
L 362.428305 85.625921 
L 362.630334 85.11088 
L 364.257691 84.080798 
L 364.469521 83.565757 
L 365.29582 83.050716 
L 365.362988 82.535675 
L 365.997152 82.020634 
L 366.259037 81.505593 
L 367.199483 80.990552 
L 369.635517 78.930389 
L 371.232864 78.415348 
L 372.440848 77.385266 
L 374.22159 76.870225 
L 375.144354 76.355184 
L 375.750595 75.840143 
L 376.718393 75.325102 
L 378.775097 74.810061 
L 381.760321 73.264938 
L 382.198653 72.234856 
L 382.960715 71.719816 
L 385.072232 71.204775 
L 386.661289 70.174693 
L 386.846364 69.659652 
L 387.69855 69.144611 
L 388.831323 68.114529 
L 390.785634 67.599488 
L 391.461876 67.084447 
L 392.455485 66.569406 
L 393.181698 66.054365 
L 393.453408 65.539324 
L 394.013707 65.024283 
L 395.705767 63.994202 
L 396.265322 62.96412 
L 397.019288 62.449079 
L 397.153591 61.934038 
L 397.79961 61.418997 
L 398.016613 60.903956 
L 399.755277 60.388915 
L 400.13545 59.873874 
L 400.271989 59.358833 
L 401.199818 58.843792 
L 401.617166 57.81371 
L 402.716658 57.298669 
L 404.592412 55.753547 
L 404.760533 55.238506 
L 404.783058 54.723465 
L 404.990782 54.208424 
L 407.067933 52.663301 
L 407.356916 52.14826 
L 407.963405 51.633219 
L 409.70213 51.118178 
L 409.952266 50.603137 
L 411.850369 50.088096 
L 412.413852 49.573055 
L 414.194797 49.058014 
L 414.852698 48.542973 
L 415.034348 48.027932 
L 416.106934 47.512892 
L 416.761036 46.997851 
L 416.978576 46.48281 
L 417.002836 45.967769 
L 417.648582 45.452728 
L 417.677611 44.937687 
L 417.915471 44.422646 
L 419.053115 43.392564 
L 421.141882 42.877523 
L 421.489375 41.847441 
L 422.508557 41.3324 
L 423.12635 40.817359 
L 423.337757 40.302318 
L 425.222357 39.787277 
L 426.092698 39.272237 
L 426.116505 38.757196 
L 427.098044 38.242155 
L 429.471021 37.727114 
L 430.42041 37.212073 
L 432.428136 36.697032 
L 433.277944 36.181991 
L 433.277944 36.181991 
" clip-path="url(#p879aa9995e)" style="fill: none; stroke: #ff7f0e; stroke-width: 3; stroke-linecap: square"/>
   </g>
   <g id="patch_3">
    <path d="M 60.02524 300.62976 
L 60.02524 23.58924 
" style="fill: none; stroke: #000000; stroke-width: 0.8; stroke-linejoin: miter; stroke-linecap: square"/>
   </g>
   <g id="patch_4">
    <path d="M 451.051882 300.62976 
L 451.051882 23.58924 
" style="fill: none; stroke: #000000; stroke-width: 0.8; stroke-linejoin: miter; stroke-linecap: square"/>
   </g>
   <g id="patch_5">
    <path d="M 60.02524 300.62976 
L 451.051882 300.62976 
" style="fill: none; stroke: #000000; stroke-width: 0.8; stroke-linejoin: miter; stroke-linecap: square"/>
   </g>
   <g id="patch_6">
    <path d="M 60.02524 23.58924 
L 451.051882 23.58924 
" style="fill: none; stroke: #000000; stroke-width: 0.8; stroke-linejoin: miter; stroke-linecap: square"/>
   </g>
   <g id="text_16">
    <!-- PostgreSQL vs Bao Optimizer -->
    <g transform="translate(115.555561 17.58924) scale(0.192 -0.192)">
     <defs>
      <path id="DejaVuSans-50" d="M 1259 4147 
L 1259 2394 
L 2053 2394 
Q 2494 2394 2734 2622 
Q 2975 2850 2975 3272 
Q 2975 3691 2734 3919 
Q 2494 4147 2053 4147 
L 1259 4147 
z
M 628 4666 
L 2053 4666 
Q 2838 4666 3239 4311 
Q 3641 3956 3641 3272 
Q 3641 2581 3239 2228 
Q 2838 1875 2053 1875 
L 1259 1875 
L 1259 0 
L 628 0 
L 628 4666 
z
" transform="scale(0.015625)"/>
      <path id="DejaVuSans-67" d="M 2906 1791 
Q 2906 2416 2648 2759 
Q 2391 3103 1925 3103 
Q 1463 3103 1205 2759 
Q 947 2416 947 1791 
Q 947 1169 1205 825 
Q 1463 481 1925 481 
Q 2391 481 2648 825 
Q 2906 1169 2906 1791 
z
M 3481 434 
Q 3481 -459 3084 -895 
Q 2688 -1331 1869 -1331 
Q 1566 -1331 1297 -1286 
Q 1028 -1241 775 -1147 
L 775 -588 
Q 1028 -725 1275 -790 
Q 1522 -856 1778 -856 
Q 2344 -856 2625 -561 
Q 2906 -266 2906 331 
L 2906 616 
Q 2728 306 2450 153 
Q 2172 0 1784 0 
Q 1141 0 747 490 
Q 353 981 353 1791 
Q 353 2603 747 3093 
Q 1141 3584 1784 3584 
Q 2172 3584 2450 3431 
Q 2728 3278 2906 2969 
L 2906 3500 
L 3481 3500 
L 3481 434 
z
" transform="scale(0.015625)"/>
      <path id="DejaVuSans-53" d="M 3425 4513 
L 3425 3897 
Q 3066 4069 2747 4153 
Q 2428 4238 2131 4238 
Q 1616 4238 1336 4038 
Q 1056 3838 1056 3469 
Q 1056 3159 1242 3001 
Q 1428 2844 1947 2747 
L 2328 2669 
Q 3034 2534 3370 2195 
Q 3706 1856 3706 1288 
Q 3706 609 3251 259 
Q 2797 -91 1919 -91 
Q 1588 -91 1214 -16 
Q 841 59 441 206 
L 441 856 
Q 825 641 1194 531 
Q 1563 422 1919 422 
Q 2459 422 2753 634 
Q 3047 847 3047 1241 
Q 3047 1584 2836 1778 
Q 2625 1972 2144 2069 
L 1759 2144 
Q 1053 2284 737 2584 
Q 422 2884 422 3419 
Q 422 4038 858 4394 
Q 1294 4750 2059 4750 
Q 2388 4750 2728 4690 
Q 3069 4631 3425 4513 
z
" transform="scale(0.015625)"/>
      <path id="DejaVuSans-4c" d="M 628 4666 
L 1259 4666 
L 1259 531 
L 3531 531 
L 3531 0 
L 628 0 
L 628 4666 
z
" transform="scale(0.015625)"/>
      <path id="DejaVuSans-76" d="M 191 3500 
L 800 3500 
L 1894 563 
L 2988 3500 
L 3597 3500 
L 2284 0 
L 1503 0 
L 191 3500 
z
" transform="scale(0.015625)"/>
      <path id="DejaVuSans-42" d="M 1259 2228 
L 1259 519 
L 2272 519 
Q 2781 519 3026 730 
Q 3272 941 3272 1375 
Q 3272 1813 3026 2020 
Q 2781 2228 2272 2228 
L 1259 2228 
z
M 1259 4147 
L 1259 2741 
L 2194 2741 
Q 2656 2741 2882 2914 
Q 3109 3088 3109 3444 
Q 3109 3797 2882 3972 
Q 2656 4147 2194 4147 
L 1259 4147 
z
M 628 4666 
L 2241 4666 
Q 2963 4666 3353 4366 
Q 3744 4066 3744 3513 
Q 3744 3084 3544 2831 
Q 3344 2578 2956 2516 
Q 3422 2416 3680 2098 
Q 3938 1781 3938 1306 
Q 3938 681 3513 340 
Q 3088 0 2303 0 
L 628 0 
L 628 4666 
z
" transform="scale(0.015625)"/>
      <path id="DejaVuSans-61" d="M 2194 1759 
Q 1497 1759 1228 1600 
Q 959 1441 959 1056 
Q 959 750 1161 570 
Q 1363 391 1709 391 
Q 2188 391 2477 730 
Q 2766 1069 2766 1631 
L 2766 1759 
L 2194 1759 
z
M 3341 1997 
L 3341 0 
L 2766 0 
L 2766 531 
Q 2569 213 2275 61 
Q 1981 -91 1556 -91 
Q 1019 -91 701 211 
Q 384 513 384 1019 
Q 384 1609 779 1909 
Q 1175 2209 1959 2209 
L 2766 2209 
L 2766 2266 
Q 2766 2663 2505 2880 
Q 2244 3097 1772 3097 
Q 1472 3097 1187 3025 
Q 903 2953 641 2809 
L 641 3341 
Q 956 3463 1253 3523 
Q 1550 3584 1831 3584 
Q 2591 3584 2966 3190 
Q 3341 2797 3341 1997 
z
" transform="scale(0.015625)"/>
      <path id="DejaVuSans-4f" d="M 2522 4238 
Q 1834 4238 1429 3725 
Q 1025 3213 1025 2328 
Q 1025 1447 1429 934 
Q 1834 422 2522 422 
Q 3209 422 3611 934 
Q 4013 1447 4013 2328 
Q 4013 3213 3611 3725 
Q 3209 4238 2522 4238 
z
M 2522 4750 
Q 3503 4750 4090 4092 
Q 4678 3434 4678 2328 
Q 4678 1225 4090 567 
Q 3503 -91 2522 -91 
Q 1538 -91 948 565 
Q 359 1222 359 2328 
Q 359 3434 948 4092 
Q 1538 4750 2522 4750 
z
" transform="scale(0.015625)"/>
      <path id="DejaVuSans-7a" d="M 353 3500 
L 3084 3500 
L 3084 2975 
L 922 459 
L 3084 459 
L 3084 0 
L 275 0 
L 275 525 
L 2438 3041 
L 353 3041 
L 353 3500 
z
" transform="scale(0.015625)"/>
     </defs>
     <use xlink:href="#DejaVuSans-50"/>
     <use xlink:href="#DejaVuSans-6f" x="56.677734"/>
     <use xlink:href="#DejaVuSans-73" x="117.859375"/>
     <use xlink:href="#DejaVuSans-74" x="169.958984"/>
     <use xlink:href="#DejaVuSans-67" x="209.167969"/>
     <use xlink:href="#DejaVuSans-72" x="272.644531"/>
     <use xlink:href="#DejaVuSans-65" x="311.507812"/>
     <use xlink:href="#DejaVuSans-53" x="373.03125"/>
     <use xlink:href="#DejaVuSans-51" x="436.507812"/>
     <use xlink:href="#DejaVuSans-4c" x="515.21875"/>
     <use xlink:href="#DejaVuSans-20" x="570.931641"/>
     <use xlink:href="#DejaVuSans-76" x="602.71875"/>
     <use xlink:href="#DejaVuSans-73" x="661.898438"/>
     <use xlink:href="#DejaVuSans-20" x="713.998047"/>
     <use xlink:href="#DejaVuSans-42" x="745.785156"/>
     <use xlink:href="#DejaVuSans-61" x="814.388672"/>
     <use xlink:href="#DejaVuSans-6f" x="875.667969"/>
     <use xlink:href="#DejaVuSans-20" x="936.849609"/>
     <use xlink:href="#DejaVuSans-4f" x="968.636719"/>
     <use xlink:href="#DejaVuSans-70" x="1047.347656"/>
     <use xlink:href="#DejaVuSans-74" x="1110.824219"/>
     <use xlink:href="#DejaVuSans-69" x="1150.033203"/>
     <use xlink:href="#DejaVuSans-6d" x="1177.816406"/>
     <use xlink:href="#DejaVuSans-69" x="1275.228516"/>
     <use xlink:href="#DejaVuSans-7a" x="1303.011719"/>
     <use xlink:href="#DejaVuSans-65" x="1355.501953"/>
     <use xlink:href="#DejaVuSans-72" x="1417.025391"/>
    </g>
   </g>
   <g id="legend_1">
    <g id="patch_7">
     <path d="M 71.22524 106.84424 
L 213.77774 106.84424 
Q 216.97774 106.84424 216.97774 103.64424 
L 216.97774 34.78924 
Q 216.97774 31.58924 213.77774 31.58924 
L 71.22524 31.58924 
Q 68.02524 31.58924 68.02524 34.78924 
L 68.02524 103.64424 
Q 68.02524 106.84424 71.22524 106.84424 
z
" style="fill: #ffffff; opacity: 0.8; stroke: #cccccc; stroke-linejoin: miter"/>
    </g>
    <g id="PathCollection_2">
     <defs>
      <path id="mf2e13c2b61" d="M 0 3.354102 
C 0.889518 3.354102 1.742724 3.000693 2.371708 2.371708 
C 3.000693 1.742724 3.354102 0.889518 3.354102 0 
C 3.354102 -0.889518 3.000693 -1.742724 2.371708 -2.371708 
C 1.742724 -3.000693 0.889518 -3.354102 0 -3.354102 
C -0.889518 -3.354102 -1.742724 -3.000693 -2.371708 -2.371708 
C -3.000693 -1.742724 -3.354102 -0.889518 -3.354102 0 
C -3.354102 0.889518 -3.000693 1.742724 -2.371708 2.371708 
C -1.742724 3.000693 -0.889518 3.354102 0 3.354102 
z
" style="stroke: #ff0000"/>
     </defs>
     <g>
      <use xlink:href="#mf2e13c2b61" x="90.42524" y="45.94674" style="fill: #ff0000; stroke: #ff0000"/>
     </g>
    </g>
    <g id="text_17">
     <!-- Training -->
     <g transform="translate(119.22524 50.14674) scale(0.16 -0.16)">
      <defs>
       <path id="DejaVuSans-6e" d="M 3513 2113 
L 3513 0 
L 2938 0 
L 2938 2094 
Q 2938 2591 2744 2837 
Q 2550 3084 2163 3084 
Q 1697 3084 1428 2787 
Q 1159 2491 1159 1978 
L 1159 0 
L 581 0 
L 581 3500 
L 1159 3500 
L 1159 2956 
Q 1366 3272 1645 3428 
Q 1925 3584 2291 3584 
Q 2894 3584 3203 3211 
Q 3513 2838 3513 2113 
z
" transform="scale(0.015625)"/>
      </defs>
      <use xlink:href="#DejaVuSans-54"/>
      <use xlink:href="#DejaVuSans-72" x="46.333984"/>
      <use xlink:href="#DejaVuSans-61" x="87.447266"/>
      <use xlink:href="#DejaVuSans-69" x="148.726562"/>
      <use xlink:href="#DejaVuSans-6e" x="176.509766"/>
      <use xlink:href="#DejaVuSans-69" x="239.888672"/>
      <use xlink:href="#DejaVuSans-6e" x="267.671875"/>
      <use xlink:href="#DejaVuSans-67" x="331.050781"/>
     </g>
    </g>
    <g id="line2d_29">
     <path d="M 74.42524 68.03174 
L 90.42524 68.03174 
L 106.42524 68.03174 
" style="fill: none; stroke: #1f77b4; stroke-width: 3; stroke-linecap: square"/>
    </g>
    <g id="text_18">
     <!-- PostgreSQL -->
     <g transform="translate(119.22524 73.63174) scale(0.16 -0.16)">
      <use xlink:href="#DejaVuSans-50"/>
      <use xlink:href="#DejaVuSans-6f" x="56.677734"/>
      <use xlink:href="#DejaVuSans-73" x="117.859375"/>
      <use xlink:href="#DejaVuSans-74" x="169.958984"/>
      <use xlink:href="#DejaVuSans-67" x="209.167969"/>
      <use xlink:href="#DejaVuSans-72" x="272.644531"/>
      <use xlink:href="#DejaVuSans-65" x="311.507812"/>
      <use xlink:href="#DejaVuSans-53" x="373.03125"/>
      <use xlink:href="#DejaVuSans-51" x="436.507812"/>
      <use xlink:href="#DejaVuSans-4c" x="515.21875"/>
     </g>
    </g>
    <g id="line2d_30">
     <path d="M 74.42524 91.51674 
L 90.42524 91.51674 
L 106.42524 91.51674 
" style="fill: none; stroke: #ff7f0e; stroke-width: 3; stroke-linecap: square"/>
    </g>
    <g id="text_19">
     <!-- Bao -->
     <g transform="translate(119.22524 97.11674) scale(0.16 -0.16)">
      <use xlink:href="#DejaVuSans-42"/>
      <use xlink:href="#DejaVuSans-61" x="68.603516"/>
      <use xlink:href="#DejaVuSans-6f" x="129.882812"/>
     </g>
    </g>
   </g>
  </g>
 </g>
 <defs>
  <clipPath id="p879aa9995e">
   <rect x="60.02524" y="23.58924" width="391.026642" height="277.04052"/>
  </clipPath>
 </defs>
</svg>
