<?xml version="1.0" encoding="utf-8" standalone="no"?>
<!DOCTYPE svg PUBLIC "-//W3C//DTD SVG 1.1//EN"
  "http://www.w3.org/Graphics/SVG/1.1/DTD/svg11.dtd">
<svg xmlns:xlink="http://www.w3.org/1999/xlink" width="720pt" height="288pt" viewBox="0 0 720 288" xmlns="http://www.w3.org/2000/svg" version="1.1">
 <metadata>
  <rdf:RDF xmlns:dc="http://purl.org/dc/elements/1.1/" xmlns:cc="http://creativecommons.org/ns#" xmlns:rdf="http://www.w3.org/1999/02/22-rdf-syntax-ns#">
   <cc:Work>
    <dc:type rdf:resource="http://purl.org/dc/dcmitype/StillImage"/>
    <dc:date>2024-11-26T23:41:56.376435</dc:date>
    <dc:format>image/svg+xml</dc:format>
    <dc:creator>
     <cc:Agent>
      <dc:title>Matplotlib v3.7.2, https://matplotlib.org/</dc:title>
     </cc:Agent>
    </dc:creator>
   </cc:Work>
  </rdf:RDF>
 </metadata>
 <defs>
  <style type="text/css">*{stroke-linejoin: round; stroke-linecap: butt}</style>
 </defs>
 <g id="figure_1">
  <g id="patch_1">
   <path d="M 0 288 
L 720 288 
L 720 0 
L 0 0 
z
" style="fill: #ffffff"/>
  </g>
  <g id="axes_1">
   <g id="patch_2">
    <path d="M 70.20524 243.02976 
L 352.941645 243.02976 
L 352.941645 23.58924 
L 70.20524 23.58924 
z
" style="fill: #ffffff"/>
   </g>
   <g id="matplotlib.axis_1">
    <g id="xtick_1">
     <g id="line2d_1">
      <path d="M 83.056895 243.02976 
L 83.056895 23.58924 
" clip-path="url(#p7f0886d015)" style="fill: none; stroke-dasharray: 3.7,1.6; stroke-dashoffset: 0; stroke: #b0b0b0"/>
     </g>
     <g id="line2d_2">
      <defs>
       <path id="mf623cc610c" d="M 0 0 
L 0 3.5 
" style="stroke: #000000; stroke-width: 0.8"/>
      </defs>
      <g>
       <use xlink:href="#mf623cc610c" x="83.056895" y="243.02976" style="stroke: #000000; stroke-width: 0.8"/>
      </g>
     </g>
     <g id="text_1">
      <!-- 0.00 -->
      <g transform="translate(65.244395 262.18726) scale(0.16 -0.16)">
       <defs>
        <path id="DejaVuSans-30" d="M 2034 4250 
Q 1547 4250 1301 3770 
Q 1056 3291 1056 2328 
Q 1056 1369 1301 889 
Q 1547 409 2034 409 
Q 2525 409 2770 889 
Q 3016 1369 3016 2328 
Q 3016 3291 2770 3770 
Q 2525 4250 2034 4250 
z
M 2034 4750 
Q 2819 4750 3233 4129 
Q 3647 3509 3647 2328 
Q 3647 1150 3233 529 
Q 2819 -91 2034 -91 
Q 1250 -91 836 529 
Q 422 1150 422 2328 
Q 422 3509 836 4129 
Q 1250 4750 2034 4750 
z
" transform="scale(0.015625)"/>
        <path id="DejaVuSans-2e" d="M 684 794 
L 1344 794 
L 1344 0 
L 684 0 
L 684 794 
z
" transform="scale(0.015625)"/>
       </defs>
       <use xlink:href="#DejaVuSans-30"/>
       <use xlink:href="#DejaVuSans-2e" x="63.623047"/>
       <use xlink:href="#DejaVuSans-30" x="95.410156"/>
       <use xlink:href="#DejaVuSans-30" x="159.033203"/>
      </g>
     </g>
    </g>
    <g id="xtick_2">
     <g id="line2d_3">
      <path d="M 147.315169 243.02976 
L 147.315169 23.58924 
" clip-path="url(#p7f0886d015)" style="fill: none; stroke-dasharray: 3.7,1.6; stroke-dashoffset: 0; stroke: #b0b0b0"/>
     </g>
     <g id="line2d_4">
      <g>
       <use xlink:href="#mf623cc610c" x="147.315169" y="243.02976" style="stroke: #000000; stroke-width: 0.8"/>
      </g>
     </g>
     <g id="text_2">
      <!-- 0.25 -->
      <g transform="translate(129.502669 262.18726) scale(0.16 -0.16)">
       <defs>
        <path id="DejaVuSans-32" d="M 1228 531 
L 3431 531 
L 3431 0 
L 469 0 
L 469 531 
Q 828 903 1448 1529 
Q 2069 2156 2228 2338 
Q 2531 2678 2651 2914 
Q 2772 3150 2772 3378 
Q 2772 3750 2511 3984 
Q 2250 4219 1831 4219 
Q 1534 4219 1204 4116 
Q 875 4013 500 3803 
L 500 4441 
Q 881 4594 1212 4672 
Q 1544 4750 1819 4750 
Q 2544 4750 2975 4387 
Q 3406 4025 3406 3419 
Q 3406 3131 3298 2873 
Q 3191 2616 2906 2266 
Q 2828 2175 2409 1742 
Q 1991 1309 1228 531 
z
" transform="scale(0.015625)"/>
        <path id="DejaVuSans-35" d="M 691 4666 
L 3169 4666 
L 3169 4134 
L 1269 4134 
L 1269 2991 
Q 1406 3038 1543 3061 
Q 1681 3084 1819 3084 
Q 2600 3084 3056 2656 
Q 3513 2228 3513 1497 
Q 3513 744 3044 326 
Q 2575 -91 1722 -91 
Q 1428 -91 1123 -41 
Q 819 9 494 109 
L 494 744 
Q 775 591 1075 516 
Q 1375 441 1709 441 
Q 2250 441 2565 725 
Q 2881 1009 2881 1497 
Q 2881 1984 2565 2268 
Q 2250 2553 1709 2553 
Q 1456 2553 1204 2497 
Q 953 2441 691 2322 
L 691 4666 
z
" transform="scale(0.015625)"/>
       </defs>
       <use xlink:href="#DejaVuSans-30"/>
       <use xlink:href="#DejaVuSans-2e" x="63.623047"/>
       <use xlink:href="#DejaVuSans-32" x="95.410156"/>
       <use xlink:href="#DejaVuSans-35" x="159.033203"/>
      </g>
     </g>
    </g>
    <g id="xtick_3">
     <g id="line2d_5">
      <path d="M 211.573442 243.02976 
L 211.573442 23.58924 
" clip-path="url(#p7f0886d015)" style="fill: none; stroke-dasharray: 3.7,1.6; stroke-dashoffset: 0; stroke: #b0b0b0"/>
     </g>
     <g id="line2d_6">
      <g>
       <use xlink:href="#mf623cc610c" x="211.573442" y="243.02976" style="stroke: #000000; stroke-width: 0.8"/>
      </g>
     </g>
     <g id="text_3">
      <!-- 0.50 -->
      <g transform="translate(193.760942 262.18726) scale(0.16 -0.16)">
       <use xlink:href="#DejaVuSans-30"/>
       <use xlink:href="#DejaVuSans-2e" x="63.623047"/>
       <use xlink:href="#DejaVuSans-35" x="95.410156"/>
       <use xlink:href="#DejaVuSans-30" x="159.033203"/>
      </g>
     </g>
    </g>
    <g id="xtick_4">
     <g id="line2d_7">
      <path d="M 275.831716 243.02976 
L 275.831716 23.58924 
" clip-path="url(#p7f0886d015)" style="fill: none; stroke-dasharray: 3.7,1.6; stroke-dashoffset: 0; stroke: #b0b0b0"/>
     </g>
     <g id="line2d_8">
      <g>
       <use xlink:href="#mf623cc610c" x="275.831716" y="243.02976" style="stroke: #000000; stroke-width: 0.8"/>
      </g>
     </g>
     <g id="text_4">
      <!-- 0.75 -->
      <g transform="translate(258.019216 262.18726) scale(0.16 -0.16)">
       <defs>
        <path id="DejaVuSans-37" d="M 525 4666 
L 3525 4666 
L 3525 4397 
L 1831 0 
L 1172 0 
L 2766 4134 
L 525 4134 
L 525 4666 
z
" transform="scale(0.015625)"/>
       </defs>
       <use xlink:href="#DejaVuSans-30"/>
       <use xlink:href="#DejaVuSans-2e" x="63.623047"/>
       <use xlink:href="#DejaVuSans-37" x="95.410156"/>
       <use xlink:href="#DejaVuSans-35" x="159.033203"/>
      </g>
     </g>
    </g>
    <g id="xtick_5">
     <g id="line2d_9">
      <path d="M 340.08999 243.02976 
L 340.08999 23.58924 
" clip-path="url(#p7f0886d015)" style="fill: none; stroke-dasharray: 3.7,1.6; stroke-dashoffset: 0; stroke: #b0b0b0"/>
     </g>
     <g id="line2d_10">
      <g>
       <use xlink:href="#mf623cc610c" x="340.08999" y="243.02976" style="stroke: #000000; stroke-width: 0.8"/>
      </g>
     </g>
     <g id="text_5">
      <!-- 1.00 -->
      <g transform="translate(322.27749 262.18726) scale(0.16 -0.16)">
       <defs>
        <path id="DejaVuSans-31" d="M 794 531 
L 1825 531 
L 1825 4091 
L 703 3866 
L 703 4441 
L 1819 4666 
L 2450 4666 
L 2450 531 
L 3481 531 
L 3481 0 
L 794 0 
L 794 531 
z
" transform="scale(0.015625)"/>
       </defs>
       <use xlink:href="#DejaVuSans-31"/>
       <use xlink:href="#DejaVuSans-2e" x="63.623047"/>
       <use xlink:href="#DejaVuSans-30" x="95.410156"/>
       <use xlink:href="#DejaVuSans-30" x="159.033203"/>
      </g>
     </g>
    </g>
    <g id="text_6">
     <!-- Proportion of Queries -->
     <g transform="translate(126.612192 281.67226) scale(0.16 -0.16)">
      <defs>
       <path id="DejaVuSans-50" d="M 1259 4147 
L 1259 2394 
L 2053 2394 
Q 2494 2394 2734 2622 
Q 2975 2850 2975 3272 
Q 2975 3691 2734 3919 
Q 2494 4147 2053 4147 
L 1259 4147 
z
M 628 4666 
L 2053 4666 
Q 2838 4666 3239 4311 
Q 3641 3956 3641 3272 
Q 3641 2581 3239 2228 
Q 2838 1875 2053 1875 
L 1259 1875 
L 1259 0 
L 628 0 
L 628 4666 
z
" transform="scale(0.015625)"/>
       <path id="DejaVuSans-72" d="M 2631 2963 
Q 2534 3019 2420 3045 
Q 2306 3072 2169 3072 
Q 1681 3072 1420 2755 
Q 1159 2438 1159 1844 
L 1159 0 
L 581 0 
L 581 3500 
L 1159 3500 
L 1159 2956 
Q 1341 3275 1631 3429 
Q 1922 3584 2338 3584 
Q 2397 3584 2469 3576 
Q 2541 3569 2628 3553 
L 2631 2963 
z
" transform="scale(0.015625)"/>
       <path id="DejaVuSans-6f" d="M 1959 3097 
Q 1497 3097 1228 2736 
Q 959 2375 959 1747 
Q 959 1119 1226 758 
Q 1494 397 1959 397 
Q 2419 397 2687 759 
Q 2956 1122 2956 1747 
Q 2956 2369 2687 2733 
Q 2419 3097 1959 3097 
z
M 1959 3584 
Q 2709 3584 3137 3096 
Q 3566 2609 3566 1747 
Q 3566 888 3137 398 
Q 2709 -91 1959 -91 
Q 1206 -91 779 398 
Q 353 888 353 1747 
Q 353 2609 779 3096 
Q 1206 3584 1959 3584 
z
" transform="scale(0.015625)"/>
       <path id="DejaVuSans-70" d="M 1159 525 
L 1159 -1331 
L 581 -1331 
L 581 3500 
L 1159 3500 
L 1159 2969 
Q 1341 3281 1617 3432 
Q 1894 3584 2278 3584 
Q 2916 3584 3314 3078 
Q 3713 2572 3713 1747 
Q 3713 922 3314 415 
Q 2916 -91 2278 -91 
Q 1894 -91 1617 61 
Q 1341 213 1159 525 
z
M 3116 1747 
Q 3116 2381 2855 2742 
Q 2594 3103 2138 3103 
Q 1681 3103 1420 2742 
Q 1159 2381 1159 1747 
Q 1159 1113 1420 752 
Q 1681 391 2138 391 
Q 2594 391 2855 752 
Q 3116 1113 3116 1747 
z
" transform="scale(0.015625)"/>
       <path id="DejaVuSans-74" d="M 1172 4494 
L 1172 3500 
L 2356 3500 
L 2356 3053 
L 1172 3053 
L 1172 1153 
Q 1172 725 1289 603 
Q 1406 481 1766 481 
L 2356 481 
L 2356 0 
L 1766 0 
Q 1100 0 847 248 
Q 594 497 594 1153 
L 594 3053 
L 172 3053 
L 172 3500 
L 594 3500 
L 594 4494 
L 1172 4494 
z
" transform="scale(0.015625)"/>
       <path id="DejaVuSans-69" d="M 603 3500 
L 1178 3500 
L 1178 0 
L 603 0 
L 603 3500 
z
M 603 4863 
L 1178 4863 
L 1178 4134 
L 603 4134 
L 603 4863 
z
" transform="scale(0.015625)"/>
       <path id="DejaVuSans-6e" d="M 3513 2113 
L 3513 0 
L 2938 0 
L 2938 2094 
Q 2938 2591 2744 2837 
Q 2550 3084 2163 3084 
Q 1697 3084 1428 2787 
Q 1159 2491 1159 1978 
L 1159 0 
L 581 0 
L 581 3500 
L 1159 3500 
L 1159 2956 
Q 1366 3272 1645 3428 
Q 1925 3584 2291 3584 
Q 2894 3584 3203 3211 
Q 3513 2838 3513 2113 
z
" transform="scale(0.015625)"/>
       <path id="DejaVuSans-20" transform="scale(0.015625)"/>
       <path id="DejaVuSans-66" d="M 2375 4863 
L 2375 4384 
L 1825 4384 
Q 1516 4384 1395 4259 
Q 1275 4134 1275 3809 
L 1275 3500 
L 2222 3500 
L 2222 3053 
L 1275 3053 
L 1275 0 
L 697 0 
L 697 3053 
L 147 3053 
L 147 3500 
L 697 3500 
L 697 3744 
Q 697 4328 969 4595 
Q 1241 4863 1831 4863 
L 2375 4863 
z
" transform="scale(0.015625)"/>
       <path id="DejaVuSans-51" d="M 2522 4238 
Q 1834 4238 1429 3725 
Q 1025 3213 1025 2328 
Q 1025 1447 1429 934 
Q 1834 422 2522 422 
Q 3209 422 3611 934 
Q 4013 1447 4013 2328 
Q 4013 3213 3611 3725 
Q 3209 4238 2522 4238 
z
M 3406 84 
L 4238 -825 
L 3475 -825 
L 2784 -78 
Q 2681 -84 2626 -87 
Q 2572 -91 2522 -91 
Q 1538 -91 948 567 
Q 359 1225 359 2328 
Q 359 3434 948 4092 
Q 1538 4750 2522 4750 
Q 3503 4750 4090 4092 
Q 4678 3434 4678 2328 
Q 4678 1516 4351 937 
Q 4025 359 3406 84 
z
" transform="scale(0.015625)"/>
       <path id="DejaVuSans-75" d="M 544 1381 
L 544 3500 
L 1119 3500 
L 1119 1403 
Q 1119 906 1312 657 
Q 1506 409 1894 409 
Q 2359 409 2629 706 
Q 2900 1003 2900 1516 
L 2900 3500 
L 3475 3500 
L 3475 0 
L 2900 0 
L 2900 538 
Q 2691 219 2414 64 
Q 2138 -91 1772 -91 
Q 1169 -91 856 284 
Q 544 659 544 1381 
z
M 1991 3584 
L 1991 3584 
z
" transform="scale(0.015625)"/>
       <path id="DejaVuSans-65" d="M 3597 1894 
L 3597 1613 
L 953 1613 
Q 991 1019 1311 708 
Q 1631 397 2203 397 
Q 2534 397 2845 478 
Q 3156 559 3463 722 
L 3463 178 
Q 3153 47 2828 -22 
Q 2503 -91 2169 -91 
Q 1331 -91 842 396 
Q 353 884 353 1716 
Q 353 2575 817 3079 
Q 1281 3584 2069 3584 
Q 2775 3584 3186 3129 
Q 3597 2675 3597 1894 
z
M 3022 2063 
Q 3016 2534 2758 2815 
Q 2500 3097 2075 3097 
Q 1594 3097 1305 2825 
Q 1016 2553 972 2059 
L 3022 2063 
z
" transform="scale(0.015625)"/>
       <path id="DejaVuSans-73" d="M 2834 3397 
L 2834 2853 
Q 2591 2978 2328 3040 
Q 2066 3103 1784 3103 
Q 1356 3103 1142 2972 
Q 928 2841 928 2578 
Q 928 2378 1081 2264 
Q 1234 2150 1697 2047 
L 1894 2003 
Q 2506 1872 2764 1633 
Q 3022 1394 3022 966 
Q 3022 478 2636 193 
Q 2250 -91 1575 -91 
Q 1294 -91 989 -36 
Q 684 19 347 128 
L 347 722 
Q 666 556 975 473 
Q 1284 391 1588 391 
Q 1994 391 2212 530 
Q 2431 669 2431 922 
Q 2431 1156 2273 1281 
Q 2116 1406 1581 1522 
L 1381 1569 
Q 847 1681 609 1914 
Q 372 2147 372 2553 
Q 372 3047 722 3315 
Q 1072 3584 1716 3584 
Q 2034 3584 2315 3537 
Q 2597 3491 2834 3397 
z
" transform="scale(0.015625)"/>
      </defs>
      <use xlink:href="#DejaVuSans-50"/>
      <use xlink:href="#DejaVuSans-72" x="58.552734"/>
      <use xlink:href="#DejaVuSans-6f" x="97.416016"/>
      <use xlink:href="#DejaVuSans-70" x="158.597656"/>
      <use xlink:href="#DejaVuSans-6f" x="222.074219"/>
      <use xlink:href="#DejaVuSans-72" x="283.255859"/>
      <use xlink:href="#DejaVuSans-74" x="324.369141"/>
      <use xlink:href="#DejaVuSans-69" x="363.578125"/>
      <use xlink:href="#DejaVuSans-6f" x="391.361328"/>
      <use xlink:href="#DejaVuSans-6e" x="452.542969"/>
      <use xlink:href="#DejaVuSans-20" x="515.921875"/>
      <use xlink:href="#DejaVuSans-6f" x="547.708984"/>
      <use xlink:href="#DejaVuSans-66" x="608.890625"/>
      <use xlink:href="#DejaVuSans-20" x="644.095703"/>
      <use xlink:href="#DejaVuSans-51" x="675.882812"/>
      <use xlink:href="#DejaVuSans-75" x="754.59375"/>
      <use xlink:href="#DejaVuSans-65" x="817.972656"/>
      <use xlink:href="#DejaVuSans-72" x="879.496094"/>
      <use xlink:href="#DejaVuSans-69" x="920.609375"/>
      <use xlink:href="#DejaVuSans-65" x="948.392578"/>
      <use xlink:href="#DejaVuSans-73" x="1009.916016"/>
     </g>
    </g>
   </g>
   <g id="matplotlib.axis_2">
    <g id="ytick_1">
     <g id="line2d_11">
      <path d="M 70.20524 233.05555 
L 352.941645 233.05555 
" clip-path="url(#p7f0886d015)" style="fill: none; stroke-dasharray: 3.7,1.6; stroke-dashoffset: 0; stroke: #b0b0b0"/>
     </g>
     <g id="line2d_12">
      <defs>
       <path id="mbeb82899b3" d="M 0 0 
L -3.5 0 
" style="stroke: #000000; stroke-width: 0.8"/>
      </defs>
      <g>
       <use xlink:href="#mbeb82899b3" x="70.20524" y="233.05555" style="stroke: #000000; stroke-width: 0.8"/>
      </g>
     </g>
     <g id="text_7">
      <!-- 0 -->
      <g transform="translate(53.02524 239.1343) scale(0.16 -0.16)">
       <use xlink:href="#DejaVuSans-30"/>
      </g>
     </g>
    </g>
    <g id="ytick_2">
     <g id="line2d_13">
      <path d="M 70.20524 176.204911 
L 352.941645 176.204911 
" clip-path="url(#p7f0886d015)" style="fill: none; stroke-dasharray: 3.7,1.6; stroke-dashoffset: 0; stroke: #b0b0b0"/>
     </g>
     <g id="line2d_14">
      <g>
       <use xlink:href="#mbeb82899b3" x="70.20524" y="176.204911" style="stroke: #000000; stroke-width: 0.8"/>
      </g>
     </g>
     <g id="text_8">
      <!-- 500 -->
      <g transform="translate(32.66524 182.283661) scale(0.16 -0.16)">
       <use xlink:href="#DejaVuSans-35"/>
       <use xlink:href="#DejaVuSans-30" x="63.623047"/>
       <use xlink:href="#DejaVuSans-30" x="127.246094"/>
      </g>
     </g>
    </g>
    <g id="ytick_3">
     <g id="line2d_15">
      <path d="M 70.20524 119.354273 
L 352.941645 119.354273 
" clip-path="url(#p7f0886d015)" style="fill: none; stroke-dasharray: 3.7,1.6; stroke-dashoffset: 0; stroke: #b0b0b0"/>
     </g>
     <g id="line2d_16">
      <g>
       <use xlink:href="#mbeb82899b3" x="70.20524" y="119.354273" style="stroke: #000000; stroke-width: 0.8"/>
      </g>
     </g>
     <g id="text_9">
      <!-- 1000 -->
      <g transform="translate(22.48524 125.433023) scale(0.16 -0.16)">
       <use xlink:href="#DejaVuSans-31"/>
       <use xlink:href="#DejaVuSans-30" x="63.623047"/>
       <use xlink:href="#DejaVuSans-30" x="127.246094"/>
       <use xlink:href="#DejaVuSans-30" x="190.869141"/>
      </g>
     </g>
    </g>
    <g id="ytick_4">
     <g id="line2d_17">
      <path d="M 70.20524 62.503635 
L 352.941645 62.503635 
" clip-path="url(#p7f0886d015)" style="fill: none; stroke-dasharray: 3.7,1.6; stroke-dashoffset: 0; stroke: #b0b0b0"/>
     </g>
     <g id="line2d_18">
      <g>
       <use xlink:href="#mbeb82899b3" x="70.20524" y="62.503635" style="stroke: #000000; stroke-width: 0.8"/>
      </g>
     </g>
     <g id="text_10">
      <!-- 1500 -->
      <g transform="translate(22.48524 68.582385) scale(0.16 -0.16)">
       <use xlink:href="#DejaVuSans-31"/>
       <use xlink:href="#DejaVuSans-35" x="63.623047"/>
       <use xlink:href="#DejaVuSans-30" x="127.246094"/>
       <use xlink:href="#DejaVuSans-30" x="190.869141"/>
      </g>
     </g>
    </g>
    <g id="text_11">
     <!-- Max Latency (s) -->
     <g transform="translate(15.15774 196.967) rotate(-90) scale(0.16 -0.16)">
      <defs>
       <path id="DejaVuSans-4d" d="M 628 4666 
L 1569 4666 
L 2759 1491 
L 3956 4666 
L 4897 4666 
L 4897 0 
L 4281 0 
L 4281 4097 
L 3078 897 
L 2444 897 
L 1241 4097 
L 1241 0 
L 628 0 
L 628 4666 
z
" transform="scale(0.015625)"/>
       <path id="DejaVuSans-61" d="M 2194 1759 
Q 1497 1759 1228 1600 
Q 959 1441 959 1056 
Q 959 750 1161 570 
Q 1363 391 1709 391 
Q 2188 391 2477 730 
Q 2766 1069 2766 1631 
L 2766 1759 
L 2194 1759 
z
M 3341 1997 
L 3341 0 
L 2766 0 
L 2766 531 
Q 2569 213 2275 61 
Q 1981 -91 1556 -91 
Q 1019 -91 701 211 
Q 384 513 384 1019 
Q 384 1609 779 1909 
Q 1175 2209 1959 2209 
L 2766 2209 
L 2766 2266 
Q 2766 2663 2505 2880 
Q 2244 3097 1772 3097 
Q 1472 3097 1187 3025 
Q 903 2953 641 2809 
L 641 3341 
Q 956 3463 1253 3523 
Q 1550 3584 1831 3584 
Q 2591 3584 2966 3190 
Q 3341 2797 3341 1997 
z
" transform="scale(0.015625)"/>
       <path id="DejaVuSans-78" d="M 3513 3500 
L 2247 1797 
L 3578 0 
L 2900 0 
L 1881 1375 
L 863 0 
L 184 0 
L 1544 1831 
L 300 3500 
L 978 3500 
L 1906 2253 
L 2834 3500 
L 3513 3500 
z
" transform="scale(0.015625)"/>
       <path id="DejaVuSans-4c" d="M 628 4666 
L 1259 4666 
L 1259 531 
L 3531 531 
L 3531 0 
L 628 0 
L 628 4666 
z
" transform="scale(0.015625)"/>
       <path id="DejaVuSans-63" d="M 3122 3366 
L 3122 2828 
Q 2878 2963 2633 3030 
Q 2388 3097 2138 3097 
Q 1578 3097 1268 2742 
Q 959 2388 959 1747 
Q 959 1106 1268 751 
Q 1578 397 2138 397 
Q 2388 397 2633 464 
Q 2878 531 3122 666 
L 3122 134 
Q 2881 22 2623 -34 
Q 2366 -91 2075 -91 
Q 1284 -91 818 406 
Q 353 903 353 1747 
Q 353 2603 823 3093 
Q 1294 3584 2113 3584 
Q 2378 3584 2631 3529 
Q 2884 3475 3122 3366 
z
" transform="scale(0.015625)"/>
       <path id="DejaVuSans-79" d="M 2059 -325 
Q 1816 -950 1584 -1140 
Q 1353 -1331 966 -1331 
L 506 -1331 
L 506 -850 
L 844 -850 
Q 1081 -850 1212 -737 
Q 1344 -625 1503 -206 
L 1606 56 
L 191 3500 
L 800 3500 
L 1894 763 
L 2988 3500 
L 3597 3500 
L 2059 -325 
z
" transform="scale(0.015625)"/>
       <path id="DejaVuSans-28" d="M 1984 4856 
Q 1566 4138 1362 3434 
Q 1159 2731 1159 2009 
Q 1159 1288 1364 580 
Q 1569 -128 1984 -844 
L 1484 -844 
Q 1016 -109 783 600 
Q 550 1309 550 2009 
Q 550 2706 781 3412 
Q 1013 4119 1484 4856 
L 1984 4856 
z
" transform="scale(0.015625)"/>
       <path id="DejaVuSans-29" d="M 513 4856 
L 1013 4856 
Q 1481 4119 1714 3412 
Q 1947 2706 1947 2009 
Q 1947 1309 1714 600 
Q 1481 -109 1013 -844 
L 513 -844 
Q 928 -128 1133 580 
Q 1338 1288 1338 2009 
Q 1338 2731 1133 3434 
Q 928 4138 513 4856 
z
" transform="scale(0.015625)"/>
      </defs>
      <use xlink:href="#DejaVuSans-4d"/>
      <use xlink:href="#DejaVuSans-61" x="86.279297"/>
      <use xlink:href="#DejaVuSans-78" x="147.558594"/>
      <use xlink:href="#DejaVuSans-20" x="206.738281"/>
      <use xlink:href="#DejaVuSans-4c" x="238.525391"/>
      <use xlink:href="#DejaVuSans-61" x="294.238281"/>
      <use xlink:href="#DejaVuSans-74" x="355.517578"/>
      <use xlink:href="#DejaVuSans-65" x="394.726562"/>
      <use xlink:href="#DejaVuSans-6e" x="456.25"/>
      <use xlink:href="#DejaVuSans-63" x="519.628906"/>
      <use xlink:href="#DejaVuSans-79" x="574.609375"/>
      <use xlink:href="#DejaVuSans-20" x="633.789062"/>
      <use xlink:href="#DejaVuSans-28" x="665.576172"/>
      <use xlink:href="#DejaVuSans-73" x="704.589844"/>
      <use xlink:href="#DejaVuSans-29" x="756.689453"/>
     </g>
    </g>
   </g>
   <g id="line2d_19">
    <path d="M 83.056895 233.055191 
L 242.221677 232.933785 
L 245.827352 232.89812 
L 246.342448 232.35812 
L 247.887737 232.280962 
L 258.704761 232.136687 
L 259.219858 230.900238 
L 263.340629 230.614648 
L 279.308617 230.454066 
L 284.974677 230.35158 
L 309.699303 229.936651 
L 310.729496 229.84921 
L 313.304978 229.72822 
L 315.365364 229.636464 
L 315.88046 187.570021 
L 340.08999 187.545266 
L 340.08999 187.545266 
" clip-path="url(#p7f0886d015)" style="fill: none; stroke: #1f77b4; stroke-width: 3; stroke-linecap: square"/>
   </g>
   <g id="line2d_20">
    <path d="M 83.056895 233.055009 
L 264.885918 232.942503 
L 266.946304 232.926548 
L 267.4614 232.448471 
L 269.006689 232.388566 
L 279.823713 232.148139 
L 280.33881 231.031781 
L 282.914291 230.823604 
L 291.67093 230.507435 
L 302.487954 230.369654 
L 324.637099 229.978686 
L 326.182388 229.875616 
L 326.697484 229.861667 
L 327.21258 229.638893 
L 327.727677 187.567151 
L 339.059797 187.551515 
L 339.574894 85.369713 
L 340.08999 33.563809 
L 340.08999 33.563809 
" clip-path="url(#p7f0886d015)" style="fill: none; stroke: #ff7f0e; stroke-width: 3; stroke-linecap: square"/>
   </g>
   <g id="patch_3">
    <path d="M 70.20524 243.02976 
L 70.20524 23.58924 
" style="fill: none; stroke: #000000; stroke-width: 0.8; stroke-linejoin: miter; stroke-linecap: square"/>
   </g>
   <g id="patch_4">
    <path d="M 352.941645 243.02976 
L 352.941645 23.58924 
" style="fill: none; stroke: #000000; stroke-width: 0.8; stroke-linejoin: miter; stroke-linecap: square"/>
   </g>
   <g id="patch_5">
    <path d="M 70.20524 243.02976 
L 352.941645 243.02976 
" style="fill: none; stroke: #000000; stroke-width: 0.8; stroke-linejoin: miter; stroke-linecap: square"/>
   </g>
   <g id="patch_6">
    <path d="M 70.20524 23.58924 
L 352.941645 23.58924 
" style="fill: none; stroke: #000000; stroke-width: 0.8; stroke-linejoin: miter; stroke-linecap: square"/>
   </g>
   <g id="text_12">
    <!-- Query Latency CDF -->
    <g transform="translate(118.730942 17.58924) scale(0.192 -0.192)">
     <defs>
      <path id="DejaVuSans-43" d="M 4122 4306 
L 4122 3641 
Q 3803 3938 3442 4084 
Q 3081 4231 2675 4231 
Q 1875 4231 1450 3742 
Q 1025 3253 1025 2328 
Q 1025 1406 1450 917 
Q 1875 428 2675 428 
Q 3081 428 3442 575 
Q 3803 722 4122 1019 
L 4122 359 
Q 3791 134 3420 21 
Q 3050 -91 2638 -91 
Q 1578 -91 968 557 
Q 359 1206 359 2328 
Q 359 3453 968 4101 
Q 1578 4750 2638 4750 
Q 3056 4750 3426 4639 
Q 3797 4528 4122 4306 
z
" transform="scale(0.015625)"/>
      <path id="DejaVuSans-44" d="M 1259 4147 
L 1259 519 
L 2022 519 
Q 2988 519 3436 956 
Q 3884 1394 3884 2338 
Q 3884 3275 3436 3711 
Q 2988 4147 2022 4147 
L 1259 4147 
z
M 628 4666 
L 1925 4666 
Q 3281 4666 3915 4102 
Q 4550 3538 4550 2338 
Q 4550 1131 3912 565 
Q 3275 0 1925 0 
L 628 0 
L 628 4666 
z
" transform="scale(0.015625)"/>
      <path id="DejaVuSans-46" d="M 628 4666 
L 3309 4666 
L 3309 4134 
L 1259 4134 
L 1259 2759 
L 3109 2759 
L 3109 2228 
L 1259 2228 
L 1259 0 
L 628 0 
L 628 4666 
z
" transform="scale(0.015625)"/>
     </defs>
     <use xlink:href="#DejaVuSans-51"/>
     <use xlink:href="#DejaVuSans-75" x="78.710938"/>
     <use xlink:href="#DejaVuSans-65" x="142.089844"/>
     <use xlink:href="#DejaVuSans-72" x="203.613281"/>
     <use xlink:href="#DejaVuSans-79" x="244.726562"/>
     <use xlink:href="#DejaVuSans-20" x="303.90625"/>
     <use xlink:href="#DejaVuSans-4c" x="335.693359"/>
     <use xlink:href="#DejaVuSans-61" x="391.40625"/>
     <use xlink:href="#DejaVuSans-74" x="452.685547"/>
     <use xlink:href="#DejaVuSans-65" x="491.894531"/>
     <use xlink:href="#DejaVuSans-6e" x="553.417969"/>
     <use xlink:href="#DejaVuSans-63" x="616.796875"/>
     <use xlink:href="#DejaVuSans-79" x="671.777344"/>
     <use xlink:href="#DejaVuSans-20" x="730.957031"/>
     <use xlink:href="#DejaVuSans-43" x="762.744141"/>
     <use xlink:href="#DejaVuSans-44" x="832.568359"/>
     <use xlink:href="#DejaVuSans-46" x="909.570312"/>
    </g>
   </g>
   <g id="legend_1">
    <g id="patch_7">
     <path d="M 81.40524 83.35924 
L 223.95774 83.35924 
Q 227.15774 83.35924 227.15774 80.15924 
L 227.15774 34.78924 
Q 227.15774 31.58924 223.95774 31.58924 
L 81.40524 31.58924 
Q 78.20524 31.58924 78.20524 34.78924 
L 78.20524 80.15924 
Q 78.20524 83.35924 81.40524 83.35924 
z
" style="fill: #ffffff; opacity: 0.8; stroke: #cccccc; stroke-linejoin: miter"/>
    </g>
    <g id="line2d_21">
     <path d="M 84.60524 44.54674 
L 100.60524 44.54674 
L 116.60524 44.54674 
" style="fill: none; stroke: #1f77b4; stroke-width: 3; stroke-linecap: square"/>
    </g>
    <g id="text_13">
     <!-- PostgreSQL -->
     <g transform="translate(129.40524 50.14674) scale(0.16 -0.16)">
      <defs>
       <path id="DejaVuSans-67" d="M 2906 1791 
Q 2906 2416 2648 2759 
Q 2391 3103 1925 3103 
Q 1463 3103 1205 2759 
Q 947 2416 947 1791 
Q 947 1169 1205 825 
Q 1463 481 1925 481 
Q 2391 481 2648 825 
Q 2906 1169 2906 1791 
z
M 3481 434 
Q 3481 -459 3084 -895 
Q 2688 -1331 1869 -1331 
Q 1566 -1331 1297 -1286 
Q 1028 -1241 775 -1147 
L 775 -588 
Q 1028 -725 1275 -790 
Q 1522 -856 1778 -856 
Q 2344 -856 2625 -561 
Q 2906 -266 2906 331 
L 2906 616 
Q 2728 306 2450 153 
Q 2172 0 1784 0 
Q 1141 0 747 490 
Q 353 981 353 1791 
Q 353 2603 747 3093 
Q 1141 3584 1784 3584 
Q 2172 3584 2450 3431 
Q 2728 3278 2906 2969 
L 2906 3500 
L 3481 3500 
L 3481 434 
z
" transform="scale(0.015625)"/>
       <path id="DejaVuSans-53" d="M 3425 4513 
L 3425 3897 
Q 3066 4069 2747 4153 
Q 2428 4238 2131 4238 
Q 1616 4238 1336 4038 
Q 1056 3838 1056 3469 
Q 1056 3159 1242 3001 
Q 1428 2844 1947 2747 
L 2328 2669 
Q 3034 2534 3370 2195 
Q 3706 1856 3706 1288 
Q 3706 609 3251 259 
Q 2797 -91 1919 -91 
Q 1588 -91 1214 -16 
Q 841 59 441 206 
L 441 856 
Q 825 641 1194 531 
Q 1563 422 1919 422 
Q 2459 422 2753 634 
Q 3047 847 3047 1241 
Q 3047 1584 2836 1778 
Q 2625 1972 2144 2069 
L 1759 2144 
Q 1053 2284 737 2584 
Q 422 2884 422 3419 
Q 422 4038 858 4394 
Q 1294 4750 2059 4750 
Q 2388 4750 2728 4690 
Q 3069 4631 3425 4513 
z
" transform="scale(0.015625)"/>
      </defs>
      <use xlink:href="#DejaVuSans-50"/>
      <use xlink:href="#DejaVuSans-6f" x="56.677734"/>
      <use xlink:href="#DejaVuSans-73" x="117.859375"/>
      <use xlink:href="#DejaVuSans-74" x="169.958984"/>
      <use xlink:href="#DejaVuSans-67" x="209.167969"/>
      <use xlink:href="#DejaVuSans-72" x="272.644531"/>
      <use xlink:href="#DejaVuSans-65" x="311.507812"/>
      <use xlink:href="#DejaVuSans-53" x="373.03125"/>
      <use xlink:href="#DejaVuSans-51" x="436.507812"/>
      <use xlink:href="#DejaVuSans-4c" x="515.21875"/>
     </g>
    </g>
    <g id="line2d_22">
     <path d="M 84.60524 68.03174 
L 100.60524 68.03174 
L 116.60524 68.03174 
" style="fill: none; stroke: #ff7f0e; stroke-width: 3; stroke-linecap: square"/>
    </g>
    <g id="text_14">
     <!-- Bao -->
     <g transform="translate(129.40524 73.63174) scale(0.16 -0.16)">
      <defs>
       <path id="DejaVuSans-42" d="M 1259 2228 
L 1259 519 
L 2272 519 
Q 2781 519 3026 730 
Q 3272 941 3272 1375 
Q 3272 1813 3026 2020 
Q 2781 2228 2272 2228 
L 1259 2228 
z
M 1259 4147 
L 1259 2741 
L 2194 2741 
Q 2656 2741 2882 2914 
Q 3109 3088 3109 3444 
Q 3109 3797 2882 3972 
Q 2656 4147 2194 4147 
L 1259 4147 
z
M 628 4666 
L 2241 4666 
Q 2963 4666 3353 4366 
Q 3744 4066 3744 3513 
Q 3744 3084 3544 2831 
Q 3344 2578 2956 2516 
Q 3422 2416 3680 2098 
Q 3938 1781 3938 1306 
Q 3938 681 3513 340 
Q 3088 0 2303 0 
L 628 0 
L 628 4666 
z
" transform="scale(0.015625)"/>
      </defs>
      <use xlink:href="#DejaVuSans-42"/>
      <use xlink:href="#DejaVuSans-61" x="68.603516"/>
      <use xlink:href="#DejaVuSans-6f" x="129.882812"/>
     </g>
    </g>
   </g>
  </g>
  <g id="axes_2">
   <g id="patch_8">
    <path d="M 429.245 243.02976 
L 711.981405 243.02976 
L 711.981405 23.58924 
L 429.245 23.58924 
z
" style="fill: #ffffff"/>
   </g>
   <g id="matplotlib.axis_3">
    <g id="xtick_6">
     <g id="line2d_23">
      <path d="M 442.096655 243.02976 
L 442.096655 23.58924 
" clip-path="url(#pf68ab03ec0)" style="fill: none; stroke-dasharray: 3.7,1.6; stroke-dashoffset: 0; stroke: #b0b0b0"/>
     </g>
     <g id="line2d_24">
      <g>
       <use xlink:href="#mf623cc610c" x="442.096655" y="243.02976" style="stroke: #000000; stroke-width: 0.8"/>
      </g>
     </g>
     <g id="text_15">
      <!-- 0.00 -->
      <g transform="translate(424.284155 262.18726) scale(0.16 -0.16)">
       <use xlink:href="#DejaVuSans-30"/>
       <use xlink:href="#DejaVuSans-2e" x="63.623047"/>
       <use xlink:href="#DejaVuSans-30" x="95.410156"/>
       <use xlink:href="#DejaVuSans-30" x="159.033203"/>
      </g>
     </g>
    </g>
    <g id="xtick_7">
     <g id="line2d_25">
      <path d="M 506.354929 243.02976 
L 506.354929 23.58924 
" clip-path="url(#pf68ab03ec0)" style="fill: none; stroke-dasharray: 3.7,1.6; stroke-dashoffset: 0; stroke: #b0b0b0"/>
     </g>
     <g id="line2d_26">
      <g>
       <use xlink:href="#mf623cc610c" x="506.354929" y="243.02976" style="stroke: #000000; stroke-width: 0.8"/>
      </g>
     </g>
     <g id="text_16">
      <!-- 0.25 -->
      <g transform="translate(488.542429 262.18726) scale(0.16 -0.16)">
       <use xlink:href="#DejaVuSans-30"/>
       <use xlink:href="#DejaVuSans-2e" x="63.623047"/>
       <use xlink:href="#DejaVuSans-32" x="95.410156"/>
       <use xlink:href="#DejaVuSans-35" x="159.033203"/>
      </g>
     </g>
    </g>
    <g id="xtick_8">
     <g id="line2d_27">
      <path d="M 570.613202 243.02976 
L 570.613202 23.58924 
" clip-path="url(#pf68ab03ec0)" style="fill: none; stroke-dasharray: 3.7,1.6; stroke-dashoffset: 0; stroke: #b0b0b0"/>
     </g>
     <g id="line2d_28">
      <g>
       <use xlink:href="#mf623cc610c" x="570.613202" y="243.02976" style="stroke: #000000; stroke-width: 0.8"/>
      </g>
     </g>
     <g id="text_17">
      <!-- 0.50 -->
      <g transform="translate(552.800702 262.18726) scale(0.16 -0.16)">
       <use xlink:href="#DejaVuSans-30"/>
       <use xlink:href="#DejaVuSans-2e" x="63.623047"/>
       <use xlink:href="#DejaVuSans-35" x="95.410156"/>
       <use xlink:href="#DejaVuSans-30" x="159.033203"/>
      </g>
     </g>
    </g>
    <g id="xtick_9">
     <g id="line2d_29">
      <path d="M 634.871476 243.02976 
L 634.871476 23.58924 
" clip-path="url(#pf68ab03ec0)" style="fill: none; stroke-dasharray: 3.7,1.6; stroke-dashoffset: 0; stroke: #b0b0b0"/>
     </g>
     <g id="line2d_30">
      <g>
       <use xlink:href="#mf623cc610c" x="634.871476" y="243.02976" style="stroke: #000000; stroke-width: 0.8"/>
      </g>
     </g>
     <g id="text_18">
      <!-- 0.75 -->
      <g transform="translate(617.058976 262.18726) scale(0.16 -0.16)">
       <use xlink:href="#DejaVuSans-30"/>
       <use xlink:href="#DejaVuSans-2e" x="63.623047"/>
       <use xlink:href="#DejaVuSans-37" x="95.410156"/>
       <use xlink:href="#DejaVuSans-35" x="159.033203"/>
      </g>
     </g>
    </g>
    <g id="xtick_10">
     <g id="line2d_31">
      <path d="M 699.12975 243.02976 
L 699.12975 23.58924 
" clip-path="url(#pf68ab03ec0)" style="fill: none; stroke-dasharray: 3.7,1.6; stroke-dashoffset: 0; stroke: #b0b0b0"/>
     </g>
     <g id="line2d_32">
      <g>
       <use xlink:href="#mf623cc610c" x="699.12975" y="243.02976" style="stroke: #000000; stroke-width: 0.8"/>
      </g>
     </g>
     <g id="text_19">
      <!-- 1.00 -->
      <g transform="translate(681.31725 262.18726) scale(0.16 -0.16)">
       <use xlink:href="#DejaVuSans-31"/>
       <use xlink:href="#DejaVuSans-2e" x="63.623047"/>
       <use xlink:href="#DejaVuSans-30" x="95.410156"/>
       <use xlink:href="#DejaVuSans-30" x="159.033203"/>
      </g>
     </g>
    </g>
    <g id="text_20">
     <!-- Proportion of Queries -->
     <g transform="translate(485.651952 281.67226) scale(0.16 -0.16)">
      <use xlink:href="#DejaVuSans-50"/>
      <use xlink:href="#DejaVuSans-72" x="58.552734"/>
      <use xlink:href="#DejaVuSans-6f" x="97.416016"/>
      <use xlink:href="#DejaVuSans-70" x="158.597656"/>
      <use xlink:href="#DejaVuSans-6f" x="222.074219"/>
      <use xlink:href="#DejaVuSans-72" x="283.255859"/>
      <use xlink:href="#DejaVuSans-74" x="324.369141"/>
      <use xlink:href="#DejaVuSans-69" x="363.578125"/>
      <use xlink:href="#DejaVuSans-6f" x="391.361328"/>
      <use xlink:href="#DejaVuSans-6e" x="452.542969"/>
      <use xlink:href="#DejaVuSans-20" x="515.921875"/>
      <use xlink:href="#DejaVuSans-6f" x="547.708984"/>
      <use xlink:href="#DejaVuSans-66" x="608.890625"/>
      <use xlink:href="#DejaVuSans-20" x="644.095703"/>
      <use xlink:href="#DejaVuSans-51" x="675.882812"/>
      <use xlink:href="#DejaVuSans-75" x="754.59375"/>
      <use xlink:href="#DejaVuSans-65" x="817.972656"/>
      <use xlink:href="#DejaVuSans-72" x="879.496094"/>
      <use xlink:href="#DejaVuSans-69" x="920.609375"/>
      <use xlink:href="#DejaVuSans-65" x="948.392578"/>
      <use xlink:href="#DejaVuSans-73" x="1009.916016"/>
     </g>
    </g>
   </g>
   <g id="matplotlib.axis_4">
    <g id="ytick_5">
     <g id="line2d_33">
      <path d="M 429.245 180.935351 
L 711.981405 180.935351 
" clip-path="url(#pf68ab03ec0)" style="fill: none; stroke-dasharray: 3.7,1.6; stroke-dashoffset: 0; stroke: #b0b0b0"/>
     </g>
     <g id="line2d_34">
      <g>
       <use xlink:href="#mbeb82899b3" x="429.245" y="180.935351" style="stroke: #000000; stroke-width: 0.8"/>
      </g>
     </g>
     <g id="text_21">
      <!-- $\mathdefault{10^{-1}}$ -->
      <g transform="translate(384.645 187.014101) scale(0.16 -0.16)">
       <defs>
        <path id="DejaVuSans-2212" d="M 678 2272 
L 4684 2272 
L 4684 1741 
L 678 1741 
L 678 2272 
z
" transform="scale(0.015625)"/>
       </defs>
       <use xlink:href="#DejaVuSans-31" transform="translate(0 0.684375)"/>
       <use xlink:href="#DejaVuSans-30" transform="translate(63.623047 0.684375)"/>
       <use xlink:href="#DejaVuSans-2212" transform="translate(128.203125 38.965625) scale(0.7)"/>
       <use xlink:href="#DejaVuSans-31" transform="translate(186.855469 38.965625) scale(0.7)"/>
      </g>
     </g>
    </g>
    <g id="ytick_6">
     <g id="line2d_35">
      <path d="M 429.245 111.488602 
L 711.981405 111.488602 
" clip-path="url(#pf68ab03ec0)" style="fill: none; stroke-dasharray: 3.7,1.6; stroke-dashoffset: 0; stroke: #b0b0b0"/>
     </g>
     <g id="line2d_36">
      <g>
       <use xlink:href="#mbeb82899b3" x="429.245" y="111.488602" style="stroke: #000000; stroke-width: 0.8"/>
      </g>
     </g>
     <g id="text_22">
      <!-- $\mathdefault{10^{1}}$ -->
      <g transform="translate(394.085 117.567352) scale(0.16 -0.16)">
       <use xlink:href="#DejaVuSans-31" transform="translate(0 0.684375)"/>
       <use xlink:href="#DejaVuSans-30" transform="translate(63.623047 0.684375)"/>
       <use xlink:href="#DejaVuSans-31" transform="translate(128.203125 38.965625) scale(0.7)"/>
      </g>
     </g>
    </g>
    <g id="ytick_7">
     <g id="line2d_37">
      <path d="M 429.245 42.041854 
L 711.981405 42.041854 
" clip-path="url(#pf68ab03ec0)" style="fill: none; stroke-dasharray: 3.7,1.6; stroke-dashoffset: 0; stroke: #b0b0b0"/>
     </g>
     <g id="line2d_38">
      <g>
       <use xlink:href="#mbeb82899b3" x="429.245" y="42.041854" style="stroke: #000000; stroke-width: 0.8"/>
      </g>
     </g>
     <g id="text_23">
      <!-- $\mathdefault{10^{3}}$ -->
      <g transform="translate(394.085 48.120604) scale(0.16 -0.16)">
       <defs>
        <path id="DejaVuSans-33" d="M 2597 2516 
Q 3050 2419 3304 2112 
Q 3559 1806 3559 1356 
Q 3559 666 3084 287 
Q 2609 -91 1734 -91 
Q 1441 -91 1130 -33 
Q 819 25 488 141 
L 488 750 
Q 750 597 1062 519 
Q 1375 441 1716 441 
Q 2309 441 2620 675 
Q 2931 909 2931 1356 
Q 2931 1769 2642 2001 
Q 2353 2234 1838 2234 
L 1294 2234 
L 1294 2753 
L 1863 2753 
Q 2328 2753 2575 2939 
Q 2822 3125 2822 3475 
Q 2822 3834 2567 4026 
Q 2313 4219 1838 4219 
Q 1578 4219 1281 4162 
Q 984 4106 628 3988 
L 628 4550 
Q 988 4650 1302 4700 
Q 1616 4750 1894 4750 
Q 2613 4750 3031 4423 
Q 3450 4097 3450 3541 
Q 3450 3153 3228 2886 
Q 3006 2619 2597 2516 
z
" transform="scale(0.015625)"/>
       </defs>
       <use xlink:href="#DejaVuSans-31" transform="translate(0 0.765625)"/>
       <use xlink:href="#DejaVuSans-30" transform="translate(63.623047 0.765625)"/>
       <use xlink:href="#DejaVuSans-33" transform="translate(128.203125 39.046875) scale(0.7)"/>
      </g>
     </g>
    </g>
    <g id="text_24">
     <!-- Max Latency (s) -->
     <g transform="translate(377.3175 196.967) rotate(-90) scale(0.16 -0.16)">
      <use xlink:href="#DejaVuSans-4d"/>
      <use xlink:href="#DejaVuSans-61" x="86.279297"/>
      <use xlink:href="#DejaVuSans-78" x="147.558594"/>
      <use xlink:href="#DejaVuSans-20" x="206.738281"/>
      <use xlink:href="#DejaVuSans-4c" x="238.525391"/>
      <use xlink:href="#DejaVuSans-61" x="294.238281"/>
      <use xlink:href="#DejaVuSans-74" x="355.517578"/>
      <use xlink:href="#DejaVuSans-65" x="394.726562"/>
      <use xlink:href="#DejaVuSans-6e" x="456.25"/>
      <use xlink:href="#DejaVuSans-63" x="519.628906"/>
      <use xlink:href="#DejaVuSans-79" x="574.609375"/>
      <use xlink:href="#DejaVuSans-20" x="633.789062"/>
      <use xlink:href="#DejaVuSans-28" x="665.576172"/>
      <use xlink:href="#DejaVuSans-73" x="704.589844"/>
      <use xlink:href="#DejaVuSans-29" x="756.689453"/>
     </g>
    </g>
   </g>
   <g id="line2d_39">
    <path d="M 442.096655 233.055191 
L 442.611751 231.702359 
L 443.641944 231.619244 
L 445.187233 229.439034 
L 445.702329 229.144258 
L 446.217426 227.939838 
L 446.732522 226.299282 
L 447.247619 225.375804 
L 448.792908 225.032527 
L 449.823101 223.957199 
L 450.853293 223.906792 
L 451.36839 223.610882 
L 452.398582 223.349977 
L 452.913679 223.05647 
L 461.155221 222.043121 
L 461.670317 221.882015 
L 463.215606 221.769987 
L 463.730703 221.63739 
L 464.760896 221.538305 
L 469.396763 221.093599 
L 470.426956 220.947381 
L 474.032631 220.408764 
L 475.57792 220.221734 
L 479.183594 219.924939 
L 480.213787 219.879207 
L 481.24398 219.728231 
L 484.334558 219.568498 
L 485.364751 219.422893 
L 486.394944 219.328585 
L 487.940233 219.192083 
L 493.091197 218.909345 
L 496.181775 218.526645 
L 496.696871 218.297061 
L 499.78745 218.086538 
L 500.817642 217.984257 
L 502.362932 217.847704 
L 503.393124 217.686444 
L 504.423317 217.642911 
L 505.45351 217.382302 
L 506.998799 217.294687 
L 509.059185 217.143964 
L 512.149763 216.646404 
L 514.725245 216.41782 
L 515.240341 215.985112 
L 515.755438 215.848689 
L 517.815823 215.708438 
L 520.391305 215.522373 
L 520.906401 215.230203 
L 526.057365 214.446456 
L 526.572462 214.188241 
L 527.087558 214.144928 
L 527.602654 213.74381 
L 528.632847 213.709333 
L 529.147944 213.291192 
L 530.693233 213.078813 
L 531.208329 212.47331 
L 531.723425 212.326162 
L 532.238522 211.654719 
L 532.753618 211.312897 
L 533.268715 207.746525 
L 533.783811 201.221115 
L 534.298907 192.597699 
L 534.814004 192.354555 
L 535.3291 191.303314 
L 535.844197 190.933 
L 536.874389 190.80157 
L 537.904582 190.646336 
L 538.934775 190.371202 
L 539.449871 190.340515 
L 539.964968 190.167368 
L 540.480064 189.761713 
L 542.025353 189.390789 
L 542.54045 189.333579 
L 543.570642 188.989834 
L 547.176317 188.697121 
L 548.20651 188.461239 
L 549.236702 188.401779 
L 549.751799 188.192179 
L 550.266895 188.185374 
L 550.781992 187.951806 
L 551.812184 187.884966 
L 552.327281 187.358944 
L 553.357474 187.127926 
L 553.87257 186.786921 
L 555.417859 186.694721 
L 555.932955 186.276841 
L 556.448052 186.241631 
L 557.993341 185.35757 
L 558.508437 185.223862 
L 559.023534 184.534843 
L 559.53863 184.081649 
L 560.053727 182.45984 
L 560.568823 182.404728 
L 561.599016 181.403189 
L 562.114112 181.005603 
L 562.629208 180.765188 
L 563.144305 179.788615 
L 564.174498 179.678988 
L 564.689594 179.437301 
L 566.234883 179.231859 
L 567.265076 178.907557 
L 569.325461 178.393544 
L 569.840558 178.065036 
L 570.355654 177.566454 
L 571.385847 177.342819 
L 571.900943 176.61064 
L 573.961329 176.445961 
L 574.476425 175.647086 
L 574.991522 174.465 
L 575.506618 174.333587 
L 576.536811 173.051303 
L 577.051907 172.909078 
L 577.567004 172.624672 
L 578.597196 171.009775 
L 579.112293 169.214703 
L 579.627389 164.560822 
L 580.142485 164.288224 
L 580.657582 162.077074 
L 581.172678 152.690149 
L 583.233064 152.229227 
L 584.263257 151.792804 
L 587.353835 151.627386 
L 588.384028 151.407425 
L 588.899124 151.079283 
L 589.929317 150.872872 
L 590.444413 150.422953 
L 592.504799 150.076085 
L 593.019895 149.80294 
L 593.534991 149.760049 
L 594.565184 149.447118 
L 595.080281 148.1508 
L 596.110473 146.690377 
L 597.655763 145.807937 
L 600.231244 145.280908 
L 601.261437 145.178712 
L 601.776534 145.052218 
L 602.29163 144.567809 
L 603.321823 144.499746 
L 603.836919 144.396619 
L 604.352016 143.470493 
L 604.867112 141.304837 
L 605.382208 118.859162 
L 605.897305 117.741886 
L 606.412401 117.3014 
L 606.927497 117.276798 
L 609.502979 116.282627 
L 610.533172 116.166625 
L 611.048268 116.110323 
L 611.563365 115.899278 
L 616.199232 115.47695 
L 616.714329 115.333174 
L 617.744521 114.701026 
L 618.259618 101.844365 
L 619.804907 100.764471 
L 620.320003 100.709652 
L 620.8351 99.989378 
L 623.410582 99.874981 
L 625.986064 99.700027 
L 628.561546 99.609375 
L 631.137027 99.48992 
L 632.682317 99.358038 
L 653.286172 97.831439 
L 654.316365 97.819902 
L 654.831461 97.642928 
L 655.861654 97.544625 
L 656.891847 97.367288 
L 658.952232 97.294272 
L 661.527714 97.179526 
L 664.618292 96.917065 
L 666.678678 96.399753 
L 668.739063 96.27157 
L 669.25416 95.869243 
L 669.769256 95.854604 
L 670.284353 95.652014 
L 671.314545 95.605338 
L 671.829642 95.332321 
L 673.374931 95.227284 
L 674.405124 94.885807 
L 674.92022 55.85801 
L 699.12975 55.849805 
L 699.12975 55.849805 
" clip-path="url(#pf68ab03ec0)" style="fill: none; stroke: #1f77b4; stroke-width: 3; stroke-linecap: square"/>
   </g>
   <g id="line2d_40">
    <path d="M 442.096655 226.875135 
L 442.611751 226.302194 
L 443.126848 225.928902 
L 443.641944 225.25779 
L 444.15704 225.14204 
L 444.672137 224.870065 
L 445.702329 224.839633 
L 446.217426 223.321862 
L 448.277811 222.612103 
L 449.308004 222.464021 
L 450.853293 222.117977 
L 451.883486 221.731752 
L 453.428775 221.472079 
L 453.943872 221.18046 
L 456.519353 220.614115 
L 458.064643 219.821762 
L 460.640125 219.41136 
L 461.155221 219.108692 
L 462.185414 218.97147 
L 463.730703 218.82528 
L 464.760896 218.501444 
L 466.306185 218.369614 
L 468.36657 217.550512 
L 470.426956 217.118989 
L 470.942052 216.926141 
L 472.487341 216.772069 
L 473.002438 216.607682 
L 474.547727 216.425762 
L 475.062823 216.307441 
L 476.608112 216.194511 
L 477.123209 216.122781 
L 477.638305 215.896096 
L 478.668498 215.77532 
L 481.24398 215.286222 
L 482.789269 215.116358 
L 487.425136 214.499299 
L 487.940233 214.163801 
L 491.545908 213.98352 
L 492.061004 213.815546 
L 493.091197 213.705226 
L 493.606293 213.422983 
L 496.696871 213.077601 
L 499.272353 212.939471 
L 502.878028 212.662233 
L 504.423317 212.571137 
L 504.938414 212.560301 
L 505.45351 212.386527 
L 509.059185 212.180722 
L 511.634667 212.00447 
L 513.179956 211.758185 
L 513.695052 211.434399 
L 518.846016 211.03173 
L 519.876209 210.869647 
L 521.421498 210.759866 
L 521.936594 210.577287 
L 522.451691 210.568305 
L 522.966787 210.318973 
L 523.481883 210.28822 
L 523.99698 210.081643 
L 525.027172 210.053105 
L 527.087558 209.595518 
L 528.117751 209.466915 
L 529.66304 209.3238 
L 532.753618 208.954664 
L 533.268715 208.733854 
L 535.3291 208.655011 
L 536.359293 208.318487 
L 537.904582 208.249258 
L 539.449871 207.957775 
L 541.510257 207.755463 
L 542.025353 207.59306 
L 542.54045 207.297345 
L 543.055546 207.287023 
L 543.570642 206.474732 
L 544.085739 206.216869 
L 544.600835 205.781649 
L 545.115931 205.69951 
L 545.631028 204.777076 
L 547.176317 204.49441 
L 547.691413 204.189863 
L 549.236702 203.95061 
L 549.751799 202.833652 
L 550.266895 202.822136 
L 551.297088 201.699708 
L 552.327281 201.334862 
L 552.842377 201.176461 
L 553.87257 200.565203 
L 556.448052 199.447642 
L 556.963148 198.969729 
L 557.993341 197.655591 
L 558.508437 197.53718 
L 559.023534 196.798276 
L 559.53863 192.117005 
L 560.053727 190.784219 
L 561.599016 190.00878 
L 562.629208 189.85626 
L 563.144305 189.845156 
L 563.659401 189.42118 
L 564.689594 189.188451 
L 565.20469 189.155982 
L 567.780172 188.492897 
L 569.325461 188.379321 
L 569.840558 188.135913 
L 570.355654 187.539476 
L 571.900943 187.434826 
L 572.931136 187.283662 
L 574.991522 186.484749 
L 575.506618 186.472183 
L 576.021714 186.263986 
L 576.536811 186.243778 
L 577.051907 185.89134 
L 578.0821 185.640379 
L 578.597196 185.448567 
L 579.112293 184.236053 
L 579.627389 183.641851 
L 581.687775 183.22824 
L 582.202871 182.325116 
L 582.717967 181.903158 
L 583.233064 181.662303 
L 583.74816 181.652157 
L 584.263257 181.025664 
L 584.778353 180.918009 
L 585.293449 180.48127 
L 585.808546 180.463696 
L 587.868931 179.000214 
L 588.899124 178.927308 
L 589.41422 178.608867 
L 589.929317 178.490545 
L 590.444413 177.680151 
L 590.95951 177.194858 
L 591.474606 177.120442 
L 591.989702 176.686266 
L 592.504799 176.632329 
L 593.019895 176.312509 
L 593.534991 176.275957 
L 594.050088 176.088231 
L 594.565184 175.503654 
L 595.080281 175.403942 
L 595.595377 175.119921 
L 597.140666 173.159246 
L 597.655763 172.247785 
L 598.170859 172.199501 
L 599.201052 169.828024 
L 599.716148 169.088943 
L 600.746341 168.973346 
L 601.261437 168.732621 
L 601.776534 165.428189 
L 602.29163 164.500879 
L 602.806726 158.473052 
L 603.321823 158.012755 
L 603.836919 157.980668 
L 604.352016 157.424967 
L 604.867112 157.132355 
L 605.897305 156.958463 
L 606.412401 156.282502 
L 606.927497 155.167147 
L 607.442594 154.446301 
L 607.95769 152.944773 
L 608.472787 152.608983 
L 608.987883 152.534539 
L 609.502979 152.139819 
L 610.533172 152.03451 
L 611.048268 151.679386 
L 612.078461 151.627026 
L 612.593558 151.2771 
L 613.108654 151.233548 
L 613.62375 150.954972 
L 616.714329 150.323117 
L 617.229425 149.369127 
L 617.744521 148.957333 
L 618.259618 148.708844 
L 618.774714 148.70691 
L 619.804907 148.362212 
L 620.8351 148.291095 
L 621.350196 148.014634 
L 621.865293 146.978915 
L 622.380389 146.699956 
L 622.895485 146.670205 
L 623.410582 146.417769 
L 623.925678 146.299103 
L 624.440774 145.156604 
L 624.955871 145.029832 
L 625.470967 144.774848 
L 625.986064 144.30805 
L 626.50116 120.951419 
L 627.016256 119.674192 
L 627.531353 119.666509 
L 628.561546 119.32386 
L 630.621931 117.580036 
L 632.16722 116.985353 
L 632.682317 116.396234 
L 633.712509 116.029535 
L 634.742702 115.748403 
L 635.772895 115.602084 
L 637.318184 115.525863 
L 637.83328 115.165637 
L 638.348377 115.137923 
L 638.863473 114.890162 
L 639.37857 102.794025 
L 639.893666 102.338394 
L 640.408762 102.279741 
L 640.923859 101.80505 
L 641.438955 101.749739 
L 641.954051 101.317492 
L 642.984244 101.040932 
L 643.499341 100.961076 
L 644.014437 100.575327 
L 644.529533 100.340897 
L 646.589919 99.977515 
L 647.620112 99.630759 
L 648.135208 99.463545 
L 650.71069 99.31967 
L 653.286172 99.169775 
L 654.316365 99.07746 
L 655.861654 99.006943 
L 656.37675 98.824455 
L 667.193774 98.209915 
L 668.739063 98.120745 
L 669.25416 97.976136 
L 678.010798 97.43565 
L 679.556087 97.073943 
L 680.071184 96.882675 
L 681.101377 96.814746 
L 681.616473 96.62596 
L 683.676859 96.476196 
L 684.191955 96.143233 
L 684.707051 96.135711 
L 685.737244 95.913308 
L 686.25234 94.896526 
L 686.767437 55.857058 
L 698.099557 55.851875 
L 698.614654 38.098198 
L 699.12975 33.563809 
L 699.12975 33.563809 
" clip-path="url(#pf68ab03ec0)" style="fill: none; stroke: #ff7f0e; stroke-width: 3; stroke-linecap: square"/>
   </g>
   <g id="patch_9">
    <path d="M 429.245 243.02976 
L 429.245 23.58924 
" style="fill: none; stroke: #000000; stroke-width: 0.8; stroke-linejoin: miter; stroke-linecap: square"/>
   </g>
   <g id="patch_10">
    <path d="M 711.981405 243.02976 
L 711.981405 23.58924 
" style="fill: none; stroke: #000000; stroke-width: 0.8; stroke-linejoin: miter; stroke-linecap: square"/>
   </g>
   <g id="patch_11">
    <path d="M 429.245 243.02976 
L 711.981405 243.02976 
" style="fill: none; stroke: #000000; stroke-width: 0.8; stroke-linejoin: miter; stroke-linecap: square"/>
   </g>
   <g id="patch_12">
    <path d="M 429.245 23.58924 
L 711.981405 23.58924 
" style="fill: none; stroke: #000000; stroke-width: 0.8; stroke-linejoin: miter; stroke-linecap: square"/>
   </g>
   <g id="text_25">
    <!-- Query Latency CDF (log scale) -->
    <g transform="translate(424.805702 17.58924) scale(0.192 -0.192)">
     <defs>
      <path id="DejaVuSans-6c" d="M 603 4863 
L 1178 4863 
L 1178 0 
L 603 0 
L 603 4863 
z
" transform="scale(0.015625)"/>
     </defs>
     <use xlink:href="#DejaVuSans-51"/>
     <use xlink:href="#DejaVuSans-75" x="78.710938"/>
     <use xlink:href="#DejaVuSans-65" x="142.089844"/>
     <use xlink:href="#DejaVuSans-72" x="203.613281"/>
     <use xlink:href="#DejaVuSans-79" x="244.726562"/>
     <use xlink:href="#DejaVuSans-20" x="303.90625"/>
     <use xlink:href="#DejaVuSans-4c" x="335.693359"/>
     <use xlink:href="#DejaVuSans-61" x="391.40625"/>
     <use xlink:href="#DejaVuSans-74" x="452.685547"/>
     <use xlink:href="#DejaVuSans-65" x="491.894531"/>
     <use xlink:href="#DejaVuSans-6e" x="553.417969"/>
     <use xlink:href="#DejaVuSans-63" x="616.796875"/>
     <use xlink:href="#DejaVuSans-79" x="671.777344"/>
     <use xlink:href="#DejaVuSans-20" x="730.957031"/>
     <use xlink:href="#DejaVuSans-43" x="762.744141"/>
     <use xlink:href="#DejaVuSans-44" x="832.568359"/>
     <use xlink:href="#DejaVuSans-46" x="909.570312"/>
     <use xlink:href="#DejaVuSans-20" x="967.089844"/>
     <use xlink:href="#DejaVuSans-28" x="998.876953"/>
     <use xlink:href="#DejaVuSans-6c" x="1037.890625"/>
     <use xlink:href="#DejaVuSans-6f" x="1065.673828"/>
     <use xlink:href="#DejaVuSans-67" x="1126.855469"/>
     <use xlink:href="#DejaVuSans-20" x="1190.332031"/>
     <use xlink:href="#DejaVuSans-73" x="1222.119141"/>
     <use xlink:href="#DejaVuSans-63" x="1274.21875"/>
     <use xlink:href="#DejaVuSans-61" x="1329.199219"/>
     <use xlink:href="#DejaVuSans-6c" x="1390.478516"/>
     <use xlink:href="#DejaVuSans-65" x="1418.261719"/>
     <use xlink:href="#DejaVuSans-29" x="1479.785156"/>
    </g>
   </g>
   <g id="legend_2">
    <g id="patch_13">
     <path d="M 440.445 83.35924 
L 582.9975 83.35924 
Q 586.1975 83.35924 586.1975 80.15924 
L 586.1975 34.78924 
Q 586.1975 31.58924 582.9975 31.58924 
L 440.445 31.58924 
Q 437.245 31.58924 437.245 34.78924 
L 437.245 80.15924 
Q 437.245 83.35924 440.445 83.35924 
z
" style="fill: #ffffff; opacity: 0.8; stroke: #cccccc; stroke-linejoin: miter"/>
    </g>
    <g id="line2d_41">
     <path d="M 443.645 44.54674 
L 459.645 44.54674 
L 475.645 44.54674 
" style="fill: none; stroke: #1f77b4; stroke-width: 3; stroke-linecap: square"/>
    </g>
    <g id="text_26">
     <!-- PostgreSQL -->
     <g transform="translate(488.445 50.14674) scale(0.16 -0.16)">
      <use xlink:href="#DejaVuSans-50"/>
      <use xlink:href="#DejaVuSans-6f" x="56.677734"/>
      <use xlink:href="#DejaVuSans-73" x="117.859375"/>
      <use xlink:href="#DejaVuSans-74" x="169.958984"/>
      <use xlink:href="#DejaVuSans-67" x="209.167969"/>
      <use xlink:href="#DejaVuSans-72" x="272.644531"/>
      <use xlink:href="#DejaVuSans-65" x="311.507812"/>
      <use xlink:href="#DejaVuSans-53" x="373.03125"/>
      <use xlink:href="#DejaVuSans-51" x="436.507812"/>
      <use xlink:href="#DejaVuSans-4c" x="515.21875"/>
     </g>
    </g>
    <g id="line2d_42">
     <path d="M 443.645 68.03174 
L 459.645 68.03174 
L 475.645 68.03174 
" style="fill: none; stroke: #ff7f0e; stroke-width: 3; stroke-linecap: square"/>
    </g>
    <g id="text_27">
     <!-- Bao -->
     <g transform="translate(488.445 73.63174) scale(0.16 -0.16)">
      <use xlink:href="#DejaVuSans-42"/>
      <use xlink:href="#DejaVuSans-61" x="68.603516"/>
      <use xlink:href="#DejaVuSans-6f" x="129.882812"/>
     </g>
    </g>
   </g>
  </g>
 </g>
 <defs>
  <clipPath id="p7f0886d015">
   <rect x="70.20524" y="23.58924" width="282.736405" height="219.44052"/>
  </clipPath>
  <clipPath id="pf68ab03ec0">
   <rect x="429.245" y="23.58924" width="282.736405" height="219.44052"/>
  </clipPath>
 </defs>
</svg>
