<?xml version="1.0" encoding="utf-8" standalone="no"?>
<!DOCTYPE svg PUBLIC "-//W3C//DTD SVG 1.1//EN"
  "http://www.w3.org/Graphics/SVG/1.1/DTD/svg11.dtd">
<svg xmlns:xlink="http://www.w3.org/1999/xlink" width="460.8pt" height="345.6pt" viewBox="0 0 460.8 345.6" xmlns="http://www.w3.org/2000/svg" version="1.1">
 <metadata>
  <rdf:RDF xmlns:dc="http://purl.org/dc/elements/1.1/" xmlns:cc="http://creativecommons.org/ns#" xmlns:rdf="http://www.w3.org/1999/02/22-rdf-syntax-ns#">
   <cc:Work>
    <dc:type rdf:resource="http://purl.org/dc/dcmitype/StillImage"/>
    <dc:date>2024-11-26T23:41:46.817708</dc:date>
    <dc:format>image/svg+xml</dc:format>
    <dc:creator>
     <cc:Agent>
      <dc:title>Matplotlib v3.7.2, https://matplotlib.org/</dc:title>
     </cc:Agent>
    </dc:creator>
   </cc:Work>
  </rdf:RDF>
 </metadata>
 <defs>
  <style type="text/css">*{stroke-linejoin: round; stroke-linecap: butt}</style>
 </defs>
 <g id="figure_1">
  <g id="patch_1">
   <path d="M 0 345.6 
L 460.8 345.6 
L 460.8 0 
L 0 0 
z
" style="fill: #ffffff"/>
  </g>
  <g id="axes_1">
   <g id="patch_2">
    <path d="M 60.02524 300.62976 
L 457.79976 300.62976 
L 457.79976 23.58924 
L 60.02524 23.58924 
z
" style="fill: #ffffff"/>
   </g>
   <g id="PathCollection_1">
    <defs>
     <path id="mfc05679a5f" d="M 0 3.354102 
C 0.889518 3.354102 1.742724 3.000693 2.371708 2.371708 
C 3.000693 1.742724 3.354102 0.889518 3.354102 0 
C 3.354102 -0.889518 3.000693 -1.742724 2.371708 -2.371708 
C 1.742724 -3.000693 0.889518 -3.354102 0 -3.354102 
C -0.889518 -3.354102 -1.742724 -3.000693 -2.371708 -2.371708 
C -3.000693 -1.742724 -3.354102 -0.889518 -3.354102 0 
C -3.354102 0.889518 -3.000693 1.742724 -2.371708 2.371708 
C -1.742724 3.000693 -0.889518 3.354102 0 3.354102 
z
" style="stroke: #ff0000"/>
    </defs>
    <g clip-path="url(#pf5a19c38fa)">
     <use xlink:href="#mfc05679a5f" x="94.099763" y="278.447339" style="fill: #ff0000; stroke: #ff0000"/>
     <use xlink:href="#mfc05679a5f" x="115.737238" y="268.35295" style="fill: #ff0000; stroke: #ff0000"/>
     <use xlink:href="#mfc05679a5f" x="123.541297" y="258.25856" style="fill: #ff0000; stroke: #ff0000"/>
     <use xlink:href="#mfc05679a5f" x="125.404243" y="248.164171" style="fill: #ff0000; stroke: #ff0000"/>
     <use xlink:href="#mfc05679a5f" x="133.471988" y="238.069781" style="fill: #ff0000; stroke: #ff0000"/>
     <use xlink:href="#mfc05679a5f" x="141.82475" y="227.975392" style="fill: #ff0000; stroke: #ff0000"/>
     <use xlink:href="#mfc05679a5f" x="144.003869" y="217.881002" style="fill: #ff0000; stroke: #ff0000"/>
     <use xlink:href="#mfc05679a5f" x="151.691773" y="207.786613" style="fill: #ff0000; stroke: #ff0000"/>
     <use xlink:href="#mfc05679a5f" x="154.269791" y="197.692223" style="fill: #ff0000; stroke: #ff0000"/>
     <use xlink:href="#mfc05679a5f" x="156.112113" y="187.597834" style="fill: #ff0000; stroke: #ff0000"/>
     <use xlink:href="#mfc05679a5f" x="157.09371" y="177.503444" style="fill: #ff0000; stroke: #ff0000"/>
     <use xlink:href="#mfc05679a5f" x="184.780567" y="167.409054" style="fill: #ff0000; stroke: #ff0000"/>
     <use xlink:href="#mfc05679a5f" x="207.783959" y="157.314665" style="fill: #ff0000; stroke: #ff0000"/>
     <use xlink:href="#mfc05679a5f" x="221.817505" y="147.220275" style="fill: #ff0000; stroke: #ff0000"/>
     <use xlink:href="#mfc05679a5f" x="223.292971" y="137.125886" style="fill: #ff0000; stroke: #ff0000"/>
     <use xlink:href="#mfc05679a5f" x="230.026179" y="127.031496" style="fill: #ff0000; stroke: #ff0000"/>
     <use xlink:href="#mfc05679a5f" x="230.815111" y="116.937107" style="fill: #ff0000; stroke: #ff0000"/>
     <use xlink:href="#mfc05679a5f" x="231.718004" y="106.842717" style="fill: #ff0000; stroke: #ff0000"/>
     <use xlink:href="#mfc05679a5f" x="246.390633" y="96.748328" style="fill: #ff0000; stroke: #ff0000"/>
     <use xlink:href="#mfc05679a5f" x="261.16303" y="86.653938" style="fill: #ff0000; stroke: #ff0000"/>
     <use xlink:href="#mfc05679a5f" x="263.876946" y="76.559549" style="fill: #ff0000; stroke: #ff0000"/>
     <use xlink:href="#mfc05679a5f" x="265.474267" y="66.465159" style="fill: #ff0000; stroke: #ff0000"/>
     <use xlink:href="#mfc05679a5f" x="301.786049" y="56.37077" style="fill: #ff0000; stroke: #ff0000"/>
     <use xlink:href="#mfc05679a5f" x="310.865717" y="46.27638" style="fill: #ff0000; stroke: #ff0000"/>
    </g>
   </g>
   <g id="matplotlib.axis_1">
    <g id="xtick_1">
     <g id="line2d_1">
      <path d="M 78.1059 300.62976 
L 78.1059 23.58924 
" clip-path="url(#pf5a19c38fa)" style="fill: none; stroke-dasharray: 3.7,1.6; stroke-dashoffset: 0; stroke: #b0b0b0"/>
     </g>
     <g id="line2d_2">
      <defs>
       <path id="m2e7ee9cf71" d="M 0 0 
L 0 3.5 
" style="stroke: #000000; stroke-width: 0.8"/>
      </defs>
      <g>
       <use xlink:href="#m2e7ee9cf71" x="78.1059" y="300.62976" style="stroke: #000000; stroke-width: 0.8"/>
      </g>
     </g>
     <g id="text_1">
      <!-- 0 -->
      <g transform="translate(73.0159 319.78726) scale(0.16 -0.16)">
       <defs>
        <path id="DejaVuSans-30" d="M 2034 4250 
Q 1547 4250 1301 3770 
Q 1056 3291 1056 2328 
Q 1056 1369 1301 889 
Q 1547 409 2034 409 
Q 2525 409 2770 889 
Q 3016 1369 3016 2328 
Q 3016 3291 2770 3770 
Q 2525 4250 2034 4250 
z
M 2034 4750 
Q 2819 4750 3233 4129 
Q 3647 3509 3647 2328 
Q 3647 1150 3233 529 
Q 2819 -91 2034 -91 
Q 1250 -91 836 529 
Q 422 1150 422 2328 
Q 422 3509 836 4129 
Q 1250 4750 2034 4750 
z
" transform="scale(0.015625)"/>
       </defs>
       <use xlink:href="#DejaVuSans-30"/>
      </g>
     </g>
    </g>
    <g id="xtick_2">
     <g id="line2d_3">
      <path d="M 176.254064 300.62976 
L 176.254064 23.58924 
" clip-path="url(#pf5a19c38fa)" style="fill: none; stroke-dasharray: 3.7,1.6; stroke-dashoffset: 0; stroke: #b0b0b0"/>
     </g>
     <g id="line2d_4">
      <g>
       <use xlink:href="#m2e7ee9cf71" x="176.254064" y="300.62976" style="stroke: #000000; stroke-width: 0.8"/>
      </g>
     </g>
     <g id="text_2">
      <!-- 100 -->
      <g transform="translate(160.984064 319.78726) scale(0.16 -0.16)">
       <defs>
        <path id="DejaVuSans-31" d="M 794 531 
L 1825 531 
L 1825 4091 
L 703 3866 
L 703 4441 
L 1819 4666 
L 2450 4666 
L 2450 531 
L 3481 531 
L 3481 0 
L 794 0 
L 794 531 
z
" transform="scale(0.015625)"/>
       </defs>
       <use xlink:href="#DejaVuSans-31"/>
       <use xlink:href="#DejaVuSans-30" x="63.623047"/>
       <use xlink:href="#DejaVuSans-30" x="127.246094"/>
      </g>
     </g>
    </g>
    <g id="xtick_3">
     <g id="line2d_5">
      <path d="M 274.402228 300.62976 
L 274.402228 23.58924 
" clip-path="url(#pf5a19c38fa)" style="fill: none; stroke-dasharray: 3.7,1.6; stroke-dashoffset: 0; stroke: #b0b0b0"/>
     </g>
     <g id="line2d_6">
      <g>
       <use xlink:href="#m2e7ee9cf71" x="274.402228" y="300.62976" style="stroke: #000000; stroke-width: 0.8"/>
      </g>
     </g>
     <g id="text_3">
      <!-- 200 -->
      <g transform="translate(259.132228 319.78726) scale(0.16 -0.16)">
       <defs>
        <path id="DejaVuSans-32" d="M 1228 531 
L 3431 531 
L 3431 0 
L 469 0 
L 469 531 
Q 828 903 1448 1529 
Q 2069 2156 2228 2338 
Q 2531 2678 2651 2914 
Q 2772 3150 2772 3378 
Q 2772 3750 2511 3984 
Q 2250 4219 1831 4219 
Q 1534 4219 1204 4116 
Q 875 4013 500 3803 
L 500 4441 
Q 881 4594 1212 4672 
Q 1544 4750 1819 4750 
Q 2544 4750 2975 4387 
Q 3406 4025 3406 3419 
Q 3406 3131 3298 2873 
Q 3191 2616 2906 2266 
Q 2828 2175 2409 1742 
Q 1991 1309 1228 531 
z
" transform="scale(0.015625)"/>
       </defs>
       <use xlink:href="#DejaVuSans-32"/>
       <use xlink:href="#DejaVuSans-30" x="63.623047"/>
       <use xlink:href="#DejaVuSans-30" x="127.246094"/>
      </g>
     </g>
    </g>
    <g id="xtick_4">
     <g id="line2d_7">
      <path d="M 372.550392 300.62976 
L 372.550392 23.58924 
" clip-path="url(#pf5a19c38fa)" style="fill: none; stroke-dasharray: 3.7,1.6; stroke-dashoffset: 0; stroke: #b0b0b0"/>
     </g>
     <g id="line2d_8">
      <g>
       <use xlink:href="#m2e7ee9cf71" x="372.550392" y="300.62976" style="stroke: #000000; stroke-width: 0.8"/>
      </g>
     </g>
     <g id="text_4">
      <!-- 300 -->
      <g transform="translate(357.280392 319.78726) scale(0.16 -0.16)">
       <defs>
        <path id="DejaVuSans-33" d="M 2597 2516 
Q 3050 2419 3304 2112 
Q 3559 1806 3559 1356 
Q 3559 666 3084 287 
Q 2609 -91 1734 -91 
Q 1441 -91 1130 -33 
Q 819 25 488 141 
L 488 750 
Q 750 597 1062 519 
Q 1375 441 1716 441 
Q 2309 441 2620 675 
Q 2931 909 2931 1356 
Q 2931 1769 2642 2001 
Q 2353 2234 1838 2234 
L 1294 2234 
L 1294 2753 
L 1863 2753 
Q 2328 2753 2575 2939 
Q 2822 3125 2822 3475 
Q 2822 3834 2567 4026 
Q 2313 4219 1838 4219 
Q 1578 4219 1281 4162 
Q 984 4106 628 3988 
L 628 4550 
Q 988 4650 1302 4700 
Q 1616 4750 1894 4750 
Q 2613 4750 3031 4423 
Q 3450 4097 3450 3541 
Q 3450 3153 3228 2886 
Q 3006 2619 2597 2516 
z
" transform="scale(0.015625)"/>
       </defs>
       <use xlink:href="#DejaVuSans-33"/>
       <use xlink:href="#DejaVuSans-30" x="63.623047"/>
       <use xlink:href="#DejaVuSans-30" x="127.246094"/>
      </g>
     </g>
    </g>
    <g id="text_5">
     <!-- Time (m) -->
     <g transform="translate(222.76125 339.27226) scale(0.16 -0.16)">
      <defs>
       <path id="DejaVuSans-54" d="M -19 4666 
L 3928 4666 
L 3928 4134 
L 2272 4134 
L 2272 0 
L 1638 0 
L 1638 4134 
L -19 4134 
L -19 4666 
z
" transform="scale(0.015625)"/>
       <path id="DejaVuSans-69" d="M 603 3500 
L 1178 3500 
L 1178 0 
L 603 0 
L 603 3500 
z
M 603 4863 
L 1178 4863 
L 1178 4134 
L 603 4134 
L 603 4863 
z
" transform="scale(0.015625)"/>
       <path id="DejaVuSans-6d" d="M 3328 2828 
Q 3544 3216 3844 3400 
Q 4144 3584 4550 3584 
Q 5097 3584 5394 3201 
Q 5691 2819 5691 2113 
L 5691 0 
L 5113 0 
L 5113 2094 
Q 5113 2597 4934 2840 
Q 4756 3084 4391 3084 
Q 3944 3084 3684 2787 
Q 3425 2491 3425 1978 
L 3425 0 
L 2847 0 
L 2847 2094 
Q 2847 2600 2669 2842 
Q 2491 3084 2119 3084 
Q 1678 3084 1418 2786 
Q 1159 2488 1159 1978 
L 1159 0 
L 581 0 
L 581 3500 
L 1159 3500 
L 1159 2956 
Q 1356 3278 1631 3431 
Q 1906 3584 2284 3584 
Q 2666 3584 2933 3390 
Q 3200 3197 3328 2828 
z
" transform="scale(0.015625)"/>
       <path id="DejaVuSans-65" d="M 3597 1894 
L 3597 1613 
L 953 1613 
Q 991 1019 1311 708 
Q 1631 397 2203 397 
Q 2534 397 2845 478 
Q 3156 559 3463 722 
L 3463 178 
Q 3153 47 2828 -22 
Q 2503 -91 2169 -91 
Q 1331 -91 842 396 
Q 353 884 353 1716 
Q 353 2575 817 3079 
Q 1281 3584 2069 3584 
Q 2775 3584 3186 3129 
Q 3597 2675 3597 1894 
z
M 3022 2063 
Q 3016 2534 2758 2815 
Q 2500 3097 2075 3097 
Q 1594 3097 1305 2825 
Q 1016 2553 972 2059 
L 3022 2063 
z
" transform="scale(0.015625)"/>
       <path id="DejaVuSans-20" transform="scale(0.015625)"/>
       <path id="DejaVuSans-28" d="M 1984 4856 
Q 1566 4138 1362 3434 
Q 1159 2731 1159 2009 
Q 1159 1288 1364 580 
Q 1569 -128 1984 -844 
L 1484 -844 
Q 1016 -109 783 600 
Q 550 1309 550 2009 
Q 550 2706 781 3412 
Q 1013 4119 1484 4856 
L 1984 4856 
z
" transform="scale(0.015625)"/>
       <path id="DejaVuSans-29" d="M 513 4856 
L 1013 4856 
Q 1481 4119 1714 3412 
Q 1947 2706 1947 2009 
Q 1947 1309 1714 600 
Q 1481 -109 1013 -844 
L 513 -844 
Q 928 -128 1133 580 
Q 1338 1288 1338 2009 
Q 1338 2731 1133 3434 
Q 928 4138 513 4856 
z
" transform="scale(0.015625)"/>
      </defs>
      <use xlink:href="#DejaVuSans-54"/>
      <use xlink:href="#DejaVuSans-69" x="57.958984"/>
      <use xlink:href="#DejaVuSans-6d" x="85.742188"/>
      <use xlink:href="#DejaVuSans-65" x="183.154297"/>
      <use xlink:href="#DejaVuSans-20" x="244.677734"/>
      <use xlink:href="#DejaVuSans-28" x="276.464844"/>
      <use xlink:href="#DejaVuSans-6d" x="315.478516"/>
      <use xlink:href="#DejaVuSans-29" x="412.890625"/>
     </g>
    </g>
   </g>
   <g id="matplotlib.axis_2">
    <g id="ytick_1">
     <g id="line2d_9">
      <path d="M 60.02524 288.037009 
L 457.79976 288.037009 
" clip-path="url(#pf5a19c38fa)" style="fill: none; stroke-dasharray: 3.7,1.6; stroke-dashoffset: 0; stroke: #b0b0b0"/>
     </g>
     <g id="line2d_10">
      <defs>
       <path id="mdfd2b940fc" d="M 0 0 
L -3.5 0 
" style="stroke: #000000; stroke-width: 0.8"/>
      </defs>
      <g>
       <use xlink:href="#mdfd2b940fc" x="60.02524" y="288.037009" style="stroke: #000000; stroke-width: 0.8"/>
      </g>
     </g>
     <g id="text_6">
      <!-- 0 -->
      <g transform="translate(42.84524 294.115759) scale(0.16 -0.16)">
       <use xlink:href="#DejaVuSans-30"/>
      </g>
     </g>
    </g>
    <g id="ytick_2">
     <g id="line2d_11">
      <path d="M 60.02524 237.565062 
L 457.79976 237.565062 
" clip-path="url(#pf5a19c38fa)" style="fill: none; stroke-dasharray: 3.7,1.6; stroke-dashoffset: 0; stroke: #b0b0b0"/>
     </g>
     <g id="line2d_12">
      <g>
       <use xlink:href="#mdfd2b940fc" x="60.02524" y="237.565062" style="stroke: #000000; stroke-width: 0.8"/>
      </g>
     </g>
     <g id="text_7">
      <!-- 100 -->
      <g transform="translate(22.48524 243.643812) scale(0.16 -0.16)">
       <use xlink:href="#DejaVuSans-31"/>
       <use xlink:href="#DejaVuSans-30" x="63.623047"/>
       <use xlink:href="#DejaVuSans-30" x="127.246094"/>
      </g>
     </g>
    </g>
    <g id="ytick_3">
     <g id="line2d_13">
      <path d="M 60.02524 187.093114 
L 457.79976 187.093114 
" clip-path="url(#pf5a19c38fa)" style="fill: none; stroke-dasharray: 3.7,1.6; stroke-dashoffset: 0; stroke: #b0b0b0"/>
     </g>
     <g id="line2d_14">
      <g>
       <use xlink:href="#mdfd2b940fc" x="60.02524" y="187.093114" style="stroke: #000000; stroke-width: 0.8"/>
      </g>
     </g>
     <g id="text_8">
      <!-- 200 -->
      <g transform="translate(22.48524 193.171864) scale(0.16 -0.16)">
       <use xlink:href="#DejaVuSans-32"/>
       <use xlink:href="#DejaVuSans-30" x="63.623047"/>
       <use xlink:href="#DejaVuSans-30" x="127.246094"/>
      </g>
     </g>
    </g>
    <g id="ytick_4">
     <g id="line2d_15">
      <path d="M 60.02524 136.621166 
L 457.79976 136.621166 
" clip-path="url(#pf5a19c38fa)" style="fill: none; stroke-dasharray: 3.7,1.6; stroke-dashoffset: 0; stroke: #b0b0b0"/>
     </g>
     <g id="line2d_16">
      <g>
       <use xlink:href="#mdfd2b940fc" x="60.02524" y="136.621166" style="stroke: #000000; stroke-width: 0.8"/>
      </g>
     </g>
     <g id="text_9">
      <!-- 300 -->
      <g transform="translate(22.48524 142.699916) scale(0.16 -0.16)">
       <use xlink:href="#DejaVuSans-33"/>
       <use xlink:href="#DejaVuSans-30" x="63.623047"/>
       <use xlink:href="#DejaVuSans-30" x="127.246094"/>
      </g>
     </g>
    </g>
    <g id="ytick_5">
     <g id="line2d_17">
      <path d="M 60.02524 86.149219 
L 457.79976 86.149219 
" clip-path="url(#pf5a19c38fa)" style="fill: none; stroke-dasharray: 3.7,1.6; stroke-dashoffset: 0; stroke: #b0b0b0"/>
     </g>
     <g id="line2d_18">
      <g>
       <use xlink:href="#mdfd2b940fc" x="60.02524" y="86.149219" style="stroke: #000000; stroke-width: 0.8"/>
      </g>
     </g>
     <g id="text_10">
      <!-- 400 -->
      <g transform="translate(22.48524 92.227969) scale(0.16 -0.16)">
       <defs>
        <path id="DejaVuSans-34" d="M 2419 4116 
L 825 1625 
L 2419 1625 
L 2419 4116 
z
M 2253 4666 
L 3047 4666 
L 3047 1625 
L 3713 1625 
L 3713 1100 
L 3047 1100 
L 3047 0 
L 2419 0 
L 2419 1100 
L 313 1100 
L 313 1709 
L 2253 4666 
z
" transform="scale(0.015625)"/>
       </defs>
       <use xlink:href="#DejaVuSans-34"/>
       <use xlink:href="#DejaVuSans-30" x="63.623047"/>
       <use xlink:href="#DejaVuSans-30" x="127.246094"/>
      </g>
     </g>
    </g>
    <g id="ytick_6">
     <g id="line2d_19">
      <path d="M 60.02524 35.677271 
L 457.79976 35.677271 
" clip-path="url(#pf5a19c38fa)" style="fill: none; stroke-dasharray: 3.7,1.6; stroke-dashoffset: 0; stroke: #b0b0b0"/>
     </g>
     <g id="line2d_20">
      <g>
       <use xlink:href="#mdfd2b940fc" x="60.02524" y="35.677271" style="stroke: #000000; stroke-width: 0.8"/>
      </g>
     </g>
     <g id="text_11">
      <!-- 500 -->
      <g transform="translate(22.48524 41.756021) scale(0.16 -0.16)">
       <defs>
        <path id="DejaVuSans-35" d="M 691 4666 
L 3169 4666 
L 3169 4134 
L 1269 4134 
L 1269 2991 
Q 1406 3038 1543 3061 
Q 1681 3084 1819 3084 
Q 2600 3084 3056 2656 
Q 3513 2228 3513 1497 
Q 3513 744 3044 326 
Q 2575 -91 1722 -91 
Q 1428 -91 1123 -41 
Q 819 9 494 109 
L 494 744 
Q 775 591 1075 516 
Q 1375 441 1709 441 
Q 2250 441 2565 725 
Q 2881 1009 2881 1497 
Q 2881 1984 2565 2268 
Q 2250 2553 1709 2553 
Q 1456 2553 1204 2497 
Q 953 2441 691 2322 
L 691 4666 
z
" transform="scale(0.015625)"/>
       </defs>
       <use xlink:href="#DejaVuSans-35"/>
       <use xlink:href="#DejaVuSans-30" x="63.623047"/>
       <use xlink:href="#DejaVuSans-30" x="127.246094"/>
      </g>
     </g>
    </g>
    <g id="text_12">
     <!-- Queries complete -->
     <g transform="translate(15.15774 232.912) rotate(-90) scale(0.16 -0.16)">
      <defs>
       <path id="DejaVuSans-51" d="M 2522 4238 
Q 1834 4238 1429 3725 
Q 1025 3213 1025 2328 
Q 1025 1447 1429 934 
Q 1834 422 2522 422 
Q 3209 422 3611 934 
Q 4013 1447 4013 2328 
Q 4013 3213 3611 3725 
Q 3209 4238 2522 4238 
z
M 3406 84 
L 4238 -825 
L 3475 -825 
L 2784 -78 
Q 2681 -84 2626 -87 
Q 2572 -91 2522 -91 
Q 1538 -91 948 567 
Q 359 1225 359 2328 
Q 359 3434 948 4092 
Q 1538 4750 2522 4750 
Q 3503 4750 4090 4092 
Q 4678 3434 4678 2328 
Q 4678 1516 4351 937 
Q 4025 359 3406 84 
z
" transform="scale(0.015625)"/>
       <path id="DejaVuSans-75" d="M 544 1381 
L 544 3500 
L 1119 3500 
L 1119 1403 
Q 1119 906 1312 657 
Q 1506 409 1894 409 
Q 2359 409 2629 706 
Q 2900 1003 2900 1516 
L 2900 3500 
L 3475 3500 
L 3475 0 
L 2900 0 
L 2900 538 
Q 2691 219 2414 64 
Q 2138 -91 1772 -91 
Q 1169 -91 856 284 
Q 544 659 544 1381 
z
M 1991 3584 
L 1991 3584 
z
" transform="scale(0.015625)"/>
       <path id="DejaVuSans-72" d="M 2631 2963 
Q 2534 3019 2420 3045 
Q 2306 3072 2169 3072 
Q 1681 3072 1420 2755 
Q 1159 2438 1159 1844 
L 1159 0 
L 581 0 
L 581 3500 
L 1159 3500 
L 1159 2956 
Q 1341 3275 1631 3429 
Q 1922 3584 2338 3584 
Q 2397 3584 2469 3576 
Q 2541 3569 2628 3553 
L 2631 2963 
z
" transform="scale(0.015625)"/>
       <path id="DejaVuSans-73" d="M 2834 3397 
L 2834 2853 
Q 2591 2978 2328 3040 
Q 2066 3103 1784 3103 
Q 1356 3103 1142 2972 
Q 928 2841 928 2578 
Q 928 2378 1081 2264 
Q 1234 2150 1697 2047 
L 1894 2003 
Q 2506 1872 2764 1633 
Q 3022 1394 3022 966 
Q 3022 478 2636 193 
Q 2250 -91 1575 -91 
Q 1294 -91 989 -36 
Q 684 19 347 128 
L 347 722 
Q 666 556 975 473 
Q 1284 391 1588 391 
Q 1994 391 2212 530 
Q 2431 669 2431 922 
Q 2431 1156 2273 1281 
Q 2116 1406 1581 1522 
L 1381 1569 
Q 847 1681 609 1914 
Q 372 2147 372 2553 
Q 372 3047 722 3315 
Q 1072 3584 1716 3584 
Q 2034 3584 2315 3537 
Q 2597 3491 2834 3397 
z
" transform="scale(0.015625)"/>
       <path id="DejaVuSans-63" d="M 3122 3366 
L 3122 2828 
Q 2878 2963 2633 3030 
Q 2388 3097 2138 3097 
Q 1578 3097 1268 2742 
Q 959 2388 959 1747 
Q 959 1106 1268 751 
Q 1578 397 2138 397 
Q 2388 397 2633 464 
Q 2878 531 3122 666 
L 3122 134 
Q 2881 22 2623 -34 
Q 2366 -91 2075 -91 
Q 1284 -91 818 406 
Q 353 903 353 1747 
Q 353 2603 823 3093 
Q 1294 3584 2113 3584 
Q 2378 3584 2631 3529 
Q 2884 3475 3122 3366 
z
" transform="scale(0.015625)"/>
       <path id="DejaVuSans-6f" d="M 1959 3097 
Q 1497 3097 1228 2736 
Q 959 2375 959 1747 
Q 959 1119 1226 758 
Q 1494 397 1959 397 
Q 2419 397 2687 759 
Q 2956 1122 2956 1747 
Q 2956 2369 2687 2733 
Q 2419 3097 1959 3097 
z
M 1959 3584 
Q 2709 3584 3137 3096 
Q 3566 2609 3566 1747 
Q 3566 888 3137 398 
Q 2709 -91 1959 -91 
Q 1206 -91 779 398 
Q 353 888 353 1747 
Q 353 2609 779 3096 
Q 1206 3584 1959 3584 
z
" transform="scale(0.015625)"/>
       <path id="DejaVuSans-70" d="M 1159 525 
L 1159 -1331 
L 581 -1331 
L 581 3500 
L 1159 3500 
L 1159 2969 
Q 1341 3281 1617 3432 
Q 1894 3584 2278 3584 
Q 2916 3584 3314 3078 
Q 3713 2572 3713 1747 
Q 3713 922 3314 415 
Q 2916 -91 2278 -91 
Q 1894 -91 1617 61 
Q 1341 213 1159 525 
z
M 3116 1747 
Q 3116 2381 2855 2742 
Q 2594 3103 2138 3103 
Q 1681 3103 1420 2742 
Q 1159 2381 1159 1747 
Q 1159 1113 1420 752 
Q 1681 391 2138 391 
Q 2594 391 2855 752 
Q 3116 1113 3116 1747 
z
" transform="scale(0.015625)"/>
       <path id="DejaVuSans-6c" d="M 603 4863 
L 1178 4863 
L 1178 0 
L 603 0 
L 603 4863 
z
" transform="scale(0.015625)"/>
       <path id="DejaVuSans-74" d="M 1172 4494 
L 1172 3500 
L 2356 3500 
L 2356 3053 
L 1172 3053 
L 1172 1153 
Q 1172 725 1289 603 
Q 1406 481 1766 481 
L 2356 481 
L 2356 0 
L 1766 0 
Q 1100 0 847 248 
Q 594 497 594 1153 
L 594 3053 
L 172 3053 
L 172 3500 
L 594 3500 
L 594 4494 
L 1172 4494 
z
" transform="scale(0.015625)"/>
      </defs>
      <use xlink:href="#DejaVuSans-51"/>
      <use xlink:href="#DejaVuSans-75" x="78.710938"/>
      <use xlink:href="#DejaVuSans-65" x="142.089844"/>
      <use xlink:href="#DejaVuSans-72" x="203.613281"/>
      <use xlink:href="#DejaVuSans-69" x="244.726562"/>
      <use xlink:href="#DejaVuSans-65" x="272.509766"/>
      <use xlink:href="#DejaVuSans-73" x="334.033203"/>
      <use xlink:href="#DejaVuSans-20" x="386.132812"/>
      <use xlink:href="#DejaVuSans-63" x="417.919922"/>
      <use xlink:href="#DejaVuSans-6f" x="472.900391"/>
      <use xlink:href="#DejaVuSans-6d" x="534.082031"/>
      <use xlink:href="#DejaVuSans-70" x="631.494141"/>
      <use xlink:href="#DejaVuSans-6c" x="694.970703"/>
      <use xlink:href="#DejaVuSans-65" x="722.753906"/>
      <use xlink:href="#DejaVuSans-74" x="784.277344"/>
      <use xlink:href="#DejaVuSans-65" x="823.486328"/>
     </g>
    </g>
   </g>
   <g id="line2d_21">
    <path d="M 78.1059 288.037009 
L 78.467613 287.53229 
L 78.468688 286.522851 
L 85.01314 286.018131 
L 85.417762 285.513412 
L 85.418623 285.008692 
L 85.782343 284.503973 
L 85.795004 283.999253 
L 86.169131 283.494534 
L 86.171529 282.485095 
L 86.530166 281.980375 
L 86.531288 280.970936 
L 86.656165 280.466217 
L 86.656339 279.961497 
L 93.202063 279.456778 
L 94.933094 277.4379 
L 94.934482 275.419022 
L 95.354853 274.914303 
L 95.372565 273.904864 
L 101.917035 273.400144 
L 102.311038 272.895425 
L 108.857524 272.390705 
L 108.979969 271.885986 
L 109.08057 270.371827 
L 109.097557 269.867108 
L 115.642136 269.362389 
L 115.644325 268.857669 
L 122.188767 268.35295 
L 123.007202 267.343511 
L 123.009092 266.334072 
L 123.425179 265.829352 
L 123.42739 260.782157 
L 129.971769 260.277438 
L 129.973362 259.772718 
L 136.517568 259.267999 
L 136.520096 257.249121 
L 136.645671 256.744402 
L 137.126557 256.239682 
L 137.144883 255.734963 
L 137.632996 255.230243 
L 137.634819 254.725524 
L 138.007627 254.220804 
L 138.021366 249.678329 
L 138.513266 249.173609 
L 138.51423 248.164171 
L 138.643692 247.659451 
L 138.643844 247.154732 
L 145.188345 246.650012 
L 145.202868 244.126415 
L 145.960142 243.116976 
L 145.962105 242.107537 
L 146.357793 241.602817 
L 146.375315 241.098098 
L 146.737998 240.593378 
L 146.862302 238.069781 
L 147.228947 237.565062 
L 153.774716 237.060342 
L 154.198279 236.555623 
L 154.309711 235.546184 
L 154.309943 234.536745 
L 155.072388 233.527306 
L 155.074833 228.98483 
L 161.620576 228.480111 
L 161.62334 227.975392 
L 162.045835 227.470672 
L 162.162035 226.965953 
L 162.590151 226.461233 
L 162.714228 225.956514 
L 163.073849 225.451794 
L 163.077413 224.947075 
L 163.439896 224.442355 
L 163.456711 222.423477 
L 163.848161 221.918758 
L 163.850113 220.909319 
L 164.217666 220.404599 
L 164.218558 219.89988 
L 164.636925 219.39516 
L 171.183723 218.890441 
L 171.662427 218.385721 
L 171.663461 217.881002 
L 172.109264 217.376283 
L 172.234711 216.871563 
L 172.246486 214.852685 
L 172.354545 214.347966 
L 178.898714 213.843246 
L 178.901736 211.824368 
L 179.320718 211.319649 
L 179.32197 209.300771 
L 185.867701 208.796051 
L 185.870209 207.786613 
L 186.295356 207.281893 
L 186.296628 205.263015 
L 186.695728 204.758296 
L 186.696688 204.253576 
L 187.117801 203.748857 
L 187.118953 202.234698 
L 187.242104 201.729979 
L 188.100653 200.72054 
L 188.545569 200.21582 
L 188.547923 199.206381 
L 188.972887 198.701662 
L 188.985427 198.196942 
L 189.41913 197.692223 
L 195.965761 197.187504 
L 196.385109 196.682784 
L 196.398063 193.149748 
L 196.827976 192.645028 
L 196.841311 190.62615 
L 197.241691 190.121431 
L 197.242515 189.616711 
L 197.359507 189.111992 
L 197.769224 188.607272 
L 197.805511 184.064797 
L 198.224803 183.560078 
L 198.226126 182.045919 
L 199.111892 181.03648 
L 199.257328 179.017602 
L 205.801749 178.512883 
L 205.80393 176.998725 
L 212.34845 176.494005 
L 212.470557 175.989286 
L 219.014977 175.484566 
L 219.476274 174.979847 
L 226.02273 174.475127 
L 226.042595 172.456249 
L 226.442445 171.95153 
L 226.443324 171.44681 
L 232.98906 170.942091 
L 233.46796 170.437371 
L 233.469431 168.418493 
L 240.013529 167.913774 
L 240.027014 166.904335 
L 246.571456 166.399616 
L 246.573608 164.885457 
L 253.119352 164.380738 
L 253.132509 163.371299 
L 253.506783 162.866579 
L 253.508019 161.85714 
L 260.052503 161.352421 
L 260.724452 160.342982 
L 260.725508 159.333543 
L 261.03559 158.828823 
L 261.055499 154.791068 
L 261.450498 154.286348 
L 267.9959 153.781629 
L 267.997865 152.77219 
L 268.348655 152.26747 
L 268.489768 147.724995 
L 281.580525 146.715556 
L 281.601448 143.687239 
L 281.952917 143.18252 
L 281.965061 142.173081 
L 282.778934 141.163642 
L 282.780052 140.154203 
L 289.324518 139.649483 
L 289.811837 138.135325 
L 290.137702 137.630605 
L 290.139033 136.621166 
L 290.273376 135.611728 
L 296.819465 135.107008 
L 296.82318 133.08813 
L 297.269577 132.583411 
L 297.271122 130.059813 
L 297.7141 129.555094 
L 297.731939 125.012619 
L 298.101045 124.507899 
L 304.646414 124.00318 
L 304.649357 122.993741 
L 305.068036 122.489021 
L 305.086119 120.974863 
L 305.476766 120.470143 
L 305.495667 117.946546 
L 305.846837 117.441826 
L 305.847706 116.937107 
L 306.2428 116.432387 
L 306.244611 115.927668 
L 306.600678 115.422949 
L 306.614302 111.385193 
L 306.733343 110.880473 
L 306.73419 107.347437 
L 307.084861 106.842717 
L 313.631383 106.337998 
L 313.633923 105.833279 
L 320.179624 105.328559 
L 320.193306 104.31912 
L 326.73912 103.814401 
L 326.740891 103.309681 
L 327.471988 102.300242 
L 327.473022 101.795523 
L 327.596322 101.290803 
L 340.689527 100.281364 
L 341.060045 99.776645 
L 341.06098 99.271925 
L 341.416446 98.767206 
L 341.434751 96.748328 
L 347.980496 96.243608 
L 348.017457 92.205853 
L 348.372087 91.701133 
L 348.372942 91.196414 
L 354.918395 90.691694 
L 354.920586 90.186975 
L 355.039733 89.682255 
L 355.400332 89.177536 
L 355.401812 88.672816 
L 355.80674 88.168097 
L 362.352101 87.663377 
L 362.353734 87.158658 
L 363.141982 86.149219 
L 363.143136 85.644499 
L 363.525011 85.13978 
L 363.525779 84.635061 
L 363.913014 84.130341 
L 363.914889 83.625622 
L 364.249204 83.120902 
L 364.266639 81.102024 
L 370.811175 80.597305 
L 371.212978 80.092585 
L 371.213956 79.083146 
L 371.572527 78.578427 
L 371.573465 78.073707 
L 371.941045 77.568988 
L 371.959291 77.064268 
L 372.320362 76.559549 
L 372.333302 75.045391 
L 372.735194 74.540671 
L 372.736381 73.026513 
L 373.089724 72.521793 
L 379.635828 72.017074 
L 380.104813 71.512354 
L 380.117106 68.988757 
L 380.501459 68.484037 
L 380.519665 67.474598 
L 381.712568 65.96044 
L 381.713481 65.45572 
L 388.2584 64.951001 
L 388.263767 63.941562 
L 401.354057 62.932123 
L 401.379699 61.922684 
L 401.500109 61.417965 
L 401.500255 60.913245 
L 408.044919 60.408526 
L 408.447996 59.903806 
L 408.448964 58.389648 
L 408.842903 57.884928 
L 408.845848 56.37077 
L 409.216731 55.86605 
L 409.217833 54.351892 
L 409.331909 53.847173 
L 409.332181 52.837734 
L 410.435549 51.323575 
L 410.585717 48.295258 
L 417.130032 47.790539 
L 417.519988 47.285819 
L 417.535839 46.7811 
L 417.934112 46.27638 
L 417.93577 45.771661 
L 418.301435 45.266941 
L 418.302433 44.762222 
L 424.847715 44.257503 
L 424.878222 42.743344 
L 431.422715 42.238625 
L 431.549493 41.733905 
L 438.093434 41.229186 
L 438.095551 40.219747 
L 438.865402 39.210308 
L 438.866519 38.705588 
L 439.276247 38.200869 
L 439.288877 37.19143 
L 439.718129 36.68671 
L 439.7191 36.181991 
L 439.7191 36.181991 
" clip-path="url(#pf5a19c38fa)" style="fill: none; stroke: #1f77b4; stroke-width: 3; stroke-linecap: square"/>
   </g>
   <g id="line2d_22">
    <path d="M 78.1059 288.037009 
L 78.471545 287.53229 
L 78.472614 286.522851 
L 85.017149 286.018131 
L 85.448045 285.513412 
L 85.448913 285.008692 
L 85.843219 284.503973 
L 85.855586 283.999253 
L 86.237863 283.494534 
L 86.239491 282.485095 
L 86.606085 281.980375 
L 86.607168 280.970936 
L 86.729808 280.466217 
L 86.729984 279.961497 
L 93.275768 279.456778 
L 95.058559 277.4379 
L 95.060303 275.419022 
L 95.450742 274.914303 
L 95.467594 273.904864 
L 102.01212 273.400144 
L 102.393764 272.895425 
L 102.395454 272.390705 
L 102.520338 271.885986 
L 102.626715 270.371827 
L 102.644709 269.867108 
L 109.189305 269.362389 
L 109.191479 268.857669 
L 115.737238 268.35295 
L 116.592755 267.343511 
L 116.59418 266.334072 
L 116.988961 265.829352 
L 116.991613 260.782157 
L 123.537318 260.277438 
L 123.596299 257.249121 
L 123.714445 256.744402 
L 124.145489 256.239682 
L 124.164049 255.734963 
L 124.566779 255.230243 
L 124.56904 254.725524 
L 124.937276 254.220804 
L 124.950055 249.678329 
L 125.402828 249.173609 
L 125.404243 248.164171 
L 125.57486 247.659451 
L 125.575098 247.154732 
L 132.120907 246.650012 
L 132.135401 244.126415 
L 132.901975 243.116976 
L 132.916027 241.098098 
L 133.334367 240.593378 
L 133.471988 238.069781 
L 133.881877 237.565062 
L 133.88294 237.060342 
L 134.321774 236.555623 
L 134.442827 236.050903 
L 134.443449 234.536745 
L 135.274504 233.527306 
L 135.277476 228.98483 
L 141.823252 228.480111 
L 141.889217 227.470672 
L 142.003082 226.461233 
L 142.10038 225.956514 
L 142.451326 225.451794 
L 142.452862 224.947075 
L 142.797119 224.442355 
L 142.813126 222.423477 
L 143.226736 221.918758 
L 143.227881 220.909319 
L 143.618656 220.404599 
L 143.619842 219.89988 
L 144.002318 219.39516 
L 144.003869 217.881002 
L 144.478084 217.376283 
L 144.606274 216.871563 
L 144.618129 214.852685 
L 144.728781 213.843246 
L 144.729606 211.824368 
L 145.142258 211.319649 
L 145.145457 209.300771 
L 151.690009 208.796051 
L 151.691773 207.786613 
L 152.16872 207.281893 
L 152.170126 205.263015 
L 152.57088 204.758296 
L 152.571828 204.253576 
L 152.987026 203.748857 
L 152.989385 202.234698 
L 153.112714 201.729979 
L 153.501636 201.225259 
L 153.503151 199.206381 
L 153.86817 198.701662 
L 153.882039 198.196942 
L 154.269791 197.692223 
L 154.345215 197.187504 
L 154.750196 196.682784 
L 154.765637 193.149748 
L 155.159896 192.645028 
L 155.172721 190.62615 
L 155.557347 190.121431 
L 155.558986 189.616711 
L 155.68741 189.111992 
L 156.094205 188.607272 
L 156.202862 184.064797 
L 156.583165 183.560078 
L 156.584872 181.5412 
L 156.953851 181.03648 
L 157.172861 176.998725 
L 163.718539 176.494005 
L 163.843734 175.989286 
L 163.843935 175.484566 
L 164.247629 174.979847 
L 170.794237 174.475127 
L 170.814329 172.456249 
L 171.247168 171.95153 
L 171.248021 171.44681 
L 177.793787 170.942091 
L 178.232092 170.437371 
L 178.233388 168.418493 
L 184.777939 167.913774 
L 184.865313 166.904335 
L 206.11266 166.399616 
L 206.128674 163.371299 
L 206.581222 162.866579 
L 206.582604 161.352421 
L 207.394488 160.342982 
L 207.395698 159.333543 
L 207.782118 158.828823 
L 207.872857 154.791068 
L 208.267453 154.286348 
L 214.812907 153.781629 
L 214.817923 152.77219 
L 215.155231 152.26747 
L 215.27284 147.724995 
L 221.817505 147.220275 
L 221.895072 146.210837 
L 221.911417 143.687239 
L 222.259711 143.18252 
L 222.269573 142.173081 
L 222.570836 141.668361 
L 222.676321 138.640044 
L 223.292027 137.630605 
L 223.360619 136.621166 
L 223.468615 135.611728 
L 230.013091 135.107008 
L 230.132831 125.012619 
L 230.432926 124.507899 
L 230.451018 117.946546 
L 230.814131 117.441826 
L 230.896382 115.927668 
L 231.225177 115.422949 
L 231.324725 107.347437 
L 231.718004 106.842717 
L 231.801957 105.833279 
L 238.346429 105.328559 
L 238.35798 104.31912 
L 244.902491 103.814401 
L 244.904997 103.309681 
L 245.590096 102.300242 
L 245.687126 100.281364 
L 246.055202 99.776645 
L 246.056281 99.271925 
L 246.377389 98.767206 
L 246.491398 92.205853 
L 246.874359 91.701133 
L 246.875476 91.196414 
L 253.419928 90.691694 
L 253.522259 89.682255 
L 253.833155 89.177536 
L 253.834566 88.672816 
L 254.222013 88.168097 
L 260.767292 87.663377 
L 260.770207 87.158658 
L 261.626297 86.149219 
L 261.627262 85.644499 
L 262.012502 85.13978 
L 262.013881 83.625622 
L 262.367794 83.120902 
L 262.383368 80.597305 
L 262.757651 80.092585 
L 262.758935 79.083146 
L 263.106134 78.578427 
L 263.107969 78.073707 
L 263.474768 77.568988 
L 263.490605 77.064268 
L 263.876946 76.559549 
L 263.96141 75.55011 
L 263.961499 75.045391 
L 264.333964 74.540671 
L 264.335261 73.026513 
L 264.662315 72.521793 
L 264.672563 68.988757 
L 265.078904 68.484037 
L 265.094554 67.474598 
L 265.473388 66.969879 
L 265.474267 66.465159 
L 265.923557 65.96044 
L 265.92549 65.45572 
L 294.626065 64.951001 
L 294.630104 63.941562 
L 301.174458 63.436843 
L 301.194565 61.922684 
L 301.325117 61.417965 
L 301.325489 60.408526 
L 301.782984 59.903806 
L 301.786049 56.37077 
L 302.295855 55.86605 
L 302.297702 54.351892 
L 302.417746 53.847173 
L 302.418048 52.837734 
L 303.696882 51.323575 
L 303.710154 50.818856 
L 303.845729 49.809417 
L 303.860538 48.295258 
L 310.405001 47.790539 
L 310.84767 47.285819 
L 310.965378 45.771661 
L 311.335636 45.266941 
L 311.361829 42.238625 
L 311.471052 41.733905 
L 318.015579 41.229186 
L 318.017935 40.219747 
L 318.765897 39.210308 
L 318.768082 38.705588 
L 319.140612 38.200869 
L 319.152467 37.19143 
L 319.553991 36.68671 
L 319.554897 36.181991 
L 319.554897 36.181991 
" clip-path="url(#pf5a19c38fa)" style="fill: none; stroke: #ff7f0e; stroke-width: 3; stroke-linecap: square"/>
   </g>
   <g id="patch_3">
    <path d="M 60.02524 300.62976 
L 60.02524 23.58924 
" style="fill: none; stroke: #000000; stroke-width: 0.8; stroke-linejoin: miter; stroke-linecap: square"/>
   </g>
   <g id="patch_4">
    <path d="M 457.79976 300.62976 
L 457.79976 23.58924 
" style="fill: none; stroke: #000000; stroke-width: 0.8; stroke-linejoin: miter; stroke-linecap: square"/>
   </g>
   <g id="patch_5">
    <path d="M 60.02524 300.62976 
L 457.79976 300.62976 
" style="fill: none; stroke: #000000; stroke-width: 0.8; stroke-linejoin: miter; stroke-linecap: square"/>
   </g>
   <g id="patch_6">
    <path d="M 60.02524 23.58924 
L 457.79976 23.58924 
" style="fill: none; stroke: #000000; stroke-width: 0.8; stroke-linejoin: miter; stroke-linecap: square"/>
   </g>
   <g id="text_13">
    <!-- PostgreSQL vs Bao Optimizer -->
    <g transform="translate(118.9295 17.58924) scale(0.192 -0.192)">
     <defs>
      <path id="DejaVuSans-50" d="M 1259 4147 
L 1259 2394 
L 2053 2394 
Q 2494 2394 2734 2622 
Q 2975 2850 2975 3272 
Q 2975 3691 2734 3919 
Q 2494 4147 2053 4147 
L 1259 4147 
z
M 628 4666 
L 2053 4666 
Q 2838 4666 3239 4311 
Q 3641 3956 3641 3272 
Q 3641 2581 3239 2228 
Q 2838 1875 2053 1875 
L 1259 1875 
L 1259 0 
L 628 0 
L 628 4666 
z
" transform="scale(0.015625)"/>
      <path id="DejaVuSans-67" d="M 2906 1791 
Q 2906 2416 2648 2759 
Q 2391 3103 1925 3103 
Q 1463 3103 1205 2759 
Q 947 2416 947 1791 
Q 947 1169 1205 825 
Q 1463 481 1925 481 
Q 2391 481 2648 825 
Q 2906 1169 2906 1791 
z
M 3481 434 
Q 3481 -459 3084 -895 
Q 2688 -1331 1869 -1331 
Q 1566 -1331 1297 -1286 
Q 1028 -1241 775 -1147 
L 775 -588 
Q 1028 -725 1275 -790 
Q 1522 -856 1778 -856 
Q 2344 -856 2625 -561 
Q 2906 -266 2906 331 
L 2906 616 
Q 2728 306 2450 153 
Q 2172 0 1784 0 
Q 1141 0 747 490 
Q 353 981 353 1791 
Q 353 2603 747 3093 
Q 1141 3584 1784 3584 
Q 2172 3584 2450 3431 
Q 2728 3278 2906 2969 
L 2906 3500 
L 3481 3500 
L 3481 434 
z
" transform="scale(0.015625)"/>
      <path id="DejaVuSans-53" d="M 3425 4513 
L 3425 3897 
Q 3066 4069 2747 4153 
Q 2428 4238 2131 4238 
Q 1616 4238 1336 4038 
Q 1056 3838 1056 3469 
Q 1056 3159 1242 3001 
Q 1428 2844 1947 2747 
L 2328 2669 
Q 3034 2534 3370 2195 
Q 3706 1856 3706 1288 
Q 3706 609 3251 259 
Q 2797 -91 1919 -91 
Q 1588 -91 1214 -16 
Q 841 59 441 206 
L 441 856 
Q 825 641 1194 531 
Q 1563 422 1919 422 
Q 2459 422 2753 634 
Q 3047 847 3047 1241 
Q 3047 1584 2836 1778 
Q 2625 1972 2144 2069 
L 1759 2144 
Q 1053 2284 737 2584 
Q 422 2884 422 3419 
Q 422 4038 858 4394 
Q 1294 4750 2059 4750 
Q 2388 4750 2728 4690 
Q 3069 4631 3425 4513 
z
" transform="scale(0.015625)"/>
      <path id="DejaVuSans-4c" d="M 628 4666 
L 1259 4666 
L 1259 531 
L 3531 531 
L 3531 0 
L 628 0 
L 628 4666 
z
" transform="scale(0.015625)"/>
      <path id="DejaVuSans-76" d="M 191 3500 
L 800 3500 
L 1894 563 
L 2988 3500 
L 3597 3500 
L 2284 0 
L 1503 0 
L 191 3500 
z
" transform="scale(0.015625)"/>
      <path id="DejaVuSans-42" d="M 1259 2228 
L 1259 519 
L 2272 519 
Q 2781 519 3026 730 
Q 3272 941 3272 1375 
Q 3272 1813 3026 2020 
Q 2781 2228 2272 2228 
L 1259 2228 
z
M 1259 4147 
L 1259 2741 
L 2194 2741 
Q 2656 2741 2882 2914 
Q 3109 3088 3109 3444 
Q 3109 3797 2882 3972 
Q 2656 4147 2194 4147 
L 1259 4147 
z
M 628 4666 
L 2241 4666 
Q 2963 4666 3353 4366 
Q 3744 4066 3744 3513 
Q 3744 3084 3544 2831 
Q 3344 2578 2956 2516 
Q 3422 2416 3680 2098 
Q 3938 1781 3938 1306 
Q 3938 681 3513 340 
Q 3088 0 2303 0 
L 628 0 
L 628 4666 
z
" transform="scale(0.015625)"/>
      <path id="DejaVuSans-61" d="M 2194 1759 
Q 1497 1759 1228 1600 
Q 959 1441 959 1056 
Q 959 750 1161 570 
Q 1363 391 1709 391 
Q 2188 391 2477 730 
Q 2766 1069 2766 1631 
L 2766 1759 
L 2194 1759 
z
M 3341 1997 
L 3341 0 
L 2766 0 
L 2766 531 
Q 2569 213 2275 61 
Q 1981 -91 1556 -91 
Q 1019 -91 701 211 
Q 384 513 384 1019 
Q 384 1609 779 1909 
Q 1175 2209 1959 2209 
L 2766 2209 
L 2766 2266 
Q 2766 2663 2505 2880 
Q 2244 3097 1772 3097 
Q 1472 3097 1187 3025 
Q 903 2953 641 2809 
L 641 3341 
Q 956 3463 1253 3523 
Q 1550 3584 1831 3584 
Q 2591 3584 2966 3190 
Q 3341 2797 3341 1997 
z
" transform="scale(0.015625)"/>
      <path id="DejaVuSans-4f" d="M 2522 4238 
Q 1834 4238 1429 3725 
Q 1025 3213 1025 2328 
Q 1025 1447 1429 934 
Q 1834 422 2522 422 
Q 3209 422 3611 934 
Q 4013 1447 4013 2328 
Q 4013 3213 3611 3725 
Q 3209 4238 2522 4238 
z
M 2522 4750 
Q 3503 4750 4090 4092 
Q 4678 3434 4678 2328 
Q 4678 1225 4090 567 
Q 3503 -91 2522 -91 
Q 1538 -91 948 565 
Q 359 1222 359 2328 
Q 359 3434 948 4092 
Q 1538 4750 2522 4750 
z
" transform="scale(0.015625)"/>
      <path id="DejaVuSans-7a" d="M 353 3500 
L 3084 3500 
L 3084 2975 
L 922 459 
L 3084 459 
L 3084 0 
L 275 0 
L 275 525 
L 2438 3041 
L 353 3041 
L 353 3500 
z
" transform="scale(0.015625)"/>
     </defs>
     <use xlink:href="#DejaVuSans-50"/>
     <use xlink:href="#DejaVuSans-6f" x="56.677734"/>
     <use xlink:href="#DejaVuSans-73" x="117.859375"/>
     <use xlink:href="#DejaVuSans-74" x="169.958984"/>
     <use xlink:href="#DejaVuSans-67" x="209.167969"/>
     <use xlink:href="#DejaVuSans-72" x="272.644531"/>
     <use xlink:href="#DejaVuSans-65" x="311.507812"/>
     <use xlink:href="#DejaVuSans-53" x="373.03125"/>
     <use xlink:href="#DejaVuSans-51" x="436.507812"/>
     <use xlink:href="#DejaVuSans-4c" x="515.21875"/>
     <use xlink:href="#DejaVuSans-20" x="570.931641"/>
     <use xlink:href="#DejaVuSans-76" x="602.71875"/>
     <use xlink:href="#DejaVuSans-73" x="661.898438"/>
     <use xlink:href="#DejaVuSans-20" x="713.998047"/>
     <use xlink:href="#DejaVuSans-42" x="745.785156"/>
     <use xlink:href="#DejaVuSans-61" x="814.388672"/>
     <use xlink:href="#DejaVuSans-6f" x="875.667969"/>
     <use xlink:href="#DejaVuSans-20" x="936.849609"/>
     <use xlink:href="#DejaVuSans-4f" x="968.636719"/>
     <use xlink:href="#DejaVuSans-70" x="1047.347656"/>
     <use xlink:href="#DejaVuSans-74" x="1110.824219"/>
     <use xlink:href="#DejaVuSans-69" x="1150.033203"/>
     <use xlink:href="#DejaVuSans-6d" x="1177.816406"/>
     <use xlink:href="#DejaVuSans-69" x="1275.228516"/>
     <use xlink:href="#DejaVuSans-7a" x="1303.011719"/>
     <use xlink:href="#DejaVuSans-65" x="1355.501953"/>
     <use xlink:href="#DejaVuSans-72" x="1417.025391"/>
    </g>
   </g>
   <g id="legend_1">
    <g id="patch_7">
     <path d="M 71.22524 106.84424 
L 213.77774 106.84424 
Q 216.97774 106.84424 216.97774 103.64424 
L 216.97774 34.78924 
Q 216.97774 31.58924 213.77774 31.58924 
L 71.22524 31.58924 
Q 68.02524 31.58924 68.02524 34.78924 
L 68.02524 103.64424 
Q 68.02524 106.84424 71.22524 106.84424 
z
" style="fill: #ffffff; opacity: 0.8; stroke: #cccccc; stroke-linejoin: miter"/>
    </g>
    <g id="PathCollection_2">
     <g>
      <use xlink:href="#mfc05679a5f" x="90.42524" y="45.94674" style="fill: #ff0000; stroke: #ff0000"/>
     </g>
    </g>
    <g id="text_14">
     <!-- Training -->
     <g transform="translate(119.22524 50.14674) scale(0.16 -0.16)">
      <defs>
       <path id="DejaVuSans-6e" d="M 3513 2113 
L 3513 0 
L 2938 0 
L 2938 2094 
Q 2938 2591 2744 2837 
Q 2550 3084 2163 3084 
Q 1697 3084 1428 2787 
Q 1159 2491 1159 1978 
L 1159 0 
L 581 0 
L 581 3500 
L 1159 3500 
L 1159 2956 
Q 1366 3272 1645 3428 
Q 1925 3584 2291 3584 
Q 2894 3584 3203 3211 
Q 3513 2838 3513 2113 
z
" transform="scale(0.015625)"/>
      </defs>
      <use xlink:href="#DejaVuSans-54"/>
      <use xlink:href="#DejaVuSans-72" x="46.333984"/>
      <use xlink:href="#DejaVuSans-61" x="87.447266"/>
      <use xlink:href="#DejaVuSans-69" x="148.726562"/>
      <use xlink:href="#DejaVuSans-6e" x="176.509766"/>
      <use xlink:href="#DejaVuSans-69" x="239.888672"/>
      <use xlink:href="#DejaVuSans-6e" x="267.671875"/>
      <use xlink:href="#DejaVuSans-67" x="331.050781"/>
     </g>
    </g>
    <g id="line2d_23">
     <path d="M 74.42524 68.03174 
L 90.42524 68.03174 
L 106.42524 68.03174 
" style="fill: none; stroke: #1f77b4; stroke-width: 3; stroke-linecap: square"/>
    </g>
    <g id="text_15">
     <!-- PostgreSQL -->
     <g transform="translate(119.22524 73.63174) scale(0.16 -0.16)">
      <use xlink:href="#DejaVuSans-50"/>
      <use xlink:href="#DejaVuSans-6f" x="56.677734"/>
      <use xlink:href="#DejaVuSans-73" x="117.859375"/>
      <use xlink:href="#DejaVuSans-74" x="169.958984"/>
      <use xlink:href="#DejaVuSans-67" x="209.167969"/>
      <use xlink:href="#DejaVuSans-72" x="272.644531"/>
      <use xlink:href="#DejaVuSans-65" x="311.507812"/>
      <use xlink:href="#DejaVuSans-53" x="373.03125"/>
      <use xlink:href="#DejaVuSans-51" x="436.507812"/>
      <use xlink:href="#DejaVuSans-4c" x="515.21875"/>
     </g>
    </g>
    <g id="line2d_24">
     <path d="M 74.42524 91.51674 
L 90.42524 91.51674 
L 106.42524 91.51674 
" style="fill: none; stroke: #ff7f0e; stroke-width: 3; stroke-linecap: square"/>
    </g>
    <g id="text_16">
     <!-- Bao -->
     <g transform="translate(119.22524 97.11674) scale(0.16 -0.16)">
      <use xlink:href="#DejaVuSans-42"/>
      <use xlink:href="#DejaVuSans-61" x="68.603516"/>
      <use xlink:href="#DejaVuSans-6f" x="129.882812"/>
     </g>
    </g>
   </g>
  </g>
 </g>
 <defs>
  <clipPath id="pf5a19c38fa">
   <rect x="60.02524" y="23.58924" width="397.77452" height="277.04052"/>
  </clipPath>
 </defs>
</svg>
