<?xml version="1.0" encoding="utf-8" standalone="no"?>
<!DOCTYPE svg PUBLIC "-//W3C//DTD SVG 1.1//EN"
  "http://www.w3.org/Graphics/SVG/1.1/DTD/svg11.dtd">
<svg xmlns:xlink="http://www.w3.org/1999/xlink" width="720pt" height="288pt" viewBox="0 0 720 288" xmlns="http://www.w3.org/2000/svg" version="1.1">
 <metadata>
  <rdf:RDF xmlns:dc="http://purl.org/dc/elements/1.1/" xmlns:cc="http://creativecommons.org/ns#" xmlns:rdf="http://www.w3.org/1999/02/22-rdf-syntax-ns#">
   <cc:Work>
    <dc:type rdf:resource="http://purl.org/dc/dcmitype/StillImage"/>
    <dc:date>2024-11-23T18:33:40.102179</dc:date>
    <dc:format>image/svg+xml</dc:format>
    <dc:creator>
     <cc:Agent>
      <dc:title>Matplotlib v3.7.2, https://matplotlib.org/</dc:title>
     </cc:Agent>
    </dc:creator>
   </cc:Work>
  </rdf:RDF>
 </metadata>
 <defs>
  <style type="text/css">*{stroke-linejoin: round; stroke-linecap: butt}</style>
 </defs>
 <g id="figure_1">
  <g id="patch_1">
   <path d="M 0 288 
L 720 288 
L 720 0 
L 0 0 
z
" style="fill: #ffffff"/>
  </g>
  <g id="axes_1">
   <g id="patch_2">
    <path d="M 49.84524 243.02976 
L 347.78 243.02976 
L 347.78 23.58924 
L 49.84524 23.58924 
z
" style="fill: #ffffff"/>
   </g>
   <g id="matplotlib.axis_1">
    <g id="xtick_1">
     <g id="line2d_1">
      <path d="M 63.387729 243.02976 
L 63.387729 23.58924 
" clip-path="url(#pd8d1113f83)" style="fill: none; stroke-dasharray: 3.7,1.6; stroke-dashoffset: 0; stroke: #b0b0b0"/>
     </g>
     <g id="line2d_2">
      <defs>
       <path id="m4f8a6f8d46" d="M 0 0 
L 0 3.5 
" style="stroke: #000000; stroke-width: 0.8"/>
      </defs>
      <g>
       <use xlink:href="#m4f8a6f8d46" x="63.387729" y="243.02976" style="stroke: #000000; stroke-width: 0.8"/>
      </g>
     </g>
     <g id="text_1">
      <!-- 0.0 -->
      <g transform="translate(50.665229 262.18726) scale(0.16 -0.16)">
       <defs>
        <path id="DejaVuSans-30" d="M 2034 4250 
Q 1547 4250 1301 3770 
Q 1056 3291 1056 2328 
Q 1056 1369 1301 889 
Q 1547 409 2034 409 
Q 2525 409 2770 889 
Q 3016 1369 3016 2328 
Q 3016 3291 2770 3770 
Q 2525 4250 2034 4250 
z
M 2034 4750 
Q 2819 4750 3233 4129 
Q 3647 3509 3647 2328 
Q 3647 1150 3233 529 
Q 2819 -91 2034 -91 
Q 1250 -91 836 529 
Q 422 1150 422 2328 
Q 422 3509 836 4129 
Q 1250 4750 2034 4750 
z
" transform="scale(0.015625)"/>
        <path id="DejaVuSans-2e" d="M 684 794 
L 1344 794 
L 1344 0 
L 684 0 
L 684 794 
z
" transform="scale(0.015625)"/>
       </defs>
       <use xlink:href="#DejaVuSans-30"/>
       <use xlink:href="#DejaVuSans-2e" x="63.623047"/>
       <use xlink:href="#DejaVuSans-30" x="95.410156"/>
      </g>
     </g>
    </g>
    <g id="xtick_2">
     <g id="line2d_3">
      <path d="M 117.557685 243.02976 
L 117.557685 23.58924 
" clip-path="url(#pd8d1113f83)" style="fill: none; stroke-dasharray: 3.7,1.6; stroke-dashoffset: 0; stroke: #b0b0b0"/>
     </g>
     <g id="line2d_4">
      <g>
       <use xlink:href="#m4f8a6f8d46" x="117.557685" y="243.02976" style="stroke: #000000; stroke-width: 0.8"/>
      </g>
     </g>
     <g id="text_2">
      <!-- 0.2 -->
      <g transform="translate(104.835185 262.18726) scale(0.16 -0.16)">
       <defs>
        <path id="DejaVuSans-32" d="M 1228 531 
L 3431 531 
L 3431 0 
L 469 0 
L 469 531 
Q 828 903 1448 1529 
Q 2069 2156 2228 2338 
Q 2531 2678 2651 2914 
Q 2772 3150 2772 3378 
Q 2772 3750 2511 3984 
Q 2250 4219 1831 4219 
Q 1534 4219 1204 4116 
Q 875 4013 500 3803 
L 500 4441 
Q 881 4594 1212 4672 
Q 1544 4750 1819 4750 
Q 2544 4750 2975 4387 
Q 3406 4025 3406 3419 
Q 3406 3131 3298 2873 
Q 3191 2616 2906 2266 
Q 2828 2175 2409 1742 
Q 1991 1309 1228 531 
z
" transform="scale(0.015625)"/>
       </defs>
       <use xlink:href="#DejaVuSans-30"/>
       <use xlink:href="#DejaVuSans-2e" x="63.623047"/>
       <use xlink:href="#DejaVuSans-32" x="95.410156"/>
      </g>
     </g>
    </g>
    <g id="xtick_3">
     <g id="line2d_5">
      <path d="M 171.727642 243.02976 
L 171.727642 23.58924 
" clip-path="url(#pd8d1113f83)" style="fill: none; stroke-dasharray: 3.7,1.6; stroke-dashoffset: 0; stroke: #b0b0b0"/>
     </g>
     <g id="line2d_6">
      <g>
       <use xlink:href="#m4f8a6f8d46" x="171.727642" y="243.02976" style="stroke: #000000; stroke-width: 0.8"/>
      </g>
     </g>
     <g id="text_3">
      <!-- 0.4 -->
      <g transform="translate(159.005142 262.18726) scale(0.16 -0.16)">
       <defs>
        <path id="DejaVuSans-34" d="M 2419 4116 
L 825 1625 
L 2419 1625 
L 2419 4116 
z
M 2253 4666 
L 3047 4666 
L 3047 1625 
L 3713 1625 
L 3713 1100 
L 3047 1100 
L 3047 0 
L 2419 0 
L 2419 1100 
L 313 1100 
L 313 1709 
L 2253 4666 
z
" transform="scale(0.015625)"/>
       </defs>
       <use xlink:href="#DejaVuSans-30"/>
       <use xlink:href="#DejaVuSans-2e" x="63.623047"/>
       <use xlink:href="#DejaVuSans-34" x="95.410156"/>
      </g>
     </g>
    </g>
    <g id="xtick_4">
     <g id="line2d_7">
      <path d="M 225.897598 243.02976 
L 225.897598 23.58924 
" clip-path="url(#pd8d1113f83)" style="fill: none; stroke-dasharray: 3.7,1.6; stroke-dashoffset: 0; stroke: #b0b0b0"/>
     </g>
     <g id="line2d_8">
      <g>
       <use xlink:href="#m4f8a6f8d46" x="225.897598" y="243.02976" style="stroke: #000000; stroke-width: 0.8"/>
      </g>
     </g>
     <g id="text_4">
      <!-- 0.6 -->
      <g transform="translate(213.175098 262.18726) scale(0.16 -0.16)">
       <defs>
        <path id="DejaVuSans-36" d="M 2113 2584 
Q 1688 2584 1439 2293 
Q 1191 2003 1191 1497 
Q 1191 994 1439 701 
Q 1688 409 2113 409 
Q 2538 409 2786 701 
Q 3034 994 3034 1497 
Q 3034 2003 2786 2293 
Q 2538 2584 2113 2584 
z
M 3366 4563 
L 3366 3988 
Q 3128 4100 2886 4159 
Q 2644 4219 2406 4219 
Q 1781 4219 1451 3797 
Q 1122 3375 1075 2522 
Q 1259 2794 1537 2939 
Q 1816 3084 2150 3084 
Q 2853 3084 3261 2657 
Q 3669 2231 3669 1497 
Q 3669 778 3244 343 
Q 2819 -91 2113 -91 
Q 1303 -91 875 529 
Q 447 1150 447 2328 
Q 447 3434 972 4092 
Q 1497 4750 2381 4750 
Q 2619 4750 2861 4703 
Q 3103 4656 3366 4563 
z
" transform="scale(0.015625)"/>
       </defs>
       <use xlink:href="#DejaVuSans-30"/>
       <use xlink:href="#DejaVuSans-2e" x="63.623047"/>
       <use xlink:href="#DejaVuSans-36" x="95.410156"/>
      </g>
     </g>
    </g>
    <g id="xtick_5">
     <g id="line2d_9">
      <path d="M 280.067555 243.02976 
L 280.067555 23.58924 
" clip-path="url(#pd8d1113f83)" style="fill: none; stroke-dasharray: 3.7,1.6; stroke-dashoffset: 0; stroke: #b0b0b0"/>
     </g>
     <g id="line2d_10">
      <g>
       <use xlink:href="#m4f8a6f8d46" x="280.067555" y="243.02976" style="stroke: #000000; stroke-width: 0.8"/>
      </g>
     </g>
     <g id="text_5">
      <!-- 0.8 -->
      <g transform="translate(267.345055 262.18726) scale(0.16 -0.16)">
       <defs>
        <path id="DejaVuSans-38" d="M 2034 2216 
Q 1584 2216 1326 1975 
Q 1069 1734 1069 1313 
Q 1069 891 1326 650 
Q 1584 409 2034 409 
Q 2484 409 2743 651 
Q 3003 894 3003 1313 
Q 3003 1734 2745 1975 
Q 2488 2216 2034 2216 
z
M 1403 2484 
Q 997 2584 770 2862 
Q 544 3141 544 3541 
Q 544 4100 942 4425 
Q 1341 4750 2034 4750 
Q 2731 4750 3128 4425 
Q 3525 4100 3525 3541 
Q 3525 3141 3298 2862 
Q 3072 2584 2669 2484 
Q 3125 2378 3379 2068 
Q 3634 1759 3634 1313 
Q 3634 634 3220 271 
Q 2806 -91 2034 -91 
Q 1263 -91 848 271 
Q 434 634 434 1313 
Q 434 1759 690 2068 
Q 947 2378 1403 2484 
z
M 1172 3481 
Q 1172 3119 1398 2916 
Q 1625 2713 2034 2713 
Q 2441 2713 2670 2916 
Q 2900 3119 2900 3481 
Q 2900 3844 2670 4047 
Q 2441 4250 2034 4250 
Q 1625 4250 1398 4047 
Q 1172 3844 1172 3481 
z
" transform="scale(0.015625)"/>
       </defs>
       <use xlink:href="#DejaVuSans-30"/>
       <use xlink:href="#DejaVuSans-2e" x="63.623047"/>
       <use xlink:href="#DejaVuSans-38" x="95.410156"/>
      </g>
     </g>
    </g>
    <g id="xtick_6">
     <g id="line2d_11">
      <path d="M 334.237511 243.02976 
L 334.237511 23.58924 
" clip-path="url(#pd8d1113f83)" style="fill: none; stroke-dasharray: 3.7,1.6; stroke-dashoffset: 0; stroke: #b0b0b0"/>
     </g>
     <g id="line2d_12">
      <g>
       <use xlink:href="#m4f8a6f8d46" x="334.237511" y="243.02976" style="stroke: #000000; stroke-width: 0.8"/>
      </g>
     </g>
     <g id="text_6">
      <!-- 1.0 -->
      <g transform="translate(321.515011 262.18726) scale(0.16 -0.16)">
       <defs>
        <path id="DejaVuSans-31" d="M 794 531 
L 1825 531 
L 1825 4091 
L 703 3866 
L 703 4441 
L 1819 4666 
L 2450 4666 
L 2450 531 
L 3481 531 
L 3481 0 
L 794 0 
L 794 531 
z
" transform="scale(0.015625)"/>
       </defs>
       <use xlink:href="#DejaVuSans-31"/>
       <use xlink:href="#DejaVuSans-2e" x="63.623047"/>
       <use xlink:href="#DejaVuSans-30" x="95.410156"/>
      </g>
     </g>
    </g>
    <g id="text_7">
     <!-- Proportion of Queries -->
     <g transform="translate(113.85137 281.67226) scale(0.16 -0.16)">
      <defs>
       <path id="DejaVuSans-50" d="M 1259 4147 
L 1259 2394 
L 2053 2394 
Q 2494 2394 2734 2622 
Q 2975 2850 2975 3272 
Q 2975 3691 2734 3919 
Q 2494 4147 2053 4147 
L 1259 4147 
z
M 628 4666 
L 2053 4666 
Q 2838 4666 3239 4311 
Q 3641 3956 3641 3272 
Q 3641 2581 3239 2228 
Q 2838 1875 2053 1875 
L 1259 1875 
L 1259 0 
L 628 0 
L 628 4666 
z
" transform="scale(0.015625)"/>
       <path id="DejaVuSans-72" d="M 2631 2963 
Q 2534 3019 2420 3045 
Q 2306 3072 2169 3072 
Q 1681 3072 1420 2755 
Q 1159 2438 1159 1844 
L 1159 0 
L 581 0 
L 581 3500 
L 1159 3500 
L 1159 2956 
Q 1341 3275 1631 3429 
Q 1922 3584 2338 3584 
Q 2397 3584 2469 3576 
Q 2541 3569 2628 3553 
L 2631 2963 
z
" transform="scale(0.015625)"/>
       <path id="DejaVuSans-6f" d="M 1959 3097 
Q 1497 3097 1228 2736 
Q 959 2375 959 1747 
Q 959 1119 1226 758 
Q 1494 397 1959 397 
Q 2419 397 2687 759 
Q 2956 1122 2956 1747 
Q 2956 2369 2687 2733 
Q 2419 3097 1959 3097 
z
M 1959 3584 
Q 2709 3584 3137 3096 
Q 3566 2609 3566 1747 
Q 3566 888 3137 398 
Q 2709 -91 1959 -91 
Q 1206 -91 779 398 
Q 353 888 353 1747 
Q 353 2609 779 3096 
Q 1206 3584 1959 3584 
z
" transform="scale(0.015625)"/>
       <path id="DejaVuSans-70" d="M 1159 525 
L 1159 -1331 
L 581 -1331 
L 581 3500 
L 1159 3500 
L 1159 2969 
Q 1341 3281 1617 3432 
Q 1894 3584 2278 3584 
Q 2916 3584 3314 3078 
Q 3713 2572 3713 1747 
Q 3713 922 3314 415 
Q 2916 -91 2278 -91 
Q 1894 -91 1617 61 
Q 1341 213 1159 525 
z
M 3116 1747 
Q 3116 2381 2855 2742 
Q 2594 3103 2138 3103 
Q 1681 3103 1420 2742 
Q 1159 2381 1159 1747 
Q 1159 1113 1420 752 
Q 1681 391 2138 391 
Q 2594 391 2855 752 
Q 3116 1113 3116 1747 
z
" transform="scale(0.015625)"/>
       <path id="DejaVuSans-74" d="M 1172 4494 
L 1172 3500 
L 2356 3500 
L 2356 3053 
L 1172 3053 
L 1172 1153 
Q 1172 725 1289 603 
Q 1406 481 1766 481 
L 2356 481 
L 2356 0 
L 1766 0 
Q 1100 0 847 248 
Q 594 497 594 1153 
L 594 3053 
L 172 3053 
L 172 3500 
L 594 3500 
L 594 4494 
L 1172 4494 
z
" transform="scale(0.015625)"/>
       <path id="DejaVuSans-69" d="M 603 3500 
L 1178 3500 
L 1178 0 
L 603 0 
L 603 3500 
z
M 603 4863 
L 1178 4863 
L 1178 4134 
L 603 4134 
L 603 4863 
z
" transform="scale(0.015625)"/>
       <path id="DejaVuSans-6e" d="M 3513 2113 
L 3513 0 
L 2938 0 
L 2938 2094 
Q 2938 2591 2744 2837 
Q 2550 3084 2163 3084 
Q 1697 3084 1428 2787 
Q 1159 2491 1159 1978 
L 1159 0 
L 581 0 
L 581 3500 
L 1159 3500 
L 1159 2956 
Q 1366 3272 1645 3428 
Q 1925 3584 2291 3584 
Q 2894 3584 3203 3211 
Q 3513 2838 3513 2113 
z
" transform="scale(0.015625)"/>
       <path id="DejaVuSans-20" transform="scale(0.015625)"/>
       <path id="DejaVuSans-66" d="M 2375 4863 
L 2375 4384 
L 1825 4384 
Q 1516 4384 1395 4259 
Q 1275 4134 1275 3809 
L 1275 3500 
L 2222 3500 
L 2222 3053 
L 1275 3053 
L 1275 0 
L 697 0 
L 697 3053 
L 147 3053 
L 147 3500 
L 697 3500 
L 697 3744 
Q 697 4328 969 4595 
Q 1241 4863 1831 4863 
L 2375 4863 
z
" transform="scale(0.015625)"/>
       <path id="DejaVuSans-51" d="M 2522 4238 
Q 1834 4238 1429 3725 
Q 1025 3213 1025 2328 
Q 1025 1447 1429 934 
Q 1834 422 2522 422 
Q 3209 422 3611 934 
Q 4013 1447 4013 2328 
Q 4013 3213 3611 3725 
Q 3209 4238 2522 4238 
z
M 3406 84 
L 4238 -825 
L 3475 -825 
L 2784 -78 
Q 2681 -84 2626 -87 
Q 2572 -91 2522 -91 
Q 1538 -91 948 567 
Q 359 1225 359 2328 
Q 359 3434 948 4092 
Q 1538 4750 2522 4750 
Q 3503 4750 4090 4092 
Q 4678 3434 4678 2328 
Q 4678 1516 4351 937 
Q 4025 359 3406 84 
z
" transform="scale(0.015625)"/>
       <path id="DejaVuSans-75" d="M 544 1381 
L 544 3500 
L 1119 3500 
L 1119 1403 
Q 1119 906 1312 657 
Q 1506 409 1894 409 
Q 2359 409 2629 706 
Q 2900 1003 2900 1516 
L 2900 3500 
L 3475 3500 
L 3475 0 
L 2900 0 
L 2900 538 
Q 2691 219 2414 64 
Q 2138 -91 1772 -91 
Q 1169 -91 856 284 
Q 544 659 544 1381 
z
M 1991 3584 
L 1991 3584 
z
" transform="scale(0.015625)"/>
       <path id="DejaVuSans-65" d="M 3597 1894 
L 3597 1613 
L 953 1613 
Q 991 1019 1311 708 
Q 1631 397 2203 397 
Q 2534 397 2845 478 
Q 3156 559 3463 722 
L 3463 178 
Q 3153 47 2828 -22 
Q 2503 -91 2169 -91 
Q 1331 -91 842 396 
Q 353 884 353 1716 
Q 353 2575 817 3079 
Q 1281 3584 2069 3584 
Q 2775 3584 3186 3129 
Q 3597 2675 3597 1894 
z
M 3022 2063 
Q 3016 2534 2758 2815 
Q 2500 3097 2075 3097 
Q 1594 3097 1305 2825 
Q 1016 2553 972 2059 
L 3022 2063 
z
" transform="scale(0.015625)"/>
       <path id="DejaVuSans-73" d="M 2834 3397 
L 2834 2853 
Q 2591 2978 2328 3040 
Q 2066 3103 1784 3103 
Q 1356 3103 1142 2972 
Q 928 2841 928 2578 
Q 928 2378 1081 2264 
Q 1234 2150 1697 2047 
L 1894 2003 
Q 2506 1872 2764 1633 
Q 3022 1394 3022 966 
Q 3022 478 2636 193 
Q 2250 -91 1575 -91 
Q 1294 -91 989 -36 
Q 684 19 347 128 
L 347 722 
Q 666 556 975 473 
Q 1284 391 1588 391 
Q 1994 391 2212 530 
Q 2431 669 2431 922 
Q 2431 1156 2273 1281 
Q 2116 1406 1581 1522 
L 1381 1569 
Q 847 1681 609 1914 
Q 372 2147 372 2553 
Q 372 3047 722 3315 
Q 1072 3584 1716 3584 
Q 2034 3584 2315 3537 
Q 2597 3491 2834 3397 
z
" transform="scale(0.015625)"/>
      </defs>
      <use xlink:href="#DejaVuSans-50"/>
      <use xlink:href="#DejaVuSans-72" x="58.552734"/>
      <use xlink:href="#DejaVuSans-6f" x="97.416016"/>
      <use xlink:href="#DejaVuSans-70" x="158.597656"/>
      <use xlink:href="#DejaVuSans-6f" x="222.074219"/>
      <use xlink:href="#DejaVuSans-72" x="283.255859"/>
      <use xlink:href="#DejaVuSans-74" x="324.369141"/>
      <use xlink:href="#DejaVuSans-69" x="363.578125"/>
      <use xlink:href="#DejaVuSans-6f" x="391.361328"/>
      <use xlink:href="#DejaVuSans-6e" x="452.542969"/>
      <use xlink:href="#DejaVuSans-20" x="515.921875"/>
      <use xlink:href="#DejaVuSans-6f" x="547.708984"/>
      <use xlink:href="#DejaVuSans-66" x="608.890625"/>
      <use xlink:href="#DejaVuSans-20" x="644.095703"/>
      <use xlink:href="#DejaVuSans-51" x="675.882812"/>
      <use xlink:href="#DejaVuSans-75" x="754.59375"/>
      <use xlink:href="#DejaVuSans-65" x="817.972656"/>
      <use xlink:href="#DejaVuSans-72" x="879.496094"/>
      <use xlink:href="#DejaVuSans-69" x="920.609375"/>
      <use xlink:href="#DejaVuSans-65" x="948.392578"/>
      <use xlink:href="#DejaVuSans-73" x="1009.916016"/>
     </g>
    </g>
   </g>
   <g id="matplotlib.axis_2">
    <g id="ytick_1">
     <g id="line2d_13">
      <path d="M 49.84524 233.098194 
L 347.78 233.098194 
" clip-path="url(#pd8d1113f83)" style="fill: none; stroke-dasharray: 3.7,1.6; stroke-dashoffset: 0; stroke: #b0b0b0"/>
     </g>
     <g id="line2d_14">
      <defs>
       <path id="meffab011f9" d="M 0 0 
L -3.5 0 
" style="stroke: #000000; stroke-width: 0.8"/>
      </defs>
      <g>
       <use xlink:href="#meffab011f9" x="49.84524" y="233.098194" style="stroke: #000000; stroke-width: 0.8"/>
      </g>
     </g>
     <g id="text_8">
      <!-- 0 -->
      <g transform="translate(32.66524 239.176944) scale(0.16 -0.16)">
       <use xlink:href="#DejaVuSans-30"/>
      </g>
     </g>
    </g>
    <g id="ytick_2">
     <g id="line2d_15">
      <path d="M 49.84524 189.560069 
L 347.78 189.560069 
" clip-path="url(#pd8d1113f83)" style="fill: none; stroke-dasharray: 3.7,1.6; stroke-dashoffset: 0; stroke: #b0b0b0"/>
     </g>
     <g id="line2d_16">
      <g>
       <use xlink:href="#meffab011f9" x="49.84524" y="189.560069" style="stroke: #000000; stroke-width: 0.8"/>
      </g>
     </g>
     <g id="text_9">
      <!-- 20 -->
      <g transform="translate(22.48524 195.638819) scale(0.16 -0.16)">
       <use xlink:href="#DejaVuSans-32"/>
       <use xlink:href="#DejaVuSans-30" x="63.623047"/>
      </g>
     </g>
    </g>
    <g id="ytick_3">
     <g id="line2d_17">
      <path d="M 49.84524 146.021945 
L 347.78 146.021945 
" clip-path="url(#pd8d1113f83)" style="fill: none; stroke-dasharray: 3.7,1.6; stroke-dashoffset: 0; stroke: #b0b0b0"/>
     </g>
     <g id="line2d_18">
      <g>
       <use xlink:href="#meffab011f9" x="49.84524" y="146.021945" style="stroke: #000000; stroke-width: 0.8"/>
      </g>
     </g>
     <g id="text_10">
      <!-- 40 -->
      <g transform="translate(22.48524 152.100695) scale(0.16 -0.16)">
       <use xlink:href="#DejaVuSans-34"/>
       <use xlink:href="#DejaVuSans-30" x="63.623047"/>
      </g>
     </g>
    </g>
    <g id="ytick_4">
     <g id="line2d_19">
      <path d="M 49.84524 102.48382 
L 347.78 102.48382 
" clip-path="url(#pd8d1113f83)" style="fill: none; stroke-dasharray: 3.7,1.6; stroke-dashoffset: 0; stroke: #b0b0b0"/>
     </g>
     <g id="line2d_20">
      <g>
       <use xlink:href="#meffab011f9" x="49.84524" y="102.48382" style="stroke: #000000; stroke-width: 0.8"/>
      </g>
     </g>
     <g id="text_11">
      <!-- 60 -->
      <g transform="translate(22.48524 108.56257) scale(0.16 -0.16)">
       <use xlink:href="#DejaVuSans-36"/>
       <use xlink:href="#DejaVuSans-30" x="63.623047"/>
      </g>
     </g>
    </g>
    <g id="ytick_5">
     <g id="line2d_21">
      <path d="M 49.84524 58.945696 
L 347.78 58.945696 
" clip-path="url(#pd8d1113f83)" style="fill: none; stroke-dasharray: 3.7,1.6; stroke-dashoffset: 0; stroke: #b0b0b0"/>
     </g>
     <g id="line2d_22">
      <g>
       <use xlink:href="#meffab011f9" x="49.84524" y="58.945696" style="stroke: #000000; stroke-width: 0.8"/>
      </g>
     </g>
     <g id="text_12">
      <!-- 80 -->
      <g transform="translate(22.48524 65.024446) scale(0.16 -0.16)">
       <use xlink:href="#DejaVuSans-38"/>
       <use xlink:href="#DejaVuSans-30" x="63.623047"/>
      </g>
     </g>
    </g>
    <g id="text_13">
     <!-- Max Latency (s) -->
     <g transform="translate(15.15774 196.967) rotate(-90) scale(0.16 -0.16)">
      <defs>
       <path id="DejaVuSans-4d" d="M 628 4666 
L 1569 4666 
L 2759 1491 
L 3956 4666 
L 4897 4666 
L 4897 0 
L 4281 0 
L 4281 4097 
L 3078 897 
L 2444 897 
L 1241 4097 
L 1241 0 
L 628 0 
L 628 4666 
z
" transform="scale(0.015625)"/>
       <path id="DejaVuSans-61" d="M 2194 1759 
Q 1497 1759 1228 1600 
Q 959 1441 959 1056 
Q 959 750 1161 570 
Q 1363 391 1709 391 
Q 2188 391 2477 730 
Q 2766 1069 2766 1631 
L 2766 1759 
L 2194 1759 
z
M 3341 1997 
L 3341 0 
L 2766 0 
L 2766 531 
Q 2569 213 2275 61 
Q 1981 -91 1556 -91 
Q 1019 -91 701 211 
Q 384 513 384 1019 
Q 384 1609 779 1909 
Q 1175 2209 1959 2209 
L 2766 2209 
L 2766 2266 
Q 2766 2663 2505 2880 
Q 2244 3097 1772 3097 
Q 1472 3097 1187 3025 
Q 903 2953 641 2809 
L 641 3341 
Q 956 3463 1253 3523 
Q 1550 3584 1831 3584 
Q 2591 3584 2966 3190 
Q 3341 2797 3341 1997 
z
" transform="scale(0.015625)"/>
       <path id="DejaVuSans-78" d="M 3513 3500 
L 2247 1797 
L 3578 0 
L 2900 0 
L 1881 1375 
L 863 0 
L 184 0 
L 1544 1831 
L 300 3500 
L 978 3500 
L 1906 2253 
L 2834 3500 
L 3513 3500 
z
" transform="scale(0.015625)"/>
       <path id="DejaVuSans-4c" d="M 628 4666 
L 1259 4666 
L 1259 531 
L 3531 531 
L 3531 0 
L 628 0 
L 628 4666 
z
" transform="scale(0.015625)"/>
       <path id="DejaVuSans-63" d="M 3122 3366 
L 3122 2828 
Q 2878 2963 2633 3030 
Q 2388 3097 2138 3097 
Q 1578 3097 1268 2742 
Q 959 2388 959 1747 
Q 959 1106 1268 751 
Q 1578 397 2138 397 
Q 2388 397 2633 464 
Q 2878 531 3122 666 
L 3122 134 
Q 2881 22 2623 -34 
Q 2366 -91 2075 -91 
Q 1284 -91 818 406 
Q 353 903 353 1747 
Q 353 2603 823 3093 
Q 1294 3584 2113 3584 
Q 2378 3584 2631 3529 
Q 2884 3475 3122 3366 
z
" transform="scale(0.015625)"/>
       <path id="DejaVuSans-79" d="M 2059 -325 
Q 1816 -950 1584 -1140 
Q 1353 -1331 966 -1331 
L 506 -1331 
L 506 -850 
L 844 -850 
Q 1081 -850 1212 -737 
Q 1344 -625 1503 -206 
L 1606 56 
L 191 3500 
L 800 3500 
L 1894 763 
L 2988 3500 
L 3597 3500 
L 2059 -325 
z
" transform="scale(0.015625)"/>
       <path id="DejaVuSans-28" d="M 1984 4856 
Q 1566 4138 1362 3434 
Q 1159 2731 1159 2009 
Q 1159 1288 1364 580 
Q 1569 -128 1984 -844 
L 1484 -844 
Q 1016 -109 783 600 
Q 550 1309 550 2009 
Q 550 2706 781 3412 
Q 1013 4119 1484 4856 
L 1984 4856 
z
" transform="scale(0.015625)"/>
       <path id="DejaVuSans-29" d="M 513 4856 
L 1013 4856 
Q 1481 4119 1714 3412 
Q 1947 2706 1947 2009 
Q 1947 1309 1714 600 
Q 1481 -109 1013 -844 
L 513 -844 
Q 928 -128 1133 580 
Q 1338 1288 1338 2009 
Q 1338 2731 1133 3434 
Q 928 4138 513 4856 
z
" transform="scale(0.015625)"/>
      </defs>
      <use xlink:href="#DejaVuSans-4d"/>
      <use xlink:href="#DejaVuSans-61" x="86.279297"/>
      <use xlink:href="#DejaVuSans-78" x="147.558594"/>
      <use xlink:href="#DejaVuSans-20" x="206.738281"/>
      <use xlink:href="#DejaVuSans-4c" x="238.525391"/>
      <use xlink:href="#DejaVuSans-61" x="294.238281"/>
      <use xlink:href="#DejaVuSans-74" x="355.517578"/>
      <use xlink:href="#DejaVuSans-65" x="394.726562"/>
      <use xlink:href="#DejaVuSans-6e" x="456.25"/>
      <use xlink:href="#DejaVuSans-63" x="519.628906"/>
      <use xlink:href="#DejaVuSans-79" x="574.609375"/>
      <use xlink:href="#DejaVuSans-20" x="633.789062"/>
      <use xlink:href="#DejaVuSans-28" x="665.576172"/>
      <use xlink:href="#DejaVuSans-73" x="704.589844"/>
      <use xlink:href="#DejaVuSans-29" x="756.689453"/>
     </g>
    </g>
   </g>
   <g id="line2d_23">
    <path d="M 63.387729 233.055191 
L 76.957357 232.854785 
L 82.385209 232.5353 
L 84.013564 232.312853 
L 84.556349 232.297289 
L 85.099134 232.020138 
L 88.355845 231.691183 
L 88.89863 231.68181 
L 90.526986 231.381704 
L 91.612556 231.229013 
L 98.125978 230.800762 
L 99.211548 230.666857 
L 101.382688 230.45342 
L 103.011044 230.316244 
L 103.553829 230.095071 
L 106.81054 230.039658 
L 107.353325 229.893196 
L 111.695606 229.587621 
L 113.323961 229.420818 
L 118.751813 228.759831 
L 119.837383 228.602064 
L 122.008524 228.501016 
L 123.094094 228.296951 
L 124.722449 228.201988 
L 125.265234 228.046165 
L 126.350805 227.997065 
L 126.89359 227.815792 
L 129.607515 227.68568 
L 135.035367 226.965239 
L 136.120937 226.686676 
L 137.206507 226.562146 
L 137.749292 226.526589 
L 138.292078 226.280062 
L 143.177144 225.853128 
L 143.719929 225.499834 
L 144.262714 225.36143 
L 145.348284 225.346973 
L 146.97664 224.910971 
L 148.06221 224.812675 
L 149.690565 224.115241 
L 152.947276 223.781628 
L 154.032846 223.236014 
L 155.118417 223.106464 
L 155.661202 222.974875 
L 156.203987 222.649583 
L 156.746772 222.619503 
L 157.832342 222.015253 
L 158.375128 221.355276 
L 159.460698 220.952512 
L 160.546268 220.888258 
L 161.631838 220.26411 
L 162.717409 220.172293 
L 163.260194 219.781033 
L 165.431334 219.665612 
L 166.516905 219.212344 
L 169.23083 219.133242 
L 170.3164 218.922472 
L 171.944756 218.821614 
L 172.487541 218.570166 
L 176.287037 218.127394 
L 176.829822 217.897441 
L 184.971599 217.007191 
L 185.514384 216.642556 
L 186.599954 216.580957 
L 187.14274 216.345963 
L 188.771095 216.194347 
L 189.31388 216.007819 
L 191.485021 215.834108 
L 194.741731 215.361666 
L 196.370087 215.257067 
L 196.912872 215.026761 
L 200.169583 214.605578 
L 200.712368 214.522949 
L 201.797938 214.018555 
L 202.340723 214.007702 
L 202.883509 213.562147 
L 203.969079 213.213217 
L 205.597434 212.77751 
L 206.140219 212.312927 
L 207.768575 211.940311 
L 208.854145 211.636659 
L 211.025286 211.326515 
L 211.568071 211.107374 
L 212.110856 211.079029 
L 213.196426 210.684378 
L 213.739211 210.673452 
L 214.824781 210.453702 
L 215.910352 210.284267 
L 218.081492 209.60111 
L 219.167063 209.489204 
L 219.709848 209.230949 
L 221.338203 209.043524 
L 221.880988 208.53672 
L 222.423773 208.401385 
L 223.509344 207.786689 
L 224.052129 207.529732 
L 224.594914 207.528612 
L 225.137699 207.397258 
L 227.30884 205.821506 
L 227.851625 204.686511 
L 228.39441 204.678397 
L 228.937195 204.534496 
L 229.47998 203.84394 
L 230.022765 203.351656 
L 231.651121 201.197236 
L 232.193906 201.15743 
L 232.736691 200.819357 
L 233.822261 200.591868 
L 234.365046 200.443499 
L 234.907831 200.435727 
L 235.450617 199.664241 
L 235.993402 198.475584 
L 236.536187 198.110348 
L 237.621757 197.898452 
L 243.592394 196.176454 
L 244.135179 196.136619 
L 244.677964 195.703834 
L 245.220749 195.640455 
L 245.763534 195.254039 
L 246.306319 195.059442 
L 246.849104 195.037183 
L 247.391889 194.716856 
L 248.47746 194.522454 
L 249.56303 194.510376 
L 250.105815 194.056473 
L 250.6486 193.81197 
L 251.191385 193.149901 
L 251.734171 192.689446 
L 252.276956 192.395204 
L 252.819741 192.248738 
L 253.362526 192.248278 
L 253.905311 191.982585 
L 254.990881 191.860004 
L 256.076452 191.152879 
L 256.619237 191.005169 
L 257.704807 190.919471 
L 258.247592 190.841594 
L 258.790377 190.247778 
L 259.333162 190.206237 
L 259.875948 190.049292 
L 260.418733 190.035033 
L 260.961518 189.62148 
L 263.132658 189.362093 
L 263.675444 188.907368 
L 265.303799 188.463688 
L 265.846584 188.448411 
L 266.389369 188.288471 
L 266.932154 187.880016 
L 268.56051 187.761605 
L 269.103295 187.521863 
L 270.73165 187.396538 
L 271.274435 187.112606 
L 271.817221 187.053052 
L 272.902791 186.224429 
L 273.988361 186.113923 
L 274.531146 185.339976 
L 275.073931 183.649268 
L 275.616716 183.162199 
L 276.159502 183.099299 
L 277.245072 182.660413 
L 278.873427 182.55489 
L 281.044568 182.061056 
L 281.587353 182.053783 
L 282.672923 181.764246 
L 284.844064 180.499574 
L 285.929634 180.129544 
L 287.557989 179.332818 
L 292.443056 178.214158 
L 293.528626 177.837989 
L 294.071411 177.720743 
L 294.614196 177.139933 
L 295.156981 177.123715 
L 296.242552 176.684028 
L 297.328122 176.413158 
L 297.870907 175.458876 
L 298.413692 175.016231 
L 298.956477 174.195622 
L 299.499262 174.149691 
L 300.042047 173.943415 
L 300.584833 173.251369 
L 301.127618 172.923925 
L 301.670403 172.89186 
L 302.213188 172.408745 
L 303.298758 172.005049 
L 303.841543 171.113584 
L 304.927114 170.831907 
L 305.469899 170.41047 
L 306.012684 170.195453 
L 306.555469 169.742697 
L 307.098254 169.130577 
L 307.641039 167.445051 
L 308.183824 166.383912 
L 308.72661 166.225949 
L 309.269395 165.083246 
L 310.354965 163.504509 
L 311.440535 160.363178 
L 311.98332 160.28668 
L 312.526106 159.01009 
L 313.068891 158.814277 
L 313.611676 155.460727 
L 314.154461 155.442097 
L 315.240031 154.647259 
L 315.782816 151.638791 
L 316.325601 150.739879 
L 316.868387 150.389905 
L 317.411172 149.258306 
L 317.953957 147.378425 
L 318.496742 146.827722 
L 319.039527 144.728718 
L 319.582312 140.937602 
L 320.125097 137.978183 
L 320.667883 128.313834 
L 321.753453 122.757598 
L 322.296238 122.519125 
L 322.839023 120.961453 
L 323.381808 120.224315 
L 323.924593 119.859564 
L 324.467378 118.961333 
L 326.095734 112.104864 
L 326.638519 106.725418 
L 327.181304 104.709428 
L 327.724089 104.326737 
L 328.266874 104.208703 
L 328.80966 95.546836 
L 329.352445 95.26238 
L 329.89523 94.006479 
L 330.438015 91.589706 
L 330.9808 71.242817 
L 331.523585 69.892937 
L 332.06637 63.017329 
L 333.151941 54.707618 
L 333.694726 42.134698 
L 334.237511 33.563809 
L 334.237511 33.563809 
" clip-path="url(#pd8d1113f83)" style="fill: none; stroke: #1f77b4; stroke-width: 3; stroke-linecap: square"/>
   </g>
   <g id="line2d_24">
    <path d="M 63.387729 232.973146 
L 65.55887 232.71618 
L 73.700647 232.570159 
L 75.871787 232.378541 
L 77.500143 232.234044 
L 79.671283 231.987525 
L 81.299639 231.875454 
L 81.842424 231.613037 
L 82.385209 231.551663 
L 82.927994 231.365988 
L 83.470779 230.147617 
L 84.013564 229.603487 
L 85.099134 229.493762 
L 85.64192 229.353343 
L 86.184705 228.901038 
L 89.441416 228.502255 
L 89.984201 228.163002 
L 91.612556 228.055251 
L 92.155341 228.014297 
L 92.698126 227.53252 
L 93.783697 227.516228 
L 94.326482 227.359257 
L 95.412052 227.327357 
L 96.497622 227.017414 
L 97.583193 226.990776 
L 98.125978 226.819366 
L 103.553829 226.585466 
L 106.267755 226.467007 
L 111.695606 226.17401 
L 115.495102 226.068694 
L 117.123457 225.916237 
L 120.922953 225.787191 
L 122.551309 225.700568 
L 123.636879 225.534589 
L 127.97916 225.298903 
L 132.321441 225.02044 
L 139.920433 224.63556 
L 143.719929 224.48029 
L 145.348284 224.395643 
L 152.404491 224.017526 
L 152.947276 223.800838 
L 154.032846 223.771432 
L 154.575632 223.604145 
L 161.631838 223.03846 
L 162.174623 222.897168 
L 163.260194 222.790667 
L 167.602475 222.060071 
L 169.773615 221.932383 
L 170.3164 221.698091 
L 175.201467 221.115916 
L 175.744252 220.790497 
L 176.287037 220.772708 
L 176.829822 220.491789 
L 177.372607 220.34186 
L 180.086533 220.230851 
L 181.172103 219.998846 
L 183.343244 219.735196 
L 187.14274 219.538979 
L 189.31388 219.327387 
L 191.485021 219.09113 
L 193.113376 218.999587 
L 194.741731 218.732335 
L 196.370087 218.620964 
L 197.998442 218.202406 
L 200.169583 217.991976 
L 201.797938 217.85643 
L 203.969079 217.634488 
L 206.683004 217.356667 
L 207.768575 217.247831 
L 208.854145 217.133648 
L 215.367567 216.812189 
L 218.081492 216.524251 
L 218.624277 216.319783 
L 222.423773 216.0677 
L 222.966558 216.059082 
L 224.594914 215.645542 
L 230.022765 215.379597 
L 231.108335 215.334186 
L 231.651121 215.115394 
L 235.450617 214.70855 
L 237.078972 214.501542 
L 237.621757 214.499787 
L 238.164542 214.276752 
L 244.135179 213.859441 
L 245.763534 213.664129 
L 246.306319 213.486332 
L 247.934675 213.329648 
L 248.47746 213.167749 
L 249.56303 212.569058 
L 251.191385 212.431297 
L 252.819741 211.997688 
L 254.448096 211.731713 
L 255.533666 211.551611 
L 256.619237 211.415513 
L 259.333162 210.904245 
L 259.875948 210.888184 
L 260.418733 210.561919 
L 263.675444 209.499235 
L 264.218229 209.459986 
L 264.761014 209.232083 
L 268.56051 208.799003 
L 269.103295 208.593405 
L 271.274435 208.296202 
L 272.360006 208.045623 
L 280.501783 207.066349 
L 281.044568 206.888634 
L 281.587353 206.544124 
L 282.130138 206.508386 
L 283.215708 206.248816 
L 284.301279 206.166546 
L 287.015204 205.870587 
L 288.64356 205.815374 
L 293.528626 204.838553 
L 297.870907 204.019546 
L 298.956477 203.83933 
L 299.499262 203.668547 
L 300.042047 201.826505 
L 300.584833 201.661415 
L 301.127618 200.758038 
L 302.213188 199.889788 
L 303.298758 199.716071 
L 304.384329 199.128871 
L 305.469899 198.649994 
L 306.012684 197.759103 
L 306.555469 197.401266 
L 307.098254 197.30583 
L 307.641039 196.217578 
L 308.72661 196.180085 
L 309.269395 195.745997 
L 309.81218 195.69792 
L 310.89775 194.973454 
L 311.440535 194.971373 
L 313.611676 194.154457 
L 314.154461 193.676222 
L 314.697246 192.218673 
L 315.782816 191.652929 
L 316.325601 190.130449 
L 316.868387 189.447998 
L 317.411172 187.050608 
L 317.953957 186.75496 
L 318.496742 185.563818 
L 319.039527 185.503289 
L 319.582312 181.529833 
L 320.125097 179.512267 
L 320.667883 179.489102 
L 321.210668 173.04976 
L 321.753453 162.848261 
L 322.296238 162.443901 
L 322.839023 162.43628 
L 323.381808 162.005464 
L 323.924593 158.467701 
L 324.467378 157.278322 
L 325.010164 155.775456 
L 325.552949 155.665267 
L 326.095734 155.41875 
L 326.638519 154.965566 
L 327.181304 153.125643 
L 327.724089 150.091502 
L 328.266874 143.547312 
L 328.80966 142.589131 
L 329.352445 134.525564 
L 329.89523 133.521387 
L 330.9808 128.005825 
L 331.523585 125.824223 
L 332.06637 121.028834 
L 332.609156 112.914118 
L 333.151941 93.369023 
L 334.237511 70.692719 
L 334.237511 70.692719 
" clip-path="url(#pd8d1113f83)" style="fill: none; stroke: #ff7f0e; stroke-width: 3; stroke-linecap: square"/>
   </g>
   <g id="patch_3">
    <path d="M 49.84524 243.02976 
L 49.84524 23.58924 
" style="fill: none; stroke: #000000; stroke-width: 0.8; stroke-linejoin: miter; stroke-linecap: square"/>
   </g>
   <g id="patch_4">
    <path d="M 347.78 243.02976 
L 347.78 23.58924 
" style="fill: none; stroke: #000000; stroke-width: 0.8; stroke-linejoin: miter; stroke-linecap: square"/>
   </g>
   <g id="patch_5">
    <path d="M 49.84524 243.02976 
L 347.78 243.02976 
" style="fill: none; stroke: #000000; stroke-width: 0.8; stroke-linejoin: miter; stroke-linecap: square"/>
   </g>
   <g id="patch_6">
    <path d="M 49.84524 23.58924 
L 347.78 23.58924 
" style="fill: none; stroke: #000000; stroke-width: 0.8; stroke-linejoin: miter; stroke-linecap: square"/>
   </g>
   <g id="text_14">
    <!-- Query Latency CDF -->
    <g transform="translate(105.97012 17.58924) scale(0.192 -0.192)">
     <defs>
      <path id="DejaVuSans-43" d="M 4122 4306 
L 4122 3641 
Q 3803 3938 3442 4084 
Q 3081 4231 2675 4231 
Q 1875 4231 1450 3742 
Q 1025 3253 1025 2328 
Q 1025 1406 1450 917 
Q 1875 428 2675 428 
Q 3081 428 3442 575 
Q 3803 722 4122 1019 
L 4122 359 
Q 3791 134 3420 21 
Q 3050 -91 2638 -91 
Q 1578 -91 968 557 
Q 359 1206 359 2328 
Q 359 3453 968 4101 
Q 1578 4750 2638 4750 
Q 3056 4750 3426 4639 
Q 3797 4528 4122 4306 
z
" transform="scale(0.015625)"/>
      <path id="DejaVuSans-44" d="M 1259 4147 
L 1259 519 
L 2022 519 
Q 2988 519 3436 956 
Q 3884 1394 3884 2338 
Q 3884 3275 3436 3711 
Q 2988 4147 2022 4147 
L 1259 4147 
z
M 628 4666 
L 1925 4666 
Q 3281 4666 3915 4102 
Q 4550 3538 4550 2338 
Q 4550 1131 3912 565 
Q 3275 0 1925 0 
L 628 0 
L 628 4666 
z
" transform="scale(0.015625)"/>
      <path id="DejaVuSans-46" d="M 628 4666 
L 3309 4666 
L 3309 4134 
L 1259 4134 
L 1259 2759 
L 3109 2759 
L 3109 2228 
L 1259 2228 
L 1259 0 
L 628 0 
L 628 4666 
z
" transform="scale(0.015625)"/>
     </defs>
     <use xlink:href="#DejaVuSans-51"/>
     <use xlink:href="#DejaVuSans-75" x="78.710938"/>
     <use xlink:href="#DejaVuSans-65" x="142.089844"/>
     <use xlink:href="#DejaVuSans-72" x="203.613281"/>
     <use xlink:href="#DejaVuSans-79" x="244.726562"/>
     <use xlink:href="#DejaVuSans-20" x="303.90625"/>
     <use xlink:href="#DejaVuSans-4c" x="335.693359"/>
     <use xlink:href="#DejaVuSans-61" x="391.40625"/>
     <use xlink:href="#DejaVuSans-74" x="452.685547"/>
     <use xlink:href="#DejaVuSans-65" x="491.894531"/>
     <use xlink:href="#DejaVuSans-6e" x="553.417969"/>
     <use xlink:href="#DejaVuSans-63" x="616.796875"/>
     <use xlink:href="#DejaVuSans-79" x="671.777344"/>
     <use xlink:href="#DejaVuSans-20" x="730.957031"/>
     <use xlink:href="#DejaVuSans-43" x="762.744141"/>
     <use xlink:href="#DejaVuSans-44" x="832.568359"/>
     <use xlink:href="#DejaVuSans-46" x="909.570312"/>
    </g>
   </g>
   <g id="legend_1">
    <g id="patch_7">
     <path d="M 61.04524 83.35924 
L 203.59774 83.35924 
Q 206.79774 83.35924 206.79774 80.15924 
L 206.79774 34.78924 
Q 206.79774 31.58924 203.59774 31.58924 
L 61.04524 31.58924 
Q 57.84524 31.58924 57.84524 34.78924 
L 57.84524 80.15924 
Q 57.84524 83.35924 61.04524 83.35924 
z
" style="fill: #ffffff; opacity: 0.8; stroke: #cccccc; stroke-linejoin: miter"/>
    </g>
    <g id="line2d_25">
     <path d="M 64.24524 44.54674 
L 80.24524 44.54674 
L 96.24524 44.54674 
" style="fill: none; stroke: #1f77b4; stroke-width: 3; stroke-linecap: square"/>
    </g>
    <g id="text_15">
     <!-- PostgreSQL -->
     <g transform="translate(109.04524 50.14674) scale(0.16 -0.16)">
      <defs>
       <path id="DejaVuSans-67" d="M 2906 1791 
Q 2906 2416 2648 2759 
Q 2391 3103 1925 3103 
Q 1463 3103 1205 2759 
Q 947 2416 947 1791 
Q 947 1169 1205 825 
Q 1463 481 1925 481 
Q 2391 481 2648 825 
Q 2906 1169 2906 1791 
z
M 3481 434 
Q 3481 -459 3084 -895 
Q 2688 -1331 1869 -1331 
Q 1566 -1331 1297 -1286 
Q 1028 -1241 775 -1147 
L 775 -588 
Q 1028 -725 1275 -790 
Q 1522 -856 1778 -856 
Q 2344 -856 2625 -561 
Q 2906 -266 2906 331 
L 2906 616 
Q 2728 306 2450 153 
Q 2172 0 1784 0 
Q 1141 0 747 490 
Q 353 981 353 1791 
Q 353 2603 747 3093 
Q 1141 3584 1784 3584 
Q 2172 3584 2450 3431 
Q 2728 3278 2906 2969 
L 2906 3500 
L 3481 3500 
L 3481 434 
z
" transform="scale(0.015625)"/>
       <path id="DejaVuSans-53" d="M 3425 4513 
L 3425 3897 
Q 3066 4069 2747 4153 
Q 2428 4238 2131 4238 
Q 1616 4238 1336 4038 
Q 1056 3838 1056 3469 
Q 1056 3159 1242 3001 
Q 1428 2844 1947 2747 
L 2328 2669 
Q 3034 2534 3370 2195 
Q 3706 1856 3706 1288 
Q 3706 609 3251 259 
Q 2797 -91 1919 -91 
Q 1588 -91 1214 -16 
Q 841 59 441 206 
L 441 856 
Q 825 641 1194 531 
Q 1563 422 1919 422 
Q 2459 422 2753 634 
Q 3047 847 3047 1241 
Q 3047 1584 2836 1778 
Q 2625 1972 2144 2069 
L 1759 2144 
Q 1053 2284 737 2584 
Q 422 2884 422 3419 
Q 422 4038 858 4394 
Q 1294 4750 2059 4750 
Q 2388 4750 2728 4690 
Q 3069 4631 3425 4513 
z
" transform="scale(0.015625)"/>
      </defs>
      <use xlink:href="#DejaVuSans-50"/>
      <use xlink:href="#DejaVuSans-6f" x="56.677734"/>
      <use xlink:href="#DejaVuSans-73" x="117.859375"/>
      <use xlink:href="#DejaVuSans-74" x="169.958984"/>
      <use xlink:href="#DejaVuSans-67" x="209.167969"/>
      <use xlink:href="#DejaVuSans-72" x="272.644531"/>
      <use xlink:href="#DejaVuSans-65" x="311.507812"/>
      <use xlink:href="#DejaVuSans-53" x="373.03125"/>
      <use xlink:href="#DejaVuSans-51" x="436.507812"/>
      <use xlink:href="#DejaVuSans-4c" x="515.21875"/>
     </g>
    </g>
    <g id="line2d_26">
     <path d="M 64.24524 68.03174 
L 80.24524 68.03174 
L 96.24524 68.03174 
" style="fill: none; stroke: #ff7f0e; stroke-width: 3; stroke-linecap: square"/>
    </g>
    <g id="text_16">
     <!-- Bao -->
     <g transform="translate(109.04524 73.63174) scale(0.16 -0.16)">
      <defs>
       <path id="DejaVuSans-42" d="M 1259 2228 
L 1259 519 
L 2272 519 
Q 2781 519 3026 730 
Q 3272 941 3272 1375 
Q 3272 1813 3026 2020 
Q 2781 2228 2272 2228 
L 1259 2228 
z
M 1259 4147 
L 1259 2741 
L 2194 2741 
Q 2656 2741 2882 2914 
Q 3109 3088 3109 3444 
Q 3109 3797 2882 3972 
Q 2656 4147 2194 4147 
L 1259 4147 
z
M 628 4666 
L 2241 4666 
Q 2963 4666 3353 4366 
Q 3744 4066 3744 3513 
Q 3744 3084 3544 2831 
Q 3344 2578 2956 2516 
Q 3422 2416 3680 2098 
Q 3938 1781 3938 1306 
Q 3938 681 3513 340 
Q 3088 0 2303 0 
L 628 0 
L 628 4666 
z
" transform="scale(0.015625)"/>
      </defs>
      <use xlink:href="#DejaVuSans-42"/>
      <use xlink:href="#DejaVuSans-61" x="68.603516"/>
      <use xlink:href="#DejaVuSans-6f" x="129.882812"/>
     </g>
    </g>
   </g>
  </g>
  <g id="axes_2">
   <g id="patch_8">
    <path d="M 419.065 243.02976 
L 716.99976 243.02976 
L 716.99976 23.58924 
L 419.065 23.58924 
z
" style="fill: #ffffff"/>
   </g>
   <g id="matplotlib.axis_3">
    <g id="xtick_7">
     <g id="line2d_27">
      <path d="M 432.607489 243.02976 
L 432.607489 23.58924 
" clip-path="url(#pe6b923f817)" style="fill: none; stroke-dasharray: 3.7,1.6; stroke-dashoffset: 0; stroke: #b0b0b0"/>
     </g>
     <g id="line2d_28">
      <g>
       <use xlink:href="#m4f8a6f8d46" x="432.607489" y="243.02976" style="stroke: #000000; stroke-width: 0.8"/>
      </g>
     </g>
     <g id="text_17">
      <!-- 0.0 -->
      <g transform="translate(419.884989 262.18726) scale(0.16 -0.16)">
       <use xlink:href="#DejaVuSans-30"/>
       <use xlink:href="#DejaVuSans-2e" x="63.623047"/>
       <use xlink:href="#DejaVuSans-30" x="95.410156"/>
      </g>
     </g>
    </g>
    <g id="xtick_8">
     <g id="line2d_29">
      <path d="M 486.777445 243.02976 
L 486.777445 23.58924 
" clip-path="url(#pe6b923f817)" style="fill: none; stroke-dasharray: 3.7,1.6; stroke-dashoffset: 0; stroke: #b0b0b0"/>
     </g>
     <g id="line2d_30">
      <g>
       <use xlink:href="#m4f8a6f8d46" x="486.777445" y="243.02976" style="stroke: #000000; stroke-width: 0.8"/>
      </g>
     </g>
     <g id="text_18">
      <!-- 0.2 -->
      <g transform="translate(474.054945 262.18726) scale(0.16 -0.16)">
       <use xlink:href="#DejaVuSans-30"/>
       <use xlink:href="#DejaVuSans-2e" x="63.623047"/>
       <use xlink:href="#DejaVuSans-32" x="95.410156"/>
      </g>
     </g>
    </g>
    <g id="xtick_9">
     <g id="line2d_31">
      <path d="M 540.947402 243.02976 
L 540.947402 23.58924 
" clip-path="url(#pe6b923f817)" style="fill: none; stroke-dasharray: 3.7,1.6; stroke-dashoffset: 0; stroke: #b0b0b0"/>
     </g>
     <g id="line2d_32">
      <g>
       <use xlink:href="#m4f8a6f8d46" x="540.947402" y="243.02976" style="stroke: #000000; stroke-width: 0.8"/>
      </g>
     </g>
     <g id="text_19">
      <!-- 0.4 -->
      <g transform="translate(528.224902 262.18726) scale(0.16 -0.16)">
       <use xlink:href="#DejaVuSans-30"/>
       <use xlink:href="#DejaVuSans-2e" x="63.623047"/>
       <use xlink:href="#DejaVuSans-34" x="95.410156"/>
      </g>
     </g>
    </g>
    <g id="xtick_10">
     <g id="line2d_33">
      <path d="M 595.117358 243.02976 
L 595.117358 23.58924 
" clip-path="url(#pe6b923f817)" style="fill: none; stroke-dasharray: 3.7,1.6; stroke-dashoffset: 0; stroke: #b0b0b0"/>
     </g>
     <g id="line2d_34">
      <g>
       <use xlink:href="#m4f8a6f8d46" x="595.117358" y="243.02976" style="stroke: #000000; stroke-width: 0.8"/>
      </g>
     </g>
     <g id="text_20">
      <!-- 0.6 -->
      <g transform="translate(582.394858 262.18726) scale(0.16 -0.16)">
       <use xlink:href="#DejaVuSans-30"/>
       <use xlink:href="#DejaVuSans-2e" x="63.623047"/>
       <use xlink:href="#DejaVuSans-36" x="95.410156"/>
      </g>
     </g>
    </g>
    <g id="xtick_11">
     <g id="line2d_35">
      <path d="M 649.287315 243.02976 
L 649.287315 23.58924 
" clip-path="url(#pe6b923f817)" style="fill: none; stroke-dasharray: 3.7,1.6; stroke-dashoffset: 0; stroke: #b0b0b0"/>
     </g>
     <g id="line2d_36">
      <g>
       <use xlink:href="#m4f8a6f8d46" x="649.287315" y="243.02976" style="stroke: #000000; stroke-width: 0.8"/>
      </g>
     </g>
     <g id="text_21">
      <!-- 0.8 -->
      <g transform="translate(636.564815 262.18726) scale(0.16 -0.16)">
       <use xlink:href="#DejaVuSans-30"/>
       <use xlink:href="#DejaVuSans-2e" x="63.623047"/>
       <use xlink:href="#DejaVuSans-38" x="95.410156"/>
      </g>
     </g>
    </g>
    <g id="xtick_12">
     <g id="line2d_37">
      <path d="M 703.457271 243.02976 
L 703.457271 23.58924 
" clip-path="url(#pe6b923f817)" style="fill: none; stroke-dasharray: 3.7,1.6; stroke-dashoffset: 0; stroke: #b0b0b0"/>
     </g>
     <g id="line2d_38">
      <g>
       <use xlink:href="#m4f8a6f8d46" x="703.457271" y="243.02976" style="stroke: #000000; stroke-width: 0.8"/>
      </g>
     </g>
     <g id="text_22">
      <!-- 1.0 -->
      <g transform="translate(690.734771 262.18726) scale(0.16 -0.16)">
       <use xlink:href="#DejaVuSans-31"/>
       <use xlink:href="#DejaVuSans-2e" x="63.623047"/>
       <use xlink:href="#DejaVuSans-30" x="95.410156"/>
      </g>
     </g>
    </g>
    <g id="text_23">
     <!-- Proportion of Queries -->
     <g transform="translate(483.07113 281.67226) scale(0.16 -0.16)">
      <use xlink:href="#DejaVuSans-50"/>
      <use xlink:href="#DejaVuSans-72" x="58.552734"/>
      <use xlink:href="#DejaVuSans-6f" x="97.416016"/>
      <use xlink:href="#DejaVuSans-70" x="158.597656"/>
      <use xlink:href="#DejaVuSans-6f" x="222.074219"/>
      <use xlink:href="#DejaVuSans-72" x="283.255859"/>
      <use xlink:href="#DejaVuSans-74" x="324.369141"/>
      <use xlink:href="#DejaVuSans-69" x="363.578125"/>
      <use xlink:href="#DejaVuSans-6f" x="391.361328"/>
      <use xlink:href="#DejaVuSans-6e" x="452.542969"/>
      <use xlink:href="#DejaVuSans-20" x="515.921875"/>
      <use xlink:href="#DejaVuSans-6f" x="547.708984"/>
      <use xlink:href="#DejaVuSans-66" x="608.890625"/>
      <use xlink:href="#DejaVuSans-20" x="644.095703"/>
      <use xlink:href="#DejaVuSans-51" x="675.882812"/>
      <use xlink:href="#DejaVuSans-75" x="754.59375"/>
      <use xlink:href="#DejaVuSans-65" x="817.972656"/>
      <use xlink:href="#DejaVuSans-72" x="879.496094"/>
      <use xlink:href="#DejaVuSans-69" x="920.609375"/>
      <use xlink:href="#DejaVuSans-65" x="948.392578"/>
      <use xlink:href="#DejaVuSans-73" x="1009.916016"/>
     </g>
    </g>
   </g>
   <g id="matplotlib.axis_4">
    <g id="ytick_6">
     <g id="line2d_39">
      <path d="M 419.065 194.732742 
L 716.99976 194.732742 
" clip-path="url(#pe6b923f817)" style="fill: none; stroke-dasharray: 3.7,1.6; stroke-dashoffset: 0; stroke: #b0b0b0"/>
     </g>
     <g id="line2d_40">
      <g>
       <use xlink:href="#meffab011f9" x="419.065" y="194.732742" style="stroke: #000000; stroke-width: 0.8"/>
      </g>
     </g>
     <g id="text_24">
      <!-- $\mathdefault{10^{-1}}$ -->
      <g transform="translate(374.465 200.811492) scale(0.16 -0.16)">
       <defs>
        <path id="DejaVuSans-2212" d="M 678 2272 
L 4684 2272 
L 4684 1741 
L 678 1741 
L 678 2272 
z
" transform="scale(0.015625)"/>
       </defs>
       <use xlink:href="#DejaVuSans-31" transform="translate(0 0.684375)"/>
       <use xlink:href="#DejaVuSans-30" transform="translate(63.623047 0.684375)"/>
       <use xlink:href="#DejaVuSans-2212" transform="translate(128.203125 38.965625) scale(0.7)"/>
       <use xlink:href="#DejaVuSans-31" transform="translate(186.855469 38.965625) scale(0.7)"/>
      </g>
     </g>
    </g>
    <g id="ytick_7">
     <g id="line2d_41">
      <path d="M 419.065 140.323813 
L 716.99976 140.323813 
" clip-path="url(#pe6b923f817)" style="fill: none; stroke-dasharray: 3.7,1.6; stroke-dashoffset: 0; stroke: #b0b0b0"/>
     </g>
     <g id="line2d_42">
      <g>
       <use xlink:href="#meffab011f9" x="419.065" y="140.323813" style="stroke: #000000; stroke-width: 0.8"/>
      </g>
     </g>
     <g id="text_25">
      <!-- $\mathdefault{10^{0}}$ -->
      <g transform="translate(383.905 146.402563) scale(0.16 -0.16)">
       <use xlink:href="#DejaVuSans-31" transform="translate(0 0.765625)"/>
       <use xlink:href="#DejaVuSans-30" transform="translate(63.623047 0.765625)"/>
       <use xlink:href="#DejaVuSans-30" transform="translate(128.203125 39.046875) scale(0.7)"/>
      </g>
     </g>
    </g>
    <g id="ytick_8">
     <g id="line2d_43">
      <path d="M 419.065 85.914885 
L 716.99976 85.914885 
" clip-path="url(#pe6b923f817)" style="fill: none; stroke-dasharray: 3.7,1.6; stroke-dashoffset: 0; stroke: #b0b0b0"/>
     </g>
     <g id="line2d_44">
      <g>
       <use xlink:href="#meffab011f9" x="419.065" y="85.914885" style="stroke: #000000; stroke-width: 0.8"/>
      </g>
     </g>
     <g id="text_26">
      <!-- $\mathdefault{10^{1}}$ -->
      <g transform="translate(383.905 91.993635) scale(0.16 -0.16)">
       <use xlink:href="#DejaVuSans-31" transform="translate(0 0.684375)"/>
       <use xlink:href="#DejaVuSans-30" transform="translate(63.623047 0.684375)"/>
       <use xlink:href="#DejaVuSans-31" transform="translate(128.203125 38.965625) scale(0.7)"/>
      </g>
     </g>
    </g>
    <g id="ytick_9">
     <g id="line2d_45">
      <path d="M 419.065 31.505956 
L 716.99976 31.505956 
" clip-path="url(#pe6b923f817)" style="fill: none; stroke-dasharray: 3.7,1.6; stroke-dashoffset: 0; stroke: #b0b0b0"/>
     </g>
     <g id="line2d_46">
      <g>
       <use xlink:href="#meffab011f9" x="419.065" y="31.505956" style="stroke: #000000; stroke-width: 0.8"/>
      </g>
     </g>
     <g id="text_27">
      <!-- $\mathdefault{10^{2}}$ -->
      <g transform="translate(383.905 37.584706) scale(0.16 -0.16)">
       <use xlink:href="#DejaVuSans-31" transform="translate(0 0.765625)"/>
       <use xlink:href="#DejaVuSans-30" transform="translate(63.623047 0.765625)"/>
       <use xlink:href="#DejaVuSans-32" transform="translate(128.203125 39.046875) scale(0.7)"/>
      </g>
     </g>
    </g>
    <g id="ytick_10">
     <g id="line2d_47">
      <defs>
       <path id="ma819aab368" d="M 0 0 
L -2 0 
" style="stroke: #000000; stroke-width: 0.6"/>
      </defs>
      <g>
       <use xlink:href="#ma819aab368" x="419.065" y="232.762951" style="stroke: #000000; stroke-width: 0.6"/>
      </g>
     </g>
    </g>
    <g id="ytick_11">
     <g id="line2d_48">
      <g>
       <use xlink:href="#ma819aab368" x="419.065" y="223.182014" style="stroke: #000000; stroke-width: 0.6"/>
      </g>
     </g>
    </g>
    <g id="ytick_12">
     <g id="line2d_49">
      <g>
       <use xlink:href="#ma819aab368" x="419.065" y="216.384231" style="stroke: #000000; stroke-width: 0.6"/>
      </g>
     </g>
    </g>
    <g id="ytick_13">
     <g id="line2d_50">
      <g>
       <use xlink:href="#ma819aab368" x="419.065" y="211.111461" style="stroke: #000000; stroke-width: 0.6"/>
      </g>
     </g>
    </g>
    <g id="ytick_14">
     <g id="line2d_51">
      <g>
       <use xlink:href="#ma819aab368" x="419.065" y="206.803295" style="stroke: #000000; stroke-width: 0.6"/>
      </g>
     </g>
    </g>
    <g id="ytick_15">
     <g id="line2d_52">
      <g>
       <use xlink:href="#ma819aab368" x="419.065" y="203.160791" style="stroke: #000000; stroke-width: 0.6"/>
      </g>
     </g>
    </g>
    <g id="ytick_16">
     <g id="line2d_53">
      <g>
       <use xlink:href="#ma819aab368" x="419.065" y="200.005512" style="stroke: #000000; stroke-width: 0.6"/>
      </g>
     </g>
    </g>
    <g id="ytick_17">
     <g id="line2d_54">
      <g>
       <use xlink:href="#ma819aab368" x="419.065" y="197.222358" style="stroke: #000000; stroke-width: 0.6"/>
      </g>
     </g>
    </g>
    <g id="ytick_18">
     <g id="line2d_55">
      <g>
       <use xlink:href="#ma819aab368" x="419.065" y="178.354022" style="stroke: #000000; stroke-width: 0.6"/>
      </g>
     </g>
    </g>
    <g id="ytick_19">
     <g id="line2d_56">
      <g>
       <use xlink:href="#ma819aab368" x="419.065" y="168.773085" style="stroke: #000000; stroke-width: 0.6"/>
      </g>
     </g>
    </g>
    <g id="ytick_20">
     <g id="line2d_57">
      <g>
       <use xlink:href="#ma819aab368" x="419.065" y="161.975303" style="stroke: #000000; stroke-width: 0.6"/>
      </g>
     </g>
    </g>
    <g id="ytick_21">
     <g id="line2d_58">
      <g>
       <use xlink:href="#ma819aab368" x="419.065" y="156.702533" style="stroke: #000000; stroke-width: 0.6"/>
      </g>
     </g>
    </g>
    <g id="ytick_22">
     <g id="line2d_59">
      <g>
       <use xlink:href="#ma819aab368" x="419.065" y="152.394366" style="stroke: #000000; stroke-width: 0.6"/>
      </g>
     </g>
    </g>
    <g id="ytick_23">
     <g id="line2d_60">
      <g>
       <use xlink:href="#ma819aab368" x="419.065" y="148.751863" style="stroke: #000000; stroke-width: 0.6"/>
      </g>
     </g>
    </g>
    <g id="ytick_24">
     <g id="line2d_61">
      <g>
       <use xlink:href="#ma819aab368" x="419.065" y="145.596583" style="stroke: #000000; stroke-width: 0.6"/>
      </g>
     </g>
    </g>
    <g id="ytick_25">
     <g id="line2d_62">
      <g>
       <use xlink:href="#ma819aab368" x="419.065" y="142.813429" style="stroke: #000000; stroke-width: 0.6"/>
      </g>
     </g>
    </g>
    <g id="ytick_26">
     <g id="line2d_63">
      <g>
       <use xlink:href="#ma819aab368" x="419.065" y="123.945094" style="stroke: #000000; stroke-width: 0.6"/>
      </g>
     </g>
    </g>
    <g id="ytick_27">
     <g id="line2d_64">
      <g>
       <use xlink:href="#ma819aab368" x="419.065" y="114.364157" style="stroke: #000000; stroke-width: 0.6"/>
      </g>
     </g>
    </g>
    <g id="ytick_28">
     <g id="line2d_65">
      <g>
       <use xlink:href="#ma819aab368" x="419.065" y="107.566374" style="stroke: #000000; stroke-width: 0.6"/>
      </g>
     </g>
    </g>
    <g id="ytick_29">
     <g id="line2d_66">
      <g>
       <use xlink:href="#ma819aab368" x="419.065" y="102.293604" style="stroke: #000000; stroke-width: 0.6"/>
      </g>
     </g>
    </g>
    <g id="ytick_30">
     <g id="line2d_67">
      <g>
       <use xlink:href="#ma819aab368" x="419.065" y="97.985437" style="stroke: #000000; stroke-width: 0.6"/>
      </g>
     </g>
    </g>
    <g id="ytick_31">
     <g id="line2d_68">
      <g>
       <use xlink:href="#ma819aab368" x="419.065" y="94.342934" style="stroke: #000000; stroke-width: 0.6"/>
      </g>
     </g>
    </g>
    <g id="ytick_32">
     <g id="line2d_69">
      <g>
       <use xlink:href="#ma819aab368" x="419.065" y="91.187655" style="stroke: #000000; stroke-width: 0.6"/>
      </g>
     </g>
    </g>
    <g id="ytick_33">
     <g id="line2d_70">
      <g>
       <use xlink:href="#ma819aab368" x="419.065" y="88.404501" style="stroke: #000000; stroke-width: 0.6"/>
      </g>
     </g>
    </g>
    <g id="ytick_34">
     <g id="line2d_71">
      <g>
       <use xlink:href="#ma819aab368" x="419.065" y="69.536165" style="stroke: #000000; stroke-width: 0.6"/>
      </g>
     </g>
    </g>
    <g id="ytick_35">
     <g id="line2d_72">
      <g>
       <use xlink:href="#ma819aab368" x="419.065" y="59.955228" style="stroke: #000000; stroke-width: 0.6"/>
      </g>
     </g>
    </g>
    <g id="ytick_36">
     <g id="line2d_73">
      <g>
       <use xlink:href="#ma819aab368" x="419.065" y="53.157445" style="stroke: #000000; stroke-width: 0.6"/>
      </g>
     </g>
    </g>
    <g id="ytick_37">
     <g id="line2d_74">
      <g>
       <use xlink:href="#ma819aab368" x="419.065" y="47.884675" style="stroke: #000000; stroke-width: 0.6"/>
      </g>
     </g>
    </g>
    <g id="ytick_38">
     <g id="line2d_75">
      <g>
       <use xlink:href="#ma819aab368" x="419.065" y="43.576509" style="stroke: #000000; stroke-width: 0.6"/>
      </g>
     </g>
    </g>
    <g id="ytick_39">
     <g id="line2d_76">
      <g>
       <use xlink:href="#ma819aab368" x="419.065" y="39.934006" style="stroke: #000000; stroke-width: 0.6"/>
      </g>
     </g>
    </g>
    <g id="ytick_40">
     <g id="line2d_77">
      <g>
       <use xlink:href="#ma819aab368" x="419.065" y="36.778726" style="stroke: #000000; stroke-width: 0.6"/>
      </g>
     </g>
    </g>
    <g id="ytick_41">
     <g id="line2d_78">
      <g>
       <use xlink:href="#ma819aab368" x="419.065" y="33.995572" style="stroke: #000000; stroke-width: 0.6"/>
      </g>
     </g>
    </g>
    <g id="text_28">
     <!-- Max Latency (s) -->
     <g transform="translate(367.1375 196.967) rotate(-90) scale(0.16 -0.16)">
      <use xlink:href="#DejaVuSans-4d"/>
      <use xlink:href="#DejaVuSans-61" x="86.279297"/>
      <use xlink:href="#DejaVuSans-78" x="147.558594"/>
      <use xlink:href="#DejaVuSans-20" x="206.738281"/>
      <use xlink:href="#DejaVuSans-4c" x="238.525391"/>
      <use xlink:href="#DejaVuSans-61" x="294.238281"/>
      <use xlink:href="#DejaVuSans-74" x="355.517578"/>
      <use xlink:href="#DejaVuSans-65" x="394.726562"/>
      <use xlink:href="#DejaVuSans-6e" x="456.25"/>
      <use xlink:href="#DejaVuSans-63" x="519.628906"/>
      <use xlink:href="#DejaVuSans-79" x="574.609375"/>
      <use xlink:href="#DejaVuSans-20" x="633.789062"/>
      <use xlink:href="#DejaVuSans-28" x="665.576172"/>
      <use xlink:href="#DejaVuSans-73" x="704.589844"/>
      <use xlink:href="#DejaVuSans-29" x="756.689453"/>
     </g>
    </g>
   </g>
   <g id="line2d_79">
    <path d="M 432.607489 233.055191 
L 433.693059 228.397647 
L 434.235844 227.979164 
L 434.77863 226.724939 
L 435.321415 223.612022 
L 435.8642 215.43189 
L 436.406985 210.04522 
L 436.94977 206.890142 
L 437.492555 206.119789 
L 438.03534 202.648587 
L 438.578126 202.132276 
L 439.120911 200.77372 
L 440.206481 200.122158 
L 440.749266 199.459231 
L 441.292051 199.04465 
L 441.834836 196.04699 
L 442.377622 195.392122 
L 442.920407 195.245606 
L 444.005977 194.381645 
L 445.091547 193.038135 
L 445.634332 192.666042 
L 446.177117 192.094112 
L 446.719903 189.540061 
L 447.262688 182.016204 
L 447.805473 181.568359 
L 448.348258 181.372116 
L 449.433828 176.56417 
L 449.976613 175.46555 
L 451.062184 174.334412 
L 451.604969 172.284354 
L 452.147754 168.032837 
L 453.233324 164.415089 
L 453.776109 163.951354 
L 454.318894 156.929338 
L 454.86168 155.537626 
L 455.404465 155.472986 
L 455.94725 152.844309 
L 456.490035 152.630898 
L 457.03282 151.833996 
L 457.575605 150.636603 
L 458.11839 150.479707 
L 458.661176 148.352976 
L 460.289531 144.53572 
L 460.832316 143.925054 
L 462.460671 142.658533 
L 463.003457 142.164618 
L 463.546242 142.138433 
L 464.089027 141.56215 
L 464.631812 141.485855 
L 465.174597 141.193152 
L 465.717382 141.147501 
L 466.260167 140.531912 
L 466.802953 139.584439 
L 467.345738 139.05048 
L 467.888523 137.859328 
L 468.431308 137.711892 
L 468.974093 136.995841 
L 469.516878 136.977233 
L 470.059663 136.515435 
L 470.602448 135.723603 
L 471.145234 135.644234 
L 472.230804 134.528745 
L 472.773589 132.721069 
L 473.859159 132.566596 
L 476.0303 132.289035 
L 476.573085 131.183764 
L 477.11587 131.005001 
L 477.658655 130.433105 
L 478.744225 129.942002 
L 479.287011 129.849746 
L 480.372581 129.269018 
L 480.915366 129.03188 
L 481.458151 128.427515 
L 483.629292 127.513787 
L 484.714862 127.16946 
L 486.343217 125.231345 
L 486.886002 125.205306 
L 487.428788 124.95012 
L 488.514358 123.302101 
L 491.228284 122.65987 
L 491.771069 122.030264 
L 492.313854 121.633588 
L 492.856639 121.613167 
L 493.942209 121.170785 
L 494.484994 120.430487 
L 495.570565 120.201945 
L 496.11335 119.376827 
L 496.656135 119.348698 
L 497.741705 118.984184 
L 499.370061 118.514054 
L 499.912846 118.096486 
L 500.998416 117.913423 
L 501.541201 117.824895 
L 502.626771 117.019991 
L 503.169556 116.917519 
L 504.255127 115.849044 
L 504.797912 115.199341 
L 505.883482 114.460698 
L 506.969052 114.216682 
L 507.511838 113.346471 
L 508.054623 113.172466 
L 508.597408 112.86108 
L 509.140193 112.812156 
L 510.225763 112.32415 
L 511.854119 112.042727 
L 512.396904 111.911328 
L 512.939689 110.786285 
L 513.482474 110.359748 
L 514.568044 110.315636 
L 515.110829 109.832375 
L 515.653615 109.503306 
L 516.1964 109.022526 
L 517.28197 108.740519 
L 518.36754 107.144019 
L 518.910325 106.830797 
L 519.995896 106.640615 
L 520.538681 106.301602 
L 522.167036 105.969138 
L 523.252606 104.624309 
L 523.795392 104.551131 
L 524.880962 104.006767 
L 525.423747 103.259427 
L 525.966532 103.191499 
L 527.052102 101.86675 
L 527.594888 100.499943 
L 528.137673 99.98684 
L 528.680458 99.703076 
L 529.766028 99.578399 
L 530.851598 98.400366 
L 531.394383 98.237434 
L 531.937169 98.231918 
L 532.479954 97.527278 
L 534.651094 97.32336 
L 535.736665 96.539167 
L 538.45059 96.404942 
L 539.53616 96.050971 
L 541.164516 95.883446 
L 541.707301 95.470891 
L 545.506797 94.761489 
L 546.049582 94.401297 
L 551.477433 93.545145 
L 552.020219 93.474522 
L 552.563004 93.115617 
L 554.191359 93.056416 
L 554.734144 92.52693 
L 555.819714 92.438641 
L 556.3625 92.104829 
L 556.905285 92.065741 
L 557.44807 91.90785 
L 557.990855 91.891932 
L 558.53364 91.632617 
L 560.161996 91.459762 
L 561.247566 91.271125 
L 562.333136 90.978024 
L 563.418706 90.904775 
L 563.961491 90.755707 
L 565.589847 90.616765 
L 566.132632 90.313691 
L 568.846558 90.009405 
L 569.389343 89.769288 
L 569.932128 89.663942 
L 571.017698 89.030861 
L 571.560483 89.017423 
L 572.103269 88.47227 
L 573.188839 88.053952 
L 574.817194 87.541788 
L 575.359979 87.00764 
L 576.988335 86.587788 
L 578.073905 86.251074 
L 580.245046 85.912045 
L 580.787831 85.675393 
L 581.330616 85.644955 
L 582.416186 85.225192 
L 582.958971 85.213677 
L 584.044541 84.983248 
L 585.130112 84.807101 
L 587.301252 84.10991 
L 588.386823 83.997639 
L 588.929608 83.740564 
L 590.557963 83.555731 
L 591.100748 83.063057 
L 591.643533 82.933214 
L 592.729104 82.352284 
L 593.271889 82.113611 
L 593.814674 82.112577 
L 594.357459 81.991499 
L 595.985814 80.936089 
L 596.5286 80.585426 
L 597.071385 79.622098 
L 597.61417 79.615351 
L 598.156955 79.496007 
L 598.69974 78.931536 
L 599.242525 78.537213 
L 600.870881 76.884961 
L 601.413666 76.855495 
L 601.956451 76.606705 
L 603.042021 76.440758 
L 604.127591 76.327528 
L 604.670377 75.775889 
L 605.213162 74.950393 
L 605.755947 74.702429 
L 607.927087 74.375053 
L 609.012658 74.120721 
L 611.726583 73.631503 
L 613.354939 73.405687 
L 613.897724 73.130615 
L 614.440509 73.0906 
L 615.526079 72.726893 
L 616.068864 72.713069 
L 616.611649 72.515032 
L 618.240005 72.39528 
L 618.78279 72.388254 
L 619.325575 72.111926 
L 619.86836 71.964405 
L 620.953931 71.298705 
L 622.039501 71.042391 
L 622.582286 71.042126 
L 623.125071 70.888934 
L 624.210641 70.81859 
L 625.838997 70.333777 
L 627.467352 70.24213 
L 628.010137 69.912385 
L 629.638493 69.795359 
L 630.181278 69.569518 
L 632.352418 69.42896 
L 632.895204 69.184553 
L 637.237485 68.610044 
L 639.95141 68.390192 
L 640.494195 68.243843 
L 641.036981 68.213261 
L 642.122551 67.791808 
L 643.208121 67.736166 
L 643.750906 67.350101 
L 644.293691 66.528051 
L 644.836476 66.29644 
L 645.922047 66.136856 
L 647.550402 66.016366 
L 649.178758 65.93495 
L 650.264328 65.781046 
L 651.349898 65.702194 
L 652.435468 65.494802 
L 654.063824 65.06894 
L 656.234964 64.700316 
L 657.320535 64.499259 
L 660.03446 64.196793 
L 661.12003 64.154996 
L 666.547882 63.300972 
L 667.090667 62.906485 
L 667.633452 62.725714 
L 668.176237 62.394202 
L 669.261807 62.293242 
L 669.804593 62.018407 
L 670.347378 61.889474 
L 670.890163 61.876886 
L 671.975733 61.609024 
L 672.518518 61.531373 
L 673.061303 61.189065 
L 674.689659 60.922536 
L 675.775229 60.672157 
L 676.318014 60.444952 
L 676.860799 59.830385 
L 677.403584 59.451519 
L 677.94637 59.395636 
L 678.489155 58.99527 
L 679.574725 58.45306 
L 680.660295 57.409839 
L 681.20308 57.385 
L 681.745866 56.974299 
L 682.288651 56.911929 
L 682.831436 55.868553 
L 683.374221 55.862883 
L 684.459791 55.622256 
L 685.002576 54.733046 
L 685.545361 54.473721 
L 686.088147 54.373522 
L 686.630932 54.052419 
L 687.173717 53.528445 
L 687.716502 53.377124 
L 688.259287 52.809089 
L 688.802072 51.816508 
L 689.344857 51.069656 
L 689.887643 48.783144 
L 690.973213 47.56227 
L 691.515998 47.511256 
L 692.058783 47.180722 
L 693.687138 46.76297 
L 695.315494 45.384493 
L 695.858279 44.356594 
L 696.401064 43.982614 
L 697.486634 43.890637 
L 698.02942 42.353727 
L 698.572205 42.304912 
L 699.11499 42.090585 
L 699.657775 41.68354 
L 700.20056 38.50907 
L 700.743345 38.312816 
L 701.28613 37.337737 
L 702.371701 36.210577 
L 702.914486 34.601245 
L 703.457271 33.563809 
L 703.457271 33.563809 
" clip-path="url(#pe6b923f817)" style="fill: none; stroke: #1f77b4; stroke-width: 3; stroke-linecap: square"/>
   </g>
   <g id="line2d_80">
    <path d="M 432.607489 207.832432 
L 433.693059 186.181943 
L 434.235844 181.955401 
L 434.77863 181.443919 
L 435.321415 181.291853 
L 435.8642 180.076966 
L 436.406985 179.990077 
L 436.94977 179.751233 
L 438.03534 179.624208 
L 438.578126 179.574383 
L 439.120911 179.350406 
L 439.663696 179.327969 
L 440.206481 179.090461 
L 440.749266 179.007929 
L 441.292051 176.684075 
L 441.834836 175.921505 
L 442.377622 174.072371 
L 442.920407 173.794942 
L 443.463192 171.058107 
L 444.548762 168.865362 
L 445.091547 166.479085 
L 445.634332 165.93497 
L 446.177117 162.386237 
L 446.719903 162.155444 
L 447.262688 159.921123 
L 447.805473 158.345912 
L 448.348258 158.074744 
L 448.891043 156.225109 
L 449.433828 155.488608 
L 449.976613 155.179264 
L 450.519399 153.953556 
L 451.062184 149.359361 
L 451.604969 148.402518 
L 452.147754 145.723366 
L 452.690539 133.138178 
L 453.233324 129.13891 
L 453.776109 128.920328 
L 454.318894 128.408416 
L 454.86168 127.50535 
L 455.404465 124.81099 
L 455.94725 124.386577 
L 456.490035 124.377994 
L 457.03282 124.111509 
L 457.575605 123.376902 
L 458.11839 123.186343 
L 458.661176 122.666236 
L 459.203961 120.983381 
L 459.746746 120.963529 
L 460.289531 120.596248 
L 461.375101 120.281901 
L 461.917886 118.142486 
L 463.003457 118.073419 
L 463.546242 117.418104 
L 464.089027 117.287918 
L 464.631812 117.287121 
L 465.174597 116.537556 
L 465.717382 116.050925 
L 466.802953 115.94764 
L 467.345738 115.29359 
L 469.516878 114.901166 
L 471.145234 114.657304 
L 471.688019 114.502393 
L 474.401944 114.303427 
L 476.573085 113.785318 
L 477.658655 113.759167 
L 479.287011 113.155308 
L 484.714862 112.625058 
L 485.257647 112.375409 
L 485.800432 112.337544 
L 486.343217 112.118056 
L 487.971573 111.984733 
L 488.514358 111.955281 
L 489.057143 111.802785 
L 490.142713 111.697251 
L 491.771069 111.418925 
L 492.313854 111.060556 
L 494.484994 110.404777 
L 496.656135 110.284062 
L 498.28449 110.008398 
L 498.827275 110.006258 
L 499.370061 109.62737 
L 500.455631 109.568742 
L 502.626771 109.148538 
L 507.511838 108.794618 
L 508.054623 108.373617 
L 509.140193 108.240727 
L 510.225763 108.098987 
L 511.311334 108.051047 
L 511.854119 107.863593 
L 516.739185 107.378617 
L 518.36754 106.976009 
L 519.995896 106.933435 
L 521.624251 106.575148 
L 522.167036 106.017911 
L 523.252606 105.943293 
L 523.795392 105.523223 
L 524.880962 105.408556 
L 527.052102 105.12441 
L 527.594888 104.641496 
L 529.223243 104.495112 
L 530.308813 104.200306 
L 530.851598 104.155655 
L 531.394383 103.826079 
L 531.937169 103.771928 
L 533.022739 103.349558 
L 533.565524 103.036488 
L 534.108309 102.998831 
L 534.651094 102.528286 
L 535.193879 102.347763 
L 536.27945 102.136847 
L 537.36502 101.873695 
L 538.45059 101.777911 
L 538.993375 101.690723 
L 539.53616 101.200037 
L 541.164516 100.84959 
L 541.707301 100.847898 
L 542.250086 100.583935 
L 544.421227 100.023138 
L 544.964012 99.389959 
L 545.506797 99.35583 
L 546.049582 98.823319 
L 546.592367 98.543951 
L 547.677937 98.439288 
L 549.306293 98.33921 
L 549.849078 98.049157 
L 552.563004 97.446086 
L 554.734144 97.224583 
L 556.905285 97.05342 
L 559.61921 96.484841 
L 562.875921 96.013618 
L 563.418706 95.762345 
L 565.589847 95.553658 
L 567.218202 94.880184 
L 568.846558 94.697447 
L 570.474913 94.351499 
L 571.560483 94.222424 
L 573.731624 93.941529 
L 574.817194 93.902684 
L 575.359979 93.671781 
L 578.073905 93.24285 
L 582.416186 92.977791 
L 583.501756 92.851693 
L 585.672897 92.653346 
L 586.215682 92.448064 
L 587.301252 92.357657 
L 587.844037 92.06793 
L 591.643533 91.715555 
L 592.186318 91.703602 
L 593.814674 91.136961 
L 596.5286 90.946106 
L 597.61417 90.849114 
L 600.328095 90.719125 
L 600.870881 90.429869 
L 602.499236 90.201144 
L 603.584806 90.066702 
L 606.841517 89.634495 
L 607.384302 89.352812 
L 611.726583 88.998491 
L 613.354939 88.834621 
L 614.983294 88.595943 
L 615.526079 88.380746 
L 617.154435 88.192714 
L 617.69722 87.999983 
L 618.78279 87.300628 
L 620.411145 87.142592 
L 621.496716 86.706343 
L 623.125071 86.495277 
L 624.753426 86.157621 
L 625.838997 86.008835 
L 628.552922 85.458129 
L 629.095708 85.441035 
L 629.638493 85.096443 
L 632.895204 84.007682 
L 633.437989 83.968414 
L 633.980774 83.741687 
L 637.78027 83.316744 
L 638.323055 83.117654 
L 641.036981 82.68967 
L 642.665336 82.440936 
L 643.750906 82.417798 
L 644.293691 82.27156 
L 647.550402 82.048078 
L 650.264328 81.528437 
L 650.807113 81.219863 
L 651.892683 81.050905 
L 653.521039 80.886237 
L 656.234964 80.627983 
L 657.86332 80.580115 
L 662.748386 79.748888 
L 667.090667 79.073806 
L 668.176237 78.927813 
L 668.719022 78.790289 
L 669.261807 77.355728 
L 669.804593 77.231311 
L 670.347378 76.56186 
L 671.432948 75.935835 
L 672.518518 75.812548 
L 673.604089 75.400513 
L 674.689659 75.069726 
L 675.232444 74.466395 
L 675.775229 74.22833 
L 676.318014 74.165241 
L 676.860799 73.457501 
L 677.94637 73.433491 
L 678.489155 73.157273 
L 679.03194 73.126878 
L 680.11751 72.673538 
L 680.660295 72.672248 
L 682.831436 72.171303 
L 683.374221 71.882897 
L 683.917006 71.025006 
L 685.002576 70.700233 
L 685.545361 69.847773 
L 686.088147 69.475418 
L 686.630932 68.212007 
L 687.173717 68.060779 
L 687.716502 67.461113 
L 688.259287 67.431043 
L 688.802072 65.536368 
L 689.344857 64.629512 
L 689.887643 64.619299 
L 690.430428 61.938939 
L 690.973213 58.231285 
L 691.515998 58.095663 
L 692.058783 58.093114 
L 692.601568 57.949486 
L 693.144353 56.801941 
L 694.229924 55.964537 
L 695.315494 55.85578 
L 695.858279 55.718326 
L 696.401064 55.168332 
L 696.943849 54.288422 
L 697.486634 52.49528 
L 698.02942 52.243792 
L 698.572205 50.227164 
L 699.11499 49.987664 
L 700.20056 48.713788 
L 700.743345 48.228288 
L 701.28613 47.194925 
L 701.828916 45.543067 
L 702.371701 41.982539 
L 703.457271 38.428897 
L 703.457271 38.428897 
" clip-path="url(#pe6b923f817)" style="fill: none; stroke: #ff7f0e; stroke-width: 3; stroke-linecap: square"/>
   </g>
   <g id="patch_9">
    <path d="M 419.065 243.02976 
L 419.065 23.58924 
" style="fill: none; stroke: #000000; stroke-width: 0.8; stroke-linejoin: miter; stroke-linecap: square"/>
   </g>
   <g id="patch_10">
    <path d="M 716.99976 243.02976 
L 716.99976 23.58924 
" style="fill: none; stroke: #000000; stroke-width: 0.8; stroke-linejoin: miter; stroke-linecap: square"/>
   </g>
   <g id="patch_11">
    <path d="M 419.065 243.02976 
L 716.99976 243.02976 
" style="fill: none; stroke: #000000; stroke-width: 0.8; stroke-linejoin: miter; stroke-linecap: square"/>
   </g>
   <g id="patch_12">
    <path d="M 419.065 23.58924 
L 716.99976 23.58924 
" style="fill: none; stroke: #000000; stroke-width: 0.8; stroke-linejoin: miter; stroke-linecap: square"/>
   </g>
   <g id="text_29">
    <!-- Query Latency CDF (log scale) -->
    <g transform="translate(422.22488 17.58924) scale(0.192 -0.192)">
     <defs>
      <path id="DejaVuSans-6c" d="M 603 4863 
L 1178 4863 
L 1178 0 
L 603 0 
L 603 4863 
z
" transform="scale(0.015625)"/>
     </defs>
     <use xlink:href="#DejaVuSans-51"/>
     <use xlink:href="#DejaVuSans-75" x="78.710938"/>
     <use xlink:href="#DejaVuSans-65" x="142.089844"/>
     <use xlink:href="#DejaVuSans-72" x="203.613281"/>
     <use xlink:href="#DejaVuSans-79" x="244.726562"/>
     <use xlink:href="#DejaVuSans-20" x="303.90625"/>
     <use xlink:href="#DejaVuSans-4c" x="335.693359"/>
     <use xlink:href="#DejaVuSans-61" x="391.40625"/>
     <use xlink:href="#DejaVuSans-74" x="452.685547"/>
     <use xlink:href="#DejaVuSans-65" x="491.894531"/>
     <use xlink:href="#DejaVuSans-6e" x="553.417969"/>
     <use xlink:href="#DejaVuSans-63" x="616.796875"/>
     <use xlink:href="#DejaVuSans-79" x="671.777344"/>
     <use xlink:href="#DejaVuSans-20" x="730.957031"/>
     <use xlink:href="#DejaVuSans-43" x="762.744141"/>
     <use xlink:href="#DejaVuSans-44" x="832.568359"/>
     <use xlink:href="#DejaVuSans-46" x="909.570312"/>
     <use xlink:href="#DejaVuSans-20" x="967.089844"/>
     <use xlink:href="#DejaVuSans-28" x="998.876953"/>
     <use xlink:href="#DejaVuSans-6c" x="1037.890625"/>
     <use xlink:href="#DejaVuSans-6f" x="1065.673828"/>
     <use xlink:href="#DejaVuSans-67" x="1126.855469"/>
     <use xlink:href="#DejaVuSans-20" x="1190.332031"/>
     <use xlink:href="#DejaVuSans-73" x="1222.119141"/>
     <use xlink:href="#DejaVuSans-63" x="1274.21875"/>
     <use xlink:href="#DejaVuSans-61" x="1329.199219"/>
     <use xlink:href="#DejaVuSans-6c" x="1390.478516"/>
     <use xlink:href="#DejaVuSans-65" x="1418.261719"/>
     <use xlink:href="#DejaVuSans-29" x="1479.785156"/>
    </g>
   </g>
   <g id="legend_2">
    <g id="patch_13">
     <path d="M 430.265 83.35924 
L 572.8175 83.35924 
Q 576.0175 83.35924 576.0175 80.15924 
L 576.0175 34.78924 
Q 576.0175 31.58924 572.8175 31.58924 
L 430.265 31.58924 
Q 427.065 31.58924 427.065 34.78924 
L 427.065 80.15924 
Q 427.065 83.35924 430.265 83.35924 
z
" style="fill: #ffffff; opacity: 0.8; stroke: #cccccc; stroke-linejoin: miter"/>
    </g>
    <g id="line2d_81">
     <path d="M 433.465 44.54674 
L 449.465 44.54674 
L 465.465 44.54674 
" style="fill: none; stroke: #1f77b4; stroke-width: 3; stroke-linecap: square"/>
    </g>
    <g id="text_30">
     <!-- PostgreSQL -->
     <g transform="translate(478.265 50.14674) scale(0.16 -0.16)">
      <use xlink:href="#DejaVuSans-50"/>
      <use xlink:href="#DejaVuSans-6f" x="56.677734"/>
      <use xlink:href="#DejaVuSans-73" x="117.859375"/>
      <use xlink:href="#DejaVuSans-74" x="169.958984"/>
      <use xlink:href="#DejaVuSans-67" x="209.167969"/>
      <use xlink:href="#DejaVuSans-72" x="272.644531"/>
      <use xlink:href="#DejaVuSans-65" x="311.507812"/>
      <use xlink:href="#DejaVuSans-53" x="373.03125"/>
      <use xlink:href="#DejaVuSans-51" x="436.507812"/>
      <use xlink:href="#DejaVuSans-4c" x="515.21875"/>
     </g>
    </g>
    <g id="line2d_82">
     <path d="M 433.465 68.03174 
L 449.465 68.03174 
L 465.465 68.03174 
" style="fill: none; stroke: #ff7f0e; stroke-width: 3; stroke-linecap: square"/>
    </g>
    <g id="text_31">
     <!-- Bao -->
     <g transform="translate(478.265 73.63174) scale(0.16 -0.16)">
      <use xlink:href="#DejaVuSans-42"/>
      <use xlink:href="#DejaVuSans-61" x="68.603516"/>
      <use xlink:href="#DejaVuSans-6f" x="129.882812"/>
     </g>
    </g>
   </g>
  </g>
 </g>
 <defs>
  <clipPath id="pd8d1113f83">
   <rect x="49.84524" y="23.58924" width="297.93476" height="219.44052"/>
  </clipPath>
  <clipPath id="pe6b923f817">
   <rect x="419.065" y="23.58924" width="297.93476" height="219.44052"/>
  </clipPath>
 </defs>
</svg>
