<?xml version="1.0" encoding="utf-8" standalone="no"?>
<!DOCTYPE svg PUBLIC "-//W3C//DTD SVG 1.1//EN"
  "http://www.w3.org/Graphics/SVG/1.1/DTD/svg11.dtd">
<svg xmlns:xlink="http://www.w3.org/1999/xlink" width="720pt" height="288pt" viewBox="0 0 720 288" xmlns="http://www.w3.org/2000/svg" version="1.1">
 <metadata>
  <rdf:RDF xmlns:dc="http://purl.org/dc/elements/1.1/" xmlns:cc="http://creativecommons.org/ns#" xmlns:rdf="http://www.w3.org/1999/02/22-rdf-syntax-ns#">
   <cc:Work>
    <dc:type rdf:resource="http://purl.org/dc/dcmitype/StillImage"/>
    <dc:date>2024-11-26T03:19:37.668012</dc:date>
    <dc:format>image/svg+xml</dc:format>
    <dc:creator>
     <cc:Agent>
      <dc:title>Matplotlib v3.7.2, https://matplotlib.org/</dc:title>
     </cc:Agent>
    </dc:creator>
   </cc:Work>
  </rdf:RDF>
 </metadata>
 <defs>
  <style type="text/css">*{stroke-linejoin: round; stroke-linecap: butt}</style>
 </defs>
 <g id="figure_1">
  <g id="patch_1">
   <path d="M 0 288 
L 720 288 
L 720 0 
L 0 0 
z
" style="fill: #ffffff"/>
  </g>
  <g id="axes_1">
   <g id="patch_2">
    <path d="M 60.02524 243.02976 
L 348.083008 243.02976 
L 348.083008 23.58924 
L 60.02524 23.58924 
z
" style="fill: #ffffff"/>
   </g>
   <g id="matplotlib.axis_1">
    <g id="xtick_1">
     <g id="line2d_1">
      <path d="M 73.118775 243.02976 
L 73.118775 23.58924 
" clip-path="url(#p0129c71966)" style="fill: none; stroke-dasharray: 3.7,1.6; stroke-dashoffset: 0; stroke: #b0b0b0"/>
     </g>
     <g id="line2d_2">
      <defs>
       <path id="mb7b701cb10" d="M 0 0 
L 0 3.5 
" style="stroke: #000000; stroke-width: 0.8"/>
      </defs>
      <g>
       <use xlink:href="#mb7b701cb10" x="73.118775" y="243.02976" style="stroke: #000000; stroke-width: 0.8"/>
      </g>
     </g>
     <g id="text_1">
      <!-- 0.0 -->
      <g transform="translate(60.396275 262.18726) scale(0.16 -0.16)">
       <defs>
        <path id="DejaVuSans-30" d="M 2034 4250 
Q 1547 4250 1301 3770 
Q 1056 3291 1056 2328 
Q 1056 1369 1301 889 
Q 1547 409 2034 409 
Q 2525 409 2770 889 
Q 3016 1369 3016 2328 
Q 3016 3291 2770 3770 
Q 2525 4250 2034 4250 
z
M 2034 4750 
Q 2819 4750 3233 4129 
Q 3647 3509 3647 2328 
Q 3647 1150 3233 529 
Q 2819 -91 2034 -91 
Q 1250 -91 836 529 
Q 422 1150 422 2328 
Q 422 3509 836 4129 
Q 1250 4750 2034 4750 
z
" transform="scale(0.015625)"/>
        <path id="DejaVuSans-2e" d="M 684 794 
L 1344 794 
L 1344 0 
L 684 0 
L 684 794 
z
" transform="scale(0.015625)"/>
       </defs>
       <use xlink:href="#DejaVuSans-30"/>
       <use xlink:href="#DejaVuSans-2e" x="63.623047"/>
       <use xlink:href="#DejaVuSans-30" x="95.410156"/>
      </g>
     </g>
    </g>
    <g id="xtick_2">
     <g id="line2d_3">
      <path d="M 125.492915 243.02976 
L 125.492915 23.58924 
" clip-path="url(#p0129c71966)" style="fill: none; stroke-dasharray: 3.7,1.6; stroke-dashoffset: 0; stroke: #b0b0b0"/>
     </g>
     <g id="line2d_4">
      <g>
       <use xlink:href="#mb7b701cb10" x="125.492915" y="243.02976" style="stroke: #000000; stroke-width: 0.8"/>
      </g>
     </g>
     <g id="text_2">
      <!-- 0.2 -->
      <g transform="translate(112.770415 262.18726) scale(0.16 -0.16)">
       <defs>
        <path id="DejaVuSans-32" d="M 1228 531 
L 3431 531 
L 3431 0 
L 469 0 
L 469 531 
Q 828 903 1448 1529 
Q 2069 2156 2228 2338 
Q 2531 2678 2651 2914 
Q 2772 3150 2772 3378 
Q 2772 3750 2511 3984 
Q 2250 4219 1831 4219 
Q 1534 4219 1204 4116 
Q 875 4013 500 3803 
L 500 4441 
Q 881 4594 1212 4672 
Q 1544 4750 1819 4750 
Q 2544 4750 2975 4387 
Q 3406 4025 3406 3419 
Q 3406 3131 3298 2873 
Q 3191 2616 2906 2266 
Q 2828 2175 2409 1742 
Q 1991 1309 1228 531 
z
" transform="scale(0.015625)"/>
       </defs>
       <use xlink:href="#DejaVuSans-30"/>
       <use xlink:href="#DejaVuSans-2e" x="63.623047"/>
       <use xlink:href="#DejaVuSans-32" x="95.410156"/>
      </g>
     </g>
    </g>
    <g id="xtick_3">
     <g id="line2d_5">
      <path d="M 177.867054 243.02976 
L 177.867054 23.58924 
" clip-path="url(#p0129c71966)" style="fill: none; stroke-dasharray: 3.7,1.6; stroke-dashoffset: 0; stroke: #b0b0b0"/>
     </g>
     <g id="line2d_6">
      <g>
       <use xlink:href="#mb7b701cb10" x="177.867054" y="243.02976" style="stroke: #000000; stroke-width: 0.8"/>
      </g>
     </g>
     <g id="text_3">
      <!-- 0.4 -->
      <g transform="translate(165.144554 262.18726) scale(0.16 -0.16)">
       <defs>
        <path id="DejaVuSans-34" d="M 2419 4116 
L 825 1625 
L 2419 1625 
L 2419 4116 
z
M 2253 4666 
L 3047 4666 
L 3047 1625 
L 3713 1625 
L 3713 1100 
L 3047 1100 
L 3047 0 
L 2419 0 
L 2419 1100 
L 313 1100 
L 313 1709 
L 2253 4666 
z
" transform="scale(0.015625)"/>
       </defs>
       <use xlink:href="#DejaVuSans-30"/>
       <use xlink:href="#DejaVuSans-2e" x="63.623047"/>
       <use xlink:href="#DejaVuSans-34" x="95.410156"/>
      </g>
     </g>
    </g>
    <g id="xtick_4">
     <g id="line2d_7">
      <path d="M 230.241194 243.02976 
L 230.241194 23.58924 
" clip-path="url(#p0129c71966)" style="fill: none; stroke-dasharray: 3.7,1.6; stroke-dashoffset: 0; stroke: #b0b0b0"/>
     </g>
     <g id="line2d_8">
      <g>
       <use xlink:href="#mb7b701cb10" x="230.241194" y="243.02976" style="stroke: #000000; stroke-width: 0.8"/>
      </g>
     </g>
     <g id="text_4">
      <!-- 0.6 -->
      <g transform="translate(217.518694 262.18726) scale(0.16 -0.16)">
       <defs>
        <path id="DejaVuSans-36" d="M 2113 2584 
Q 1688 2584 1439 2293 
Q 1191 2003 1191 1497 
Q 1191 994 1439 701 
Q 1688 409 2113 409 
Q 2538 409 2786 701 
Q 3034 994 3034 1497 
Q 3034 2003 2786 2293 
Q 2538 2584 2113 2584 
z
M 3366 4563 
L 3366 3988 
Q 3128 4100 2886 4159 
Q 2644 4219 2406 4219 
Q 1781 4219 1451 3797 
Q 1122 3375 1075 2522 
Q 1259 2794 1537 2939 
Q 1816 3084 2150 3084 
Q 2853 3084 3261 2657 
Q 3669 2231 3669 1497 
Q 3669 778 3244 343 
Q 2819 -91 2113 -91 
Q 1303 -91 875 529 
Q 447 1150 447 2328 
Q 447 3434 972 4092 
Q 1497 4750 2381 4750 
Q 2619 4750 2861 4703 
Q 3103 4656 3366 4563 
z
" transform="scale(0.015625)"/>
       </defs>
       <use xlink:href="#DejaVuSans-30"/>
       <use xlink:href="#DejaVuSans-2e" x="63.623047"/>
       <use xlink:href="#DejaVuSans-36" x="95.410156"/>
      </g>
     </g>
    </g>
    <g id="xtick_5">
     <g id="line2d_9">
      <path d="M 282.615334 243.02976 
L 282.615334 23.58924 
" clip-path="url(#p0129c71966)" style="fill: none; stroke-dasharray: 3.7,1.6; stroke-dashoffset: 0; stroke: #b0b0b0"/>
     </g>
     <g id="line2d_10">
      <g>
       <use xlink:href="#mb7b701cb10" x="282.615334" y="243.02976" style="stroke: #000000; stroke-width: 0.8"/>
      </g>
     </g>
     <g id="text_5">
      <!-- 0.8 -->
      <g transform="translate(269.892834 262.18726) scale(0.16 -0.16)">
       <defs>
        <path id="DejaVuSans-38" d="M 2034 2216 
Q 1584 2216 1326 1975 
Q 1069 1734 1069 1313 
Q 1069 891 1326 650 
Q 1584 409 2034 409 
Q 2484 409 2743 651 
Q 3003 894 3003 1313 
Q 3003 1734 2745 1975 
Q 2488 2216 2034 2216 
z
M 1403 2484 
Q 997 2584 770 2862 
Q 544 3141 544 3541 
Q 544 4100 942 4425 
Q 1341 4750 2034 4750 
Q 2731 4750 3128 4425 
Q 3525 4100 3525 3541 
Q 3525 3141 3298 2862 
Q 3072 2584 2669 2484 
Q 3125 2378 3379 2068 
Q 3634 1759 3634 1313 
Q 3634 634 3220 271 
Q 2806 -91 2034 -91 
Q 1263 -91 848 271 
Q 434 634 434 1313 
Q 434 1759 690 2068 
Q 947 2378 1403 2484 
z
M 1172 3481 
Q 1172 3119 1398 2916 
Q 1625 2713 2034 2713 
Q 2441 2713 2670 2916 
Q 2900 3119 2900 3481 
Q 2900 3844 2670 4047 
Q 2441 4250 2034 4250 
Q 1625 4250 1398 4047 
Q 1172 3844 1172 3481 
z
" transform="scale(0.015625)"/>
       </defs>
       <use xlink:href="#DejaVuSans-30"/>
       <use xlink:href="#DejaVuSans-2e" x="63.623047"/>
       <use xlink:href="#DejaVuSans-38" x="95.410156"/>
      </g>
     </g>
    </g>
    <g id="xtick_6">
     <g id="line2d_11">
      <path d="M 334.989474 243.02976 
L 334.989474 23.58924 
" clip-path="url(#p0129c71966)" style="fill: none; stroke-dasharray: 3.7,1.6; stroke-dashoffset: 0; stroke: #b0b0b0"/>
     </g>
     <g id="line2d_12">
      <g>
       <use xlink:href="#mb7b701cb10" x="334.989474" y="243.02976" style="stroke: #000000; stroke-width: 0.8"/>
      </g>
     </g>
     <g id="text_6">
      <!-- 1.0 -->
      <g transform="translate(322.266974 262.18726) scale(0.16 -0.16)">
       <defs>
        <path id="DejaVuSans-31" d="M 794 531 
L 1825 531 
L 1825 4091 
L 703 3866 
L 703 4441 
L 1819 4666 
L 2450 4666 
L 2450 531 
L 3481 531 
L 3481 0 
L 794 0 
L 794 531 
z
" transform="scale(0.015625)"/>
       </defs>
       <use xlink:href="#DejaVuSans-31"/>
       <use xlink:href="#DejaVuSans-2e" x="63.623047"/>
       <use xlink:href="#DejaVuSans-30" x="95.410156"/>
      </g>
     </g>
    </g>
    <g id="text_7">
     <!-- Proportion of Queries -->
     <g transform="translate(119.092874 281.67226) scale(0.16 -0.16)">
      <defs>
       <path id="DejaVuSans-50" d="M 1259 4147 
L 1259 2394 
L 2053 2394 
Q 2494 2394 2734 2622 
Q 2975 2850 2975 3272 
Q 2975 3691 2734 3919 
Q 2494 4147 2053 4147 
L 1259 4147 
z
M 628 4666 
L 2053 4666 
Q 2838 4666 3239 4311 
Q 3641 3956 3641 3272 
Q 3641 2581 3239 2228 
Q 2838 1875 2053 1875 
L 1259 1875 
L 1259 0 
L 628 0 
L 628 4666 
z
" transform="scale(0.015625)"/>
       <path id="DejaVuSans-72" d="M 2631 2963 
Q 2534 3019 2420 3045 
Q 2306 3072 2169 3072 
Q 1681 3072 1420 2755 
Q 1159 2438 1159 1844 
L 1159 0 
L 581 0 
L 581 3500 
L 1159 3500 
L 1159 2956 
Q 1341 3275 1631 3429 
Q 1922 3584 2338 3584 
Q 2397 3584 2469 3576 
Q 2541 3569 2628 3553 
L 2631 2963 
z
" transform="scale(0.015625)"/>
       <path id="DejaVuSans-6f" d="M 1959 3097 
Q 1497 3097 1228 2736 
Q 959 2375 959 1747 
Q 959 1119 1226 758 
Q 1494 397 1959 397 
Q 2419 397 2687 759 
Q 2956 1122 2956 1747 
Q 2956 2369 2687 2733 
Q 2419 3097 1959 3097 
z
M 1959 3584 
Q 2709 3584 3137 3096 
Q 3566 2609 3566 1747 
Q 3566 888 3137 398 
Q 2709 -91 1959 -91 
Q 1206 -91 779 398 
Q 353 888 353 1747 
Q 353 2609 779 3096 
Q 1206 3584 1959 3584 
z
" transform="scale(0.015625)"/>
       <path id="DejaVuSans-70" d="M 1159 525 
L 1159 -1331 
L 581 -1331 
L 581 3500 
L 1159 3500 
L 1159 2969 
Q 1341 3281 1617 3432 
Q 1894 3584 2278 3584 
Q 2916 3584 3314 3078 
Q 3713 2572 3713 1747 
Q 3713 922 3314 415 
Q 2916 -91 2278 -91 
Q 1894 -91 1617 61 
Q 1341 213 1159 525 
z
M 3116 1747 
Q 3116 2381 2855 2742 
Q 2594 3103 2138 3103 
Q 1681 3103 1420 2742 
Q 1159 2381 1159 1747 
Q 1159 1113 1420 752 
Q 1681 391 2138 391 
Q 2594 391 2855 752 
Q 3116 1113 3116 1747 
z
" transform="scale(0.015625)"/>
       <path id="DejaVuSans-74" d="M 1172 4494 
L 1172 3500 
L 2356 3500 
L 2356 3053 
L 1172 3053 
L 1172 1153 
Q 1172 725 1289 603 
Q 1406 481 1766 481 
L 2356 481 
L 2356 0 
L 1766 0 
Q 1100 0 847 248 
Q 594 497 594 1153 
L 594 3053 
L 172 3053 
L 172 3500 
L 594 3500 
L 594 4494 
L 1172 4494 
z
" transform="scale(0.015625)"/>
       <path id="DejaVuSans-69" d="M 603 3500 
L 1178 3500 
L 1178 0 
L 603 0 
L 603 3500 
z
M 603 4863 
L 1178 4863 
L 1178 4134 
L 603 4134 
L 603 4863 
z
" transform="scale(0.015625)"/>
       <path id="DejaVuSans-6e" d="M 3513 2113 
L 3513 0 
L 2938 0 
L 2938 2094 
Q 2938 2591 2744 2837 
Q 2550 3084 2163 3084 
Q 1697 3084 1428 2787 
Q 1159 2491 1159 1978 
L 1159 0 
L 581 0 
L 581 3500 
L 1159 3500 
L 1159 2956 
Q 1366 3272 1645 3428 
Q 1925 3584 2291 3584 
Q 2894 3584 3203 3211 
Q 3513 2838 3513 2113 
z
" transform="scale(0.015625)"/>
       <path id="DejaVuSans-20" transform="scale(0.015625)"/>
       <path id="DejaVuSans-66" d="M 2375 4863 
L 2375 4384 
L 1825 4384 
Q 1516 4384 1395 4259 
Q 1275 4134 1275 3809 
L 1275 3500 
L 2222 3500 
L 2222 3053 
L 1275 3053 
L 1275 0 
L 697 0 
L 697 3053 
L 147 3053 
L 147 3500 
L 697 3500 
L 697 3744 
Q 697 4328 969 4595 
Q 1241 4863 1831 4863 
L 2375 4863 
z
" transform="scale(0.015625)"/>
       <path id="DejaVuSans-51" d="M 2522 4238 
Q 1834 4238 1429 3725 
Q 1025 3213 1025 2328 
Q 1025 1447 1429 934 
Q 1834 422 2522 422 
Q 3209 422 3611 934 
Q 4013 1447 4013 2328 
Q 4013 3213 3611 3725 
Q 3209 4238 2522 4238 
z
M 3406 84 
L 4238 -825 
L 3475 -825 
L 2784 -78 
Q 2681 -84 2626 -87 
Q 2572 -91 2522 -91 
Q 1538 -91 948 567 
Q 359 1225 359 2328 
Q 359 3434 948 4092 
Q 1538 4750 2522 4750 
Q 3503 4750 4090 4092 
Q 4678 3434 4678 2328 
Q 4678 1516 4351 937 
Q 4025 359 3406 84 
z
" transform="scale(0.015625)"/>
       <path id="DejaVuSans-75" d="M 544 1381 
L 544 3500 
L 1119 3500 
L 1119 1403 
Q 1119 906 1312 657 
Q 1506 409 1894 409 
Q 2359 409 2629 706 
Q 2900 1003 2900 1516 
L 2900 3500 
L 3475 3500 
L 3475 0 
L 2900 0 
L 2900 538 
Q 2691 219 2414 64 
Q 2138 -91 1772 -91 
Q 1169 -91 856 284 
Q 544 659 544 1381 
z
M 1991 3584 
L 1991 3584 
z
" transform="scale(0.015625)"/>
       <path id="DejaVuSans-65" d="M 3597 1894 
L 3597 1613 
L 953 1613 
Q 991 1019 1311 708 
Q 1631 397 2203 397 
Q 2534 397 2845 478 
Q 3156 559 3463 722 
L 3463 178 
Q 3153 47 2828 -22 
Q 2503 -91 2169 -91 
Q 1331 -91 842 396 
Q 353 884 353 1716 
Q 353 2575 817 3079 
Q 1281 3584 2069 3584 
Q 2775 3584 3186 3129 
Q 3597 2675 3597 1894 
z
M 3022 2063 
Q 3016 2534 2758 2815 
Q 2500 3097 2075 3097 
Q 1594 3097 1305 2825 
Q 1016 2553 972 2059 
L 3022 2063 
z
" transform="scale(0.015625)"/>
       <path id="DejaVuSans-73" d="M 2834 3397 
L 2834 2853 
Q 2591 2978 2328 3040 
Q 2066 3103 1784 3103 
Q 1356 3103 1142 2972 
Q 928 2841 928 2578 
Q 928 2378 1081 2264 
Q 1234 2150 1697 2047 
L 1894 2003 
Q 2506 1872 2764 1633 
Q 3022 1394 3022 966 
Q 3022 478 2636 193 
Q 2250 -91 1575 -91 
Q 1294 -91 989 -36 
Q 684 19 347 128 
L 347 722 
Q 666 556 975 473 
Q 1284 391 1588 391 
Q 1994 391 2212 530 
Q 2431 669 2431 922 
Q 2431 1156 2273 1281 
Q 2116 1406 1581 1522 
L 1381 1569 
Q 847 1681 609 1914 
Q 372 2147 372 2553 
Q 372 3047 722 3315 
Q 1072 3584 1716 3584 
Q 2034 3584 2315 3537 
Q 2597 3491 2834 3397 
z
" transform="scale(0.015625)"/>
      </defs>
      <use xlink:href="#DejaVuSans-50"/>
      <use xlink:href="#DejaVuSans-72" x="58.552734"/>
      <use xlink:href="#DejaVuSans-6f" x="97.416016"/>
      <use xlink:href="#DejaVuSans-70" x="158.597656"/>
      <use xlink:href="#DejaVuSans-6f" x="222.074219"/>
      <use xlink:href="#DejaVuSans-72" x="283.255859"/>
      <use xlink:href="#DejaVuSans-74" x="324.369141"/>
      <use xlink:href="#DejaVuSans-69" x="363.578125"/>
      <use xlink:href="#DejaVuSans-6f" x="391.361328"/>
      <use xlink:href="#DejaVuSans-6e" x="452.542969"/>
      <use xlink:href="#DejaVuSans-20" x="515.921875"/>
      <use xlink:href="#DejaVuSans-6f" x="547.708984"/>
      <use xlink:href="#DejaVuSans-66" x="608.890625"/>
      <use xlink:href="#DejaVuSans-20" x="644.095703"/>
      <use xlink:href="#DejaVuSans-51" x="675.882812"/>
      <use xlink:href="#DejaVuSans-75" x="754.59375"/>
      <use xlink:href="#DejaVuSans-65" x="817.972656"/>
      <use xlink:href="#DejaVuSans-72" x="879.496094"/>
      <use xlink:href="#DejaVuSans-69" x="920.609375"/>
      <use xlink:href="#DejaVuSans-65" x="948.392578"/>
      <use xlink:href="#DejaVuSans-73" x="1009.916016"/>
     </g>
    </g>
   </g>
   <g id="matplotlib.axis_2">
    <g id="ytick_1">
     <g id="line2d_13">
      <path d="M 60.02524 233.109964 
L 348.083008 233.109964 
" clip-path="url(#p0129c71966)" style="fill: none; stroke-dasharray: 3.7,1.6; stroke-dashoffset: 0; stroke: #b0b0b0"/>
     </g>
     <g id="line2d_14">
      <defs>
       <path id="m3cd6d28312" d="M 0 0 
L -3.5 0 
" style="stroke: #000000; stroke-width: 0.8"/>
      </defs>
      <g>
       <use xlink:href="#m3cd6d28312" x="60.02524" y="233.109964" style="stroke: #000000; stroke-width: 0.8"/>
      </g>
     </g>
     <g id="text_8">
      <!-- 0 -->
      <g transform="translate(42.84524 239.188714) scale(0.16 -0.16)">
       <use xlink:href="#DejaVuSans-30"/>
      </g>
     </g>
    </g>
    <g id="ytick_2">
     <g id="line2d_15">
      <path d="M 60.02524 182.918726 
L 348.083008 182.918726 
" clip-path="url(#p0129c71966)" style="fill: none; stroke-dasharray: 3.7,1.6; stroke-dashoffset: 0; stroke: #b0b0b0"/>
     </g>
     <g id="line2d_16">
      <g>
       <use xlink:href="#m3cd6d28312" x="60.02524" y="182.918726" style="stroke: #000000; stroke-width: 0.8"/>
      </g>
     </g>
     <g id="text_9">
      <!-- 50 -->
      <g transform="translate(32.66524 188.997476) scale(0.16 -0.16)">
       <defs>
        <path id="DejaVuSans-35" d="M 691 4666 
L 3169 4666 
L 3169 4134 
L 1269 4134 
L 1269 2991 
Q 1406 3038 1543 3061 
Q 1681 3084 1819 3084 
Q 2600 3084 3056 2656 
Q 3513 2228 3513 1497 
Q 3513 744 3044 326 
Q 2575 -91 1722 -91 
Q 1428 -91 1123 -41 
Q 819 9 494 109 
L 494 744 
Q 775 591 1075 516 
Q 1375 441 1709 441 
Q 2250 441 2565 725 
Q 2881 1009 2881 1497 
Q 2881 1984 2565 2268 
Q 2250 2553 1709 2553 
Q 1456 2553 1204 2497 
Q 953 2441 691 2322 
L 691 4666 
z
" transform="scale(0.015625)"/>
       </defs>
       <use xlink:href="#DejaVuSans-35"/>
       <use xlink:href="#DejaVuSans-30" x="63.623047"/>
      </g>
     </g>
    </g>
    <g id="ytick_3">
     <g id="line2d_17">
      <path d="M 60.02524 132.727488 
L 348.083008 132.727488 
" clip-path="url(#p0129c71966)" style="fill: none; stroke-dasharray: 3.7,1.6; stroke-dashoffset: 0; stroke: #b0b0b0"/>
     </g>
     <g id="line2d_18">
      <g>
       <use xlink:href="#m3cd6d28312" x="60.02524" y="132.727488" style="stroke: #000000; stroke-width: 0.8"/>
      </g>
     </g>
     <g id="text_10">
      <!-- 100 -->
      <g transform="translate(22.48524 138.806238) scale(0.16 -0.16)">
       <use xlink:href="#DejaVuSans-31"/>
       <use xlink:href="#DejaVuSans-30" x="63.623047"/>
       <use xlink:href="#DejaVuSans-30" x="127.246094"/>
      </g>
     </g>
    </g>
    <g id="ytick_4">
     <g id="line2d_19">
      <path d="M 60.02524 82.536251 
L 348.083008 82.536251 
" clip-path="url(#p0129c71966)" style="fill: none; stroke-dasharray: 3.7,1.6; stroke-dashoffset: 0; stroke: #b0b0b0"/>
     </g>
     <g id="line2d_20">
      <g>
       <use xlink:href="#m3cd6d28312" x="60.02524" y="82.536251" style="stroke: #000000; stroke-width: 0.8"/>
      </g>
     </g>
     <g id="text_11">
      <!-- 150 -->
      <g transform="translate(22.48524 88.615001) scale(0.16 -0.16)">
       <use xlink:href="#DejaVuSans-31"/>
       <use xlink:href="#DejaVuSans-35" x="63.623047"/>
       <use xlink:href="#DejaVuSans-30" x="127.246094"/>
      </g>
     </g>
    </g>
    <g id="ytick_5">
     <g id="line2d_21">
      <path d="M 60.02524 32.345013 
L 348.083008 32.345013 
" clip-path="url(#p0129c71966)" style="fill: none; stroke-dasharray: 3.7,1.6; stroke-dashoffset: 0; stroke: #b0b0b0"/>
     </g>
     <g id="line2d_22">
      <g>
       <use xlink:href="#m3cd6d28312" x="60.02524" y="32.345013" style="stroke: #000000; stroke-width: 0.8"/>
      </g>
     </g>
     <g id="text_12">
      <!-- 200 -->
      <g transform="translate(22.48524 38.423763) scale(0.16 -0.16)">
       <use xlink:href="#DejaVuSans-32"/>
       <use xlink:href="#DejaVuSans-30" x="63.623047"/>
       <use xlink:href="#DejaVuSans-30" x="127.246094"/>
      </g>
     </g>
    </g>
    <g id="text_13">
     <!-- Max Latency (s) -->
     <g transform="translate(15.15774 196.967) rotate(-90) scale(0.16 -0.16)">
      <defs>
       <path id="DejaVuSans-4d" d="M 628 4666 
L 1569 4666 
L 2759 1491 
L 3956 4666 
L 4897 4666 
L 4897 0 
L 4281 0 
L 4281 4097 
L 3078 897 
L 2444 897 
L 1241 4097 
L 1241 0 
L 628 0 
L 628 4666 
z
" transform="scale(0.015625)"/>
       <path id="DejaVuSans-61" d="M 2194 1759 
Q 1497 1759 1228 1600 
Q 959 1441 959 1056 
Q 959 750 1161 570 
Q 1363 391 1709 391 
Q 2188 391 2477 730 
Q 2766 1069 2766 1631 
L 2766 1759 
L 2194 1759 
z
M 3341 1997 
L 3341 0 
L 2766 0 
L 2766 531 
Q 2569 213 2275 61 
Q 1981 -91 1556 -91 
Q 1019 -91 701 211 
Q 384 513 384 1019 
Q 384 1609 779 1909 
Q 1175 2209 1959 2209 
L 2766 2209 
L 2766 2266 
Q 2766 2663 2505 2880 
Q 2244 3097 1772 3097 
Q 1472 3097 1187 3025 
Q 903 2953 641 2809 
L 641 3341 
Q 956 3463 1253 3523 
Q 1550 3584 1831 3584 
Q 2591 3584 2966 3190 
Q 3341 2797 3341 1997 
z
" transform="scale(0.015625)"/>
       <path id="DejaVuSans-78" d="M 3513 3500 
L 2247 1797 
L 3578 0 
L 2900 0 
L 1881 1375 
L 863 0 
L 184 0 
L 1544 1831 
L 300 3500 
L 978 3500 
L 1906 2253 
L 2834 3500 
L 3513 3500 
z
" transform="scale(0.015625)"/>
       <path id="DejaVuSans-4c" d="M 628 4666 
L 1259 4666 
L 1259 531 
L 3531 531 
L 3531 0 
L 628 0 
L 628 4666 
z
" transform="scale(0.015625)"/>
       <path id="DejaVuSans-63" d="M 3122 3366 
L 3122 2828 
Q 2878 2963 2633 3030 
Q 2388 3097 2138 3097 
Q 1578 3097 1268 2742 
Q 959 2388 959 1747 
Q 959 1106 1268 751 
Q 1578 397 2138 397 
Q 2388 397 2633 464 
Q 2878 531 3122 666 
L 3122 134 
Q 2881 22 2623 -34 
Q 2366 -91 2075 -91 
Q 1284 -91 818 406 
Q 353 903 353 1747 
Q 353 2603 823 3093 
Q 1294 3584 2113 3584 
Q 2378 3584 2631 3529 
Q 2884 3475 3122 3366 
z
" transform="scale(0.015625)"/>
       <path id="DejaVuSans-79" d="M 2059 -325 
Q 1816 -950 1584 -1140 
Q 1353 -1331 966 -1331 
L 506 -1331 
L 506 -850 
L 844 -850 
Q 1081 -850 1212 -737 
Q 1344 -625 1503 -206 
L 1606 56 
L 191 3500 
L 800 3500 
L 1894 763 
L 2988 3500 
L 3597 3500 
L 2059 -325 
z
" transform="scale(0.015625)"/>
       <path id="DejaVuSans-28" d="M 1984 4856 
Q 1566 4138 1362 3434 
Q 1159 2731 1159 2009 
Q 1159 1288 1364 580 
Q 1569 -128 1984 -844 
L 1484 -844 
Q 1016 -109 783 600 
Q 550 1309 550 2009 
Q 550 2706 781 3412 
Q 1013 4119 1484 4856 
L 1984 4856 
z
" transform="scale(0.015625)"/>
       <path id="DejaVuSans-29" d="M 513 4856 
L 1013 4856 
Q 1481 4119 1714 3412 
Q 1947 2706 1947 2009 
Q 1947 1309 1714 600 
Q 1481 -109 1013 -844 
L 513 -844 
Q 928 -128 1133 580 
Q 1338 1288 1338 2009 
Q 1338 2731 1133 3434 
Q 928 4138 513 4856 
z
" transform="scale(0.015625)"/>
      </defs>
      <use xlink:href="#DejaVuSans-4d"/>
      <use xlink:href="#DejaVuSans-61" x="86.279297"/>
      <use xlink:href="#DejaVuSans-78" x="147.558594"/>
      <use xlink:href="#DejaVuSans-20" x="206.738281"/>
      <use xlink:href="#DejaVuSans-4c" x="238.525391"/>
      <use xlink:href="#DejaVuSans-61" x="294.238281"/>
      <use xlink:href="#DejaVuSans-74" x="355.517578"/>
      <use xlink:href="#DejaVuSans-65" x="394.726562"/>
      <use xlink:href="#DejaVuSans-6e" x="456.25"/>
      <use xlink:href="#DejaVuSans-63" x="519.628906"/>
      <use xlink:href="#DejaVuSans-79" x="574.609375"/>
      <use xlink:href="#DejaVuSans-20" x="633.789062"/>
      <use xlink:href="#DejaVuSans-28" x="665.576172"/>
      <use xlink:href="#DejaVuSans-73" x="704.589844"/>
      <use xlink:href="#DejaVuSans-29" x="756.689453"/>
     </g>
    </g>
   </g>
   <g id="line2d_23">
    <path d="M 73.118775 233.055191 
L 92.397599 232.857008 
L 92.933122 232.444251 
L 93.468645 232.433308 
L 94.004168 231.864031 
L 95.075214 231.829951 
L 95.610737 231.45939 
L 97.217305 231.31432 
L 101.501489 231.094267 
L 104.714626 230.929836 
L 113.818515 230.731353 
L 132.561817 229.81201 
L 135.239431 229.665406 
L 137.381523 229.536326 
L 138.988092 229.490371 
L 140.59466 228.948367 
L 141.665706 228.770524 
L 142.201229 228.492953 
L 142.736752 227.49148 
L 143.272275 227.263626 
L 143.807798 227.226569 
L 144.343321 226.921905 
L 146.485412 226.206723 
L 147.020935 225.736336 
L 149.163027 225.642121 
L 153.44721 225.126793 
L 155.053779 224.491147 
L 156.660347 224.327855 
L 157.19587 223.889751 
L 158.802439 223.777406 
L 160.409008 223.624794 
L 163.086622 223.512756 
L 164.693191 223.305838 
L 165.228714 222.873941 
L 165.764237 222.862301 
L 167.370806 222.260379 
L 168.441851 222.135356 
L 170.583943 221.922864 
L 171.119466 221.917197 
L 171.654989 221.727302 
L 179.687832 221.287501 
L 180.223355 221.128886 
L 184.507538 220.772575 
L 185.043061 220.624525 
L 186.64963 220.538545 
L 187.720676 220.38089 
L 190.933813 220.281102 
L 192.540382 220.062459 
L 193.611428 219.978037 
L 194.682473 219.857566 
L 196.824565 219.805187 
L 197.895611 219.710994 
L 198.966657 219.635283 
L 200.573225 219.386897 
L 205.928454 218.996771 
L 206.463977 218.77941 
L 210.74816 218.46867 
L 212.354729 218.205384 
L 213.961298 218.14875 
L 214.496821 217.971247 
L 215.032344 217.941709 
L 216.103389 217.723005 
L 217.709958 217.268692 
L 219.316527 217.186601 
L 219.85205 216.749849 
L 221.458619 216.566287 
L 222.529664 216.419339 
L 225.742802 215.878115 
L 226.813848 215.39225 
L 227.884893 215.228949 
L 228.420416 215.210153 
L 230.026985 214.891205 
L 230.562508 214.876436 
L 232.169077 214.306326 
L 233.775645 214.174484 
L 234.311168 214.018453 
L 234.846691 213.72306 
L 235.382214 213.618002 
L 235.917737 213.395522 
L 236.45326 213.373495 
L 236.988783 213.162693 
L 237.524306 212.659597 
L 239.130874 212.351681 
L 240.20192 212.202711 
L 240.737443 212.055624 
L 241.272966 211.78516 
L 241.808489 210.94078 
L 242.344012 208.974674 
L 242.879535 205.740786 
L 243.415057 203.931041 
L 245.021626 201.919526 
L 246.092672 199.487475 
L 247.163718 198.117962 
L 248.770286 196.541045 
L 249.305809 195.576985 
L 250.376855 195.187998 
L 251.983424 195.044058 
L 252.518947 194.632518 
L 253.05447 194.49392 
L 253.589993 193.629969 
L 254.125515 193.429949 
L 255.196561 193.318193 
L 256.267607 192.885909 
L 256.80313 192.857787 
L 257.874176 192.519524 
L 258.409699 191.931594 
L 258.945222 191.84903 
L 259.480744 191.59539 
L 260.016267 191.489552 
L 260.55179 190.522216 
L 262.158359 190.316158 
L 263.229405 189.769184 
L 265.371496 189.436061 
L 267.513588 188.673689 
L 268.049111 188.536106 
L 269.120157 188.48911 
L 269.65568 188.283019 
L 270.191202 187.948085 
L 271.797771 187.807626 
L 272.333294 187.587796 
L 273.40434 186.742827 
L 273.939863 186.729045 
L 275.010909 186.262939 
L 275.546431 186.166927 
L 276.081954 185.897702 
L 277.153 185.875601 
L 278.224046 184.853216 
L 278.759569 184.129129 
L 280.366138 183.940215 
L 281.437183 183.646757 
L 281.972706 183.318546 
L 282.508229 183.285829 
L 283.043752 182.999556 
L 283.579275 182.032206 
L 284.114798 181.914802 
L 285.185844 180.928888 
L 285.721367 180.87039 
L 287.327935 180.238074 
L 287.863458 179.761219 
L 288.398981 178.253392 
L 290.00555 177.717445 
L 291.076596 177.168451 
L 291.612119 177.0941 
L 292.147641 176.797609 
L 292.683164 176.169871 
L 293.218687 175.750267 
L 293.75421 175.666987 
L 294.289733 173.647564 
L 294.825256 172.631366 
L 295.896302 172.108151 
L 296.431825 171.944626 
L 297.50287 171.11371 
L 298.038393 169.83743 
L 299.109439 169.54409 
L 300.716008 165.233292 
L 301.251531 164.221127 
L 301.787054 163.965169 
L 302.322577 162.725635 
L 303.393622 162.079966 
L 303.929145 161.823708 
L 304.464668 161.793463 
L 305.000191 160.803321 
L 305.535714 159.265095 
L 306.60676 159.160399 
L 308.213328 157.929738 
L 308.748851 157.684246 
L 309.284374 157.253402 
L 309.819897 156.502323 
L 310.35542 156.082717 
L 310.890943 155.165738 
L 311.961989 155.092876 
L 312.497512 154.806137 
L 313.568557 154.65472 
L 315.175126 154.026756 
L 316.246172 151.964318 
L 316.781695 151.786118 
L 317.317218 148.791079 
L 318.923786 147.718216 
L 319.459309 143.710611 
L 319.994832 142.315971 
L 320.530355 142.024547 
L 321.065878 138.360429 
L 321.601401 135.894349 
L 322.136924 135.776602 
L 323.20797 133.741965 
L 324.279015 133.551149 
L 324.814538 132.593855 
L 325.350061 132.311932 
L 325.885584 131.634783 
L 326.421107 130.577215 
L 326.95663 130.284578 
L 327.492153 126.896658 
L 328.563199 125.472459 
L 330.169767 117.37679 
L 330.70529 115.803225 
L 331.240813 112.527857 
L 331.776336 100.829837 
L 332.311859 98.756907 
L 332.847382 89.801339 
L 333.382905 74.457805 
L 333.918428 68.447747 
L 334.989474 33.563809 
L 334.989474 33.563809 
" clip-path="url(#p0129c71966)" style="fill: none; stroke: #1f77b4; stroke-width: 3; stroke-linecap: square"/>
   </g>
   <g id="line2d_24">
    <path d="M 73.118775 232.984042 
L 89.719985 232.823956 
L 92.397599 232.751823 
L 92.933122 232.551286 
L 94.004168 232.406858 
L 95.075214 232.195397 
L 95.610737 232.128488 
L 96.14626 231.836999 
L 96.681783 231.7106 
L 100.965966 231.540669 
L 101.501489 231.410712 
L 102.572534 231.304914 
L 108.998809 230.990536 
L 114.889561 230.713709 
L 118.102699 230.585963 
L 125.064496 229.974396 
L 125.600019 229.956994 
L 126.671065 228.85793 
L 128.813157 228.170794 
L 129.34868 227.850687 
L 129.884202 227.761151 
L 130.955248 226.893618 
L 137.381523 226.046433 
L 139.523615 225.952242 
L 141.665706 225.66441 
L 149.163027 225.439924 
L 151.305118 225.330363 
L 156.124825 225.156181 
L 157.19587 225.077747 
L 164.693191 224.900714 
L 186.64963 224.119856 
L 187.720676 224.042491 
L 192.540382 223.932869 
L 202.179794 223.626465 
L 217.709958 222.885196 
L 218.781004 222.766811 
L 220.387573 222.679789 
L 224.671756 222.415323 
L 225.207279 222.285326 
L 226.813848 222.218426 
L 230.026985 221.663172 
L 230.562508 221.640306 
L 232.169077 221.159378 
L 233.240122 221.053385 
L 234.311168 220.907058 
L 238.059828 220.667764 
L 242.344012 220.516967 
L 246.092672 219.975062 
L 246.628195 219.636726 
L 247.163718 219.54841 
L 247.699241 219.115538 
L 248.770286 218.911387 
L 249.841332 218.868852 
L 251.447901 218.657016 
L 252.518947 218.620478 
L 253.05447 218.486901 
L 253.589993 218.163398 
L 255.732084 218.009599 
L 256.267607 217.749091 
L 256.80313 217.71538 
L 257.338653 217.566579 
L 259.480744 217.467683 
L 260.55179 217.355143 
L 262.693882 217.21098 
L 265.371496 216.999656 
L 266.442542 216.992267 
L 267.513588 216.849495 
L 269.65568 216.738668 
L 270.191202 216.470118 
L 271.262248 216.367266 
L 272.333294 216.033145 
L 273.939863 215.902884 
L 278.759569 215.644657 
L 284.114798 215.532355 
L 293.218687 215.241374 
L 293.75421 215.090015 
L 296.431825 214.864657 
L 296.967348 214.682158 
L 297.50287 214.656509 
L 298.573916 213.999776 
L 300.716008 213.786312 
L 301.251531 213.044797 
L 301.787054 212.664458 
L 304.464668 212.213158 
L 305.000191 211.909028 
L 307.142283 211.773704 
L 307.677806 211.574301 
L 308.213328 210.823267 
L 308.748851 210.622356 
L 309.819897 208.924002 
L 310.35542 208.879131 
L 310.890943 208.518872 
L 311.961989 208.466681 
L 313.033035 207.946127 
L 313.568557 207.904371 
L 314.10408 207.728648 
L 315.175126 207.64065 
L 317.317218 207.533023 
L 318.388264 207.277642 
L 319.994832 207.045859 
L 320.530355 206.425514 
L 321.065878 206.218955 
L 321.601401 205.771955 
L 322.136924 205.003649 
L 323.20797 204.819127 
L 323.743493 204.311786 
L 324.279015 204.110421 
L 325.350061 204.048246 
L 325.885584 203.19525 
L 327.492153 202.83835 
L 328.027676 202.468197 
L 328.563199 201.39018 
L 330.169767 201.280998 
L 331.240813 200.101372 
L 331.776336 199.088059 
L 332.311859 198.956913 
L 332.847382 198.531305 
L 333.918428 198.200127 
L 334.453951 197.299673 
L 334.989474 193.198176 
L 334.989474 193.198176 
" clip-path="url(#p0129c71966)" style="fill: none; stroke: #ff7f0e; stroke-width: 3; stroke-linecap: square"/>
   </g>
   <g id="patch_3">
    <path d="M 60.02524 243.02976 
L 60.02524 23.58924 
" style="fill: none; stroke: #000000; stroke-width: 0.8; stroke-linejoin: miter; stroke-linecap: square"/>
   </g>
   <g id="patch_4">
    <path d="M 348.083008 243.02976 
L 348.083008 23.58924 
" style="fill: none; stroke: #000000; stroke-width: 0.8; stroke-linejoin: miter; stroke-linecap: square"/>
   </g>
   <g id="patch_5">
    <path d="M 60.02524 243.02976 
L 348.083008 243.02976 
" style="fill: none; stroke: #000000; stroke-width: 0.8; stroke-linejoin: miter; stroke-linecap: square"/>
   </g>
   <g id="patch_6">
    <path d="M 60.02524 23.58924 
L 348.083008 23.58924 
" style="fill: none; stroke: #000000; stroke-width: 0.8; stroke-linejoin: miter; stroke-linecap: square"/>
   </g>
   <g id="text_14">
    <!-- Query Latency CDF -->
    <g transform="translate(111.211624 17.58924) scale(0.192 -0.192)">
     <defs>
      <path id="DejaVuSans-43" d="M 4122 4306 
L 4122 3641 
Q 3803 3938 3442 4084 
Q 3081 4231 2675 4231 
Q 1875 4231 1450 3742 
Q 1025 3253 1025 2328 
Q 1025 1406 1450 917 
Q 1875 428 2675 428 
Q 3081 428 3442 575 
Q 3803 722 4122 1019 
L 4122 359 
Q 3791 134 3420 21 
Q 3050 -91 2638 -91 
Q 1578 -91 968 557 
Q 359 1206 359 2328 
Q 359 3453 968 4101 
Q 1578 4750 2638 4750 
Q 3056 4750 3426 4639 
Q 3797 4528 4122 4306 
z
" transform="scale(0.015625)"/>
      <path id="DejaVuSans-44" d="M 1259 4147 
L 1259 519 
L 2022 519 
Q 2988 519 3436 956 
Q 3884 1394 3884 2338 
Q 3884 3275 3436 3711 
Q 2988 4147 2022 4147 
L 1259 4147 
z
M 628 4666 
L 1925 4666 
Q 3281 4666 3915 4102 
Q 4550 3538 4550 2338 
Q 4550 1131 3912 565 
Q 3275 0 1925 0 
L 628 0 
L 628 4666 
z
" transform="scale(0.015625)"/>
      <path id="DejaVuSans-46" d="M 628 4666 
L 3309 4666 
L 3309 4134 
L 1259 4134 
L 1259 2759 
L 3109 2759 
L 3109 2228 
L 1259 2228 
L 1259 0 
L 628 0 
L 628 4666 
z
" transform="scale(0.015625)"/>
     </defs>
     <use xlink:href="#DejaVuSans-51"/>
     <use xlink:href="#DejaVuSans-75" x="78.710938"/>
     <use xlink:href="#DejaVuSans-65" x="142.089844"/>
     <use xlink:href="#DejaVuSans-72" x="203.613281"/>
     <use xlink:href="#DejaVuSans-79" x="244.726562"/>
     <use xlink:href="#DejaVuSans-20" x="303.90625"/>
     <use xlink:href="#DejaVuSans-4c" x="335.693359"/>
     <use xlink:href="#DejaVuSans-61" x="391.40625"/>
     <use xlink:href="#DejaVuSans-74" x="452.685547"/>
     <use xlink:href="#DejaVuSans-65" x="491.894531"/>
     <use xlink:href="#DejaVuSans-6e" x="553.417969"/>
     <use xlink:href="#DejaVuSans-63" x="616.796875"/>
     <use xlink:href="#DejaVuSans-79" x="671.777344"/>
     <use xlink:href="#DejaVuSans-20" x="730.957031"/>
     <use xlink:href="#DejaVuSans-43" x="762.744141"/>
     <use xlink:href="#DejaVuSans-44" x="832.568359"/>
     <use xlink:href="#DejaVuSans-46" x="909.570312"/>
    </g>
   </g>
   <g id="legend_1">
    <g id="patch_7">
     <path d="M 71.22524 83.35924 
L 213.77774 83.35924 
Q 216.97774 83.35924 216.97774 80.15924 
L 216.97774 34.78924 
Q 216.97774 31.58924 213.77774 31.58924 
L 71.22524 31.58924 
Q 68.02524 31.58924 68.02524 34.78924 
L 68.02524 80.15924 
Q 68.02524 83.35924 71.22524 83.35924 
z
" style="fill: #ffffff; opacity: 0.8; stroke: #cccccc; stroke-linejoin: miter"/>
    </g>
    <g id="line2d_25">
     <path d="M 74.42524 44.54674 
L 90.42524 44.54674 
L 106.42524 44.54674 
" style="fill: none; stroke: #1f77b4; stroke-width: 3; stroke-linecap: square"/>
    </g>
    <g id="text_15">
     <!-- PostgreSQL -->
     <g transform="translate(119.22524 50.14674) scale(0.16 -0.16)">
      <defs>
       <path id="DejaVuSans-67" d="M 2906 1791 
Q 2906 2416 2648 2759 
Q 2391 3103 1925 3103 
Q 1463 3103 1205 2759 
Q 947 2416 947 1791 
Q 947 1169 1205 825 
Q 1463 481 1925 481 
Q 2391 481 2648 825 
Q 2906 1169 2906 1791 
z
M 3481 434 
Q 3481 -459 3084 -895 
Q 2688 -1331 1869 -1331 
Q 1566 -1331 1297 -1286 
Q 1028 -1241 775 -1147 
L 775 -588 
Q 1028 -725 1275 -790 
Q 1522 -856 1778 -856 
Q 2344 -856 2625 -561 
Q 2906 -266 2906 331 
L 2906 616 
Q 2728 306 2450 153 
Q 2172 0 1784 0 
Q 1141 0 747 490 
Q 353 981 353 1791 
Q 353 2603 747 3093 
Q 1141 3584 1784 3584 
Q 2172 3584 2450 3431 
Q 2728 3278 2906 2969 
L 2906 3500 
L 3481 3500 
L 3481 434 
z
" transform="scale(0.015625)"/>
       <path id="DejaVuSans-53" d="M 3425 4513 
L 3425 3897 
Q 3066 4069 2747 4153 
Q 2428 4238 2131 4238 
Q 1616 4238 1336 4038 
Q 1056 3838 1056 3469 
Q 1056 3159 1242 3001 
Q 1428 2844 1947 2747 
L 2328 2669 
Q 3034 2534 3370 2195 
Q 3706 1856 3706 1288 
Q 3706 609 3251 259 
Q 2797 -91 1919 -91 
Q 1588 -91 1214 -16 
Q 841 59 441 206 
L 441 856 
Q 825 641 1194 531 
Q 1563 422 1919 422 
Q 2459 422 2753 634 
Q 3047 847 3047 1241 
Q 3047 1584 2836 1778 
Q 2625 1972 2144 2069 
L 1759 2144 
Q 1053 2284 737 2584 
Q 422 2884 422 3419 
Q 422 4038 858 4394 
Q 1294 4750 2059 4750 
Q 2388 4750 2728 4690 
Q 3069 4631 3425 4513 
z
" transform="scale(0.015625)"/>
      </defs>
      <use xlink:href="#DejaVuSans-50"/>
      <use xlink:href="#DejaVuSans-6f" x="56.677734"/>
      <use xlink:href="#DejaVuSans-73" x="117.859375"/>
      <use xlink:href="#DejaVuSans-74" x="169.958984"/>
      <use xlink:href="#DejaVuSans-67" x="209.167969"/>
      <use xlink:href="#DejaVuSans-72" x="272.644531"/>
      <use xlink:href="#DejaVuSans-65" x="311.507812"/>
      <use xlink:href="#DejaVuSans-53" x="373.03125"/>
      <use xlink:href="#DejaVuSans-51" x="436.507812"/>
      <use xlink:href="#DejaVuSans-4c" x="515.21875"/>
     </g>
    </g>
    <g id="line2d_26">
     <path d="M 74.42524 68.03174 
L 90.42524 68.03174 
L 106.42524 68.03174 
" style="fill: none; stroke: #ff7f0e; stroke-width: 3; stroke-linecap: square"/>
    </g>
    <g id="text_16">
     <!-- Bao -->
     <g transform="translate(119.22524 73.63174) scale(0.16 -0.16)">
      <defs>
       <path id="DejaVuSans-42" d="M 1259 2228 
L 1259 519 
L 2272 519 
Q 2781 519 3026 730 
Q 3272 941 3272 1375 
Q 3272 1813 3026 2020 
Q 2781 2228 2272 2228 
L 1259 2228 
z
M 1259 4147 
L 1259 2741 
L 2194 2741 
Q 2656 2741 2882 2914 
Q 3109 3088 3109 3444 
Q 3109 3797 2882 3972 
Q 2656 4147 2194 4147 
L 1259 4147 
z
M 628 4666 
L 2241 4666 
Q 2963 4666 3353 4366 
Q 3744 4066 3744 3513 
Q 3744 3084 3544 2831 
Q 3344 2578 2956 2516 
Q 3422 2416 3680 2098 
Q 3938 1781 3938 1306 
Q 3938 681 3513 340 
Q 3088 0 2303 0 
L 628 0 
L 628 4666 
z
" transform="scale(0.015625)"/>
      </defs>
      <use xlink:href="#DejaVuSans-42"/>
      <use xlink:href="#DejaVuSans-61" x="68.603516"/>
      <use xlink:href="#DejaVuSans-6f" x="129.882812"/>
     </g>
    </g>
   </g>
  </g>
  <g id="axes_2">
   <g id="patch_8">
    <path d="M 424.155 243.02976 
L 712.212768 243.02976 
L 712.212768 23.58924 
L 424.155 23.58924 
z
" style="fill: #ffffff"/>
   </g>
   <g id="matplotlib.axis_3">
    <g id="xtick_7">
     <g id="line2d_27">
      <path d="M 437.248535 243.02976 
L 437.248535 23.58924 
" clip-path="url(#ped3d5f98a7)" style="fill: none; stroke-dasharray: 3.7,1.6; stroke-dashoffset: 0; stroke: #b0b0b0"/>
     </g>
     <g id="line2d_28">
      <g>
       <use xlink:href="#mb7b701cb10" x="437.248535" y="243.02976" style="stroke: #000000; stroke-width: 0.8"/>
      </g>
     </g>
     <g id="text_17">
      <!-- 0.0 -->
      <g transform="translate(424.526035 262.18726) scale(0.16 -0.16)">
       <use xlink:href="#DejaVuSans-30"/>
       <use xlink:href="#DejaVuSans-2e" x="63.623047"/>
       <use xlink:href="#DejaVuSans-30" x="95.410156"/>
      </g>
     </g>
    </g>
    <g id="xtick_8">
     <g id="line2d_29">
      <path d="M 489.622675 243.02976 
L 489.622675 23.58924 
" clip-path="url(#ped3d5f98a7)" style="fill: none; stroke-dasharray: 3.7,1.6; stroke-dashoffset: 0; stroke: #b0b0b0"/>
     </g>
     <g id="line2d_30">
      <g>
       <use xlink:href="#mb7b701cb10" x="489.622675" y="243.02976" style="stroke: #000000; stroke-width: 0.8"/>
      </g>
     </g>
     <g id="text_18">
      <!-- 0.2 -->
      <g transform="translate(476.900175 262.18726) scale(0.16 -0.16)">
       <use xlink:href="#DejaVuSans-30"/>
       <use xlink:href="#DejaVuSans-2e" x="63.623047"/>
       <use xlink:href="#DejaVuSans-32" x="95.410156"/>
      </g>
     </g>
    </g>
    <g id="xtick_9">
     <g id="line2d_31">
      <path d="M 541.996814 243.02976 
L 541.996814 23.58924 
" clip-path="url(#ped3d5f98a7)" style="fill: none; stroke-dasharray: 3.7,1.6; stroke-dashoffset: 0; stroke: #b0b0b0"/>
     </g>
     <g id="line2d_32">
      <g>
       <use xlink:href="#mb7b701cb10" x="541.996814" y="243.02976" style="stroke: #000000; stroke-width: 0.8"/>
      </g>
     </g>
     <g id="text_19">
      <!-- 0.4 -->
      <g transform="translate(529.274314 262.18726) scale(0.16 -0.16)">
       <use xlink:href="#DejaVuSans-30"/>
       <use xlink:href="#DejaVuSans-2e" x="63.623047"/>
       <use xlink:href="#DejaVuSans-34" x="95.410156"/>
      </g>
     </g>
    </g>
    <g id="xtick_10">
     <g id="line2d_33">
      <path d="M 594.370954 243.02976 
L 594.370954 23.58924 
" clip-path="url(#ped3d5f98a7)" style="fill: none; stroke-dasharray: 3.7,1.6; stroke-dashoffset: 0; stroke: #b0b0b0"/>
     </g>
     <g id="line2d_34">
      <g>
       <use xlink:href="#mb7b701cb10" x="594.370954" y="243.02976" style="stroke: #000000; stroke-width: 0.8"/>
      </g>
     </g>
     <g id="text_20">
      <!-- 0.6 -->
      <g transform="translate(581.648454 262.18726) scale(0.16 -0.16)">
       <use xlink:href="#DejaVuSans-30"/>
       <use xlink:href="#DejaVuSans-2e" x="63.623047"/>
       <use xlink:href="#DejaVuSans-36" x="95.410156"/>
      </g>
     </g>
    </g>
    <g id="xtick_11">
     <g id="line2d_35">
      <path d="M 646.745094 243.02976 
L 646.745094 23.58924 
" clip-path="url(#ped3d5f98a7)" style="fill: none; stroke-dasharray: 3.7,1.6; stroke-dashoffset: 0; stroke: #b0b0b0"/>
     </g>
     <g id="line2d_36">
      <g>
       <use xlink:href="#mb7b701cb10" x="646.745094" y="243.02976" style="stroke: #000000; stroke-width: 0.8"/>
      </g>
     </g>
     <g id="text_21">
      <!-- 0.8 -->
      <g transform="translate(634.022594 262.18726) scale(0.16 -0.16)">
       <use xlink:href="#DejaVuSans-30"/>
       <use xlink:href="#DejaVuSans-2e" x="63.623047"/>
       <use xlink:href="#DejaVuSans-38" x="95.410156"/>
      </g>
     </g>
    </g>
    <g id="xtick_12">
     <g id="line2d_37">
      <path d="M 699.119234 243.02976 
L 699.119234 23.58924 
" clip-path="url(#ped3d5f98a7)" style="fill: none; stroke-dasharray: 3.7,1.6; stroke-dashoffset: 0; stroke: #b0b0b0"/>
     </g>
     <g id="line2d_38">
      <g>
       <use xlink:href="#mb7b701cb10" x="699.119234" y="243.02976" style="stroke: #000000; stroke-width: 0.8"/>
      </g>
     </g>
     <g id="text_22">
      <!-- 1.0 -->
      <g transform="translate(686.396734 262.18726) scale(0.16 -0.16)">
       <use xlink:href="#DejaVuSans-31"/>
       <use xlink:href="#DejaVuSans-2e" x="63.623047"/>
       <use xlink:href="#DejaVuSans-30" x="95.410156"/>
      </g>
     </g>
    </g>
    <g id="text_23">
     <!-- Proportion of Queries -->
     <g transform="translate(483.222634 281.67226) scale(0.16 -0.16)">
      <use xlink:href="#DejaVuSans-50"/>
      <use xlink:href="#DejaVuSans-72" x="58.552734"/>
      <use xlink:href="#DejaVuSans-6f" x="97.416016"/>
      <use xlink:href="#DejaVuSans-70" x="158.597656"/>
      <use xlink:href="#DejaVuSans-6f" x="222.074219"/>
      <use xlink:href="#DejaVuSans-72" x="283.255859"/>
      <use xlink:href="#DejaVuSans-74" x="324.369141"/>
      <use xlink:href="#DejaVuSans-69" x="363.578125"/>
      <use xlink:href="#DejaVuSans-6f" x="391.361328"/>
      <use xlink:href="#DejaVuSans-6e" x="452.542969"/>
      <use xlink:href="#DejaVuSans-20" x="515.921875"/>
      <use xlink:href="#DejaVuSans-6f" x="547.708984"/>
      <use xlink:href="#DejaVuSans-66" x="608.890625"/>
      <use xlink:href="#DejaVuSans-20" x="644.095703"/>
      <use xlink:href="#DejaVuSans-51" x="675.882812"/>
      <use xlink:href="#DejaVuSans-75" x="754.59375"/>
      <use xlink:href="#DejaVuSans-65" x="817.972656"/>
      <use xlink:href="#DejaVuSans-72" x="879.496094"/>
      <use xlink:href="#DejaVuSans-69" x="920.609375"/>
      <use xlink:href="#DejaVuSans-65" x="948.392578"/>
      <use xlink:href="#DejaVuSans-73" x="1009.916016"/>
     </g>
    </g>
   </g>
   <g id="matplotlib.axis_4">
    <g id="ytick_6">
     <g id="line2d_39">
      <path d="M 424.155 218.318352 
L 712.212768 218.318352 
" clip-path="url(#ped3d5f98a7)" style="fill: none; stroke-dasharray: 3.7,1.6; stroke-dashoffset: 0; stroke: #b0b0b0"/>
     </g>
     <g id="line2d_40">
      <g>
       <use xlink:href="#m3cd6d28312" x="424.155" y="218.318352" style="stroke: #000000; stroke-width: 0.8"/>
      </g>
     </g>
     <g id="text_24">
      <!-- $\mathdefault{10^{-1}}$ -->
      <g transform="translate(379.555 224.397102) scale(0.16 -0.16)">
       <defs>
        <path id="DejaVuSans-2212" d="M 678 2272 
L 4684 2272 
L 4684 1741 
L 678 1741 
L 678 2272 
z
" transform="scale(0.015625)"/>
       </defs>
       <use xlink:href="#DejaVuSans-31" transform="translate(0 0.684375)"/>
       <use xlink:href="#DejaVuSans-30" transform="translate(63.623047 0.684375)"/>
       <use xlink:href="#DejaVuSans-2212" transform="translate(128.203125 38.965625) scale(0.7)"/>
       <use xlink:href="#DejaVuSans-31" transform="translate(186.855469 38.965625) scale(0.7)"/>
      </g>
     </g>
    </g>
    <g id="ytick_7">
     <g id="line2d_41">
      <path d="M 424.155 162.304722 
L 712.212768 162.304722 
" clip-path="url(#ped3d5f98a7)" style="fill: none; stroke-dasharray: 3.7,1.6; stroke-dashoffset: 0; stroke: #b0b0b0"/>
     </g>
     <g id="line2d_42">
      <g>
       <use xlink:href="#m3cd6d28312" x="424.155" y="162.304722" style="stroke: #000000; stroke-width: 0.8"/>
      </g>
     </g>
     <g id="text_25">
      <!-- $\mathdefault{10^{0}}$ -->
      <g transform="translate(388.995 168.383472) scale(0.16 -0.16)">
       <use xlink:href="#DejaVuSans-31" transform="translate(0 0.765625)"/>
       <use xlink:href="#DejaVuSans-30" transform="translate(63.623047 0.765625)"/>
       <use xlink:href="#DejaVuSans-30" transform="translate(128.203125 39.046875) scale(0.7)"/>
      </g>
     </g>
    </g>
    <g id="ytick_8">
     <g id="line2d_43">
      <path d="M 424.155 106.291092 
L 712.212768 106.291092 
" clip-path="url(#ped3d5f98a7)" style="fill: none; stroke-dasharray: 3.7,1.6; stroke-dashoffset: 0; stroke: #b0b0b0"/>
     </g>
     <g id="line2d_44">
      <g>
       <use xlink:href="#m3cd6d28312" x="424.155" y="106.291092" style="stroke: #000000; stroke-width: 0.8"/>
      </g>
     </g>
     <g id="text_26">
      <!-- $\mathdefault{10^{1}}$ -->
      <g transform="translate(388.995 112.369842) scale(0.16 -0.16)">
       <use xlink:href="#DejaVuSans-31" transform="translate(0 0.684375)"/>
       <use xlink:href="#DejaVuSans-30" transform="translate(63.623047 0.684375)"/>
       <use xlink:href="#DejaVuSans-31" transform="translate(128.203125 38.965625) scale(0.7)"/>
      </g>
     </g>
    </g>
    <g id="ytick_9">
     <g id="line2d_45">
      <path d="M 424.155 50.277462 
L 712.212768 50.277462 
" clip-path="url(#ped3d5f98a7)" style="fill: none; stroke-dasharray: 3.7,1.6; stroke-dashoffset: 0; stroke: #b0b0b0"/>
     </g>
     <g id="line2d_46">
      <g>
       <use xlink:href="#m3cd6d28312" x="424.155" y="50.277462" style="stroke: #000000; stroke-width: 0.8"/>
      </g>
     </g>
     <g id="text_27">
      <!-- $\mathdefault{10^{2}}$ -->
      <g transform="translate(388.995 56.356212) scale(0.16 -0.16)">
       <use xlink:href="#DejaVuSans-31" transform="translate(0 0.765625)"/>
       <use xlink:href="#DejaVuSans-30" transform="translate(63.623047 0.765625)"/>
       <use xlink:href="#DejaVuSans-32" transform="translate(128.203125 39.046875) scale(0.7)"/>
      </g>
     </g>
    </g>
    <g id="ytick_10">
     <g id="line2d_47">
      <defs>
       <path id="m95f09d3f74" d="M 0 0 
L -2 0 
" style="stroke: #000000; stroke-width: 0.6"/>
      </defs>
      <g>
       <use xlink:href="#m95f09d3f74" x="424.155" y="240.608416" style="stroke: #000000; stroke-width: 0.6"/>
      </g>
     </g>
    </g>
    <g id="ytick_11">
     <g id="line2d_48">
      <g>
       <use xlink:href="#m95f09d3f74" x="424.155" y="235.180135" style="stroke: #000000; stroke-width: 0.6"/>
      </g>
     </g>
    </g>
    <g id="ytick_12">
     <g id="line2d_49">
      <g>
       <use xlink:href="#m95f09d3f74" x="424.155" y="230.744906" style="stroke: #000000; stroke-width: 0.6"/>
      </g>
     </g>
    </g>
    <g id="ytick_13">
     <g id="line2d_50">
      <g>
       <use xlink:href="#m95f09d3f74" x="424.155" y="226.994973" style="stroke: #000000; stroke-width: 0.6"/>
      </g>
     </g>
    </g>
    <g id="ytick_14">
     <g id="line2d_51">
      <g>
       <use xlink:href="#m95f09d3f74" x="424.155" y="223.746633" style="stroke: #000000; stroke-width: 0.6"/>
      </g>
     </g>
    </g>
    <g id="ytick_15">
     <g id="line2d_52">
      <g>
       <use xlink:href="#m95f09d3f74" x="424.155" y="220.881395" style="stroke: #000000; stroke-width: 0.6"/>
      </g>
     </g>
    </g>
    <g id="ytick_16">
     <g id="line2d_53">
      <g>
       <use xlink:href="#m95f09d3f74" x="424.155" y="201.456569" style="stroke: #000000; stroke-width: 0.6"/>
      </g>
     </g>
    </g>
    <g id="ytick_17">
     <g id="line2d_54">
      <g>
       <use xlink:href="#m95f09d3f74" x="424.155" y="191.593058" style="stroke: #000000; stroke-width: 0.6"/>
      </g>
     </g>
    </g>
    <g id="ytick_18">
     <g id="line2d_55">
      <g>
       <use xlink:href="#m95f09d3f74" x="424.155" y="184.594786" style="stroke: #000000; stroke-width: 0.6"/>
      </g>
     </g>
    </g>
    <g id="ytick_19">
     <g id="line2d_56">
      <g>
       <use xlink:href="#m95f09d3f74" x="424.155" y="179.166505" style="stroke: #000000; stroke-width: 0.6"/>
      </g>
     </g>
    </g>
    <g id="ytick_20">
     <g id="line2d_57">
      <g>
       <use xlink:href="#m95f09d3f74" x="424.155" y="174.731276" style="stroke: #000000; stroke-width: 0.6"/>
      </g>
     </g>
    </g>
    <g id="ytick_21">
     <g id="line2d_58">
      <g>
       <use xlink:href="#m95f09d3f74" x="424.155" y="170.981343" style="stroke: #000000; stroke-width: 0.6"/>
      </g>
     </g>
    </g>
    <g id="ytick_22">
     <g id="line2d_59">
      <g>
       <use xlink:href="#m95f09d3f74" x="424.155" y="167.733003" style="stroke: #000000; stroke-width: 0.6"/>
      </g>
     </g>
    </g>
    <g id="ytick_23">
     <g id="line2d_60">
      <g>
       <use xlink:href="#m95f09d3f74" x="424.155" y="164.867765" style="stroke: #000000; stroke-width: 0.6"/>
      </g>
     </g>
    </g>
    <g id="ytick_24">
     <g id="line2d_61">
      <g>
       <use xlink:href="#m95f09d3f74" x="424.155" y="145.442939" style="stroke: #000000; stroke-width: 0.6"/>
      </g>
     </g>
    </g>
    <g id="ytick_25">
     <g id="line2d_62">
      <g>
       <use xlink:href="#m95f09d3f74" x="424.155" y="135.579428" style="stroke: #000000; stroke-width: 0.6"/>
      </g>
     </g>
    </g>
    <g id="ytick_26">
     <g id="line2d_63">
      <g>
       <use xlink:href="#m95f09d3f74" x="424.155" y="128.581156" style="stroke: #000000; stroke-width: 0.6"/>
      </g>
     </g>
    </g>
    <g id="ytick_27">
     <g id="line2d_64">
      <g>
       <use xlink:href="#m95f09d3f74" x="424.155" y="123.152875" style="stroke: #000000; stroke-width: 0.6"/>
      </g>
     </g>
    </g>
    <g id="ytick_28">
     <g id="line2d_65">
      <g>
       <use xlink:href="#m95f09d3f74" x="424.155" y="118.717646" style="stroke: #000000; stroke-width: 0.6"/>
      </g>
     </g>
    </g>
    <g id="ytick_29">
     <g id="line2d_66">
      <g>
       <use xlink:href="#m95f09d3f74" x="424.155" y="114.967713" style="stroke: #000000; stroke-width: 0.6"/>
      </g>
     </g>
    </g>
    <g id="ytick_30">
     <g id="line2d_67">
      <g>
       <use xlink:href="#m95f09d3f74" x="424.155" y="111.719374" style="stroke: #000000; stroke-width: 0.6"/>
      </g>
     </g>
    </g>
    <g id="ytick_31">
     <g id="line2d_68">
      <g>
       <use xlink:href="#m95f09d3f74" x="424.155" y="108.854135" style="stroke: #000000; stroke-width: 0.6"/>
      </g>
     </g>
    </g>
    <g id="ytick_32">
     <g id="line2d_69">
      <g>
       <use xlink:href="#m95f09d3f74" x="424.155" y="89.429309" style="stroke: #000000; stroke-width: 0.6"/>
      </g>
     </g>
    </g>
    <g id="ytick_33">
     <g id="line2d_70">
      <g>
       <use xlink:href="#m95f09d3f74" x="424.155" y="79.565799" style="stroke: #000000; stroke-width: 0.6"/>
      </g>
     </g>
    </g>
    <g id="ytick_34">
     <g id="line2d_71">
      <g>
       <use xlink:href="#m95f09d3f74" x="424.155" y="72.567526" style="stroke: #000000; stroke-width: 0.6"/>
      </g>
     </g>
    </g>
    <g id="ytick_35">
     <g id="line2d_72">
      <g>
       <use xlink:href="#m95f09d3f74" x="424.155" y="67.139245" style="stroke: #000000; stroke-width: 0.6"/>
      </g>
     </g>
    </g>
    <g id="ytick_36">
     <g id="line2d_73">
      <g>
       <use xlink:href="#m95f09d3f74" x="424.155" y="62.704016" style="stroke: #000000; stroke-width: 0.6"/>
      </g>
     </g>
    </g>
    <g id="ytick_37">
     <g id="line2d_74">
      <g>
       <use xlink:href="#m95f09d3f74" x="424.155" y="58.954083" style="stroke: #000000; stroke-width: 0.6"/>
      </g>
     </g>
    </g>
    <g id="ytick_38">
     <g id="line2d_75">
      <g>
       <use xlink:href="#m95f09d3f74" x="424.155" y="55.705744" style="stroke: #000000; stroke-width: 0.6"/>
      </g>
     </g>
    </g>
    <g id="ytick_39">
     <g id="line2d_76">
      <g>
       <use xlink:href="#m95f09d3f74" x="424.155" y="52.840505" style="stroke: #000000; stroke-width: 0.6"/>
      </g>
     </g>
    </g>
    <g id="ytick_40">
     <g id="line2d_77">
      <g>
       <use xlink:href="#m95f09d3f74" x="424.155" y="33.415679" style="stroke: #000000; stroke-width: 0.6"/>
      </g>
     </g>
    </g>
    <g id="text_28">
     <!-- Max Latency (s) -->
     <g transform="translate(372.2275 196.967) rotate(-90) scale(0.16 -0.16)">
      <use xlink:href="#DejaVuSans-4d"/>
      <use xlink:href="#DejaVuSans-61" x="86.279297"/>
      <use xlink:href="#DejaVuSans-78" x="147.558594"/>
      <use xlink:href="#DejaVuSans-20" x="206.738281"/>
      <use xlink:href="#DejaVuSans-4c" x="238.525391"/>
      <use xlink:href="#DejaVuSans-61" x="294.238281"/>
      <use xlink:href="#DejaVuSans-74" x="355.517578"/>
      <use xlink:href="#DejaVuSans-65" x="394.726562"/>
      <use xlink:href="#DejaVuSans-6e" x="456.25"/>
      <use xlink:href="#DejaVuSans-63" x="519.628906"/>
      <use xlink:href="#DejaVuSans-79" x="574.609375"/>
      <use xlink:href="#DejaVuSans-20" x="633.789062"/>
      <use xlink:href="#DejaVuSans-28" x="665.576172"/>
      <use xlink:href="#DejaVuSans-73" x="704.589844"/>
      <use xlink:href="#DejaVuSans-29" x="756.689453"/>
     </g>
    </g>
   </g>
   <g id="line2d_78">
    <path d="M 437.248535 233.055191 
L 437.784058 231.977361 
L 438.319581 230.40188 
L 438.855104 216.689298 
L 439.390627 214.946804 
L 440.461672 214.709689 
L 441.532718 213.120227 
L 442.603764 212.433729 
L 443.139287 211.652037 
L 444.210333 211.627311 
L 444.745856 210.64349 
L 445.281378 209.299675 
L 445.816901 208.953075 
L 446.352424 208.319986 
L 446.887947 208.296887 
L 447.42347 206.951228 
L 447.958993 204.957271 
L 448.494516 204.74764 
L 449.030039 204.122413 
L 449.565562 203.684848 
L 450.101085 203.597068 
L 450.636607 203.028756 
L 451.17213 202.946637 
L 451.707653 202.617561 
L 452.243176 202.520179 
L 452.778699 202.21045 
L 453.849745 200.942056 
L 454.920791 198.237658 
L 455.456314 197.92576 
L 456.527359 195.835224 
L 457.062882 172.295947 
L 457.598405 171.899297 
L 458.133928 157.048599 
L 458.669451 156.92916 
L 459.204974 156.392119 
L 459.740497 150.207061 
L 460.811543 148.24756 
L 462.418111 147.867378 
L 462.953634 146.921119 
L 463.489157 146.51303 
L 464.02468 146.37189 
L 467.77334 143.902928 
L 468.308863 143.84586 
L 468.844386 143.437984 
L 469.915432 143.312689 
L 470.450955 143.108887 
L 472.057523 142.943132 
L 472.593046 142.642767 
L 473.128569 142.611792 
L 474.735138 142.151708 
L 475.270661 142.123262 
L 475.806184 141.725663 
L 476.341707 141.69172 
L 476.87723 141.511418 
L 477.948275 141.318348 
L 478.483798 141.076741 
L 479.019321 141.001347 
L 479.554844 140.784556 
L 480.090367 140.719402 
L 481.696936 140.205578 
L 482.232459 139.4787 
L 482.767982 139.444506 
L 483.303504 139.152151 
L 484.37455 138.988249 
L 484.910073 138.663499 
L 485.445596 137.996628 
L 485.981119 137.97841 
L 486.516642 137.745534 
L 487.587688 137.622289 
L 488.123211 137.46639 
L 489.729779 136.361966 
L 491.336348 136.04854 
L 491.871871 135.246769 
L 492.407394 135.206859 
L 493.47844 134.350433 
L 494.549485 133.965796 
L 496.156054 133.835739 
L 497.2271 133.0029 
L 498.298146 132.828819 
L 498.833669 132.64321 
L 499.369191 132.310794 
L 499.904714 132.278219 
L 500.440237 132.118592 
L 500.97576 131.456575 
L 502.046806 131.380267 
L 503.117852 131.105033 
L 503.653375 129.821777 
L 504.188898 129.299616 
L 504.72442 127.71059 
L 505.795466 126.692616 
L 506.330989 125.184323 
L 506.866512 120.4087 
L 507.402035 119.441636 
L 507.937558 119.28793 
L 508.473081 118.05975 
L 510.615172 115.399183 
L 511.150695 113.795613 
L 511.686218 113.79 
L 512.221741 113.534517 
L 513.292787 113.486756 
L 513.82831 113.28104 
L 514.899356 113.120922 
L 515.434878 112.91804 
L 515.970401 112.383958 
L 517.041447 111.887333 
L 517.57697 111.863468 
L 518.112493 111.223037 
L 518.648016 110.811146 
L 519.183539 109.99977 
L 519.719062 109.756067 
L 520.254585 109.75554 
L 520.790107 109.543193 
L 521.32563 108.358945 
L 522.396676 108.258102 
L 523.467722 107.873592 
L 524.003245 107.87272 
L 524.538768 107.669745 
L 525.609814 107.538802 
L 528.287428 107.166156 
L 528.822951 106.865178 
L 529.358474 105.816469 
L 529.893997 105.788823 
L 530.965043 104.581281 
L 531.500566 104.40034 
L 532.036088 104.348767 
L 533.107134 103.949587 
L 533.642657 103.912104 
L 534.713703 103.655113 
L 535.249226 103.642794 
L 535.784749 103.233536 
L 537.92684 103.057873 
L 539.533409 103.009664 
L 541.139978 102.628956 
L 541.675501 102.448007 
L 543.817592 102.311321 
L 544.353115 101.987118 
L 548.637298 101.274212 
L 549.172821 100.98403 
L 550.77939 100.817083 
L 551.314913 100.579131 
L 552.921482 100.489975 
L 555.063573 100.323948 
L 555.599096 100.143086 
L 556.134619 100.087426 
L 556.670142 99.912845 
L 557.205665 99.899548 
L 558.812233 99.5338 
L 560.954325 99.437842 
L 561.489848 99.281122 
L 563.096417 99.129156 
L 563.63194 98.934095 
L 564.167462 98.909294 
L 564.702985 98.684818 
L 566.309554 98.558077 
L 566.845077 98.277154 
L 568.451646 98.184595 
L 570.058214 98.002902 
L 570.593737 97.6311 
L 574.87792 97.109251 
L 576.484489 96.675689 
L 578.091058 96.583429 
L 578.626581 96.296516 
L 579.162104 96.249096 
L 579.697627 95.989433 
L 580.233149 95.900849 
L 581.839718 95.192992 
L 583.446287 95.067255 
L 583.98181 94.409008 
L 585.052856 94.353806 
L 586.123901 93.965464 
L 587.194947 93.800324 
L 587.73047 93.642463 
L 588.265993 93.624613 
L 589.872562 93.146152 
L 590.943608 92.469741 
L 592.014653 92.246557 
L 592.550176 92.220998 
L 593.621222 91.930338 
L 594.156745 91.791354 
L 594.692268 91.771642 
L 595.763314 91.149785 
L 596.834359 90.979753 
L 598.440928 90.653072 
L 598.976451 90.279565 
L 599.511974 90.148096 
L 600.047497 89.872008 
L 600.58302 89.844844 
L 601.118543 89.586395 
L 601.654066 88.980461 
L 603.260634 88.616914 
L 604.33168 88.442962 
L 604.867203 88.272419 
L 605.402726 87.961912 
L 605.938249 87.017261 
L 606.473772 84.9502 
L 607.009295 81.891339 
L 607.544817 80.33374 
L 609.151386 78.712021 
L 610.222432 76.885507 
L 611.293478 75.91429 
L 612.900046 74.842003 
L 613.435569 74.208998 
L 615.042138 73.90789 
L 616.113184 73.866019 
L 616.648707 73.604431 
L 617.18423 73.516964 
L 617.719753 72.978711 
L 618.790798 72.84256 
L 619.861844 72.628784 
L 622.003936 72.303934 
L 622.539459 71.954107 
L 623.610504 71.756298 
L 624.146027 71.694359 
L 624.68155 71.135438 
L 626.288119 71.018021 
L 627.359165 70.70906 
L 629.501256 70.522799 
L 632.178871 70.026618 
L 633.249917 70.000983 
L 634.856485 69.693275 
L 636.463054 69.514501 
L 637.5341 69.067101 
L 638.069623 69.059871 
L 639.140669 68.816623 
L 641.28276 68.616315 
L 642.353806 68.09539 
L 642.889329 67.733086 
L 645.031421 67.579679 
L 647.173512 67.178452 
L 647.709035 66.713322 
L 648.244558 66.657471 
L 649.315604 66.193448 
L 650.38665 66.056197 
L 651.993218 65.655091 
L 652.528741 64.977076 
L 654.670833 64.623071 
L 656.812924 64.070243 
L 657.348447 63.891634 
L 657.88397 63.85634 
L 658.419493 63.015828 
L 658.955016 62.603608 
L 661.63263 62.000692 
L 662.168153 61.504984 
L 663.239199 61.392464 
L 664.845768 59.796271 
L 665.381291 59.436197 
L 665.916814 59.345979 
L 666.452337 58.913751 
L 668.058905 58.604006 
L 668.594428 58.593687 
L 669.129951 58.258267 
L 669.665474 57.746184 
L 670.73652 57.711719 
L 674.48518 56.719787 
L 675.020703 56.431901 
L 678.23384 56.216549 
L 679.304886 56.078997 
L 680.375932 55.452711 
L 680.911455 55.399348 
L 681.446978 54.519545 
L 683.053546 54.211971 
L 683.589069 53.096265 
L 684.124592 52.7197 
L 684.660115 52.641744 
L 685.195638 51.682329 
L 685.731161 51.057277 
L 686.266684 51.027831 
L 687.33773 50.524558 
L 688.408775 50.477889 
L 688.944298 50.245099 
L 690.015344 50.01409 
L 690.550867 49.761873 
L 691.08639 49.692543 
L 691.621913 48.90395 
L 692.692959 48.579929 
L 694.299527 46.815822 
L 694.83505 46.487296 
L 695.370573 45.817379 
L 695.906096 43.564973 
L 696.441619 43.186716 
L 696.977142 41.616947 
L 697.512665 39.14262 
L 698.048188 38.238113 
L 699.119234 33.563809 
L 699.119234 33.563809 
" clip-path="url(#ped3d5f98a7)" style="fill: none; stroke: #1f77b4; stroke-width: 3; stroke-linecap: square"/>
   </g>
   <g id="line2d_79">
    <path d="M 437.248535 212.804198 
L 437.784058 212.472922 
L 438.319581 205.888272 
L 438.855104 205.376785 
L 439.390627 203.728873 
L 439.926149 203.55404 
L 440.461672 202.359449 
L 440.997195 200.068727 
L 443.67481 199.953546 
L 444.210333 199.916961 
L 446.352424 198.688172 
L 446.887947 197.883409 
L 449.565562 197.210179 
L 450.101085 194.516439 
L 450.636607 194.297623 
L 451.17213 194.25516 
L 451.707653 193.497555 
L 453.849745 192.847834 
L 454.385268 190.795722 
L 454.920791 190.652047 
L 455.456314 189.16841 
L 455.991836 188.429806 
L 456.527359 187.376667 
L 457.062882 176.559986 
L 457.598405 174.07844 
L 458.133928 170.966506 
L 458.669451 166.312178 
L 459.740497 162.852445 
L 460.27602 156.526449 
L 460.811543 154.223486 
L 461.347065 154.095489 
L 462.953634 152.948414 
L 464.02468 152.431806 
L 464.560203 151.552211 
L 465.095726 151.435475 
L 465.631249 149.500018 
L 466.166772 149.496455 
L 466.702294 148.030703 
L 468.308863 147.322309 
L 468.844386 146.442773 
L 469.379909 146.173984 
L 469.915432 145.595836 
L 470.450955 145.548889 
L 471.522001 144.671928 
L 472.593046 144.532893 
L 473.664092 143.735756 
L 474.735138 143.515226 
L 475.270661 143.222396 
L 475.806184 142.392983 
L 476.87723 141.972186 
L 477.412753 141.948859 
L 477.948275 141.691829 
L 478.483798 141.568316 
L 479.019321 141.138572 
L 479.554844 141.052874 
L 480.090367 140.820357 
L 480.62589 140.268836 
L 481.161413 140.259381 
L 481.696936 139.974699 
L 482.232459 139.875096 
L 482.767982 139.357127 
L 483.839027 138.883444 
L 485.981119 137.24897 
L 486.516642 136.217652 
L 487.052165 136.053939 
L 487.587688 135.651201 
L 488.123211 135.544853 
L 488.658733 134.913298 
L 489.194256 134.597121 
L 489.729779 134.462482 
L 490.800825 127.187603 
L 491.336348 126.210642 
L 491.871871 125.00014 
L 492.407394 124.803971 
L 493.47844 122.015902 
L 494.013962 121.605247 
L 495.085008 117.948803 
L 495.620531 117.646516 
L 496.156054 117.529347 
L 497.2271 116.788533 
L 497.762623 116.782278 
L 498.298146 116.176775 
L 498.833669 116.170746 
L 499.369191 115.860441 
L 499.904714 115.3898 
L 500.440237 115.318158 
L 501.511283 114.840793 
L 502.582329 114.782217 
L 504.72442 114.140482 
L 505.259943 113.573719 
L 507.937558 113.446654 
L 509.008604 113.227931 
L 510.079649 113.161404 
L 511.150695 112.944431 
L 513.292787 112.836862 
L 513.82831 112.689508 
L 514.899356 112.550599 
L 520.254585 111.953185 
L 520.790107 111.717768 
L 521.861153 111.698161 
L 522.932199 111.55082 
L 524.003245 111.477288 
L 525.609814 111.322026 
L 528.287428 111.187463 
L 530.965043 111.119902 
L 532.571611 110.958234 
L 533.107134 110.954008 
L 533.642657 110.817144 
L 535.249226 110.699436 
L 540.604455 110.292246 
L 541.139978 110.112107 
L 542.746546 110.045392 
L 543.817592 109.841987 
L 544.888638 109.838033 
L 545.424161 109.710514 
L 547.03073 109.651186 
L 548.101775 109.507992 
L 548.637298 109.20248 
L 550.243867 109.014748 
L 550.77939 108.973753 
L 551.314913 108.774311 
L 553.992527 108.64083 
L 555.599096 108.543257 
L 558.812233 108.288493 
L 562.025371 108.118787 
L 564.167462 107.931946 
L 565.774031 107.707168 
L 572.735829 107.170258 
L 578.091058 106.402418 
L 579.697627 106.165072 
L 580.768672 105.984735 
L 581.839718 105.843231 
L 582.375241 105.572909 
L 582.910764 105.563194 
L 583.98181 105.399719 
L 585.588379 105.210638 
L 586.123901 105.00938 
L 587.73047 104.869038 
L 591.47913 104.075781 
L 592.014653 103.653857 
L 592.550176 103.63337 
L 593.085699 103.251247 
L 594.692268 103.04832 
L 595.227791 102.680261 
L 595.763314 102.500664 
L 596.298837 102.049107 
L 596.834359 101.864409 
L 597.905405 101.78324 
L 598.440928 101.540837 
L 601.118543 101.1474 
L 602.725111 101.049653 
L 608.08034 100.442345 
L 609.686909 100.017617 
L 610.222432 99.750441 
L 610.757955 99.131762 
L 611.293478 98.972824 
L 611.829001 98.208483 
L 612.364524 97.9525 
L 613.435569 97.837861 
L 613.971092 97.783407 
L 615.042138 97.511719 
L 616.113184 97.413521 
L 616.648707 97.362796 
L 617.18423 97.139561 
L 617.719753 96.60726 
L 618.790798 96.468217 
L 619.861844 96.358222 
L 620.397367 95.942126 
L 620.93289 95.888797 
L 621.468413 95.654794 
L 623.610504 95.500504 
L 624.68155 95.326112 
L 625.752596 95.243545 
L 626.823642 95.104529 
L 628.965733 94.785999 
L 630.572302 94.772165 
L 631.107825 94.58018 
L 633.78544 94.392388 
L 634.320962 93.996582 
L 634.856485 93.995103 
L 635.927531 93.590246 
L 636.463054 93.365999 
L 637.5341 93.224055 
L 644.495898 92.76187 
L 655.206356 92.355823 
L 656.277401 92.276752 
L 657.348447 92.263466 
L 657.88397 92.058273 
L 660.026062 91.812012 
L 660.561585 91.755932 
L 661.097108 91.513816 
L 661.63263 91.47998 
L 662.703676 90.629287 
L 663.774722 90.47752 
L 664.310245 90.475586 
L 664.845768 90.359062 
L 665.381291 89.443039 
L 665.916814 88.986244 
L 668.594428 88.45512 
L 669.129951 88.103627 
L 671.272043 87.948847 
L 671.807566 87.722554 
L 672.343088 86.888654 
L 672.878611 86.670337 
L 673.949657 84.899181 
L 674.48518 84.854091 
L 675.020703 84.495074 
L 676.091749 84.443499 
L 677.162795 83.93499 
L 677.698317 83.894657 
L 678.23384 83.725652 
L 679.840409 83.614789 
L 680.911455 83.545505 
L 681.446978 83.538877 
L 682.518024 83.297186 
L 684.124592 83.079889 
L 684.660115 82.507685 
L 685.195638 82.320104 
L 685.731161 81.919059 
L 686.266684 81.244821 
L 687.33773 81.085637 
L 687.873253 80.653256 
L 688.408775 80.48375 
L 689.479821 80.43165 
L 690.015344 79.727919 
L 691.621913 79.439409 
L 692.157436 79.143756 
L 692.692959 78.302632 
L 694.299527 78.219042 
L 695.370573 77.333776 
L 695.906096 76.598226 
L 696.441619 76.504634 
L 696.977142 76.203357 
L 698.048188 75.971479 
L 698.583711 75.351966 
L 699.119234 72.714098 
L 699.119234 72.714098 
" clip-path="url(#ped3d5f98a7)" style="fill: none; stroke: #ff7f0e; stroke-width: 3; stroke-linecap: square"/>
   </g>
   <g id="patch_9">
    <path d="M 424.155 243.02976 
L 424.155 23.58924 
" style="fill: none; stroke: #000000; stroke-width: 0.8; stroke-linejoin: miter; stroke-linecap: square"/>
   </g>
   <g id="patch_10">
    <path d="M 712.212768 243.02976 
L 712.212768 23.58924 
" style="fill: none; stroke: #000000; stroke-width: 0.8; stroke-linejoin: miter; stroke-linecap: square"/>
   </g>
   <g id="patch_11">
    <path d="M 424.155 243.02976 
L 712.212768 243.02976 
" style="fill: none; stroke: #000000; stroke-width: 0.8; stroke-linejoin: miter; stroke-linecap: square"/>
   </g>
   <g id="patch_12">
    <path d="M 424.155 23.58924 
L 712.212768 23.58924 
" style="fill: none; stroke: #000000; stroke-width: 0.8; stroke-linejoin: miter; stroke-linecap: square"/>
   </g>
   <g id="text_29">
    <!-- Query Latency CDF (log scale) -->
    <g transform="translate(422.376384 17.58924) scale(0.192 -0.192)">
     <defs>
      <path id="DejaVuSans-6c" d="M 603 4863 
L 1178 4863 
L 1178 0 
L 603 0 
L 603 4863 
z
" transform="scale(0.015625)"/>
     </defs>
     <use xlink:href="#DejaVuSans-51"/>
     <use xlink:href="#DejaVuSans-75" x="78.710938"/>
     <use xlink:href="#DejaVuSans-65" x="142.089844"/>
     <use xlink:href="#DejaVuSans-72" x="203.613281"/>
     <use xlink:href="#DejaVuSans-79" x="244.726562"/>
     <use xlink:href="#DejaVuSans-20" x="303.90625"/>
     <use xlink:href="#DejaVuSans-4c" x="335.693359"/>
     <use xlink:href="#DejaVuSans-61" x="391.40625"/>
     <use xlink:href="#DejaVuSans-74" x="452.685547"/>
     <use xlink:href="#DejaVuSans-65" x="491.894531"/>
     <use xlink:href="#DejaVuSans-6e" x="553.417969"/>
     <use xlink:href="#DejaVuSans-63" x="616.796875"/>
     <use xlink:href="#DejaVuSans-79" x="671.777344"/>
     <use xlink:href="#DejaVuSans-20" x="730.957031"/>
     <use xlink:href="#DejaVuSans-43" x="762.744141"/>
     <use xlink:href="#DejaVuSans-44" x="832.568359"/>
     <use xlink:href="#DejaVuSans-46" x="909.570312"/>
     <use xlink:href="#DejaVuSans-20" x="967.089844"/>
     <use xlink:href="#DejaVuSans-28" x="998.876953"/>
     <use xlink:href="#DejaVuSans-6c" x="1037.890625"/>
     <use xlink:href="#DejaVuSans-6f" x="1065.673828"/>
     <use xlink:href="#DejaVuSans-67" x="1126.855469"/>
     <use xlink:href="#DejaVuSans-20" x="1190.332031"/>
     <use xlink:href="#DejaVuSans-73" x="1222.119141"/>
     <use xlink:href="#DejaVuSans-63" x="1274.21875"/>
     <use xlink:href="#DejaVuSans-61" x="1329.199219"/>
     <use xlink:href="#DejaVuSans-6c" x="1390.478516"/>
     <use xlink:href="#DejaVuSans-65" x="1418.261719"/>
     <use xlink:href="#DejaVuSans-29" x="1479.785156"/>
    </g>
   </g>
   <g id="legend_2">
    <g id="patch_13">
     <path d="M 435.355 83.35924 
L 577.9075 83.35924 
Q 581.1075 83.35924 581.1075 80.15924 
L 581.1075 34.78924 
Q 581.1075 31.58924 577.9075 31.58924 
L 435.355 31.58924 
Q 432.155 31.58924 432.155 34.78924 
L 432.155 80.15924 
Q 432.155 83.35924 435.355 83.35924 
z
" style="fill: #ffffff; opacity: 0.8; stroke: #cccccc; stroke-linejoin: miter"/>
    </g>
    <g id="line2d_80">
     <path d="M 438.555 44.54674 
L 454.555 44.54674 
L 470.555 44.54674 
" style="fill: none; stroke: #1f77b4; stroke-width: 3; stroke-linecap: square"/>
    </g>
    <g id="text_30">
     <!-- PostgreSQL -->
     <g transform="translate(483.355 50.14674) scale(0.16 -0.16)">
      <use xlink:href="#DejaVuSans-50"/>
      <use xlink:href="#DejaVuSans-6f" x="56.677734"/>
      <use xlink:href="#DejaVuSans-73" x="117.859375"/>
      <use xlink:href="#DejaVuSans-74" x="169.958984"/>
      <use xlink:href="#DejaVuSans-67" x="209.167969"/>
      <use xlink:href="#DejaVuSans-72" x="272.644531"/>
      <use xlink:href="#DejaVuSans-65" x="311.507812"/>
      <use xlink:href="#DejaVuSans-53" x="373.03125"/>
      <use xlink:href="#DejaVuSans-51" x="436.507812"/>
      <use xlink:href="#DejaVuSans-4c" x="515.21875"/>
     </g>
    </g>
    <g id="line2d_81">
     <path d="M 438.555 68.03174 
L 454.555 68.03174 
L 470.555 68.03174 
" style="fill: none; stroke: #ff7f0e; stroke-width: 3; stroke-linecap: square"/>
    </g>
    <g id="text_31">
     <!-- Bao -->
     <g transform="translate(483.355 73.63174) scale(0.16 -0.16)">
      <use xlink:href="#DejaVuSans-42"/>
      <use xlink:href="#DejaVuSans-61" x="68.603516"/>
      <use xlink:href="#DejaVuSans-6f" x="129.882812"/>
     </g>
    </g>
   </g>
  </g>
 </g>
 <defs>
  <clipPath id="p0129c71966">
   <rect x="60.02524" y="23.58924" width="288.057768" height="219.44052"/>
  </clipPath>
  <clipPath id="ped3d5f98a7">
   <rect x="424.155" y="23.58924" width="288.057768" height="219.44052"/>
  </clipPath>
 </defs>
</svg>
