<?xml version="1.0" encoding="utf-8" standalone="no"?>
<!DOCTYPE svg PUBLIC "-//W3C//DTD SVG 1.1//EN"
  "http://www.w3.org/Graphics/SVG/1.1/DTD/svg11.dtd">
<svg xmlns:xlink="http://www.w3.org/1999/xlink" width="460.8pt" height="345.6pt" viewBox="0 0 460.8 345.6" xmlns="http://www.w3.org/2000/svg" version="1.1">
 <metadata>
  <rdf:RDF xmlns:dc="http://purl.org/dc/elements/1.1/" xmlns:cc="http://creativecommons.org/ns#" xmlns:rdf="http://www.w3.org/1999/02/22-rdf-syntax-ns#">
   <cc:Work>
    <dc:type rdf:resource="http://purl.org/dc/dcmitype/StillImage"/>
    <dc:date>2024-11-23T18:33:33.295977</dc:date>
    <dc:format>image/svg+xml</dc:format>
    <dc:creator>
     <cc:Agent>
      <dc:title>Matplotlib v3.7.2, https://matplotlib.org/</dc:title>
     </cc:Agent>
    </dc:creator>
   </cc:Work>
  </rdf:RDF>
 </metadata>
 <defs>
  <style type="text/css">*{stroke-linejoin: round; stroke-linecap: butt}</style>
 </defs>
 <g id="figure_1">
  <g id="patch_1">
   <path d="M 0 345.6 
L 460.8 345.6 
L 460.8 0 
L 0 0 
z
" style="fill: #ffffff"/>
  </g>
  <g id="axes_1">
   <g id="patch_2">
    <path d="M 60.02524 300.62976 
L 448.118862 300.62976 
L 448.118862 23.58924 
L 60.02524 23.58924 
z
" style="fill: #ffffff"/>
   </g>
   <g id="PathCollection_1">
    <defs>
     <path id="m4e5d8c7020" d="M 0 3.354102 
C 0.889518 3.354102 1.742724 3.000693 2.371708 2.371708 
C 3.000693 1.742724 3.354102 0.889518 3.354102 0 
C 3.354102 -0.889518 3.000693 -1.742724 2.371708 -2.371708 
C 1.742724 -3.000693 0.889518 -3.354102 0 -3.354102 
C -0.889518 -3.354102 -1.742724 -3.000693 -2.371708 -2.371708 
C -3.000693 -1.742724 -3.354102 -0.889518 -3.354102 0 
C -3.354102 0.889518 -3.000693 1.742724 -2.371708 2.371708 
C -1.742724 3.000693 -0.889518 3.354102 0 3.354102 
z
" style="stroke: #ff0000"/>
    </defs>
    <g clip-path="url(#p21e77193a2)">
     <use xlink:href="#m4e5d8c7020" x="102.442578" y="275.923742" style="fill: #ff0000; stroke: #ff0000"/>
     <use xlink:href="#m4e5d8c7020" x="114.239018" y="263.305755" style="fill: #ff0000; stroke: #ff0000"/>
     <use xlink:href="#m4e5d8c7020" x="128.702468" y="250.687768" style="fill: #ff0000; stroke: #ff0000"/>
     <use xlink:href="#m4e5d8c7020" x="141.662858" y="238.069781" style="fill: #ff0000; stroke: #ff0000"/>
     <use xlink:href="#m4e5d8c7020" x="156.859617" y="225.451794" style="fill: #ff0000; stroke: #ff0000"/>
     <use xlink:href="#m4e5d8c7020" x="166.410617" y="212.833807" style="fill: #ff0000; stroke: #ff0000"/>
     <use xlink:href="#m4e5d8c7020" x="176.293677" y="200.21582" style="fill: #ff0000; stroke: #ff0000"/>
     <use xlink:href="#m4e5d8c7020" x="189.964561" y="187.597834" style="fill: #ff0000; stroke: #ff0000"/>
     <use xlink:href="#m4e5d8c7020" x="198.289566" y="174.979847" style="fill: #ff0000; stroke: #ff0000"/>
     <use xlink:href="#m4e5d8c7020" x="208.368278" y="162.36186" style="fill: #ff0000; stroke: #ff0000"/>
     <use xlink:href="#m4e5d8c7020" x="220.036463" y="149.743873" style="fill: #ff0000; stroke: #ff0000"/>
     <use xlink:href="#m4e5d8c7020" x="231.783885" y="137.125886" style="fill: #ff0000; stroke: #ff0000"/>
     <use xlink:href="#m4e5d8c7020" x="241.904531" y="124.507899" style="fill: #ff0000; stroke: #ff0000"/>
     <use xlink:href="#m4e5d8c7020" x="252.446589" y="111.889912" style="fill: #ff0000; stroke: #ff0000"/>
     <use xlink:href="#m4e5d8c7020" x="266.149983" y="99.271925" style="fill: #ff0000; stroke: #ff0000"/>
     <use xlink:href="#m4e5d8c7020" x="275.161921" y="86.653938" style="fill: #ff0000; stroke: #ff0000"/>
     <use xlink:href="#m4e5d8c7020" x="285.503045" y="74.035952" style="fill: #ff0000; stroke: #ff0000"/>
     <use xlink:href="#m4e5d8c7020" x="295.281801" y="61.417965" style="fill: #ff0000; stroke: #ff0000"/>
     <use xlink:href="#m4e5d8c7020" x="308.401623" y="48.799978" style="fill: #ff0000; stroke: #ff0000"/>
    </g>
   </g>
   <g id="matplotlib.axis_1">
    <g id="xtick_1">
     <g id="line2d_1">
      <path d="M 77.665859 300.62976 
L 77.665859 23.58924 
" clip-path="url(#p21e77193a2)" style="fill: none; stroke-dasharray: 3.7,1.6; stroke-dashoffset: 0; stroke: #b0b0b0"/>
     </g>
     <g id="line2d_2">
      <defs>
       <path id="m7e881d18e2" d="M 0 0 
L 0 3.5 
" style="stroke: #000000; stroke-width: 0.8"/>
      </defs>
      <g>
       <use xlink:href="#m7e881d18e2" x="77.665859" y="300.62976" style="stroke: #000000; stroke-width: 0.8"/>
      </g>
     </g>
     <g id="text_1">
      <!-- 0 -->
      <g transform="translate(72.575859 319.78726) scale(0.16 -0.16)">
       <defs>
        <path id="DejaVuSans-30" d="M 2034 4250 
Q 1547 4250 1301 3770 
Q 1056 3291 1056 2328 
Q 1056 1369 1301 889 
Q 1547 409 2034 409 
Q 2525 409 2770 889 
Q 3016 1369 3016 2328 
Q 3016 3291 2770 3770 
Q 2525 4250 2034 4250 
z
M 2034 4750 
Q 2819 4750 3233 4129 
Q 3647 3509 3647 2328 
Q 3647 1150 3233 529 
Q 2819 -91 2034 -91 
Q 1250 -91 836 529 
Q 422 1150 422 2328 
Q 422 3509 836 4129 
Q 1250 4750 2034 4750 
z
" transform="scale(0.015625)"/>
       </defs>
       <use xlink:href="#DejaVuSans-30"/>
      </g>
     </g>
    </g>
    <g id="xtick_2">
     <g id="line2d_3">
      <path d="M 138.475451 300.62976 
L 138.475451 23.58924 
" clip-path="url(#p21e77193a2)" style="fill: none; stroke-dasharray: 3.7,1.6; stroke-dashoffset: 0; stroke: #b0b0b0"/>
     </g>
     <g id="line2d_4">
      <g>
       <use xlink:href="#m7e881d18e2" x="138.475451" y="300.62976" style="stroke: #000000; stroke-width: 0.8"/>
      </g>
     </g>
     <g id="text_2">
      <!-- 20 -->
      <g transform="translate(128.295451 319.78726) scale(0.16 -0.16)">
       <defs>
        <path id="DejaVuSans-32" d="M 1228 531 
L 3431 531 
L 3431 0 
L 469 0 
L 469 531 
Q 828 903 1448 1529 
Q 2069 2156 2228 2338 
Q 2531 2678 2651 2914 
Q 2772 3150 2772 3378 
Q 2772 3750 2511 3984 
Q 2250 4219 1831 4219 
Q 1534 4219 1204 4116 
Q 875 4013 500 3803 
L 500 4441 
Q 881 4594 1212 4672 
Q 1544 4750 1819 4750 
Q 2544 4750 2975 4387 
Q 3406 4025 3406 3419 
Q 3406 3131 3298 2873 
Q 3191 2616 2906 2266 
Q 2828 2175 2409 1742 
Q 1991 1309 1228 531 
z
" transform="scale(0.015625)"/>
       </defs>
       <use xlink:href="#DejaVuSans-32"/>
       <use xlink:href="#DejaVuSans-30" x="63.623047"/>
      </g>
     </g>
    </g>
    <g id="xtick_3">
     <g id="line2d_5">
      <path d="M 199.285044 300.62976 
L 199.285044 23.58924 
" clip-path="url(#p21e77193a2)" style="fill: none; stroke-dasharray: 3.7,1.6; stroke-dashoffset: 0; stroke: #b0b0b0"/>
     </g>
     <g id="line2d_6">
      <g>
       <use xlink:href="#m7e881d18e2" x="199.285044" y="300.62976" style="stroke: #000000; stroke-width: 0.8"/>
      </g>
     </g>
     <g id="text_3">
      <!-- 40 -->
      <g transform="translate(189.105044 319.78726) scale(0.16 -0.16)">
       <defs>
        <path id="DejaVuSans-34" d="M 2419 4116 
L 825 1625 
L 2419 1625 
L 2419 4116 
z
M 2253 4666 
L 3047 4666 
L 3047 1625 
L 3713 1625 
L 3713 1100 
L 3047 1100 
L 3047 0 
L 2419 0 
L 2419 1100 
L 313 1100 
L 313 1709 
L 2253 4666 
z
" transform="scale(0.015625)"/>
       </defs>
       <use xlink:href="#DejaVuSans-34"/>
       <use xlink:href="#DejaVuSans-30" x="63.623047"/>
      </g>
     </g>
    </g>
    <g id="xtick_4">
     <g id="line2d_7">
      <path d="M 260.094636 300.62976 
L 260.094636 23.58924 
" clip-path="url(#p21e77193a2)" style="fill: none; stroke-dasharray: 3.7,1.6; stroke-dashoffset: 0; stroke: #b0b0b0"/>
     </g>
     <g id="line2d_8">
      <g>
       <use xlink:href="#m7e881d18e2" x="260.094636" y="300.62976" style="stroke: #000000; stroke-width: 0.8"/>
      </g>
     </g>
     <g id="text_4">
      <!-- 60 -->
      <g transform="translate(249.914636 319.78726) scale(0.16 -0.16)">
       <defs>
        <path id="DejaVuSans-36" d="M 2113 2584 
Q 1688 2584 1439 2293 
Q 1191 2003 1191 1497 
Q 1191 994 1439 701 
Q 1688 409 2113 409 
Q 2538 409 2786 701 
Q 3034 994 3034 1497 
Q 3034 2003 2786 2293 
Q 2538 2584 2113 2584 
z
M 3366 4563 
L 3366 3988 
Q 3128 4100 2886 4159 
Q 2644 4219 2406 4219 
Q 1781 4219 1451 3797 
Q 1122 3375 1075 2522 
Q 1259 2794 1537 2939 
Q 1816 3084 2150 3084 
Q 2853 3084 3261 2657 
Q 3669 2231 3669 1497 
Q 3669 778 3244 343 
Q 2819 -91 2113 -91 
Q 1303 -91 875 529 
Q 447 1150 447 2328 
Q 447 3434 972 4092 
Q 1497 4750 2381 4750 
Q 2619 4750 2861 4703 
Q 3103 4656 3366 4563 
z
" transform="scale(0.015625)"/>
       </defs>
       <use xlink:href="#DejaVuSans-36"/>
       <use xlink:href="#DejaVuSans-30" x="63.623047"/>
      </g>
     </g>
    </g>
    <g id="xtick_5">
     <g id="line2d_9">
      <path d="M 320.904228 300.62976 
L 320.904228 23.58924 
" clip-path="url(#p21e77193a2)" style="fill: none; stroke-dasharray: 3.7,1.6; stroke-dashoffset: 0; stroke: #b0b0b0"/>
     </g>
     <g id="line2d_10">
      <g>
       <use xlink:href="#m7e881d18e2" x="320.904228" y="300.62976" style="stroke: #000000; stroke-width: 0.8"/>
      </g>
     </g>
     <g id="text_5">
      <!-- 80 -->
      <g transform="translate(310.724228 319.78726) scale(0.16 -0.16)">
       <defs>
        <path id="DejaVuSans-38" d="M 2034 2216 
Q 1584 2216 1326 1975 
Q 1069 1734 1069 1313 
Q 1069 891 1326 650 
Q 1584 409 2034 409 
Q 2484 409 2743 651 
Q 3003 894 3003 1313 
Q 3003 1734 2745 1975 
Q 2488 2216 2034 2216 
z
M 1403 2484 
Q 997 2584 770 2862 
Q 544 3141 544 3541 
Q 544 4100 942 4425 
Q 1341 4750 2034 4750 
Q 2731 4750 3128 4425 
Q 3525 4100 3525 3541 
Q 3525 3141 3298 2862 
Q 3072 2584 2669 2484 
Q 3125 2378 3379 2068 
Q 3634 1759 3634 1313 
Q 3634 634 3220 271 
Q 2806 -91 2034 -91 
Q 1263 -91 848 271 
Q 434 634 434 1313 
Q 434 1759 690 2068 
Q 947 2378 1403 2484 
z
M 1172 3481 
Q 1172 3119 1398 2916 
Q 1625 2713 2034 2713 
Q 2441 2713 2670 2916 
Q 2900 3119 2900 3481 
Q 2900 3844 2670 4047 
Q 2441 4250 2034 4250 
Q 1625 4250 1398 4047 
Q 1172 3844 1172 3481 
z
" transform="scale(0.015625)"/>
       </defs>
       <use xlink:href="#DejaVuSans-38"/>
       <use xlink:href="#DejaVuSans-30" x="63.623047"/>
      </g>
     </g>
    </g>
    <g id="xtick_6">
     <g id="line2d_11">
      <path d="M 381.713821 300.62976 
L 381.713821 23.58924 
" clip-path="url(#p21e77193a2)" style="fill: none; stroke-dasharray: 3.7,1.6; stroke-dashoffset: 0; stroke: #b0b0b0"/>
     </g>
     <g id="line2d_12">
      <g>
       <use xlink:href="#m7e881d18e2" x="381.713821" y="300.62976" style="stroke: #000000; stroke-width: 0.8"/>
      </g>
     </g>
     <g id="text_6">
      <!-- 100 -->
      <g transform="translate(366.443821 319.78726) scale(0.16 -0.16)">
       <defs>
        <path id="DejaVuSans-31" d="M 794 531 
L 1825 531 
L 1825 4091 
L 703 3866 
L 703 4441 
L 1819 4666 
L 2450 4666 
L 2450 531 
L 3481 531 
L 3481 0 
L 794 0 
L 794 531 
z
" transform="scale(0.015625)"/>
       </defs>
       <use xlink:href="#DejaVuSans-31"/>
       <use xlink:href="#DejaVuSans-30" x="63.623047"/>
       <use xlink:href="#DejaVuSans-30" x="127.246094"/>
      </g>
     </g>
    </g>
    <g id="xtick_7">
     <g id="line2d_13">
      <path d="M 442.523413 300.62976 
L 442.523413 23.58924 
" clip-path="url(#p21e77193a2)" style="fill: none; stroke-dasharray: 3.7,1.6; stroke-dashoffset: 0; stroke: #b0b0b0"/>
     </g>
     <g id="line2d_14">
      <g>
       <use xlink:href="#m7e881d18e2" x="442.523413" y="300.62976" style="stroke: #000000; stroke-width: 0.8"/>
      </g>
     </g>
     <g id="text_7">
      <!-- 120 -->
      <g transform="translate(427.253413 319.78726) scale(0.16 -0.16)">
       <use xlink:href="#DejaVuSans-31"/>
       <use xlink:href="#DejaVuSans-32" x="63.623047"/>
       <use xlink:href="#DejaVuSans-30" x="127.246094"/>
      </g>
     </g>
    </g>
    <g id="text_8">
     <!-- Time (m) -->
     <g transform="translate(217.920801 339.27226) scale(0.16 -0.16)">
      <defs>
       <path id="DejaVuSans-54" d="M -19 4666 
L 3928 4666 
L 3928 4134 
L 2272 4134 
L 2272 0 
L 1638 0 
L 1638 4134 
L -19 4134 
L -19 4666 
z
" transform="scale(0.015625)"/>
       <path id="DejaVuSans-69" d="M 603 3500 
L 1178 3500 
L 1178 0 
L 603 0 
L 603 3500 
z
M 603 4863 
L 1178 4863 
L 1178 4134 
L 603 4134 
L 603 4863 
z
" transform="scale(0.015625)"/>
       <path id="DejaVuSans-6d" d="M 3328 2828 
Q 3544 3216 3844 3400 
Q 4144 3584 4550 3584 
Q 5097 3584 5394 3201 
Q 5691 2819 5691 2113 
L 5691 0 
L 5113 0 
L 5113 2094 
Q 5113 2597 4934 2840 
Q 4756 3084 4391 3084 
Q 3944 3084 3684 2787 
Q 3425 2491 3425 1978 
L 3425 0 
L 2847 0 
L 2847 2094 
Q 2847 2600 2669 2842 
Q 2491 3084 2119 3084 
Q 1678 3084 1418 2786 
Q 1159 2488 1159 1978 
L 1159 0 
L 581 0 
L 581 3500 
L 1159 3500 
L 1159 2956 
Q 1356 3278 1631 3431 
Q 1906 3584 2284 3584 
Q 2666 3584 2933 3390 
Q 3200 3197 3328 2828 
z
" transform="scale(0.015625)"/>
       <path id="DejaVuSans-65" d="M 3597 1894 
L 3597 1613 
L 953 1613 
Q 991 1019 1311 708 
Q 1631 397 2203 397 
Q 2534 397 2845 478 
Q 3156 559 3463 722 
L 3463 178 
Q 3153 47 2828 -22 
Q 2503 -91 2169 -91 
Q 1331 -91 842 396 
Q 353 884 353 1716 
Q 353 2575 817 3079 
Q 1281 3584 2069 3584 
Q 2775 3584 3186 3129 
Q 3597 2675 3597 1894 
z
M 3022 2063 
Q 3016 2534 2758 2815 
Q 2500 3097 2075 3097 
Q 1594 3097 1305 2825 
Q 1016 2553 972 2059 
L 3022 2063 
z
" transform="scale(0.015625)"/>
       <path id="DejaVuSans-20" transform="scale(0.015625)"/>
       <path id="DejaVuSans-28" d="M 1984 4856 
Q 1566 4138 1362 3434 
Q 1159 2731 1159 2009 
Q 1159 1288 1364 580 
Q 1569 -128 1984 -844 
L 1484 -844 
Q 1016 -109 783 600 
Q 550 1309 550 2009 
Q 550 2706 781 3412 
Q 1013 4119 1484 4856 
L 1984 4856 
z
" transform="scale(0.015625)"/>
       <path id="DejaVuSans-29" d="M 513 4856 
L 1013 4856 
Q 1481 4119 1714 3412 
Q 1947 2706 1947 2009 
Q 1947 1309 1714 600 
Q 1481 -109 1013 -844 
L 513 -844 
Q 928 -128 1133 580 
Q 1338 1288 1338 2009 
Q 1338 2731 1133 3434 
Q 928 4138 513 4856 
z
" transform="scale(0.015625)"/>
      </defs>
      <use xlink:href="#DejaVuSans-54"/>
      <use xlink:href="#DejaVuSans-69" x="57.958984"/>
      <use xlink:href="#DejaVuSans-6d" x="85.742188"/>
      <use xlink:href="#DejaVuSans-65" x="183.154297"/>
      <use xlink:href="#DejaVuSans-20" x="244.677734"/>
      <use xlink:href="#DejaVuSans-28" x="276.464844"/>
      <use xlink:href="#DejaVuSans-6d" x="315.478516"/>
      <use xlink:href="#DejaVuSans-29" x="412.890625"/>
     </g>
    </g>
   </g>
   <g id="matplotlib.axis_2">
    <g id="ytick_1">
     <g id="line2d_15">
      <path d="M 60.02524 288.037009 
L 448.118862 288.037009 
" clip-path="url(#p21e77193a2)" style="fill: none; stroke-dasharray: 3.7,1.6; stroke-dashoffset: 0; stroke: #b0b0b0"/>
     </g>
     <g id="line2d_16">
      <defs>
       <path id="m1e83a6a86f" d="M 0 0 
L -3.5 0 
" style="stroke: #000000; stroke-width: 0.8"/>
      </defs>
      <g>
       <use xlink:href="#m1e83a6a86f" x="60.02524" y="288.037009" style="stroke: #000000; stroke-width: 0.8"/>
      </g>
     </g>
     <g id="text_9">
      <!-- 0 -->
      <g transform="translate(42.84524 294.115759) scale(0.16 -0.16)">
       <use xlink:href="#DejaVuSans-30"/>
      </g>
     </g>
    </g>
    <g id="ytick_2">
     <g id="line2d_17">
      <path d="M 60.02524 237.565062 
L 448.118862 237.565062 
" clip-path="url(#p21e77193a2)" style="fill: none; stroke-dasharray: 3.7,1.6; stroke-dashoffset: 0; stroke: #b0b0b0"/>
     </g>
     <g id="line2d_18">
      <g>
       <use xlink:href="#m1e83a6a86f" x="60.02524" y="237.565062" style="stroke: #000000; stroke-width: 0.8"/>
      </g>
     </g>
     <g id="text_10">
      <!-- 100 -->
      <g transform="translate(22.48524 243.643812) scale(0.16 -0.16)">
       <use xlink:href="#DejaVuSans-31"/>
       <use xlink:href="#DejaVuSans-30" x="63.623047"/>
       <use xlink:href="#DejaVuSans-30" x="127.246094"/>
      </g>
     </g>
    </g>
    <g id="ytick_3">
     <g id="line2d_19">
      <path d="M 60.02524 187.093114 
L 448.118862 187.093114 
" clip-path="url(#p21e77193a2)" style="fill: none; stroke-dasharray: 3.7,1.6; stroke-dashoffset: 0; stroke: #b0b0b0"/>
     </g>
     <g id="line2d_20">
      <g>
       <use xlink:href="#m1e83a6a86f" x="60.02524" y="187.093114" style="stroke: #000000; stroke-width: 0.8"/>
      </g>
     </g>
     <g id="text_11">
      <!-- 200 -->
      <g transform="translate(22.48524 193.171864) scale(0.16 -0.16)">
       <use xlink:href="#DejaVuSans-32"/>
       <use xlink:href="#DejaVuSans-30" x="63.623047"/>
       <use xlink:href="#DejaVuSans-30" x="127.246094"/>
      </g>
     </g>
    </g>
    <g id="ytick_4">
     <g id="line2d_21">
      <path d="M 60.02524 136.621166 
L 448.118862 136.621166 
" clip-path="url(#p21e77193a2)" style="fill: none; stroke-dasharray: 3.7,1.6; stroke-dashoffset: 0; stroke: #b0b0b0"/>
     </g>
     <g id="line2d_22">
      <g>
       <use xlink:href="#m1e83a6a86f" x="60.02524" y="136.621166" style="stroke: #000000; stroke-width: 0.8"/>
      </g>
     </g>
     <g id="text_12">
      <!-- 300 -->
      <g transform="translate(22.48524 142.699916) scale(0.16 -0.16)">
       <defs>
        <path id="DejaVuSans-33" d="M 2597 2516 
Q 3050 2419 3304 2112 
Q 3559 1806 3559 1356 
Q 3559 666 3084 287 
Q 2609 -91 1734 -91 
Q 1441 -91 1130 -33 
Q 819 25 488 141 
L 488 750 
Q 750 597 1062 519 
Q 1375 441 1716 441 
Q 2309 441 2620 675 
Q 2931 909 2931 1356 
Q 2931 1769 2642 2001 
Q 2353 2234 1838 2234 
L 1294 2234 
L 1294 2753 
L 1863 2753 
Q 2328 2753 2575 2939 
Q 2822 3125 2822 3475 
Q 2822 3834 2567 4026 
Q 2313 4219 1838 4219 
Q 1578 4219 1281 4162 
Q 984 4106 628 3988 
L 628 4550 
Q 988 4650 1302 4700 
Q 1616 4750 1894 4750 
Q 2613 4750 3031 4423 
Q 3450 4097 3450 3541 
Q 3450 3153 3228 2886 
Q 3006 2619 2597 2516 
z
" transform="scale(0.015625)"/>
       </defs>
       <use xlink:href="#DejaVuSans-33"/>
       <use xlink:href="#DejaVuSans-30" x="63.623047"/>
       <use xlink:href="#DejaVuSans-30" x="127.246094"/>
      </g>
     </g>
    </g>
    <g id="ytick_5">
     <g id="line2d_23">
      <path d="M 60.02524 86.149219 
L 448.118862 86.149219 
" clip-path="url(#p21e77193a2)" style="fill: none; stroke-dasharray: 3.7,1.6; stroke-dashoffset: 0; stroke: #b0b0b0"/>
     </g>
     <g id="line2d_24">
      <g>
       <use xlink:href="#m1e83a6a86f" x="60.02524" y="86.149219" style="stroke: #000000; stroke-width: 0.8"/>
      </g>
     </g>
     <g id="text_13">
      <!-- 400 -->
      <g transform="translate(22.48524 92.227969) scale(0.16 -0.16)">
       <use xlink:href="#DejaVuSans-34"/>
       <use xlink:href="#DejaVuSans-30" x="63.623047"/>
       <use xlink:href="#DejaVuSans-30" x="127.246094"/>
      </g>
     </g>
    </g>
    <g id="ytick_6">
     <g id="line2d_25">
      <path d="M 60.02524 35.677271 
L 448.118862 35.677271 
" clip-path="url(#p21e77193a2)" style="fill: none; stroke-dasharray: 3.7,1.6; stroke-dashoffset: 0; stroke: #b0b0b0"/>
     </g>
     <g id="line2d_26">
      <g>
       <use xlink:href="#m1e83a6a86f" x="60.02524" y="35.677271" style="stroke: #000000; stroke-width: 0.8"/>
      </g>
     </g>
     <g id="text_14">
      <!-- 500 -->
      <g transform="translate(22.48524 41.756021) scale(0.16 -0.16)">
       <defs>
        <path id="DejaVuSans-35" d="M 691 4666 
L 3169 4666 
L 3169 4134 
L 1269 4134 
L 1269 2991 
Q 1406 3038 1543 3061 
Q 1681 3084 1819 3084 
Q 2600 3084 3056 2656 
Q 3513 2228 3513 1497 
Q 3513 744 3044 326 
Q 2575 -91 1722 -91 
Q 1428 -91 1123 -41 
Q 819 9 494 109 
L 494 744 
Q 775 591 1075 516 
Q 1375 441 1709 441 
Q 2250 441 2565 725 
Q 2881 1009 2881 1497 
Q 2881 1984 2565 2268 
Q 2250 2553 1709 2553 
Q 1456 2553 1204 2497 
Q 953 2441 691 2322 
L 691 4666 
z
" transform="scale(0.015625)"/>
       </defs>
       <use xlink:href="#DejaVuSans-35"/>
       <use xlink:href="#DejaVuSans-30" x="63.623047"/>
       <use xlink:href="#DejaVuSans-30" x="127.246094"/>
      </g>
     </g>
    </g>
    <g id="text_15">
     <!-- Queries complete -->
     <g transform="translate(15.15774 232.912) rotate(-90) scale(0.16 -0.16)">
      <defs>
       <path id="DejaVuSans-51" d="M 2522 4238 
Q 1834 4238 1429 3725 
Q 1025 3213 1025 2328 
Q 1025 1447 1429 934 
Q 1834 422 2522 422 
Q 3209 422 3611 934 
Q 4013 1447 4013 2328 
Q 4013 3213 3611 3725 
Q 3209 4238 2522 4238 
z
M 3406 84 
L 4238 -825 
L 3475 -825 
L 2784 -78 
Q 2681 -84 2626 -87 
Q 2572 -91 2522 -91 
Q 1538 -91 948 567 
Q 359 1225 359 2328 
Q 359 3434 948 4092 
Q 1538 4750 2522 4750 
Q 3503 4750 4090 4092 
Q 4678 3434 4678 2328 
Q 4678 1516 4351 937 
Q 4025 359 3406 84 
z
" transform="scale(0.015625)"/>
       <path id="DejaVuSans-75" d="M 544 1381 
L 544 3500 
L 1119 3500 
L 1119 1403 
Q 1119 906 1312 657 
Q 1506 409 1894 409 
Q 2359 409 2629 706 
Q 2900 1003 2900 1516 
L 2900 3500 
L 3475 3500 
L 3475 0 
L 2900 0 
L 2900 538 
Q 2691 219 2414 64 
Q 2138 -91 1772 -91 
Q 1169 -91 856 284 
Q 544 659 544 1381 
z
M 1991 3584 
L 1991 3584 
z
" transform="scale(0.015625)"/>
       <path id="DejaVuSans-72" d="M 2631 2963 
Q 2534 3019 2420 3045 
Q 2306 3072 2169 3072 
Q 1681 3072 1420 2755 
Q 1159 2438 1159 1844 
L 1159 0 
L 581 0 
L 581 3500 
L 1159 3500 
L 1159 2956 
Q 1341 3275 1631 3429 
Q 1922 3584 2338 3584 
Q 2397 3584 2469 3576 
Q 2541 3569 2628 3553 
L 2631 2963 
z
" transform="scale(0.015625)"/>
       <path id="DejaVuSans-73" d="M 2834 3397 
L 2834 2853 
Q 2591 2978 2328 3040 
Q 2066 3103 1784 3103 
Q 1356 3103 1142 2972 
Q 928 2841 928 2578 
Q 928 2378 1081 2264 
Q 1234 2150 1697 2047 
L 1894 2003 
Q 2506 1872 2764 1633 
Q 3022 1394 3022 966 
Q 3022 478 2636 193 
Q 2250 -91 1575 -91 
Q 1294 -91 989 -36 
Q 684 19 347 128 
L 347 722 
Q 666 556 975 473 
Q 1284 391 1588 391 
Q 1994 391 2212 530 
Q 2431 669 2431 922 
Q 2431 1156 2273 1281 
Q 2116 1406 1581 1522 
L 1381 1569 
Q 847 1681 609 1914 
Q 372 2147 372 2553 
Q 372 3047 722 3315 
Q 1072 3584 1716 3584 
Q 2034 3584 2315 3537 
Q 2597 3491 2834 3397 
z
" transform="scale(0.015625)"/>
       <path id="DejaVuSans-63" d="M 3122 3366 
L 3122 2828 
Q 2878 2963 2633 3030 
Q 2388 3097 2138 3097 
Q 1578 3097 1268 2742 
Q 959 2388 959 1747 
Q 959 1106 1268 751 
Q 1578 397 2138 397 
Q 2388 397 2633 464 
Q 2878 531 3122 666 
L 3122 134 
Q 2881 22 2623 -34 
Q 2366 -91 2075 -91 
Q 1284 -91 818 406 
Q 353 903 353 1747 
Q 353 2603 823 3093 
Q 1294 3584 2113 3584 
Q 2378 3584 2631 3529 
Q 2884 3475 3122 3366 
z
" transform="scale(0.015625)"/>
       <path id="DejaVuSans-6f" d="M 1959 3097 
Q 1497 3097 1228 2736 
Q 959 2375 959 1747 
Q 959 1119 1226 758 
Q 1494 397 1959 397 
Q 2419 397 2687 759 
Q 2956 1122 2956 1747 
Q 2956 2369 2687 2733 
Q 2419 3097 1959 3097 
z
M 1959 3584 
Q 2709 3584 3137 3096 
Q 3566 2609 3566 1747 
Q 3566 888 3137 398 
Q 2709 -91 1959 -91 
Q 1206 -91 779 398 
Q 353 888 353 1747 
Q 353 2609 779 3096 
Q 1206 3584 1959 3584 
z
" transform="scale(0.015625)"/>
       <path id="DejaVuSans-70" d="M 1159 525 
L 1159 -1331 
L 581 -1331 
L 581 3500 
L 1159 3500 
L 1159 2969 
Q 1341 3281 1617 3432 
Q 1894 3584 2278 3584 
Q 2916 3584 3314 3078 
Q 3713 2572 3713 1747 
Q 3713 922 3314 415 
Q 2916 -91 2278 -91 
Q 1894 -91 1617 61 
Q 1341 213 1159 525 
z
M 3116 1747 
Q 3116 2381 2855 2742 
Q 2594 3103 2138 3103 
Q 1681 3103 1420 2742 
Q 1159 2381 1159 1747 
Q 1159 1113 1420 752 
Q 1681 391 2138 391 
Q 2594 391 2855 752 
Q 3116 1113 3116 1747 
z
" transform="scale(0.015625)"/>
       <path id="DejaVuSans-6c" d="M 603 4863 
L 1178 4863 
L 1178 0 
L 603 0 
L 603 4863 
z
" transform="scale(0.015625)"/>
       <path id="DejaVuSans-74" d="M 1172 4494 
L 1172 3500 
L 2356 3500 
L 2356 3053 
L 1172 3053 
L 1172 1153 
Q 1172 725 1289 603 
Q 1406 481 1766 481 
L 2356 481 
L 2356 0 
L 1766 0 
Q 1100 0 847 248 
Q 594 497 594 1153 
L 594 3053 
L 172 3053 
L 172 3500 
L 594 3500 
L 594 4494 
L 1172 4494 
z
" transform="scale(0.015625)"/>
      </defs>
      <use xlink:href="#DejaVuSans-51"/>
      <use xlink:href="#DejaVuSans-75" x="78.710938"/>
      <use xlink:href="#DejaVuSans-65" x="142.089844"/>
      <use xlink:href="#DejaVuSans-72" x="203.613281"/>
      <use xlink:href="#DejaVuSans-69" x="244.726562"/>
      <use xlink:href="#DejaVuSans-65" x="272.509766"/>
      <use xlink:href="#DejaVuSans-73" x="334.033203"/>
      <use xlink:href="#DejaVuSans-20" x="386.132812"/>
      <use xlink:href="#DejaVuSans-63" x="417.919922"/>
      <use xlink:href="#DejaVuSans-6f" x="472.900391"/>
      <use xlink:href="#DejaVuSans-6d" x="534.082031"/>
      <use xlink:href="#DejaVuSans-70" x="631.494141"/>
      <use xlink:href="#DejaVuSans-6c" x="694.970703"/>
      <use xlink:href="#DejaVuSans-65" x="722.753906"/>
      <use xlink:href="#DejaVuSans-74" x="784.277344"/>
      <use xlink:href="#DejaVuSans-65" x="823.486328"/>
     </g>
    </g>
   </g>
   <g id="line2d_27">
    <path d="M 77.665859 288.037009 
L 82.111204 287.53229 
L 82.121022 287.02757 
L 83.078128 286.522851 
L 87.037326 286.018131 
L 89.739449 284.503973 
L 89.926203 283.999253 
L 91.619354 283.494534 
L 92.37605 282.989814 
L 92.37968 282.485095 
L 93.612704 281.980375 
L 94.207919 280.970936 
L 98.266331 280.466217 
L 99.442915 279.961497 
L 99.801474 278.952059 
L 101.20223 278.447339 
L 101.32726 277.94262 
L 102.728769 277.4379 
L 105.237772 276.933181 
L 106.221439 276.428461 
L 110.656096 275.419022 
L 112.230366 274.409583 
L 116.029522 273.904864 
L 116.22908 272.895425 
L 119.523159 272.390705 
L 124.167998 271.885986 
L 126.085179 271.381266 
L 126.090482 270.876547 
L 126.751864 270.371827 
L 128.897212 269.867108 
L 128.971827 269.362389 
L 129.852779 268.857669 
L 130.067819 268.35295 
L 130.923301 267.84823 
L 134.162295 266.838791 
L 134.170982 266.334072 
L 134.766204 265.829352 
L 135.746061 265.324633 
L 136.10819 264.819913 
L 136.113338 264.315194 
L 136.231728 263.810474 
L 137.088728 262.296316 
L 139.290787 261.286877 
L 139.389162 260.277438 
L 139.746854 259.772718 
L 140.838001 259.267999 
L 141.161965 258.76328 
L 141.163066 258.25856 
L 141.486308 257.753841 
L 141.556219 257.249121 
L 141.971534 256.744402 
L 142.22953 256.239682 
L 144.129348 255.230243 
L 146.12308 254.220804 
L 146.203181 253.716085 
L 147.264125 253.211365 
L 147.688189 252.706646 
L 148.850617 252.201926 
L 149.375811 251.697207 
L 149.420874 251.192487 
L 149.588597 250.687768 
L 149.589821 250.183048 
L 150.661678 249.678329 
L 150.699716 249.173609 
L 152.695663 248.164171 
L 153.311277 247.659451 
L 154.627862 247.154732 
L 154.758689 246.650012 
L 155.314282 246.145293 
L 155.315781 245.640573 
L 156.091792 244.631134 
L 156.093907 244.126415 
L 156.640883 243.621695 
L 157.464067 243.116976 
L 157.819354 242.612256 
L 157.924022 242.107537 
L 158.702313 241.602817 
L 158.773358 241.098098 
L 159.501647 240.593378 
L 159.50296 240.088659 
L 159.826414 239.583939 
L 162.540217 239.07922 
L 163.579592 238.574501 
L 163.739484 238.069781 
L 164.37784 237.060342 
L 164.613497 236.555623 
L 167.270421 236.050903 
L 168.313528 235.546184 
L 168.426476 235.041464 
L 168.791365 234.536745 
L 169.32244 234.032025 
L 169.35255 233.527306 
L 170.224508 233.022586 
L 170.768328 232.517867 
L 171.726261 232.013147 
L 171.731195 231.508428 
L 171.854311 231.003708 
L 172.805221 230.498989 
L 172.923972 229.994269 
L 173.017262 228.480111 
L 173.3909 227.975392 
L 174.284356 227.470672 
L 176.911874 226.965953 
L 177.672023 226.461233 
L 180.240569 225.956514 
L 180.58705 225.451794 
L 180.633934 224.947075 
L 180.963926 224.442355 
L 182.138036 223.937636 
L 182.644347 223.432916 
L 183.542611 222.928197 
L 183.590859 222.423477 
L 184.351193 221.918758 
L 184.848452 221.414038 
L 186.024742 220.909319 
L 186.527444 220.404599 
L 186.576386 219.89988 
L 188.146111 218.890441 
L 188.971936 218.385721 
L 189.272766 217.881002 
L 189.321618 217.376283 
L 191.957624 216.871563 
L 192.898276 216.366844 
L 193.08055 215.357405 
L 193.446939 214.852685 
L 196.057295 214.347966 
L 196.987228 213.843246 
L 197.347408 213.338527 
L 197.391626 212.833807 
L 197.710019 212.329088 
L 197.78122 211.824368 
L 198.190626 211.319649 
L 198.194853 210.814929 
L 198.896659 209.80549 
L 200.625865 209.300771 
L 200.658622 208.796051 
L 201.635041 208.291332 
L 201.988894 207.786613 
L 202.794854 207.281893 
L 202.845089 206.777174 
L 203.679849 206.272454 
L 204.773568 205.767735 
L 204.920319 205.263015 
L 206.453538 204.253576 
L 206.606522 203.748857 
L 207.188644 202.739418 
L 208.37538 202.234698 
L 208.707719 201.729979 
L 208.734343 201.225259 
L 209.477873 200.72054 
L 209.681751 199.711101 
L 210.570504 198.701662 
L 210.652572 197.692223 
L 211.82688 197.187504 
L 212.025707 196.682784 
L 212.366901 196.178065 
L 212.975156 195.673345 
L 213.053084 195.168626 
L 214.777732 194.663906 
L 214.939745 194.159187 
L 215.993755 193.654467 
L 216.145165 193.149748 
L 216.65774 192.645028 
L 216.726539 191.635589 
L 217.64106 191.13087 
L 218.950253 190.62615 
L 219.499126 190.121431 
L 219.657845 189.616711 
L 220.08278 189.111992 
L 220.899217 188.607272 
L 221.265135 188.102553 
L 225.59949 186.083675 
L 226.029972 185.578956 
L 226.100869 185.074236 
L 226.522825 184.569517 
L 226.579073 184.064797 
L 227.330472 183.560078 
L 227.331719 183.055358 
L 227.662845 182.550639 
L 229.82836 181.5412 
L 229.960426 180.531761 
L 231.140007 180.027041 
L 231.996172 179.017602 
L 232.923433 178.008163 
L 232.92975 177.503444 
L 234.000221 176.998725 
L 234.117827 176.494005 
L 237.115412 175.989286 
L 239.436994 174.979847 
L 239.719752 173.465688 
L 240.083096 172.960969 
L 241.08554 172.456249 
L 241.607304 171.95153 
L 242.055232 170.437371 
L 242.953229 169.932652 
L 243.278314 169.427932 
L 243.834775 168.923213 
L 244.720776 168.418493 
L 244.866092 165.894896 
L 246.061063 165.390177 
L 246.780082 164.380738 
L 247.950388 163.876018 
L 247.954318 163.371299 
L 248.134421 162.866579 
L 248.13987 162.36186 
L 248.265869 161.85714 
L 250.148419 160.847701 
L 250.28488 160.342982 
L 251.115845 159.333543 
L 252.024672 158.828823 
L 252.567423 158.324104 
L 255.098424 157.314665 
L 256.230133 156.305226 
L 256.825456 155.295787 
L 258.128073 154.791068 
L 258.486538 154.286348 
L 258.502232 153.781629 
L 259.434579 152.26747 
L 259.692787 150.753312 
L 260.873136 150.248592 
L 262.237599 148.229714 
L 263.270022 147.724995 
L 263.286916 147.220275 
L 264.015149 146.210837 
L 264.112281 145.706117 
L 265.204571 145.201398 
L 265.251504 144.696678 
L 267.867736 143.687239 
L 268.466024 143.18252 
L 268.557327 142.173081 
L 268.940391 141.668361 
L 270.292445 141.163642 
L 270.42251 140.658922 
L 272.513382 139.649483 
L 274.644596 137.125886 
L 275.756334 136.621166 
L 278.530661 136.116447 
L 279.594582 135.611728 
L 279.671602 135.107008 
L 279.984299 134.602289 
L 280.53388 134.097569 
L 280.700065 133.59285 
L 281.547195 133.08813 
L 285.314932 132.583411 
L 285.787979 132.078691 
L 287.553364 131.069252 
L 290.36989 130.564533 
L 290.905458 130.059813 
L 292.712732 129.555094 
L 293.57314 129.050374 
L 293.731822 128.040935 
L 294.327016 127.536216 
L 295.698175 127.031496 
L 296.475188 125.517338 
L 297.765717 124.507899 
L 302.431294 122.993741 
L 302.537732 122.489021 
L 302.768021 121.984302 
L 302.861372 121.479582 
L 305.307695 120.470143 
L 305.701195 119.965424 
L 305.911997 119.460704 
L 305.997603 118.955985 
L 306.524732 118.451265 
L 306.773788 116.937107 
L 309.46397 115.927668 
L 309.876853 115.422949 
L 310.057198 114.918229 
L 311.982515 114.41351 
L 312.212093 113.90879 
L 313.436505 113.404071 
L 313.445356 112.899351 
L 313.677962 112.394632 
L 313.680636 111.889912 
L 314.070603 111.385193 
L 317.279189 110.880473 
L 318.549635 110.375754 
L 318.963106 109.871034 
L 320.127003 109.366315 
L 320.289354 108.861595 
L 322.585628 107.852156 
L 323.044985 107.347437 
L 324.247528 106.842717 
L 325.830807 106.337998 
L 326.002976 105.328559 
L 326.116995 103.814401 
L 327.559897 103.309681 
L 328.632969 102.300242 
L 329.910579 101.795523 
L 333.1484 101.290803 
L 333.676586 100.786084 
L 335.296611 100.281364 
L 335.487206 99.776645 
L 335.798031 99.271925 
L 336.837054 98.767206 
L 336.986308 98.262486 
L 339.043405 97.757767 
L 339.125134 97.253047 
L 340.681811 96.748328 
L 341.136596 96.243608 
L 341.380812 93.720011 
L 341.902826 93.215292 
L 341.961215 92.710572 
L 343.189378 92.205853 
L 343.557383 91.701133 
L 345.003708 91.196414 
L 345.117236 90.186975 
L 349.269881 89.682255 
L 350.288034 89.177536 
L 350.299793 88.672816 
L 351.994725 88.168097 
L 352.187603 87.663377 
L 352.673661 87.158658 
L 352.80348 86.653938 
L 354.403813 86.149219 
L 355.301798 85.644499 
L 355.397905 85.13978 
L 360.186242 84.130341 
L 361.717666 83.120902 
L 361.723202 82.616183 
L 361.933183 82.111463 
L 363.884837 81.606744 
L 363.988984 81.102024 
L 365.997216 80.597305 
L 366.214094 80.092585 
L 366.720906 79.587866 
L 366.88527 79.083146 
L 367.307219 78.578427 
L 368.590318 78.073707 
L 368.660688 77.568988 
L 371.663803 76.559549 
L 372.264509 75.045391 
L 372.639073 74.540671 
L 372.722913 74.035952 
L 374.01201 73.531232 
L 374.218369 73.026513 
L 374.602848 72.521793 
L 376.48065 71.512354 
L 376.895694 71.007635 
L 377.843197 70.502915 
L 378.052309 69.998196 
L 379.465063 69.493476 
L 379.483354 68.988757 
L 380.702438 68.484037 
L 382.510145 67.979318 
L 383.851896 67.474598 
L 384.029123 66.465159 
L 384.272373 65.96044 
L 384.679166 65.45572 
L 384.815031 64.951001 
L 386.085607 64.446282 
L 386.905001 63.941562 
L 386.934837 63.436843 
L 387.491218 62.932123 
L 387.496891 62.427404 
L 388.946349 61.922684 
L 392.148327 61.417965 
L 392.809908 60.913245 
L 394.463378 60.408526 
L 394.511471 59.903806 
L 397.252106 58.894367 
L 397.40426 58.389648 
L 398.67115 57.884928 
L 398.789986 56.875489 
L 400.049914 56.37077 
L 400.684879 55.86605 
L 400.689941 55.361331 
L 401.751483 54.856611 
L 401.822078 54.351892 
L 404.763832 53.847173 
L 405.34678 53.342453 
L 406.739917 52.837734 
L 407.508729 51.828295 
L 408.510839 51.323575 
L 408.617857 50.818856 
L 411.618191 50.314136 
L 411.705901 49.809417 
L 412.205499 49.304697 
L 412.267276 48.799978 
L 413.73155 48.295258 
L 413.843416 47.790539 
L 414.189091 47.285819 
L 414.369532 46.7811 
L 415.557595 46.27638 
L 415.56256 45.771661 
L 416.271386 44.762222 
L 417.730655 44.257503 
L 418.031552 43.752783 
L 419.408586 43.248064 
L 419.600296 42.743344 
L 420.840043 42.238625 
L 423.828721 41.733905 
L 423.855417 41.229186 
L 424.835088 40.219747 
L 425.587895 39.715027 
L 426.960122 39.210308 
L 428.856362 38.705588 
L 429.300507 38.200869 
L 429.405454 37.696149 
L 429.980358 37.19143 
L 430.033845 36.68671 
L 430.478243 36.181991 
L 430.478243 36.181991 
" clip-path="url(#p21e77193a2)" style="fill: none; stroke: #1f77b4; stroke-width: 3; stroke-linecap: square"/>
   </g>
   <g id="line2d_28">
    <path d="M 77.665859 288.037009 
L 81.446414 287.53229 
L 81.455967 287.02757 
L 82.233049 286.522851 
L 85.729372 286.018131 
L 87.87704 284.503973 
L 88.028182 283.999253 
L 89.228612 283.494534 
L 89.77796 282.989814 
L 89.780873 282.485095 
L 90.55465 281.980375 
L 90.989447 280.970936 
L 94.242108 280.466217 
L 94.973911 279.961497 
L 95.204738 278.952059 
L 96.276653 278.447339 
L 96.406219 277.94262 
L 97.514151 277.4379 
L 99.598762 276.933181 
L 100.7053 276.428461 
L 103.938567 275.419022 
L 105.502379 274.409583 
L 106.518509 273.904864 
L 106.863978 272.895425 
L 107.538555 272.390705 
L 108.400524 271.381266 
L 108.428992 270.876547 
L 108.790254 270.371827 
L 109.660878 269.867108 
L 110.259162 268.35295 
L 110.814728 267.84823 
L 111.172676 267.343511 
L 111.759682 266.838791 
L 111.769243 266.334072 
L 112.015177 265.829352 
L 113.303308 264.819913 
L 113.315462 264.315194 
L 113.613728 263.810474 
L 114.239018 263.305755 
L 115.448331 262.801035 
L 115.839998 262.296316 
L 116.797915 261.791596 
L 117.424847 261.286877 
L 118.295689 259.772718 
L 118.953532 259.267999 
L 119.31336 258.76328 
L 119.32207 258.25856 
L 119.629071 257.249121 
L 123.726226 256.239682 
L 124.69102 255.734963 
L 125.877847 254.725524 
L 126.296291 253.716085 
L 127.049121 253.211365 
L 127.363127 252.706646 
L 128.322939 251.697207 
L 128.702468 250.687768 
L 129.734781 249.678329 
L 129.96562 249.173609 
L 130.824655 248.66889 
L 131.442792 248.164171 
L 131.791668 247.659451 
L 134.177772 247.154732 
L 134.365015 246.650012 
L 134.795296 246.145293 
L 134.821158 245.640573 
L 135.172811 245.135854 
L 135.324426 244.631134 
L 135.344358 244.126415 
L 136.57014 242.612256 
L 136.786574 242.107537 
L 139.584266 241.602817 
L 140.155154 240.088659 
L 140.30757 239.583939 
L 141.662858 238.069781 
L 142.388937 237.565062 
L 143.529831 236.050903 
L 145.97621 235.546184 
L 146.269677 235.041464 
L 146.747563 234.536745 
L 148.392458 234.032025 
L 148.507445 233.527306 
L 149.545473 232.517867 
L 151.180777 232.013147 
L 151.194583 231.508428 
L 152.592617 229.994269 
L 152.602451 229.48955 
L 153.052374 228.480111 
L 154.852325 227.975392 
L 155.519958 227.470672 
L 155.846022 226.965953 
L 156.379044 226.461233 
L 156.699611 225.956514 
L 156.859617 225.451794 
L 157.94 224.947075 
L 158.136211 224.442355 
L 158.960076 223.432916 
L 159.877759 222.928197 
L 160.568135 220.909319 
L 160.894461 220.404599 
L 161.174529 219.39516 
L 162.431642 218.385721 
L 163.241327 216.871563 
L 164.489259 216.366844 
L 165.116186 214.852685 
L 165.527559 214.347966 
L 166.161396 213.843246 
L 166.410617 212.833807 
L 167.310497 212.329088 
L 167.45268 211.824368 
L 169.384946 211.319649 
L 169.408865 210.814929 
L 170.332401 209.80549 
L 170.77432 209.300771 
L 170.891714 208.796051 
L 171.529626 208.291332 
L 171.975087 206.777174 
L 172.635569 206.272454 
L 173.335022 205.263015 
L 173.609399 204.758296 
L 174.273567 204.253576 
L 174.776787 202.739418 
L 175.073735 202.234698 
L 175.520939 201.729979 
L 175.62793 201.225259 
L 176.189858 200.72054 
L 176.293677 200.21582 
L 177.690065 199.711101 
L 178.13482 199.206381 
L 179.532649 198.701662 
L 179.705894 197.692223 
L 180.334939 197.187504 
L 181.13189 195.673345 
L 181.20058 195.168626 
L 182.023294 194.159187 
L 182.679972 193.654467 
L 182.885653 193.149748 
L 184.650618 192.645028 
L 184.858319 192.140309 
L 184.868038 191.635589 
L 185.469149 191.13087 
L 185.701611 190.62615 
L 187.563246 190.121431 
L 188.655953 189.111992 
L 189.077031 188.102553 
L 190.91726 187.093114 
L 191.228339 186.588395 
L 192.124708 186.083675 
L 193.217165 183.560078 
L 193.22446 183.055358 
L 193.376748 182.550639 
L 194.172868 182.045919 
L 194.712943 181.5412 
L 195.061353 180.531761 
L 195.434281 180.027041 
L 195.589536 179.522322 
L 196.599149 178.008163 
L 196.609012 177.503444 
L 197.113749 176.998725 
L 197.292745 176.494005 
L 197.62327 175.989286 
L 198.188926 175.484566 
L 198.289566 174.979847 
L 199.198422 174.475127 
L 199.208049 173.970408 
L 199.522394 173.465688 
L 201.330649 172.960969 
L 202.146498 171.95153 
L 202.525171 171.44681 
L 202.561174 170.942091 
L 202.927615 170.437371 
L 203.562716 169.932652 
L 203.836521 169.427932 
L 205.155443 168.418493 
L 206.057273 166.399616 
L 206.066235 165.894896 
L 207.506102 164.380738 
L 208.140663 163.876018 
L 208.162778 163.371299 
L 208.358672 162.866579 
L 208.368278 162.36186 
L 209.367636 161.85714 
L 209.970788 161.352421 
L 210.749965 159.333543 
L 211.413094 158.324104 
L 213.910261 157.819384 
L 215.889147 155.800507 
L 216.21734 155.295787 
L 217.123898 154.791068 
L 217.550217 154.286348 
L 218.369928 151.762751 
L 218.379668 151.258031 
L 218.571846 150.753312 
L 218.957662 150.248592 
L 221.098229 149.239153 
L 221.866978 148.229714 
L 222.652368 147.724995 
L 222.852988 147.220275 
L 223.725512 145.706117 
L 224.556485 145.201398 
L 224.656001 144.696678 
L 225.052658 144.191959 
L 225.944847 143.687239 
L 226.383803 143.18252 
L 226.677419 141.668361 
L 227.296397 141.163642 
L 227.565741 140.658922 
L 228.997994 139.649483 
L 229.301226 139.144764 
L 230.945952 138.640044 
L 231.465914 137.630605 
L 231.783885 137.125886 
L 232.821733 136.621166 
L 233.314224 136.116447 
L 234.217158 135.611728 
L 234.839029 134.602289 
L 235.229653 134.097569 
L 235.395029 133.59285 
L 235.681535 133.08813 
L 236.251969 132.583411 
L 237.122722 131.069252 
L 238.275236 130.059813 
L 238.8255 129.555094 
L 239.444293 128.040935 
L 239.630133 127.536216 
L 240.515704 126.526777 
L 240.664315 126.022058 
L 241.904531 124.507899 
L 243.418738 124.00318 
L 244.148248 122.993741 
L 245.515667 121.479582 
L 246.338308 120.974863 
L 247.310983 119.965424 
L 248.975537 117.946546 
L 249.276387 116.937107 
L 250.412867 115.927668 
L 250.580562 115.422949 
L 251.739796 113.90879 
L 252.148511 113.404071 
L 252.159747 112.899351 
L 252.426459 112.394632 
L 252.446589 111.889912 
L 253.417789 111.385193 
L 255.787234 108.861595 
L 256.352064 108.356876 
L 258.960942 107.852156 
L 260.162494 106.842717 
L 260.834431 106.337998 
L 261.199552 105.328559 
L 261.213133 104.31912 
L 261.48553 103.814401 
L 262.485772 103.309681 
L 263.126961 102.804962 
L 263.319151 102.300242 
L 264.376716 101.290803 
L 265.574498 100.281364 
L 265.754448 99.776645 
L 266.149983 99.271925 
L 267.151492 98.767206 
L 267.34332 98.262486 
L 267.656933 97.757767 
L 267.82057 97.253047 
L 268.690074 96.748328 
L 269.051486 96.243608 
L 269.767962 94.224731 
L 269.777422 93.720011 
L 270.092492 93.215292 
L 270.249934 92.710572 
L 270.735243 92.205853 
L 271.686853 91.701133 
L 272.080913 91.196414 
L 272.373722 90.186975 
L 272.742639 89.682255 
L 272.903825 89.177536 
L 272.914707 88.672816 
L 274.569626 88.168097 
L 274.921968 87.158658 
L 275.161921 86.653938 
L 278.198847 86.149219 
L 278.605497 85.644499 
L 278.777705 85.13978 
L 279.855309 83.625622 
L 280.164373 83.120902 
L 280.178846 82.616183 
L 280.379789 82.111463 
L 280.793307 81.606744 
L 280.897968 81.102024 
L 281.472943 80.597305 
L 281.849068 79.587866 
L 282.228181 79.083146 
L 282.403021 78.578427 
L 282.99987 78.073707 
L 283.192307 77.568988 
L 284.051701 77.064268 
L 284.400442 76.054829 
L 284.62458 75.55011 
L 285.316813 74.540671 
L 285.503045 74.035952 
L 287.08595 73.531232 
L 287.411383 72.521793 
L 288.579391 71.512354 
L 288.932951 71.007635 
L 289.557966 70.502915 
L 290.235388 69.493476 
L 290.250535 68.988757 
L 290.4584 68.484037 
L 291.053746 67.979318 
L 291.941232 67.474598 
L 292.28767 66.465159 
L 292.637197 65.45572 
L 292.677523 64.951001 
L 293.44938 63.941562 
L 293.618928 63.436843 
L 294.003272 62.932123 
L 294.020419 62.427404 
L 294.878952 61.922684 
L 295.281801 61.417965 
L 296.575959 60.913245 
L 297.167189 60.408526 
L 297.412726 59.903806 
L 298.660119 59.399087 
L 299.306458 58.894367 
L 299.582001 58.389648 
L 300.178004 57.884928 
L 300.190298 57.380209 
L 300.42403 56.875489 
L 301.257229 56.37077 
L 301.728132 55.86605 
L 301.73769 55.361331 
L 303.844604 54.856611 
L 304.01644 54.351892 
L 305.277648 52.837734 
L 306.156707 52.333014 
L 306.704162 51.828295 
L 307.019807 51.323575 
L 307.175775 50.818856 
L 307.654925 50.314136 
L 307.879708 49.809417 
L 308.240527 49.304697 
L 308.401623 48.799978 
L 309.42539 48.295258 
L 309.623213 47.790539 
L 310.404661 46.7811 
L 310.989247 46.27638 
L 311.016278 45.771661 
L 311.206989 45.266941 
L 311.601777 44.762222 
L 312.184968 44.257503 
L 313.081074 42.743344 
L 313.668655 42.238625 
L 314.028634 41.733905 
L 314.317473 40.724466 
L 314.617006 40.219747 
L 316.435807 39.715027 
L 317.572258 38.200869 
L 318.186816 36.68671 
L 318.486145 36.181991 
L 318.486145 36.181991 
" clip-path="url(#p21e77193a2)" style="fill: none; stroke: #ff7f0e; stroke-width: 3; stroke-linecap: square"/>
   </g>
   <g id="patch_3">
    <path d="M 60.02524 300.62976 
L 60.02524 23.58924 
" style="fill: none; stroke: #000000; stroke-width: 0.8; stroke-linejoin: miter; stroke-linecap: square"/>
   </g>
   <g id="patch_4">
    <path d="M 448.118862 300.62976 
L 448.118862 23.58924 
" style="fill: none; stroke: #000000; stroke-width: 0.8; stroke-linejoin: miter; stroke-linecap: square"/>
   </g>
   <g id="patch_5">
    <path d="M 60.02524 300.62976 
L 448.118862 300.62976 
" style="fill: none; stroke: #000000; stroke-width: 0.8; stroke-linejoin: miter; stroke-linecap: square"/>
   </g>
   <g id="patch_6">
    <path d="M 60.02524 23.58924 
L 448.118862 23.58924 
" style="fill: none; stroke: #000000; stroke-width: 0.8; stroke-linejoin: miter; stroke-linecap: square"/>
   </g>
   <g id="text_16">
    <!-- PostgreSQL vs Bao Optimizer -->
    <g transform="translate(114.089051 17.58924) scale(0.192 -0.192)">
     <defs>
      <path id="DejaVuSans-50" d="M 1259 4147 
L 1259 2394 
L 2053 2394 
Q 2494 2394 2734 2622 
Q 2975 2850 2975 3272 
Q 2975 3691 2734 3919 
Q 2494 4147 2053 4147 
L 1259 4147 
z
M 628 4666 
L 2053 4666 
Q 2838 4666 3239 4311 
Q 3641 3956 3641 3272 
Q 3641 2581 3239 2228 
Q 2838 1875 2053 1875 
L 1259 1875 
L 1259 0 
L 628 0 
L 628 4666 
z
" transform="scale(0.015625)"/>
      <path id="DejaVuSans-67" d="M 2906 1791 
Q 2906 2416 2648 2759 
Q 2391 3103 1925 3103 
Q 1463 3103 1205 2759 
Q 947 2416 947 1791 
Q 947 1169 1205 825 
Q 1463 481 1925 481 
Q 2391 481 2648 825 
Q 2906 1169 2906 1791 
z
M 3481 434 
Q 3481 -459 3084 -895 
Q 2688 -1331 1869 -1331 
Q 1566 -1331 1297 -1286 
Q 1028 -1241 775 -1147 
L 775 -588 
Q 1028 -725 1275 -790 
Q 1522 -856 1778 -856 
Q 2344 -856 2625 -561 
Q 2906 -266 2906 331 
L 2906 616 
Q 2728 306 2450 153 
Q 2172 0 1784 0 
Q 1141 0 747 490 
Q 353 981 353 1791 
Q 353 2603 747 3093 
Q 1141 3584 1784 3584 
Q 2172 3584 2450 3431 
Q 2728 3278 2906 2969 
L 2906 3500 
L 3481 3500 
L 3481 434 
z
" transform="scale(0.015625)"/>
      <path id="DejaVuSans-53" d="M 3425 4513 
L 3425 3897 
Q 3066 4069 2747 4153 
Q 2428 4238 2131 4238 
Q 1616 4238 1336 4038 
Q 1056 3838 1056 3469 
Q 1056 3159 1242 3001 
Q 1428 2844 1947 2747 
L 2328 2669 
Q 3034 2534 3370 2195 
Q 3706 1856 3706 1288 
Q 3706 609 3251 259 
Q 2797 -91 1919 -91 
Q 1588 -91 1214 -16 
Q 841 59 441 206 
L 441 856 
Q 825 641 1194 531 
Q 1563 422 1919 422 
Q 2459 422 2753 634 
Q 3047 847 3047 1241 
Q 3047 1584 2836 1778 
Q 2625 1972 2144 2069 
L 1759 2144 
Q 1053 2284 737 2584 
Q 422 2884 422 3419 
Q 422 4038 858 4394 
Q 1294 4750 2059 4750 
Q 2388 4750 2728 4690 
Q 3069 4631 3425 4513 
z
" transform="scale(0.015625)"/>
      <path id="DejaVuSans-4c" d="M 628 4666 
L 1259 4666 
L 1259 531 
L 3531 531 
L 3531 0 
L 628 0 
L 628 4666 
z
" transform="scale(0.015625)"/>
      <path id="DejaVuSans-76" d="M 191 3500 
L 800 3500 
L 1894 563 
L 2988 3500 
L 3597 3500 
L 2284 0 
L 1503 0 
L 191 3500 
z
" transform="scale(0.015625)"/>
      <path id="DejaVuSans-42" d="M 1259 2228 
L 1259 519 
L 2272 519 
Q 2781 519 3026 730 
Q 3272 941 3272 1375 
Q 3272 1813 3026 2020 
Q 2781 2228 2272 2228 
L 1259 2228 
z
M 1259 4147 
L 1259 2741 
L 2194 2741 
Q 2656 2741 2882 2914 
Q 3109 3088 3109 3444 
Q 3109 3797 2882 3972 
Q 2656 4147 2194 4147 
L 1259 4147 
z
M 628 4666 
L 2241 4666 
Q 2963 4666 3353 4366 
Q 3744 4066 3744 3513 
Q 3744 3084 3544 2831 
Q 3344 2578 2956 2516 
Q 3422 2416 3680 2098 
Q 3938 1781 3938 1306 
Q 3938 681 3513 340 
Q 3088 0 2303 0 
L 628 0 
L 628 4666 
z
" transform="scale(0.015625)"/>
      <path id="DejaVuSans-61" d="M 2194 1759 
Q 1497 1759 1228 1600 
Q 959 1441 959 1056 
Q 959 750 1161 570 
Q 1363 391 1709 391 
Q 2188 391 2477 730 
Q 2766 1069 2766 1631 
L 2766 1759 
L 2194 1759 
z
M 3341 1997 
L 3341 0 
L 2766 0 
L 2766 531 
Q 2569 213 2275 61 
Q 1981 -91 1556 -91 
Q 1019 -91 701 211 
Q 384 513 384 1019 
Q 384 1609 779 1909 
Q 1175 2209 1959 2209 
L 2766 2209 
L 2766 2266 
Q 2766 2663 2505 2880 
Q 2244 3097 1772 3097 
Q 1472 3097 1187 3025 
Q 903 2953 641 2809 
L 641 3341 
Q 956 3463 1253 3523 
Q 1550 3584 1831 3584 
Q 2591 3584 2966 3190 
Q 3341 2797 3341 1997 
z
" transform="scale(0.015625)"/>
      <path id="DejaVuSans-4f" d="M 2522 4238 
Q 1834 4238 1429 3725 
Q 1025 3213 1025 2328 
Q 1025 1447 1429 934 
Q 1834 422 2522 422 
Q 3209 422 3611 934 
Q 4013 1447 4013 2328 
Q 4013 3213 3611 3725 
Q 3209 4238 2522 4238 
z
M 2522 4750 
Q 3503 4750 4090 4092 
Q 4678 3434 4678 2328 
Q 4678 1225 4090 567 
Q 3503 -91 2522 -91 
Q 1538 -91 948 565 
Q 359 1222 359 2328 
Q 359 3434 948 4092 
Q 1538 4750 2522 4750 
z
" transform="scale(0.015625)"/>
      <path id="DejaVuSans-7a" d="M 353 3500 
L 3084 3500 
L 3084 2975 
L 922 459 
L 3084 459 
L 3084 0 
L 275 0 
L 275 525 
L 2438 3041 
L 353 3041 
L 353 3500 
z
" transform="scale(0.015625)"/>
     </defs>
     <use xlink:href="#DejaVuSans-50"/>
     <use xlink:href="#DejaVuSans-6f" x="56.677734"/>
     <use xlink:href="#DejaVuSans-73" x="117.859375"/>
     <use xlink:href="#DejaVuSans-74" x="169.958984"/>
     <use xlink:href="#DejaVuSans-67" x="209.167969"/>
     <use xlink:href="#DejaVuSans-72" x="272.644531"/>
     <use xlink:href="#DejaVuSans-65" x="311.507812"/>
     <use xlink:href="#DejaVuSans-53" x="373.03125"/>
     <use xlink:href="#DejaVuSans-51" x="436.507812"/>
     <use xlink:href="#DejaVuSans-4c" x="515.21875"/>
     <use xlink:href="#DejaVuSans-20" x="570.931641"/>
     <use xlink:href="#DejaVuSans-76" x="602.71875"/>
     <use xlink:href="#DejaVuSans-73" x="661.898438"/>
     <use xlink:href="#DejaVuSans-20" x="713.998047"/>
     <use xlink:href="#DejaVuSans-42" x="745.785156"/>
     <use xlink:href="#DejaVuSans-61" x="814.388672"/>
     <use xlink:href="#DejaVuSans-6f" x="875.667969"/>
     <use xlink:href="#DejaVuSans-20" x="936.849609"/>
     <use xlink:href="#DejaVuSans-4f" x="968.636719"/>
     <use xlink:href="#DejaVuSans-70" x="1047.347656"/>
     <use xlink:href="#DejaVuSans-74" x="1110.824219"/>
     <use xlink:href="#DejaVuSans-69" x="1150.033203"/>
     <use xlink:href="#DejaVuSans-6d" x="1177.816406"/>
     <use xlink:href="#DejaVuSans-69" x="1275.228516"/>
     <use xlink:href="#DejaVuSans-7a" x="1303.011719"/>
     <use xlink:href="#DejaVuSans-65" x="1355.501953"/>
     <use xlink:href="#DejaVuSans-72" x="1417.025391"/>
    </g>
   </g>
   <g id="legend_1">
    <g id="patch_7">
     <path d="M 71.22524 106.84424 
L 213.77774 106.84424 
Q 216.97774 106.84424 216.97774 103.64424 
L 216.97774 34.78924 
Q 216.97774 31.58924 213.77774 31.58924 
L 71.22524 31.58924 
Q 68.02524 31.58924 68.02524 34.78924 
L 68.02524 103.64424 
Q 68.02524 106.84424 71.22524 106.84424 
z
" style="fill: #ffffff; opacity: 0.8; stroke: #cccccc; stroke-linejoin: miter"/>
    </g>
    <g id="PathCollection_2">
     <g>
      <use xlink:href="#m4e5d8c7020" x="90.42524" y="45.94674" style="fill: #ff0000; stroke: #ff0000"/>
     </g>
    </g>
    <g id="text_17">
     <!-- Training -->
     <g transform="translate(119.22524 50.14674) scale(0.16 -0.16)">
      <defs>
       <path id="DejaVuSans-6e" d="M 3513 2113 
L 3513 0 
L 2938 0 
L 2938 2094 
Q 2938 2591 2744 2837 
Q 2550 3084 2163 3084 
Q 1697 3084 1428 2787 
Q 1159 2491 1159 1978 
L 1159 0 
L 581 0 
L 581 3500 
L 1159 3500 
L 1159 2956 
Q 1366 3272 1645 3428 
Q 1925 3584 2291 3584 
Q 2894 3584 3203 3211 
Q 3513 2838 3513 2113 
z
" transform="scale(0.015625)"/>
      </defs>
      <use xlink:href="#DejaVuSans-54"/>
      <use xlink:href="#DejaVuSans-72" x="46.333984"/>
      <use xlink:href="#DejaVuSans-61" x="87.447266"/>
      <use xlink:href="#DejaVuSans-69" x="148.726562"/>
      <use xlink:href="#DejaVuSans-6e" x="176.509766"/>
      <use xlink:href="#DejaVuSans-69" x="239.888672"/>
      <use xlink:href="#DejaVuSans-6e" x="267.671875"/>
      <use xlink:href="#DejaVuSans-67" x="331.050781"/>
     </g>
    </g>
    <g id="line2d_29">
     <path d="M 74.42524 68.03174 
L 90.42524 68.03174 
L 106.42524 68.03174 
" style="fill: none; stroke: #1f77b4; stroke-width: 3; stroke-linecap: square"/>
    </g>
    <g id="text_18">
     <!-- PostgreSQL -->
     <g transform="translate(119.22524 73.63174) scale(0.16 -0.16)">
      <use xlink:href="#DejaVuSans-50"/>
      <use xlink:href="#DejaVuSans-6f" x="56.677734"/>
      <use xlink:href="#DejaVuSans-73" x="117.859375"/>
      <use xlink:href="#DejaVuSans-74" x="169.958984"/>
      <use xlink:href="#DejaVuSans-67" x="209.167969"/>
      <use xlink:href="#DejaVuSans-72" x="272.644531"/>
      <use xlink:href="#DejaVuSans-65" x="311.507812"/>
      <use xlink:href="#DejaVuSans-53" x="373.03125"/>
      <use xlink:href="#DejaVuSans-51" x="436.507812"/>
      <use xlink:href="#DejaVuSans-4c" x="515.21875"/>
     </g>
    </g>
    <g id="line2d_30">
     <path d="M 74.42524 91.51674 
L 90.42524 91.51674 
L 106.42524 91.51674 
" style="fill: none; stroke: #ff7f0e; stroke-width: 3; stroke-linecap: square"/>
    </g>
    <g id="text_19">
     <!-- Bao -->
     <g transform="translate(119.22524 97.11674) scale(0.16 -0.16)">
      <use xlink:href="#DejaVuSans-42"/>
      <use xlink:href="#DejaVuSans-61" x="68.603516"/>
      <use xlink:href="#DejaVuSans-6f" x="129.882812"/>
     </g>
    </g>
   </g>
  </g>
 </g>
 <defs>
  <clipPath id="p21e77193a2">
   <rect x="60.02524" y="23.58924" width="388.093622" height="277.04052"/>
  </clipPath>
 </defs>
</svg>
