<?xml version="1.0" encoding="utf-8" standalone="no"?>
<!DOCTYPE svg PUBLIC "-//W3C//DTD SVG 1.1//EN"
  "http://www.w3.org/Graphics/SVG/1.1/DTD/svg11.dtd">
<svg xmlns:xlink="http://www.w3.org/1999/xlink" width="460.8pt" height="345.6pt" viewBox="0 0 460.8 345.6" xmlns="http://www.w3.org/2000/svg" version="1.1">
 <metadata>
  <rdf:RDF xmlns:dc="http://purl.org/dc/elements/1.1/" xmlns:cc="http://creativecommons.org/ns#" xmlns:rdf="http://www.w3.org/1999/02/22-rdf-syntax-ns#">
   <cc:Work>
    <dc:type rdf:resource="http://purl.org/dc/dcmitype/StillImage"/>
    <dc:date>2024-11-26T03:19:30.623591</dc:date>
    <dc:format>image/svg+xml</dc:format>
    <dc:creator>
     <cc:Agent>
      <dc:title>Matplotlib v3.7.2, https://matplotlib.org/</dc:title>
     </cc:Agent>
    </dc:creator>
   </cc:Work>
  </rdf:RDF>
 </metadata>
 <defs>
  <style type="text/css">*{stroke-linejoin: round; stroke-linecap: butt}</style>
 </defs>
 <g id="figure_1">
  <g id="patch_1">
   <path d="M 0 345.6 
L 460.8 345.6 
L 460.8 0 
L 0 0 
z
" style="fill: #ffffff"/>
  </g>
  <g id="axes_1">
   <g id="patch_2">
    <path d="M 60.02524 300.62976 
L 457.79976 300.62976 
L 457.79976 23.58924 
L 60.02524 23.58924 
z
" style="fill: #ffffff"/>
   </g>
   <g id="PathCollection_1"/>
   <g id="matplotlib.axis_1">
    <g id="xtick_1">
     <g id="line2d_1">
      <path d="M 78.1059 300.62976 
L 78.1059 23.58924 
" clip-path="url(#p5efdcb391f)" style="fill: none; stroke-dasharray: 3.7,1.6; stroke-dashoffset: 0; stroke: #b0b0b0"/>
     </g>
     <g id="line2d_2">
      <defs>
       <path id="m26946349d3" d="M 0 0 
L 0 3.5 
" style="stroke: #000000; stroke-width: 0.8"/>
      </defs>
      <g>
       <use xlink:href="#m26946349d3" x="78.1059" y="300.62976" style="stroke: #000000; stroke-width: 0.8"/>
      </g>
     </g>
     <g id="text_1">
      <!-- 0 -->
      <g transform="translate(73.0159 319.78726) scale(0.16 -0.16)">
       <defs>
        <path id="DejaVuSans-30" d="M 2034 4250 
Q 1547 4250 1301 3770 
Q 1056 3291 1056 2328 
Q 1056 1369 1301 889 
Q 1547 409 2034 409 
Q 2525 409 2770 889 
Q 3016 1369 3016 2328 
Q 3016 3291 2770 3770 
Q 2525 4250 2034 4250 
z
M 2034 4750 
Q 2819 4750 3233 4129 
Q 3647 3509 3647 2328 
Q 3647 1150 3233 529 
Q 2819 -91 2034 -91 
Q 1250 -91 836 529 
Q 422 1150 422 2328 
Q 422 3509 836 4129 
Q 1250 4750 2034 4750 
z
" transform="scale(0.015625)"/>
       </defs>
       <use xlink:href="#DejaVuSans-30"/>
      </g>
     </g>
    </g>
    <g id="xtick_2">
     <g id="line2d_3">
      <path d="M 156.812794 300.62976 
L 156.812794 23.58924 
" clip-path="url(#p5efdcb391f)" style="fill: none; stroke-dasharray: 3.7,1.6; stroke-dashoffset: 0; stroke: #b0b0b0"/>
     </g>
     <g id="line2d_4">
      <g>
       <use xlink:href="#m26946349d3" x="156.812794" y="300.62976" style="stroke: #000000; stroke-width: 0.8"/>
      </g>
     </g>
     <g id="text_2">
      <!-- 50 -->
      <g transform="translate(146.632794 319.78726) scale(0.16 -0.16)">
       <defs>
        <path id="DejaVuSans-35" d="M 691 4666 
L 3169 4666 
L 3169 4134 
L 1269 4134 
L 1269 2991 
Q 1406 3038 1543 3061 
Q 1681 3084 1819 3084 
Q 2600 3084 3056 2656 
Q 3513 2228 3513 1497 
Q 3513 744 3044 326 
Q 2575 -91 1722 -91 
Q 1428 -91 1123 -41 
Q 819 9 494 109 
L 494 744 
Q 775 591 1075 516 
Q 1375 441 1709 441 
Q 2250 441 2565 725 
Q 2881 1009 2881 1497 
Q 2881 1984 2565 2268 
Q 2250 2553 1709 2553 
Q 1456 2553 1204 2497 
Q 953 2441 691 2322 
L 691 4666 
z
" transform="scale(0.015625)"/>
       </defs>
       <use xlink:href="#DejaVuSans-35"/>
       <use xlink:href="#DejaVuSans-30" x="63.623047"/>
      </g>
     </g>
    </g>
    <g id="xtick_3">
     <g id="line2d_5">
      <path d="M 235.519688 300.62976 
L 235.519688 23.58924 
" clip-path="url(#p5efdcb391f)" style="fill: none; stroke-dasharray: 3.7,1.6; stroke-dashoffset: 0; stroke: #b0b0b0"/>
     </g>
     <g id="line2d_6">
      <g>
       <use xlink:href="#m26946349d3" x="235.519688" y="300.62976" style="stroke: #000000; stroke-width: 0.8"/>
      </g>
     </g>
     <g id="text_3">
      <!-- 100 -->
      <g transform="translate(220.249688 319.78726) scale(0.16 -0.16)">
       <defs>
        <path id="DejaVuSans-31" d="M 794 531 
L 1825 531 
L 1825 4091 
L 703 3866 
L 703 4441 
L 1819 4666 
L 2450 4666 
L 2450 531 
L 3481 531 
L 3481 0 
L 794 0 
L 794 531 
z
" transform="scale(0.015625)"/>
       </defs>
       <use xlink:href="#DejaVuSans-31"/>
       <use xlink:href="#DejaVuSans-30" x="63.623047"/>
       <use xlink:href="#DejaVuSans-30" x="127.246094"/>
      </g>
     </g>
    </g>
    <g id="xtick_4">
     <g id="line2d_7">
      <path d="M 314.226583 300.62976 
L 314.226583 23.58924 
" clip-path="url(#p5efdcb391f)" style="fill: none; stroke-dasharray: 3.7,1.6; stroke-dashoffset: 0; stroke: #b0b0b0"/>
     </g>
     <g id="line2d_8">
      <g>
       <use xlink:href="#m26946349d3" x="314.226583" y="300.62976" style="stroke: #000000; stroke-width: 0.8"/>
      </g>
     </g>
     <g id="text_4">
      <!-- 150 -->
      <g transform="translate(298.956583 319.78726) scale(0.16 -0.16)">
       <use xlink:href="#DejaVuSans-31"/>
       <use xlink:href="#DejaVuSans-35" x="63.623047"/>
       <use xlink:href="#DejaVuSans-30" x="127.246094"/>
      </g>
     </g>
    </g>
    <g id="xtick_5">
     <g id="line2d_9">
      <path d="M 392.933477 300.62976 
L 392.933477 23.58924 
" clip-path="url(#p5efdcb391f)" style="fill: none; stroke-dasharray: 3.7,1.6; stroke-dashoffset: 0; stroke: #b0b0b0"/>
     </g>
     <g id="line2d_10">
      <g>
       <use xlink:href="#m26946349d3" x="392.933477" y="300.62976" style="stroke: #000000; stroke-width: 0.8"/>
      </g>
     </g>
     <g id="text_5">
      <!-- 200 -->
      <g transform="translate(377.663477 319.78726) scale(0.16 -0.16)">
       <defs>
        <path id="DejaVuSans-32" d="M 1228 531 
L 3431 531 
L 3431 0 
L 469 0 
L 469 531 
Q 828 903 1448 1529 
Q 2069 2156 2228 2338 
Q 2531 2678 2651 2914 
Q 2772 3150 2772 3378 
Q 2772 3750 2511 3984 
Q 2250 4219 1831 4219 
Q 1534 4219 1204 4116 
Q 875 4013 500 3803 
L 500 4441 
Q 881 4594 1212 4672 
Q 1544 4750 1819 4750 
Q 2544 4750 2975 4387 
Q 3406 4025 3406 3419 
Q 3406 3131 3298 2873 
Q 3191 2616 2906 2266 
Q 2828 2175 2409 1742 
Q 1991 1309 1228 531 
z
" transform="scale(0.015625)"/>
       </defs>
       <use xlink:href="#DejaVuSans-32"/>
       <use xlink:href="#DejaVuSans-30" x="63.623047"/>
       <use xlink:href="#DejaVuSans-30" x="127.246094"/>
      </g>
     </g>
    </g>
    <g id="text_6">
     <!-- Time (m) -->
     <g transform="translate(222.76125 339.27226) scale(0.16 -0.16)">
      <defs>
       <path id="DejaVuSans-54" d="M -19 4666 
L 3928 4666 
L 3928 4134 
L 2272 4134 
L 2272 0 
L 1638 0 
L 1638 4134 
L -19 4134 
L -19 4666 
z
" transform="scale(0.015625)"/>
       <path id="DejaVuSans-69" d="M 603 3500 
L 1178 3500 
L 1178 0 
L 603 0 
L 603 3500 
z
M 603 4863 
L 1178 4863 
L 1178 4134 
L 603 4134 
L 603 4863 
z
" transform="scale(0.015625)"/>
       <path id="DejaVuSans-6d" d="M 3328 2828 
Q 3544 3216 3844 3400 
Q 4144 3584 4550 3584 
Q 5097 3584 5394 3201 
Q 5691 2819 5691 2113 
L 5691 0 
L 5113 0 
L 5113 2094 
Q 5113 2597 4934 2840 
Q 4756 3084 4391 3084 
Q 3944 3084 3684 2787 
Q 3425 2491 3425 1978 
L 3425 0 
L 2847 0 
L 2847 2094 
Q 2847 2600 2669 2842 
Q 2491 3084 2119 3084 
Q 1678 3084 1418 2786 
Q 1159 2488 1159 1978 
L 1159 0 
L 581 0 
L 581 3500 
L 1159 3500 
L 1159 2956 
Q 1356 3278 1631 3431 
Q 1906 3584 2284 3584 
Q 2666 3584 2933 3390 
Q 3200 3197 3328 2828 
z
" transform="scale(0.015625)"/>
       <path id="DejaVuSans-65" d="M 3597 1894 
L 3597 1613 
L 953 1613 
Q 991 1019 1311 708 
Q 1631 397 2203 397 
Q 2534 397 2845 478 
Q 3156 559 3463 722 
L 3463 178 
Q 3153 47 2828 -22 
Q 2503 -91 2169 -91 
Q 1331 -91 842 396 
Q 353 884 353 1716 
Q 353 2575 817 3079 
Q 1281 3584 2069 3584 
Q 2775 3584 3186 3129 
Q 3597 2675 3597 1894 
z
M 3022 2063 
Q 3016 2534 2758 2815 
Q 2500 3097 2075 3097 
Q 1594 3097 1305 2825 
Q 1016 2553 972 2059 
L 3022 2063 
z
" transform="scale(0.015625)"/>
       <path id="DejaVuSans-20" transform="scale(0.015625)"/>
       <path id="DejaVuSans-28" d="M 1984 4856 
Q 1566 4138 1362 3434 
Q 1159 2731 1159 2009 
Q 1159 1288 1364 580 
Q 1569 -128 1984 -844 
L 1484 -844 
Q 1016 -109 783 600 
Q 550 1309 550 2009 
Q 550 2706 781 3412 
Q 1013 4119 1484 4856 
L 1984 4856 
z
" transform="scale(0.015625)"/>
       <path id="DejaVuSans-29" d="M 513 4856 
L 1013 4856 
Q 1481 4119 1714 3412 
Q 1947 2706 1947 2009 
Q 1947 1309 1714 600 
Q 1481 -109 1013 -844 
L 513 -844 
Q 928 -128 1133 580 
Q 1338 1288 1338 2009 
Q 1338 2731 1133 3434 
Q 928 4138 513 4856 
z
" transform="scale(0.015625)"/>
      </defs>
      <use xlink:href="#DejaVuSans-54"/>
      <use xlink:href="#DejaVuSans-69" x="57.958984"/>
      <use xlink:href="#DejaVuSans-6d" x="85.742188"/>
      <use xlink:href="#DejaVuSans-65" x="183.154297"/>
      <use xlink:href="#DejaVuSans-20" x="244.677734"/>
      <use xlink:href="#DejaVuSans-28" x="276.464844"/>
      <use xlink:href="#DejaVuSans-6d" x="315.478516"/>
      <use xlink:href="#DejaVuSans-29" x="412.890625"/>
     </g>
    </g>
   </g>
   <g id="matplotlib.axis_2">
    <g id="ytick_1">
     <g id="line2d_11">
      <path d="M 60.02524 288.037009 
L 457.79976 288.037009 
" clip-path="url(#p5efdcb391f)" style="fill: none; stroke-dasharray: 3.7,1.6; stroke-dashoffset: 0; stroke: #b0b0b0"/>
     </g>
     <g id="line2d_12">
      <defs>
       <path id="m5eeb9c8889" d="M 0 0 
L -3.5 0 
" style="stroke: #000000; stroke-width: 0.8"/>
      </defs>
      <g>
       <use xlink:href="#m5eeb9c8889" x="60.02524" y="288.037009" style="stroke: #000000; stroke-width: 0.8"/>
      </g>
     </g>
     <g id="text_7">
      <!-- 0 -->
      <g transform="translate(42.84524 294.115759) scale(0.16 -0.16)">
       <use xlink:href="#DejaVuSans-30"/>
      </g>
     </g>
    </g>
    <g id="ytick_2">
     <g id="line2d_13">
      <path d="M 60.02524 236.532915 
L 457.79976 236.532915 
" clip-path="url(#p5efdcb391f)" style="fill: none; stroke-dasharray: 3.7,1.6; stroke-dashoffset: 0; stroke: #b0b0b0"/>
     </g>
     <g id="line2d_14">
      <g>
       <use xlink:href="#m5eeb9c8889" x="60.02524" y="236.532915" style="stroke: #000000; stroke-width: 0.8"/>
      </g>
     </g>
     <g id="text_8">
      <!-- 100 -->
      <g transform="translate(22.48524 242.611665) scale(0.16 -0.16)">
       <use xlink:href="#DejaVuSans-31"/>
       <use xlink:href="#DejaVuSans-30" x="63.623047"/>
       <use xlink:href="#DejaVuSans-30" x="127.246094"/>
      </g>
     </g>
    </g>
    <g id="ytick_3">
     <g id="line2d_15">
      <path d="M 60.02524 185.028822 
L 457.79976 185.028822 
" clip-path="url(#p5efdcb391f)" style="fill: none; stroke-dasharray: 3.7,1.6; stroke-dashoffset: 0; stroke: #b0b0b0"/>
     </g>
     <g id="line2d_16">
      <g>
       <use xlink:href="#m5eeb9c8889" x="60.02524" y="185.028822" style="stroke: #000000; stroke-width: 0.8"/>
      </g>
     </g>
     <g id="text_9">
      <!-- 200 -->
      <g transform="translate(22.48524 191.107572) scale(0.16 -0.16)">
       <use xlink:href="#DejaVuSans-32"/>
       <use xlink:href="#DejaVuSans-30" x="63.623047"/>
       <use xlink:href="#DejaVuSans-30" x="127.246094"/>
      </g>
     </g>
    </g>
    <g id="ytick_4">
     <g id="line2d_17">
      <path d="M 60.02524 133.524728 
L 457.79976 133.524728 
" clip-path="url(#p5efdcb391f)" style="fill: none; stroke-dasharray: 3.7,1.6; stroke-dashoffset: 0; stroke: #b0b0b0"/>
     </g>
     <g id="line2d_18">
      <g>
       <use xlink:href="#m5eeb9c8889" x="60.02524" y="133.524728" style="stroke: #000000; stroke-width: 0.8"/>
      </g>
     </g>
     <g id="text_10">
      <!-- 300 -->
      <g transform="translate(22.48524 139.603478) scale(0.16 -0.16)">
       <defs>
        <path id="DejaVuSans-33" d="M 2597 2516 
Q 3050 2419 3304 2112 
Q 3559 1806 3559 1356 
Q 3559 666 3084 287 
Q 2609 -91 1734 -91 
Q 1441 -91 1130 -33 
Q 819 25 488 141 
L 488 750 
Q 750 597 1062 519 
Q 1375 441 1716 441 
Q 2309 441 2620 675 
Q 2931 909 2931 1356 
Q 2931 1769 2642 2001 
Q 2353 2234 1838 2234 
L 1294 2234 
L 1294 2753 
L 1863 2753 
Q 2328 2753 2575 2939 
Q 2822 3125 2822 3475 
Q 2822 3834 2567 4026 
Q 2313 4219 1838 4219 
Q 1578 4219 1281 4162 
Q 984 4106 628 3988 
L 628 4550 
Q 988 4650 1302 4700 
Q 1616 4750 1894 4750 
Q 2613 4750 3031 4423 
Q 3450 4097 3450 3541 
Q 3450 3153 3228 2886 
Q 3006 2619 2597 2516 
z
" transform="scale(0.015625)"/>
       </defs>
       <use xlink:href="#DejaVuSans-33"/>
       <use xlink:href="#DejaVuSans-30" x="63.623047"/>
       <use xlink:href="#DejaVuSans-30" x="127.246094"/>
      </g>
     </g>
    </g>
    <g id="ytick_5">
     <g id="line2d_19">
      <path d="M 60.02524 82.020634 
L 457.79976 82.020634 
" clip-path="url(#p5efdcb391f)" style="fill: none; stroke-dasharray: 3.7,1.6; stroke-dashoffset: 0; stroke: #b0b0b0"/>
     </g>
     <g id="line2d_20">
      <g>
       <use xlink:href="#m5eeb9c8889" x="60.02524" y="82.020634" style="stroke: #000000; stroke-width: 0.8"/>
      </g>
     </g>
     <g id="text_11">
      <!-- 400 -->
      <g transform="translate(22.48524 88.099384) scale(0.16 -0.16)">
       <defs>
        <path id="DejaVuSans-34" d="M 2419 4116 
L 825 1625 
L 2419 1625 
L 2419 4116 
z
M 2253 4666 
L 3047 4666 
L 3047 1625 
L 3713 1625 
L 3713 1100 
L 3047 1100 
L 3047 0 
L 2419 0 
L 2419 1100 
L 313 1100 
L 313 1709 
L 2253 4666 
z
" transform="scale(0.015625)"/>
       </defs>
       <use xlink:href="#DejaVuSans-34"/>
       <use xlink:href="#DejaVuSans-30" x="63.623047"/>
       <use xlink:href="#DejaVuSans-30" x="127.246094"/>
      </g>
     </g>
    </g>
    <g id="ytick_6">
     <g id="line2d_21">
      <path d="M 60.02524 30.516541 
L 457.79976 30.516541 
" clip-path="url(#p5efdcb391f)" style="fill: none; stroke-dasharray: 3.7,1.6; stroke-dashoffset: 0; stroke: #b0b0b0"/>
     </g>
     <g id="line2d_22">
      <g>
       <use xlink:href="#m5eeb9c8889" x="60.02524" y="30.516541" style="stroke: #000000; stroke-width: 0.8"/>
      </g>
     </g>
     <g id="text_12">
      <!-- 500 -->
      <g transform="translate(22.48524 36.595291) scale(0.16 -0.16)">
       <use xlink:href="#DejaVuSans-35"/>
       <use xlink:href="#DejaVuSans-30" x="63.623047"/>
       <use xlink:href="#DejaVuSans-30" x="127.246094"/>
      </g>
     </g>
    </g>
    <g id="text_13">
     <!-- Queries complete -->
     <g transform="translate(15.15774 232.912) rotate(-90) scale(0.16 -0.16)">
      <defs>
       <path id="DejaVuSans-51" d="M 2522 4238 
Q 1834 4238 1429 3725 
Q 1025 3213 1025 2328 
Q 1025 1447 1429 934 
Q 1834 422 2522 422 
Q 3209 422 3611 934 
Q 4013 1447 4013 2328 
Q 4013 3213 3611 3725 
Q 3209 4238 2522 4238 
z
M 3406 84 
L 4238 -825 
L 3475 -825 
L 2784 -78 
Q 2681 -84 2626 -87 
Q 2572 -91 2522 -91 
Q 1538 -91 948 567 
Q 359 1225 359 2328 
Q 359 3434 948 4092 
Q 1538 4750 2522 4750 
Q 3503 4750 4090 4092 
Q 4678 3434 4678 2328 
Q 4678 1516 4351 937 
Q 4025 359 3406 84 
z
" transform="scale(0.015625)"/>
       <path id="DejaVuSans-75" d="M 544 1381 
L 544 3500 
L 1119 3500 
L 1119 1403 
Q 1119 906 1312 657 
Q 1506 409 1894 409 
Q 2359 409 2629 706 
Q 2900 1003 2900 1516 
L 2900 3500 
L 3475 3500 
L 3475 0 
L 2900 0 
L 2900 538 
Q 2691 219 2414 64 
Q 2138 -91 1772 -91 
Q 1169 -91 856 284 
Q 544 659 544 1381 
z
M 1991 3584 
L 1991 3584 
z
" transform="scale(0.015625)"/>
       <path id="DejaVuSans-72" d="M 2631 2963 
Q 2534 3019 2420 3045 
Q 2306 3072 2169 3072 
Q 1681 3072 1420 2755 
Q 1159 2438 1159 1844 
L 1159 0 
L 581 0 
L 581 3500 
L 1159 3500 
L 1159 2956 
Q 1341 3275 1631 3429 
Q 1922 3584 2338 3584 
Q 2397 3584 2469 3576 
Q 2541 3569 2628 3553 
L 2631 2963 
z
" transform="scale(0.015625)"/>
       <path id="DejaVuSans-73" d="M 2834 3397 
L 2834 2853 
Q 2591 2978 2328 3040 
Q 2066 3103 1784 3103 
Q 1356 3103 1142 2972 
Q 928 2841 928 2578 
Q 928 2378 1081 2264 
Q 1234 2150 1697 2047 
L 1894 2003 
Q 2506 1872 2764 1633 
Q 3022 1394 3022 966 
Q 3022 478 2636 193 
Q 2250 -91 1575 -91 
Q 1294 -91 989 -36 
Q 684 19 347 128 
L 347 722 
Q 666 556 975 473 
Q 1284 391 1588 391 
Q 1994 391 2212 530 
Q 2431 669 2431 922 
Q 2431 1156 2273 1281 
Q 2116 1406 1581 1522 
L 1381 1569 
Q 847 1681 609 1914 
Q 372 2147 372 2553 
Q 372 3047 722 3315 
Q 1072 3584 1716 3584 
Q 2034 3584 2315 3537 
Q 2597 3491 2834 3397 
z
" transform="scale(0.015625)"/>
       <path id="DejaVuSans-63" d="M 3122 3366 
L 3122 2828 
Q 2878 2963 2633 3030 
Q 2388 3097 2138 3097 
Q 1578 3097 1268 2742 
Q 959 2388 959 1747 
Q 959 1106 1268 751 
Q 1578 397 2138 397 
Q 2388 397 2633 464 
Q 2878 531 3122 666 
L 3122 134 
Q 2881 22 2623 -34 
Q 2366 -91 2075 -91 
Q 1284 -91 818 406 
Q 353 903 353 1747 
Q 353 2603 823 3093 
Q 1294 3584 2113 3584 
Q 2378 3584 2631 3529 
Q 2884 3475 3122 3366 
z
" transform="scale(0.015625)"/>
       <path id="DejaVuSans-6f" d="M 1959 3097 
Q 1497 3097 1228 2736 
Q 959 2375 959 1747 
Q 959 1119 1226 758 
Q 1494 397 1959 397 
Q 2419 397 2687 759 
Q 2956 1122 2956 1747 
Q 2956 2369 2687 2733 
Q 2419 3097 1959 3097 
z
M 1959 3584 
Q 2709 3584 3137 3096 
Q 3566 2609 3566 1747 
Q 3566 888 3137 398 
Q 2709 -91 1959 -91 
Q 1206 -91 779 398 
Q 353 888 353 1747 
Q 353 2609 779 3096 
Q 1206 3584 1959 3584 
z
" transform="scale(0.015625)"/>
       <path id="DejaVuSans-70" d="M 1159 525 
L 1159 -1331 
L 581 -1331 
L 581 3500 
L 1159 3500 
L 1159 2969 
Q 1341 3281 1617 3432 
Q 1894 3584 2278 3584 
Q 2916 3584 3314 3078 
Q 3713 2572 3713 1747 
Q 3713 922 3314 415 
Q 2916 -91 2278 -91 
Q 1894 -91 1617 61 
Q 1341 213 1159 525 
z
M 3116 1747 
Q 3116 2381 2855 2742 
Q 2594 3103 2138 3103 
Q 1681 3103 1420 2742 
Q 1159 2381 1159 1747 
Q 1159 1113 1420 752 
Q 1681 391 2138 391 
Q 2594 391 2855 752 
Q 3116 1113 3116 1747 
z
" transform="scale(0.015625)"/>
       <path id="DejaVuSans-6c" d="M 603 4863 
L 1178 4863 
L 1178 0 
L 603 0 
L 603 4863 
z
" transform="scale(0.015625)"/>
       <path id="DejaVuSans-74" d="M 1172 4494 
L 1172 3500 
L 2356 3500 
L 2356 3053 
L 1172 3053 
L 1172 1153 
Q 1172 725 1289 603 
Q 1406 481 1766 481 
L 2356 481 
L 2356 0 
L 1766 0 
Q 1100 0 847 248 
Q 594 497 594 1153 
L 594 3053 
L 172 3053 
L 172 3500 
L 594 3500 
L 594 4494 
L 1172 4494 
z
" transform="scale(0.015625)"/>
      </defs>
      <use xlink:href="#DejaVuSans-51"/>
      <use xlink:href="#DejaVuSans-75" x="78.710938"/>
      <use xlink:href="#DejaVuSans-65" x="142.089844"/>
      <use xlink:href="#DejaVuSans-72" x="203.613281"/>
      <use xlink:href="#DejaVuSans-69" x="244.726562"/>
      <use xlink:href="#DejaVuSans-65" x="272.509766"/>
      <use xlink:href="#DejaVuSans-73" x="334.033203"/>
      <use xlink:href="#DejaVuSans-20" x="386.132812"/>
      <use xlink:href="#DejaVuSans-63" x="417.919922"/>
      <use xlink:href="#DejaVuSans-6f" x="472.900391"/>
      <use xlink:href="#DejaVuSans-6d" x="534.082031"/>
      <use xlink:href="#DejaVuSans-70" x="631.494141"/>
      <use xlink:href="#DejaVuSans-6c" x="694.970703"/>
      <use xlink:href="#DejaVuSans-65" x="722.753906"/>
      <use xlink:href="#DejaVuSans-74" x="784.277344"/>
      <use xlink:href="#DejaVuSans-65" x="823.486328"/>
     </g>
    </g>
   </g>
   <g id="line2d_23">
    <path d="M 78.1059 288.037009 
L 78.189482 287.521968 
L 79.669785 285.976845 
L 79.759813 285.461804 
L 82.132776 284.946763 
L 82.246194 284.431723 
L 86.549757 283.916682 
L 87.10711 283.401641 
L 89.647912 282.8866 
L 90.187434 282.371559 
L 90.194054 281.856518 
L 90.688236 281.341477 
L 90.97756 280.826436 
L 90.980822 280.311395 
L 91.632696 279.281313 
L 93.723724 278.766272 
L 94.230428 278.251231 
L 98.376918 277.73619 
L 98.680477 276.706108 
L 99.230751 276.191068 
L 99.324245 275.160986 
L 103.069719 274.645945 
L 103.613167 274.130904 
L 107.124599 273.615863 
L 107.311079 272.585781 
L 107.784529 272.07074 
L 111.88631 271.040658 
L 112.353648 270.525617 
L 114.577129 270.010576 
L 115.018736 269.495535 
L 117.066441 268.980494 
L 117.537915 268.465453 
L 117.544337 267.435372 
L 119.924919 266.920331 
L 122.990817 266.40529 
L 124.291395 264.860167 
L 124.727627 264.345126 
L 124.811736 263.830085 
L 125.167111 263.315044 
L 125.171079 262.800003 
L 125.509653 262.284962 
L 126.140449 261.769921 
L 126.261121 261.25488 
L 126.782458 260.739839 
L 131.997736 260.224798 
L 132.091307 259.709758 
L 134.304325 259.194717 
L 134.820176 258.679676 
L 134.825882 258.164635 
L 136.839047 257.649594 
L 138.202844 257.134553 
L 138.459086 256.619512 
L 140.584549 256.104471 
L 140.589565 255.58943 
L 141.021949 255.074389 
L 141.026654 254.559348 
L 141.326308 254.044307 
L 142.47801 253.529266 
L 143.940101 253.014225 
L 145.025116 252.499184 
L 145.094457 251.984144 
L 146.260655 251.469103 
L 146.325734 250.954062 
L 148.099744 250.439021 
L 148.104297 249.92398 
L 149.242859 249.408939 
L 149.419212 248.893898 
L 149.472998 248.378857 
L 150.088299 247.348775 
L 150.767121 245.803652 
L 151.807108 245.288611 
L 152.133823 244.77357 
L 152.137282 244.258529 
L 152.429668 243.743489 
L 152.490806 243.228448 
L 152.685799 242.713407 
L 154.736284 242.198366 
L 155.069102 241.683325 
L 155.128511 241.168284 
L 155.543818 240.653243 
L 155.610966 240.138202 
L 157.053419 239.623161 
L 157.762938 238.593079 
L 159.783144 237.562997 
L 160.159678 237.047956 
L 162.090519 236.532915 
L 163.302368 236.017874 
L 163.36359 235.502834 
L 163.773226 234.472752 
L 166.365452 233.44267 
L 167.00203 232.412588 
L 167.269558 231.897547 
L 167.518031 229.837383 
L 167.810564 229.322342 
L 167.813373 228.807301 
L 168.313447 227.777219 
L 170.176568 227.262179 
L 171.437801 226.747138 
L 171.44274 226.232097 
L 171.769645 225.717056 
L 173.233667 225.202015 
L 173.852303 224.171933 
L 175.017278 223.656892 
L 175.433458 223.141851 
L 175.52506 222.111769 
L 175.775232 221.596728 
L 176.832739 221.081687 
L 176.932474 220.566646 
L 178.552791 220.051605 
L 180.591832 219.536564 
L 181.57822 219.021524 
L 182.972538 218.506483 
L 183.098891 217.476401 
L 184.279934 216.96136 
L 184.284742 216.446319 
L 184.481938 215.931278 
L 184.857712 215.416237 
L 186.0293 214.901196 
L 186.081984 214.386155 
L 186.436996 213.871114 
L 187.649201 213.356073 
L 187.711545 212.325991 
L 188.758333 211.81095 
L 190.740901 211.295909 
L 191.637307 210.265828 
L 193.336703 209.750787 
L 193.540939 209.235746 
L 195.202279 208.720705 
L 195.520789 208.205664 
L 196.855748 207.690623 
L 197.215515 207.175582 
L 198.525187 206.660541 
L 198.916732 205.630459 
L 198.981256 205.115418 
L 200.099565 204.600377 
L 200.159642 204.085336 
L 202.124535 203.570295 
L 202.67543 202.540214 
L 203.753815 202.025173 
L 205.349255 200.995091 
L 205.42052 200.48005 
L 206.532442 198.934927 
L 207.665191 198.419886 
L 207.67155 197.904845 
L 209.415486 197.389804 
L 210.639874 196.874763 
L 210.867418 196.359722 
L 214.872267 194.299559 
L 215.067064 193.784518 
L 216.104136 193.269477 
L 218.307882 192.754436 
L 218.384318 192.239395 
L 219.067851 191.209313 
L 221.134751 190.694272 
L 221.69665 189.66419 
L 223.629379 189.149149 
L 223.897222 188.634108 
L 224.948508 188.119067 
L 227.530226 187.088985 
L 227.907754 186.573945 
L 227.912988 186.058904 
L 228.24638 185.543863 
L 229.684045 185.028822 
L 229.748275 184.513781 
L 231.713236 183.483699 
L 232.292745 182.453617 
L 232.408383 181.423535 
L 232.715647 180.908494 
L 233.862755 180.393453 
L 234.067807 179.363371 
L 234.172426 178.33329 
L 234.505112 177.818249 
L 234.607887 176.788167 
L 236.579196 176.273126 
L 237.019957 175.243044 
L 237.512633 174.212962 
L 237.592558 173.697921 
L 237.939281 173.18288 
L 239.310793 172.667839 
L 239.556655 172.152798 
L 242.313511 171.122716 
L 242.384835 170.607675 
L 242.722632 170.092635 
L 243.717513 169.577594 
L 243.782522 168.547512 
L 244.087505 168.032471 
L 245.32201 167.51743 
L 245.384997 167.002389 
L 246.519223 166.487348 
L 246.524312 165.972307 
L 246.899705 165.457266 
L 248.347434 164.942225 
L 248.424475 163.912143 
L 248.770946 163.397102 
L 249.847173 162.882061 
L 250.692167 161.336939 
L 252.071242 160.821898 
L 253.123263 160.306857 
L 253.40683 159.791816 
L 255.883198 159.276775 
L 257.536884 158.761734 
L 257.554296 158.246693 
L 257.995572 157.731652 
L 260.771541 157.216611 
L 260.864951 156.70157 
L 261.399437 156.186529 
L 262.208121 155.156447 
L 262.703019 154.641406 
L 265.583041 154.126365 
L 267.446957 153.611325 
L 268.239047 152.581243 
L 268.605161 152.066202 
L 268.968437 151.03612 
L 269.059182 150.521079 
L 270.898753 150.006038 
L 271.391107 149.490997 
L 271.499878 148.975956 
L 273.538499 148.460915 
L 273.976923 147.945874 
L 275.906914 147.430833 
L 277.06493 146.915792 
L 277.473912 146.400751 
L 280.126059 145.88571 
L 280.505083 145.37067 
L 281.706089 144.855629 
L 283.767209 144.340588 
L 284.217588 143.825547 
L 284.293806 143.310506 
L 284.776298 142.795465 
L 286.632719 142.280424 
L 286.793895 141.250342 
L 288.145741 140.735301 
L 288.882229 139.705219 
L 291.481057 139.190178 
L 291.826401 138.675137 
L 291.907804 138.160096 
L 294.542234 137.645055 
L 294.62999 137.130015 
L 294.973204 136.614974 
L 295.172999 136.099933 
L 295.176599 135.584892 
L 297.778643 135.069851 
L 297.871919 134.55481 
L 303.345527 133.524728 
L 306.81084 132.494646 
L 307.200387 131.979605 
L 307.284873 131.464564 
L 310.098057 130.949523 
L 311.344629 130.434482 
L 312.390031 129.404401 
L 312.711714 128.88936 
L 315.308772 128.374319 
L 315.674378 127.859278 
L 318.244551 127.344237 
L 321.39606 126.829196 
L 321.841905 126.314155 
L 321.918198 125.284073 
L 322.300277 124.769032 
L 325.249087 124.253991 
L 327.369945 123.73895 
L 330.057366 123.223909 
L 332.011153 122.708868 
L 332.097355 122.193827 
L 332.488378 121.678786 
L 334.824898 121.163746 
L 337.849677 120.648705 
L 339.650142 120.133664 
L 342.194021 119.618623 
L 343.333178 119.103582 
L 343.419042 118.0735 
L 345.268784 117.558459 
L 345.983529 116.528377 
L 345.986564 116.013336 
L 347.420282 115.498295 
L 347.70175 114.983254 
L 348.921351 114.468213 
L 349.273534 113.953172 
L 349.276879 113.438131 
L 349.576493 112.923091 
L 349.63377 112.40805 
L 350.672497 109.832845 
L 352.253154 109.317804 
L 352.562141 108.802763 
L 353.850391 108.287722 
L 353.948799 107.25764 
L 354.491338 106.742599 
L 354.639865 105.197476 
L 356.871642 104.682436 
L 356.965827 104.167395 
L 357.980707 103.137313 
L 358.169625 101.59219 
L 358.632692 101.077149 
L 358.636882 100.562108 
L 359.68402 99.532026 
L 359.691619 98.501944 
L 363.148858 97.986903 
L 363.24247 96.956821 
L 363.243904 96.441781 
L 366.133003 95.411699 
L 370.866637 94.896658 
L 371.262309 94.381617 
L 372.35009 93.866576 
L 373.449726 91.806412 
L 373.510923 90.77633 
L 373.861118 90.261289 
L 375.8051 89.746248 
L 377.097866 89.231207 
L 377.164919 88.716166 
L 377.551669 88.201126 
L 379.599441 87.171044 
L 381.601648 86.656003 
L 382.903845 86.140962 
L 383.289237 85.625921 
L 383.357658 85.11088 
L 383.970556 84.080798 
L 384.044407 83.565757 
L 384.422647 83.050716 
L 384.425692 82.535675 
L 387.052754 82.020634 
L 387.137004 81.505593 
L 387.594378 80.990552 
L 388.9324 80.475511 
L 389.486533 79.44543 
L 393.307837 77.900307 
L 393.625303 77.385266 
L 394.657149 76.870225 
L 395.340069 75.840143 
L 395.639764 75.325102 
L 396.554306 74.810061 
L 397.834461 74.29502 
L 398.528568 73.264938 
L 398.610514 72.234856 
L 398.851763 71.719816 
L 399.83272 71.204775 
L 400.3278 70.174693 
L 400.389634 69.659652 
L 400.697061 69.144611 
L 401.931298 68.62957 
L 403.4854 68.114529 
L 404.279151 67.599488 
L 405.661001 67.084447 
L 406.063165 66.569406 
L 406.313208 66.054365 
L 406.359969 65.539324 
L 406.540392 65.024283 
L 408.039528 64.509242 
L 408.404338 63.994202 
L 408.512951 62.96412 
L 410.124038 62.449079 
L 410.174254 61.934038 
L 411.358265 61.418997 
L 411.435471 60.903956 
L 412.375467 60.388915 
L 414.558399 59.358833 
L 414.964536 58.843792 
L 415.08429 57.81371 
L 415.393256 57.298669 
L 416.881448 56.783628 
L 417.241012 56.268587 
L 419.468889 55.238506 
L 419.53181 54.208424 
L 419.740255 53.693383 
L 420.801116 53.178342 
L 421.118905 52.663301 
L 421.177856 52.14826 
L 421.506422 51.633219 
L 422.497544 51.118178 
L 422.542547 50.603137 
L 423.257862 50.088096 
L 425.603375 49.058014 
L 425.970807 48.542973 
L 426.028971 48.027932 
L 426.397833 47.512892 
L 428.434962 46.997851 
L 428.520899 45.967769 
L 428.854915 45.452728 
L 428.913834 44.422646 
L 430.508165 43.907605 
L 430.792341 43.392564 
L 431.801601 42.877523 
L 431.904687 41.847441 
L 432.396139 41.3324 
L 433.994745 40.817359 
L 436.338402 39.787277 
L 436.728138 39.272237 
L 436.732102 38.757196 
L 437.16062 38.242155 
L 438.273687 37.727114 
L 438.575163 37.212073 
L 439.473261 36.697032 
L 439.7191 36.181991 
L 439.7191 36.181991 
" clip-path="url(#p5efdcb391f)" style="fill: none; stroke: #1f77b4; stroke-width: 3; stroke-linecap: square"/>
   </g>
   <g id="line2d_24">
    <path d="M 78.1059 288.037009 
L 78.221591 287.521968 
L 79.289798 285.976845 
L 79.334213 285.461804 
L 79.891726 284.946763 
L 79.988634 284.431723 
L 80.654294 283.916682 
L 80.874199 283.401641 
L 81.542679 282.8866 
L 81.82204 282.371559 
L 81.829472 281.856518 
L 82.320676 280.826436 
L 82.326919 280.311395 
L 82.909601 279.281313 
L 83.586057 278.766272 
L 83.839105 278.251231 
L 84.507363 277.73619 
L 84.709847 276.706108 
L 84.965567 276.191068 
L 85.053181 275.160986 
L 85.716554 274.645945 
L 86.008954 274.130904 
L 86.672319 273.615863 
L 86.801414 273.100822 
L 87.387752 272.07074 
L 88.5331 271.040658 
L 88.859434 270.525617 
L 89.397116 270.010576 
L 89.726246 269.495535 
L 90.280354 268.980494 
L 90.604498 268.465453 
L 90.616152 267.435372 
L 91.707877 266.40529 
L 93.516212 263.315044 
L 93.52327 262.800003 
L 94.435873 260.739839 
L 95.079953 260.224798 
L 95.157142 259.709758 
L 95.632903 259.194717 
L 95.939502 258.679676 
L 95.946979 258.164635 
L 97.006558 257.134553 
L 97.273803 256.619512 
L 97.917199 256.104471 
L 97.924192 255.58943 
L 98.127518 255.074389 
L 98.13484 254.559348 
L 98.334488 254.044307 
L 99.09325 253.529266 
L 100.153529 252.499184 
L 100.216167 251.984144 
L 100.762323 251.469103 
L 100.825779 250.954062 
L 101.476849 250.439021 
L 101.486221 249.92398 
L 101.914098 249.408939 
L 102.188373 248.893898 
L 102.212279 248.378857 
L 102.980061 246.833734 
L 103.742849 245.803652 
L 104.678783 245.288611 
L 104.963456 244.77357 
L 104.970832 244.258529 
L 105.187427 243.743489 
L 105.213081 243.228448 
L 105.453967 242.713407 
L 106.086092 242.198366 
L 106.548644 241.168284 
L 106.868806 240.653243 
L 106.906231 240.138202 
L 107.572627 239.623161 
L 108.273051 238.593079 
L 110.148077 237.562997 
L 110.386957 237.047956 
L 111.288773 236.017874 
L 111.357485 235.502834 
L 112.289184 233.957711 
L 112.710195 233.44267 
L 113.574034 231.382506 
L 113.638968 230.867465 
L 114.016879 230.352424 
L 114.078108 229.837383 
L 114.337136 229.322342 
L 114.343261 228.807301 
L 114.848355 227.777219 
L 115.894148 226.747138 
L 115.902335 226.232097 
L 116.139774 225.717056 
L 116.601856 225.202015 
L 117.033118 224.171933 
L 117.372659 223.656892 
L 118.050765 222.111769 
L 118.300534 221.596728 
L 119.204273 221.081687 
L 119.283105 220.566646 
L 120.171185 219.536564 
L 121.033895 219.021524 
L 121.497631 218.506483 
L 121.569992 217.991442 
L 121.847247 217.476401 
L 122.298006 216.96136 
L 122.304198 216.446319 
L 122.786846 215.416237 
L 123.633956 214.901196 
L 123.705085 214.386155 
L 123.964345 213.871114 
L 124.436009 213.356073 
L 124.510407 212.325991 
L 125.715823 210.780869 
L 125.941741 210.265828 
L 126.348294 209.750787 
L 126.551143 209.235746 
L 127.00007 208.720705 
L 127.184932 208.205664 
L 127.567117 207.690623 
L 127.80891 207.175582 
L 128.2018 206.660541 
L 128.621024 205.630459 
L 128.659032 205.115418 
L 129.373532 204.600377 
L 129.430335 204.085336 
L 129.889059 203.570295 
L 130.311261 202.540214 
L 130.630196 202.025173 
L 132.140661 200.995091 
L 132.195072 200.48005 
L 132.74194 199.449968 
L 133.314114 198.419886 
L 133.319695 197.904845 
L 134.15438 196.874763 
L 134.374817 196.359722 
L 135.818112 195.32964 
L 136.726942 194.299559 
L 136.921425 193.784518 
L 137.680974 193.269477 
L 138.137313 192.754436 
L 138.219723 192.239395 
L 138.63652 191.209313 
L 139.094417 190.694272 
L 139.44993 189.66419 
L 139.91125 189.149149 
L 140.098324 188.634108 
L 140.990945 188.119067 
L 141.406492 187.604026 
L 142.143554 187.088985 
L 142.351064 186.573945 
L 142.359198 186.058904 
L 142.571183 185.543863 
L 142.979086 185.028822 
L 143.218072 184.513781 
L 144.680905 183.483699 
L 145.112676 182.453617 
L 145.164921 181.938576 
L 145.674575 180.908494 
L 146.094193 180.393453 
L 146.289044 179.878412 
L 146.323593 178.84833 
L 146.750237 177.818249 
L 146.846485 176.788167 
L 147.328782 176.273126 
L 147.843369 175.243044 
L 148.304702 174.212962 
L 148.362201 173.697921 
L 148.649572 173.18288 
L 149.075447 172.667839 
L 149.281896 172.152798 
L 150.066342 171.122716 
L 150.126339 170.607675 
L 150.34768 170.092635 
L 151.015969 169.577594 
L 151.10139 168.547512 
L 151.315881 168.032471 
L 151.797509 167.51743 
L 152.06784 167.002389 
L 152.514456 166.487348 
L 152.523424 165.972307 
L 152.768669 165.457266 
L 153.196122 164.942225 
L 153.210729 164.427184 
L 154.32169 161.85198 
L 154.526915 161.336939 
L 155.332032 160.306857 
L 155.537209 159.791816 
L 156.444095 158.761734 
L 156.450239 158.246693 
L 156.625028 157.731652 
L 157.091783 157.216611 
L 157.159811 156.70157 
L 158.100548 154.641406 
L 158.928155 153.611325 
L 160.061072 151.03612 
L 160.109158 150.521079 
L 160.580131 150.006038 
L 161.027876 148.975956 
L 161.441041 148.460915 
L 161.669015 147.945874 
L 162.061173 147.430833 
L 162.718851 146.915792 
L 162.899345 146.400751 
L 163.355309 145.88571 
L 163.552575 145.37067 
L 164.201357 144.340588 
L 164.857444 142.795465 
L 165.50874 141.765383 
L 165.569317 141.250342 
L 165.893573 140.735301 
L 166.310333 139.705219 
L 166.768193 139.190178 
L 166.995573 138.160096 
L 167.462364 137.645055 
L 167.539045 137.130015 
L 167.991843 136.099933 
L 167.997411 135.584892 
L 168.464062 135.069851 
L 168.524588 134.55481 
L 170.211369 132.494646 
L 170.643532 131.464564 
L 171.099925 130.949523 
L 171.900772 130.434482 
L 172.603156 128.88936 
L 173.063882 128.374319 
L 173.215195 127.859278 
L 174.137241 126.829196 
L 174.537786 125.799114 
L 174.543369 125.284073 
L 174.738663 124.769032 
L 176.493858 122.708868 
L 176.572338 122.193827 
L 176.771916 121.678786 
L 178.49162 119.618623 
L 179.320638 119.103582 
L 179.374859 118.0735 
L 179.795917 117.558459 
L 180.220606 116.528377 
L 180.226162 116.013336 
L 180.68602 115.498295 
L 180.825821 114.983254 
L 181.447003 113.953172 
L 181.45206 113.438131 
L 181.651164 112.923091 
L 181.673417 112.40805 
L 182.067783 111.377968 
L 182.834796 109.832845 
L 183.256028 109.317804 
L 183.497708 108.802763 
L 184.250372 108.287722 
L 184.305551 107.25764 
L 184.575769 106.742599 
L 184.656181 105.197476 
L 185.067124 104.682436 
L 185.711388 103.137313 
L 185.750348 102.622272 
L 186.592086 101.077149 
L 186.598348 100.562108 
L 187.126619 99.532026 
L 187.13572 98.501944 
L 187.596698 97.986903 
L 187.659904 96.441781 
L 188.572298 95.92674 
L 189.253505 95.411699 
L 189.674756 94.896658 
L 189.893449 94.381617 
L 190.526739 93.866576 
L 190.9881 92.836494 
L 191.510257 91.806412 
L 191.577366 90.77633 
L 191.817521 90.261289 
L 192.24505 89.746248 
L 193.036223 89.231207 
L 193.099072 88.716166 
L 193.364234 88.201126 
L 194.713591 87.171044 
L 195.833426 85.625921 
L 195.881997 85.11088 
L 196.339893 84.080798 
L 196.384313 83.565757 
L 196.649996 83.050716 
L 196.655587 82.535675 
L 197.109614 82.020634 
L 197.175583 81.505593 
L 197.398132 80.990552 
L 197.813336 80.475511 
L 198.237847 79.44543 
L 198.612773 78.930389 
L 199.255483 78.415348 
L 199.713032 77.900307 
L 199.922932 77.385266 
L 200.258439 76.870225 
L 200.69555 75.840143 
L 200.978698 75.325102 
L 201.760541 74.810061 
L 202.162013 74.29502 
L 202.603425 73.264938 
L 202.654344 72.749897 
L 203.112959 71.719816 
L 204.020865 71.204775 
L 204.477955 70.174693 
L 204.518774 69.659652 
L 204.751539 69.144611 
L 205.736304 68.114529 
L 206.923283 66.054365 
L 206.979573 65.539324 
L 207.26282 65.024283 
L 207.739678 64.509242 
L 208.226199 63.479161 
L 208.279342 62.96412 
L 208.77135 62.449079 
L 208.882485 61.934038 
L 209.344572 61.418997 
L 209.41196 60.903956 
L 210.301152 60.388915 
L 211.15328 59.358833 
L 211.608804 58.328751 
L 211.647347 57.81371 
L 211.894601 57.298669 
L 212.289262 56.783628 
L 212.502609 56.268587 
L 213.344654 55.238506 
L 213.406129 54.208424 
L 213.611703 53.693383 
L 214.002344 53.178342 
L 214.969899 51.118178 
L 215.04339 50.603137 
L 215.777968 50.088096 
L 216.154352 49.573055 
L 216.82715 49.058014 
L 217.004183 48.542973 
L 217.051822 48.027932 
L 217.29426 47.512892 
L 217.740579 46.997851 
L 217.988387 44.937687 
L 218.230503 44.422646 
L 218.689909 43.907605 
L 218.827366 43.392564 
L 219.657908 42.877523 
L 219.784218 41.847441 
L 220.06237 41.3324 
L 220.923137 40.302318 
L 221.620555 39.787277 
L 221.824573 39.272237 
L 221.830143 38.757196 
L 222.072587 38.242155 
L 222.775409 37.727114 
L 223.026809 37.212073 
L 223.784733 36.697032 
L 224.023898 36.181991 
L 224.023898 36.181991 
" clip-path="url(#p5efdcb391f)" style="fill: none; stroke: #ff7f0e; stroke-width: 3; stroke-linecap: square"/>
   </g>
   <g id="patch_3">
    <path d="M 60.02524 300.62976 
L 60.02524 23.58924 
" style="fill: none; stroke: #000000; stroke-width: 0.8; stroke-linejoin: miter; stroke-linecap: square"/>
   </g>
   <g id="patch_4">
    <path d="M 457.79976 300.62976 
L 457.79976 23.58924 
" style="fill: none; stroke: #000000; stroke-width: 0.8; stroke-linejoin: miter; stroke-linecap: square"/>
   </g>
   <g id="patch_5">
    <path d="M 60.02524 300.62976 
L 457.79976 300.62976 
" style="fill: none; stroke: #000000; stroke-width: 0.8; stroke-linejoin: miter; stroke-linecap: square"/>
   </g>
   <g id="patch_6">
    <path d="M 60.02524 23.58924 
L 457.79976 23.58924 
" style="fill: none; stroke: #000000; stroke-width: 0.8; stroke-linejoin: miter; stroke-linecap: square"/>
   </g>
   <g id="text_14">
    <!-- PostgreSQL vs Bao Optimizer -->
    <g transform="translate(118.9295 17.58924) scale(0.192 -0.192)">
     <defs>
      <path id="DejaVuSans-50" d="M 1259 4147 
L 1259 2394 
L 2053 2394 
Q 2494 2394 2734 2622 
Q 2975 2850 2975 3272 
Q 2975 3691 2734 3919 
Q 2494 4147 2053 4147 
L 1259 4147 
z
M 628 4666 
L 2053 4666 
Q 2838 4666 3239 4311 
Q 3641 3956 3641 3272 
Q 3641 2581 3239 2228 
Q 2838 1875 2053 1875 
L 1259 1875 
L 1259 0 
L 628 0 
L 628 4666 
z
" transform="scale(0.015625)"/>
      <path id="DejaVuSans-67" d="M 2906 1791 
Q 2906 2416 2648 2759 
Q 2391 3103 1925 3103 
Q 1463 3103 1205 2759 
Q 947 2416 947 1791 
Q 947 1169 1205 825 
Q 1463 481 1925 481 
Q 2391 481 2648 825 
Q 2906 1169 2906 1791 
z
M 3481 434 
Q 3481 -459 3084 -895 
Q 2688 -1331 1869 -1331 
Q 1566 -1331 1297 -1286 
Q 1028 -1241 775 -1147 
L 775 -588 
Q 1028 -725 1275 -790 
Q 1522 -856 1778 -856 
Q 2344 -856 2625 -561 
Q 2906 -266 2906 331 
L 2906 616 
Q 2728 306 2450 153 
Q 2172 0 1784 0 
Q 1141 0 747 490 
Q 353 981 353 1791 
Q 353 2603 747 3093 
Q 1141 3584 1784 3584 
Q 2172 3584 2450 3431 
Q 2728 3278 2906 2969 
L 2906 3500 
L 3481 3500 
L 3481 434 
z
" transform="scale(0.015625)"/>
      <path id="DejaVuSans-53" d="M 3425 4513 
L 3425 3897 
Q 3066 4069 2747 4153 
Q 2428 4238 2131 4238 
Q 1616 4238 1336 4038 
Q 1056 3838 1056 3469 
Q 1056 3159 1242 3001 
Q 1428 2844 1947 2747 
L 2328 2669 
Q 3034 2534 3370 2195 
Q 3706 1856 3706 1288 
Q 3706 609 3251 259 
Q 2797 -91 1919 -91 
Q 1588 -91 1214 -16 
Q 841 59 441 206 
L 441 856 
Q 825 641 1194 531 
Q 1563 422 1919 422 
Q 2459 422 2753 634 
Q 3047 847 3047 1241 
Q 3047 1584 2836 1778 
Q 2625 1972 2144 2069 
L 1759 2144 
Q 1053 2284 737 2584 
Q 422 2884 422 3419 
Q 422 4038 858 4394 
Q 1294 4750 2059 4750 
Q 2388 4750 2728 4690 
Q 3069 4631 3425 4513 
z
" transform="scale(0.015625)"/>
      <path id="DejaVuSans-4c" d="M 628 4666 
L 1259 4666 
L 1259 531 
L 3531 531 
L 3531 0 
L 628 0 
L 628 4666 
z
" transform="scale(0.015625)"/>
      <path id="DejaVuSans-76" d="M 191 3500 
L 800 3500 
L 1894 563 
L 2988 3500 
L 3597 3500 
L 2284 0 
L 1503 0 
L 191 3500 
z
" transform="scale(0.015625)"/>
      <path id="DejaVuSans-42" d="M 1259 2228 
L 1259 519 
L 2272 519 
Q 2781 519 3026 730 
Q 3272 941 3272 1375 
Q 3272 1813 3026 2020 
Q 2781 2228 2272 2228 
L 1259 2228 
z
M 1259 4147 
L 1259 2741 
L 2194 2741 
Q 2656 2741 2882 2914 
Q 3109 3088 3109 3444 
Q 3109 3797 2882 3972 
Q 2656 4147 2194 4147 
L 1259 4147 
z
M 628 4666 
L 2241 4666 
Q 2963 4666 3353 4366 
Q 3744 4066 3744 3513 
Q 3744 3084 3544 2831 
Q 3344 2578 2956 2516 
Q 3422 2416 3680 2098 
Q 3938 1781 3938 1306 
Q 3938 681 3513 340 
Q 3088 0 2303 0 
L 628 0 
L 628 4666 
z
" transform="scale(0.015625)"/>
      <path id="DejaVuSans-61" d="M 2194 1759 
Q 1497 1759 1228 1600 
Q 959 1441 959 1056 
Q 959 750 1161 570 
Q 1363 391 1709 391 
Q 2188 391 2477 730 
Q 2766 1069 2766 1631 
L 2766 1759 
L 2194 1759 
z
M 3341 1997 
L 3341 0 
L 2766 0 
L 2766 531 
Q 2569 213 2275 61 
Q 1981 -91 1556 -91 
Q 1019 -91 701 211 
Q 384 513 384 1019 
Q 384 1609 779 1909 
Q 1175 2209 1959 2209 
L 2766 2209 
L 2766 2266 
Q 2766 2663 2505 2880 
Q 2244 3097 1772 3097 
Q 1472 3097 1187 3025 
Q 903 2953 641 2809 
L 641 3341 
Q 956 3463 1253 3523 
Q 1550 3584 1831 3584 
Q 2591 3584 2966 3190 
Q 3341 2797 3341 1997 
z
" transform="scale(0.015625)"/>
      <path id="DejaVuSans-4f" d="M 2522 4238 
Q 1834 4238 1429 3725 
Q 1025 3213 1025 2328 
Q 1025 1447 1429 934 
Q 1834 422 2522 422 
Q 3209 422 3611 934 
Q 4013 1447 4013 2328 
Q 4013 3213 3611 3725 
Q 3209 4238 2522 4238 
z
M 2522 4750 
Q 3503 4750 4090 4092 
Q 4678 3434 4678 2328 
Q 4678 1225 4090 567 
Q 3503 -91 2522 -91 
Q 1538 -91 948 565 
Q 359 1222 359 2328 
Q 359 3434 948 4092 
Q 1538 4750 2522 4750 
z
" transform="scale(0.015625)"/>
      <path id="DejaVuSans-7a" d="M 353 3500 
L 3084 3500 
L 3084 2975 
L 922 459 
L 3084 459 
L 3084 0 
L 275 0 
L 275 525 
L 2438 3041 
L 353 3041 
L 353 3500 
z
" transform="scale(0.015625)"/>
     </defs>
     <use xlink:href="#DejaVuSans-50"/>
     <use xlink:href="#DejaVuSans-6f" x="56.677734"/>
     <use xlink:href="#DejaVuSans-73" x="117.859375"/>
     <use xlink:href="#DejaVuSans-74" x="169.958984"/>
     <use xlink:href="#DejaVuSans-67" x="209.167969"/>
     <use xlink:href="#DejaVuSans-72" x="272.644531"/>
     <use xlink:href="#DejaVuSans-65" x="311.507812"/>
     <use xlink:href="#DejaVuSans-53" x="373.03125"/>
     <use xlink:href="#DejaVuSans-51" x="436.507812"/>
     <use xlink:href="#DejaVuSans-4c" x="515.21875"/>
     <use xlink:href="#DejaVuSans-20" x="570.931641"/>
     <use xlink:href="#DejaVuSans-76" x="602.71875"/>
     <use xlink:href="#DejaVuSans-73" x="661.898438"/>
     <use xlink:href="#DejaVuSans-20" x="713.998047"/>
     <use xlink:href="#DejaVuSans-42" x="745.785156"/>
     <use xlink:href="#DejaVuSans-61" x="814.388672"/>
     <use xlink:href="#DejaVuSans-6f" x="875.667969"/>
     <use xlink:href="#DejaVuSans-20" x="936.849609"/>
     <use xlink:href="#DejaVuSans-4f" x="968.636719"/>
     <use xlink:href="#DejaVuSans-70" x="1047.347656"/>
     <use xlink:href="#DejaVuSans-74" x="1110.824219"/>
     <use xlink:href="#DejaVuSans-69" x="1150.033203"/>
     <use xlink:href="#DejaVuSans-6d" x="1177.816406"/>
     <use xlink:href="#DejaVuSans-69" x="1275.228516"/>
     <use xlink:href="#DejaVuSans-7a" x="1303.011719"/>
     <use xlink:href="#DejaVuSans-65" x="1355.501953"/>
     <use xlink:href="#DejaVuSans-72" x="1417.025391"/>
    </g>
   </g>
   <g id="legend_1">
    <g id="patch_7">
     <path d="M 304.04726 292.62976 
L 446.59976 292.62976 
Q 449.79976 292.62976 449.79976 289.42976 
L 449.79976 220.57476 
Q 449.79976 217.37476 446.59976 217.37476 
L 304.04726 217.37476 
Q 300.84726 217.37476 300.84726 220.57476 
L 300.84726 289.42976 
Q 300.84726 292.62976 304.04726 292.62976 
z
" style="fill: #ffffff; opacity: 0.8; stroke: #cccccc; stroke-linejoin: miter"/>
    </g>
    <g id="PathCollection_2">
     <defs>
      <path id="m3288782263" d="M 0 3.354102 
C 0.889518 3.354102 1.742724 3.000693 2.371708 2.371708 
C 3.000693 1.742724 3.354102 0.889518 3.354102 0 
C 3.354102 -0.889518 3.000693 -1.742724 2.371708 -2.371708 
C 1.742724 -3.000693 0.889518 -3.354102 0 -3.354102 
C -0.889518 -3.354102 -1.742724 -3.000693 -2.371708 -2.371708 
C -3.000693 -1.742724 -3.354102 -0.889518 -3.354102 0 
C -3.354102 0.889518 -3.000693 1.742724 -2.371708 2.371708 
C -1.742724 3.000693 -0.889518 3.354102 0 3.354102 
z
" style="stroke: #ff0000"/>
     </defs>
     <g>
      <use xlink:href="#m3288782263" x="323.24726" y="231.73226" style="fill: #ff0000; stroke: #ff0000"/>
     </g>
    </g>
    <g id="text_15">
     <!-- Training -->
     <g transform="translate(352.04726 235.93226) scale(0.16 -0.16)">
      <defs>
       <path id="DejaVuSans-6e" d="M 3513 2113 
L 3513 0 
L 2938 0 
L 2938 2094 
Q 2938 2591 2744 2837 
Q 2550 3084 2163 3084 
Q 1697 3084 1428 2787 
Q 1159 2491 1159 1978 
L 1159 0 
L 581 0 
L 581 3500 
L 1159 3500 
L 1159 2956 
Q 1366 3272 1645 3428 
Q 1925 3584 2291 3584 
Q 2894 3584 3203 3211 
Q 3513 2838 3513 2113 
z
" transform="scale(0.015625)"/>
      </defs>
      <use xlink:href="#DejaVuSans-54"/>
      <use xlink:href="#DejaVuSans-72" x="46.333984"/>
      <use xlink:href="#DejaVuSans-61" x="87.447266"/>
      <use xlink:href="#DejaVuSans-69" x="148.726562"/>
      <use xlink:href="#DejaVuSans-6e" x="176.509766"/>
      <use xlink:href="#DejaVuSans-69" x="239.888672"/>
      <use xlink:href="#DejaVuSans-6e" x="267.671875"/>
      <use xlink:href="#DejaVuSans-67" x="331.050781"/>
     </g>
    </g>
    <g id="line2d_25">
     <path d="M 307.24726 253.81726 
L 323.24726 253.81726 
L 339.24726 253.81726 
" style="fill: none; stroke: #1f77b4; stroke-width: 3; stroke-linecap: square"/>
    </g>
    <g id="text_16">
     <!-- PostgreSQL -->
     <g transform="translate(352.04726 259.41726) scale(0.16 -0.16)">
      <use xlink:href="#DejaVuSans-50"/>
      <use xlink:href="#DejaVuSans-6f" x="56.677734"/>
      <use xlink:href="#DejaVuSans-73" x="117.859375"/>
      <use xlink:href="#DejaVuSans-74" x="169.958984"/>
      <use xlink:href="#DejaVuSans-67" x="209.167969"/>
      <use xlink:href="#DejaVuSans-72" x="272.644531"/>
      <use xlink:href="#DejaVuSans-65" x="311.507812"/>
      <use xlink:href="#DejaVuSans-53" x="373.03125"/>
      <use xlink:href="#DejaVuSans-51" x="436.507812"/>
      <use xlink:href="#DejaVuSans-4c" x="515.21875"/>
     </g>
    </g>
    <g id="line2d_26">
     <path d="M 307.24726 277.30226 
L 323.24726 277.30226 
L 339.24726 277.30226 
" style="fill: none; stroke: #ff7f0e; stroke-width: 3; stroke-linecap: square"/>
    </g>
    <g id="text_17">
     <!-- Bao -->
     <g transform="translate(352.04726 282.90226) scale(0.16 -0.16)">
      <use xlink:href="#DejaVuSans-42"/>
      <use xlink:href="#DejaVuSans-61" x="68.603516"/>
      <use xlink:href="#DejaVuSans-6f" x="129.882812"/>
     </g>
    </g>
   </g>
  </g>
 </g>
 <defs>
  <clipPath id="p5efdcb391f">
   <rect x="60.02524" y="23.58924" width="397.77452" height="277.04052"/>
  </clipPath>
 </defs>
</svg>
